<svg xmlns="http://www.w3.org/2000/svg" viewBox="0 0 185.79 112.63"><defs><style>.cls-1{isolation:isolate;}.cls-2{fill:#3aaa35;}.cls-3{fill:#93c782;}.cls-4{fill:#65b557;}.cls-5{fill:#e6e9f3;}.cls-6{fill:#ced2e3;}.cls-7{fill:#fff;}.cls-8{fill:#6786a0;}.cls-9{fill:#ded5bd;}.cls-10{fill:#fff8e7;}.cls-11{fill:#3a4169;}.cls-12{fill:#f08cb8;}.cls-12,.cls-15{mix-blend-mode:multiply;}.cls-13{fill:#d9d0d8;}.cls-14{fill:#454544;}.cls-15{fill:#dcc2b2;}</style></defs><title>G12_02</title><g class="cls-1"><g id="Criminal"><polygon class="cls-2" points="185.79 55.11 185.79 59.86 96.32 112.64 96.32 107.89 185.79 55.11"/><polygon class="cls-3" points="96.32 107.89 96.32 112.64 0.22 56.9 0.22 52.16 96.32 107.89"/><polygon class="cls-4" points="96.1 107.9 0 52.17 0 51.91 90.31 0 185.79 55.13 96.25 107.99 96.1 107.9"/><polygon class="cls-2" points="88.37 13.24 38.47 42.24 110.45 83.8 160.36 54.8 88.37 13.24"/><polyline class="cls-5" points="109.76 74.58 42.31 35.64 42.31 42.63 109.76 81.56 109.76 74.58"/><polygon class="cls-6" points="109.76 74.58 109.76 81.56 156.51 54.39 156.51 47.41 109.76 74.58"/><polygon class="cls-7" points="89.07 8.46 42.31 35.64 109.76 74.58 156.51 47.41 89.07 8.46"/><polygon class="cls-8" points="108.95 22.67 70.14 45.23 70.99 45.72 109.81 23.16 108.95 22.67"/><polygon class="cls-8" points="91.34 46.74 111.64 34.95 110.79 34.46 90.49 46.25 91.34 46.74"/><polygon class="cls-8" points="113.79 25.46 74.97 48.02 75.82 48.51 114.64 25.95 113.79 25.46"/><polygon class="cls-8" points="116.2 26.86 77.39 49.41 78.24 49.9 117.05 27.35 116.2 26.86"/><polygon class="cls-8" points="122.91 30.73 84.09 53.28 84.95 53.78 123.76 31.22 122.91 30.73"/><polygon class="cls-8" points="125.33 32.12 86.51 54.68 87.36 55.17 126.18 32.62 125.33 32.12"/><polygon class="cls-8" points="127.74 33.52 88.93 56.08 89.78 56.57 128.59 34.01 127.74 33.52"/><polygon class="cls-8" points="130.16 34.91 91.34 57.47 92.19 57.96 131.01 35.4 130.16 34.91"/><polygon class="cls-8" points="132.57 36.31 93.76 58.86 94.61 59.36 133.43 36.8 132.57 36.31"/><polygon class="cls-8" points="134.99 37.7 96.17 60.26 97.03 60.75 135.84 38.2 134.99 37.7"/><polygon class="cls-8" points="111.37 24.07 72.56 46.62 73.41 47.11 112.22 24.56 111.37 24.07"/><polygon class="cls-8" points="106.54 21.27 67.72 43.83 68.58 44.33 107.39 21.77 106.54 21.27"/><polygon class="cls-8" points="104.12 19.88 65.31 42.44 66.16 42.93 104.97 20.37 104.12 19.88"/><polygon class="cls-8" points="72.56 35.9 92.86 24.1 92 23.61 71.7 35.41 72.56 35.9"/><polygon class="cls-8" points="89.25 15.59 57.86 33.84 60.05 35.1 91.44 16.86 89.25 15.59"/><path class="cls-9" d="M150,48.59l-.1-.06-.11-.07a2.13,2.13,0,0,1-1.24-.23c-.35-.2-.49-.48-.41-.72l-.21-.12-.21-.12a2,2,0,0,1-1.24-.24c-.35-.2-.49-.47-.41-.71l-.21-.13-.22-.12a2.1,2.1,0,0,1-1.23-.23c-.36-.21-.49-.48-.41-.72l-.21-.12-.22-.13a1.94,1.94,0,0,1-1.23-.23c-.36-.2-.5-.48-.41-.71l-.11-.07-.1-.06-1.16-.67-1.15.67-.08.05-.13.07c.09.24,0,.51-.38.7a2,2,0,0,1-1.2.22l-.21.12-.21.12c.1.24,0,.5-.37.7a2,2,0,0,1-1.21.22l-.2.12-.21.12c.09.23,0,.5-.37.7a2,2,0,0,1-1.21.22l-.21.12-.2.12c.09.23,0,.5-.38.7a2,2,0,0,1-1.21.22l-.2.12-.21.12c.1.23,0,.5-.37.7a2,2,0,0,1-1.21.22l-.21.12-.2.12c.09.23,0,.5-.37.7a2,2,0,0,1-1.21.21l-.13.08-.08,0-1.15.66,1.16.67.1.06.11.07a2.11,2.11,0,0,1,1.24.23c.35.21.49.48.41.71l.21.13.22.12a2,2,0,0,1,1.23.24c.35.2.49.48.41.71l.21.13.22.12a2.1,2.1,0,0,1,1.23.23c.35.21.49.48.41.72l.21.12.22.13a2.08,2.08,0,0,1,1.23.23c.36.2.5.48.41.71l.11.07.11.06,1.15.67,1.16-.67.07-.05.13-.07c-.09-.23,0-.5.38-.7a2,2,0,0,1,1.2-.22l.21-.12.21-.12c-.1-.23,0-.5.37-.7a2,2,0,0,1,1.21-.22l.2-.12.21-.12c-.09-.23,0-.5.38-.7a2,2,0,0,1,1.2-.22l.21-.12.2-.12c-.09-.23,0-.5.38-.7a2,2,0,0,1,1.2-.22l.21-.12.21-.12c-.09-.23,0-.5.37-.7a2.09,2.09,0,0,1,1.21-.22l.21-.12.2-.12c-.09-.23,0-.5.38-.7a2.06,2.06,0,0,1,1.2-.22l.13-.07.08,0,1.15-.66Z" transform="translate(-2.87 -3.23)"/><polygon class="cls-10" points="137.69 41.3 125.81 48.21 133.99 52.93 145.87 46.02 137.69 41.3"/><path class="cls-11" d="M112.85,68.89a1.11,1.11,0,0,1-.95.82,2.87,2.87,0,0,1-1.59-.47l-.16-.1a9.77,9.77,0,0,1-3-2.55c-.87-1.16-1.33-2.52-.25-3.68a3.4,3.4,0,0,1,1.82-1.09,4.38,4.38,0,0,1,2.19.12,6.11,6.11,0,0,1,1.19.52l.19.11a1.65,1.65,0,0,1,1.07.07.44.44,0,0,1,.15.12.37.37,0,0,1,.09.19,4.14,4.14,0,0,1,1.54-.17c.08,0-.15.26-.17.28a11.64,11.64,0,0,0-1.31,1,1.55,1.55,0,0,1,.07.23.16.16,0,0,1,0,.09c.43-.25.89-.48,1.35-.7a21.2,21.2,0,0,0,2.08-1c.48-.3.92-.63,1.41-.92a2.9,2.9,0,0,1,1.1-.46c.07,0-.1.31-.27.33a3.19,3.19,0,0,0-1.29.64c-.38.25-.74.51-1.15.75-1.34.77-2.95,1.36-4.2,2.19a.2.2,0,0,1-.16,0s0,0,0-.1a3.86,3.86,0,0,1,.68-.91,2.3,2.3,0,0,0-.23-.4l-.14.08a3.48,3.48,0,0,1-.61.22s-.1.06-.12,0l-.57.13a1.51,1.51,0,0,0,.54.59c.09,0-.05.23-.19.3a3.35,3.35,0,0,1,.21.36,7.13,7.13,0,0,1,.58,1.64c1.16-.88,2.31-1.76,3.57-2.58.88-.58,1.79-1.15,2.7-1.71.37-.23.72-.48,1.09-.71a1.78,1.78,0,0,1,.77-.3h.06c.06,0,0,.15-.12.16a2.39,2.39,0,0,0-1.1.56l-1.08.68c-.89.55-1.79,1.1-2.63,1.68-1.11.78-2.17,1.57-3.23,2.36A3,3,0,0,1,112.85,68.89Zm-.68.49c.37-.06.35-.38.37-.56a4.08,4.08,0,0,0-.12-1.2l-1.11.81s-.1,0-.12,0,0-.08,0-.12l1.17-.87-.06-.26a5.35,5.35,0,0,0-.75-1.73l-.07,0a1.67,1.67,0,0,1,.25,1,.85.85,0,0,1-1,.71,1.79,1.79,0,0,1-.45-.19,3.47,3.47,0,0,1-1-.91c-.29-.39-.64-.81-.43-1.24a1.4,1.4,0,0,1,.86-.67.33.33,0,0,1,0-.15c0-.5.77-.75,1.47-.73a1.39,1.39,0,0,1,.47-.5l.1-.06a6.09,6.09,0,0,0-.63-.3,3.79,3.79,0,0,0-3.62.14c-2.14,1.72.09,4.21,2.08,5.64.28.2.57.41.9.6a4.32,4.32,0,0,0,.84.39,1.74,1.74,0,0,0,.83.15M111,64.84a.71.71,0,0,0-.14-.1l-.09,0c-.34-.16-1.29-.4-1.48,0s.31,1,.68,1.44a3.49,3.49,0,0,0,.7.6l.11.06c.22.11.61.24.62,0a2.58,2.58,0,0,0-.7-1.6c-.06-.06.19-.29.3-.31m3.67-1.74a3.71,3.71,0,0,0-1,.11,1.09,1.09,0,0,1-.22.34,3.48,3.48,0,0,1,.22.36,12.1,12.1,0,0,1,1-.81M112,62.91a.63.63,0,0,0-.5.37s0,0,0,.06a2.13,2.13,0,0,1,.7.22,1.28,1.28,0,0,1,.22.17,2.47,2.47,0,0,1,.28-.28,4.23,4.23,0,0,0-.69-.54m-.94,1.2a1.29,1.29,0,0,1,0-.44H111a2.41,2.41,0,0,0-.71,0c-.21,0-.28.22-.11.32l0,0a2,2,0,0,0,.84.09m.44-.06c.15,0,.3-.06.45-.09l-.09-.06a1.67,1.67,0,0,0-.41-.16,1.12,1.12,0,0,0,.05.31m1.89.51s0-.09,0-.14a3.37,3.37,0,0,0-.29.37l.34-.21s0,0,0,0M113,62.93l-.18,0c.12.1.23.19.33.29l.16-.08a.53.53,0,0,0-.11-.09.76.76,0,0,0-.2-.08m0,.73-.09-.09a.8.8,0,0,0-.2.21l0,0a1.22,1.22,0,0,0,.24-.1m.36-.34h0l0,0s0,0,0,0m-2.12,1.09v0h0" transform="translate(-2.87 -3.23)"/><path class="cls-12" d="M143.62,44.86a6.5,6.5,0,0,0-5.89,0c-1.62.94-1.61,2.48,0,3.42a6.5,6.5,0,0,0,5.89,0C145.26,47.33,145.25,45.81,143.62,44.86ZM143,47.92a5.13,5.13,0,0,1-4.67,0c-1.29-.74-1.3-2,0-2.7a5.11,5.11,0,0,1,4.66,0C144.3,46,144.31,47.18,143,47.92Zm2.67-4.26a11.08,11.08,0,0,0-10.06,0c-2.76,1.6-2.75,4.22,0,5.82a11.06,11.06,0,0,0,10,0C148.5,47.88,148.48,45.26,145.7,43.66Zm-1,5.23a8.86,8.86,0,0,1-8,0c-2.21-1.28-2.22-3.36,0-4.64a8.83,8.83,0,0,1,8,0C146.9,45.53,146.91,47.61,144.71,48.89Z" transform="translate(-2.87 -3.23)"/><path class="cls-2" d="M91.66,99.83l.42.28.2.14.41.26.15.09a4.09,4.09,0,0,0,.39.22l.12.07a4.09,4.09,0,0,0,.44.2c-.13-.4-.16-.52-.26-.76-.21-.47-.33-.75-.7-1.44,0-.06-.06-.12-.09-.19h0c-.32-.59-.85-1.5-1.67-2.78l-.22-.33-.07-.1c-.1-.15-.2-.31-.33-.49l-.06-.09-.22-.32h0a53.52,53.52,0,0,0-3.74-4.84l-1.32-1.5-2-2.27L81.8,84.49l-.27-.3h0l-.71-.81h0l-.19-.21L77.85,80l-2.91-3.29-2.83-3.22-2.59-2.94L67.36,68.1l-.19-.22h0l-.37-.42h0l-.79-.9-.11-.12-.18-.2h0l-.63-.72a1,1,0,0,0-1-.23l-.09,0-.43-.48-.36-.41a7.74,7.74,0,0,0-1.15-1.19,3.25,3.25,0,0,0-.87-.52,1.58,1.58,0,0,0-.94-.11.63.63,0,0,0-.48.44.3.3,0,0,0,0,.1,2,2,0,0,0,.14,1.18,4.64,4.64,0,0,0,.89,1.36l1.22,1.39,0,0a1,1,0,0,0,.1,1l.64.72h0l.17.2.23.26h0l.7.79.36.41,0,0q3.85,4.4,7.72,8.77l5.69,6.46.92,1h0c.13.15.26.29.37.43l0,0h0c.35.4.81.91,1.15,1.31s.75.85,1.07,1.21l2.25,2.56c.6.67,1.38,1.52,2.64,2.74.6.59,1.18,1.12,1.68,1.56h0l0,0,.27.24.12.11.22.19.11.1.18.16.09.07.2.18c1,.8,1.83,1.49,2.6,2h0A.18.18,0,0,1,91.66,99.83Z" transform="translate(-2.87 -3.23)"/><path class="cls-13" d="M65.71,65l-.28-.32-.17-.19-.51-.59-.36-.41a8.26,8.26,0,0,0-1.15-1.19,3.45,3.45,0,0,0-.87-.53,1.66,1.66,0,0,0-.94-.11.64.64,0,0,0-.48.45.24.24,0,0,0,0,.09,1.88,1.88,0,0,0,.14,1.18A4.51,4.51,0,0,0,62,64.77l1.77,2a.68.68,0,0,1-.06-.68,2.08,2.08,0,0,1,1.42-1.23.68.68,0,0,1,.64.15Z" transform="translate(-2.87 -3.23)"/><path class="cls-14" d="M94.54,99.51c-.2-.47-.32-.75-.68-1.44s-.86-1.57-1.76-3a57.47,57.47,0,0,0-4.62-6.19L86.16,87.4l-2-2.27L81.7,82.31l-2.78-3.17L76,75.83,73.2,72.61c-.77-.89-1.8-2.07-2.58-3l-2.15-2.45-2.26-2.59a1,1,0,0,0-.95-.23,3.1,3.1,0,0,0-2.12,1.82,1,1,0,0,0,.09,1l9.83,11.22,5.66,6.48L80,86.38l1.19,1.36L82.26,89l2.24,2.56c.6.67,1.38,1.53,2.63,2.75S89.58,96.53,90,96.9a22.75,22.75,0,0,0,4.78,3.38A6.07,6.07,0,0,0,94.54,99.51Z" transform="translate(-2.87 -3.23)"/><path class="cls-5" d="M94.8,100.28a6.07,6.07,0,0,0-.26-.77c-.2-.47-.32-.75-.68-1.44s-.86-1.57-1.76-3c-.17-.26-.48-.74-.89-1.34l-.23,0a3.09,3.09,0,0,0-2.12,1.83,1.89,1.89,0,0,0,0,.23c.54.49,1,.87,1.21,1.06A22.75,22.75,0,0,0,94.8,100.28Z" transform="translate(-2.87 -3.23)"/><path class="cls-11" d="M92.61,99c.89.64,2,1.5,2.19,1.33s-.58-1.52-.94-2.21c0-.06-.07-.12-.1-.19A3.28,3.28,0,0,0,92.61,99Z" transform="translate(-2.87 -3.23)"/><path class="cls-5" d="M83,83.75l-.36-.42-.4,0a3.57,3.57,0,0,0-2.46,2.12,2.34,2.34,0,0,0-.11.48l.38.42,0,0a1,1,0,0,1,0-.83,3.22,3.22,0,0,1,2.21-1.9A1.13,1.13,0,0,1,83,83.75Z" transform="translate(-2.87 -3.23)"/><path class="cls-5" d="M79,84.36a3.2,3.2,0,0,1,2.2-1.9,1.12,1.12,0,0,1,.72.06l-.19-.21-.18-.21-.41,0a3.61,3.61,0,0,0-2.46,2.12,2.2,2.2,0,0,0-.1.47,1.63,1.63,0,0,1,.17.2l.23.26A1.06,1.06,0,0,1,79,84.36Z" transform="translate(-2.87 -3.23)"/><path class="cls-5" d="M68.28,67l-.37-.42a1.4,1.4,0,0,0-.4,0,3.55,3.55,0,0,0-2.45,2.12,1.68,1.68,0,0,0-.11.47l.38.43,0,0a1,1,0,0,1,0-.83,3.22,3.22,0,0,1,2.2-1.91A1.08,1.08,0,0,1,68.28,67Z" transform="translate(-2.87 -3.23)"/><path class="cls-5" d="M64.28,67.6a3.21,3.21,0,0,1,2.21-1.91,1.11,1.11,0,0,1,.72.07,2,2,0,0,1-.19-.22l-.18-.21a2,2,0,0,0-.41,0A3.58,3.58,0,0,0,64,67.49a1.66,1.66,0,0,0-.1.46l.17.2.23.26A1.08,1.08,0,0,1,64.28,67.6Z" transform="translate(-2.87 -3.23)"/><path class="cls-15" d="M73.28,76c-.06-.14-.1-.22-.2-.43s-.26-.47-.53-.89a19.72,19.72,0,0,0-1.38-1.86c-.1-.1-.23-.25-.4-.45l-.6-.68-.74-.84c-.26-.31-.54-.63-.83-.95l-.87-1-.84-1c-.24-.27-.54-.62-.78-.88l-.64-.74-.68-.77a.26.26,0,0,0-.28-.07.94.94,0,0,0-.64.54.32.32,0,0,0,0,.31l2.94,3.36c.57.64,1.14,1.29,1.7,1.94l.39.44.35.4.32.37c.23.25.45.51.67.77s.42.45.79.82.73.68.87.79a6.77,6.77,0,0,0,1.43,1C73.32,76.11,73.31,76.07,73.28,76Z" transform="translate(-2.87 -3.23)"/><path class="cls-13" d="M73.29,75.55c-.06-.15-.1-.23-.2-.44s-.26-.47-.53-.89a17.71,17.71,0,0,0-1.39-1.85l-.39-.45c-.17-.2-.37-.43-.6-.68s-.47-.55-.74-.85l-.83-1-.87-1-.84-1c-.24-.26-.55-.62-.78-.88l-.64-.74c-.23-.25-.45-.51-.68-.77a.29.29,0,0,0-.28-.07.91.91,0,0,0-.64.55.3.3,0,0,0,0,.3l2.94,3.36,1.7,1.94.39.44.35.41.32.36.67.77c.18.2.41.46.79.82a11.32,11.32,0,0,0,.87.79,6.08,6.08,0,0,0,1.43,1A2.32,2.32,0,0,0,73.29,75.55Z" transform="translate(-2.87 -3.23)"/></g></g></svg>