<svg xmlns="http://www.w3.org/2000/svg" xmlns:xlink="http://www.w3.org/1999/xlink" viewBox="0 0 145.73 145.73"><defs><style>.cls-1{fill:#66b657;stroke:#eaeaea;stroke-miterlimit:10;stroke-width:4px;}.cls-2{fill:#c4cfdb;}.cls-3{opacity:0.5;fill:url(#Sfumatura_senza_nome_34);}.cls-4{fill:#a9b2bd;opacity:0.3;}.cls-5{fill:#eaeaea;}.cls-6{fill:#36a9e1;}.cls-7{fill:#878787;}.cls-8{fill:#706f6f;}.cls-9{fill:#5b5b5a;}.cls-10{opacity:0.2;fill:url(#Sfumatura_senza_nome_3);}.cls-11{fill:url(#linear-gradient);}.cls-12{fill:#e7e0f1;}.cls-13{fill:#dce7f5;}.cls-14{fill:#e5effb;}.cls-15{fill:#575756;}</style><linearGradient id="Sfumatura_senza_nome_34" x1="65.24" y1="58.33" x2="78.86" y2="83.8" gradientUnits="userSpaceOnUse"><stop offset="0" stop-color="#575756"/><stop offset="0.36" stop-color="#fff"/><stop offset="1" stop-color="#fff" stop-opacity="0"/></linearGradient><linearGradient id="Sfumatura_senza_nome_3" x1="-275.22" y1="64.39" x2="-275.22" y2="93.19" gradientTransform="matrix(-1, 0, 0, 1, -189.75, 0)" gradientUnits="userSpaceOnUse"><stop offset="0" stop-color="#fff"/><stop offset="1" stop-opacity="0"/></linearGradient><linearGradient id="linear-gradient" x1="36.41" y1="220.14" x2="37.05" y2="221.25" gradientTransform="matrix(0.91, 0.42, 0.11, 1.15, 21.64, -168.98)" gradientUnits="userSpaceOnUse"><stop offset="0" stop-color="#4653a0"/><stop offset="1" stop-color="#6ec4c2"/></linearGradient></defs><title>G12_12_03</title><g id="Mobile"><circle class="cls-1" cx="72.87" cy="72.87" r="70.87"/><polygon class="cls-2" points="139.1 71.84 136.23 72.48 137.2 73.01 134.73 73.41 135.47 74.08 133.15 74.39 133.77 75.12 130.28 76.15 130.37 77.22 126.47 78.5 126.76 79.44 123.56 80.29 123.58 81.4 119.8 82.61 120.25 83.45 117.03 84.31 117.37 85.22 114.53 85.85 115.22 86.54 111.89 87.48 112.66 88.12 109.44 88.98 110.05 89.73 106.79 90.62 106.8 91.73 104.33 92.13 104.46 93.17 100.84 94.28 101.75 94.84 98.83 95.52 98.4 96.9 95.07 97.84 96 98.38 93.11 99.04 93.42 99.97 90.7 100.52 91.09 101.41 88.14 102.1 88.57 102.96 85.61 103.66 85.94 104.58 82.47 105.6 82.86 106.48 78.64 107.95 77.93 109.51 73.73 110.98 74.31 111.74 18.73 79.84 86.55 42.24 139.1 71.84"/><path class="cls-3" d="M38.88,93.6l86.18-27.48L91.21,47.32,23.81,84.93C23.81,85.23,38.88,93.6,38.88,93.6Z" transform="translate(-5.09 -5.09)"/><g id="_Gruppo_" data-name="&lt;Gruppo&gt;"><path class="cls-4" d="M123.71,78.13l-.07-.08-.13-.12a1.5,1.5,0,0,0-.61-.38L98,63.1a3.62,3.62,0,0,0-3.44.1L55.6,85.64a1.37,1.37,0,0,0-.31.27,1.31,1.31,0,0,0-.24.28C54,88,54.69,89,55.31,89.55a2.14,2.14,0,0,0,.56.44h0l25.26,14.63a3.55,3.55,0,0,0,3.39-.11l38.79-22.37S126.29,80.73,123.71,78.13Z" transform="translate(-5.09 -5.09)"/><path id="_Tracciato_" data-name="&lt;Tracciato&gt;" class="cls-2" d="M122.43,76.49c-1.3-1.32-1.35-.14-1.09,1.29L97.53,64a3.51,3.51,0,0,0-3.33.1L59.25,84.21c-1.41-.65-2.71-.86-3.29.09-1.06,1.72-.35,2.66.25,3.24a2.18,2.18,0,0,0,.54.43h0l24.46,14.16a3.42,3.42,0,0,0,3.27-.1l37.55-21.65S124.92,79,122.43,76.49Z" transform="translate(-5.09 -5.09)"/><path id="_Tracciato_2" data-name="&lt;Tracciato&gt;" class="cls-5" d="M56.49,83.76,94.18,62a3.51,3.51,0,0,1,3.33-.1L122,76.12a1.39,1.39,0,0,1,.08,2.45L84.49,100.22a3.42,3.42,0,0,1-3.27.11L56.76,86.16C55.56,85.45,55.63,84.33,56.49,83.76Z" transform="translate(-5.09 -5.09)"/><path id="_Tracciato_3" data-name="&lt;Tracciato&gt;" class="cls-6" d="M58.19,84.18,84.12,98.94a.64.64,0,0,0,.6,0l35.69-20.46a.21.21,0,0,0,0-.36L94.49,63.2a.57.57,0,0,0-.54,0L58.18,83.84A.19.19,0,0,0,58.19,84.18Z" transform="translate(-5.09 -5.09)"/><g id="_Gruppo_2" data-name="&lt;Gruppo&gt;"><path id="_Tracciato_4" data-name="&lt;Tracciato&gt;" class="cls-7" d="M68.5,91.59h0c-.08,0-.07-.13,0-.19h0a.38.38,0,0,1,.33,0h0c.08,0,.07.13,0,.19h0A.35.35,0,0,1,68.5,91.59Z" transform="translate(-5.09 -5.09)"/><path id="_Tracciato_5" data-name="&lt;Tracciato&gt;" class="cls-7" d="M71.94,93.56l-3-1.69c-.08-.05-.07-.13,0-.19h0a.35.35,0,0,1,.33,0l3,1.7c.09,0,.08.13,0,.19h0A.35.35,0,0,1,71.94,93.56Z" transform="translate(-5.09 -5.09)"/></g><path id="_Tracciato_6" data-name="&lt;Tracciato&gt;" class="cls-7" d="M108.9,70.8l-1.82-1c-.36-.21-.32-.58.1-.82h0a1.56,1.56,0,0,1,1.41,0l1.82,1c.36.21.31.58-.1.82h0A1.56,1.56,0,0,1,108.9,70.8Z" transform="translate(-5.09 -5.09)"/><path id="_Tracciato_7" data-name="&lt;Tracciato&gt;" class="cls-8" d="M107.12,69.26a1.57,1.57,0,0,1,1.41-.06l1.82,1a.45.45,0,0,1,.23.27.38.38,0,0,0-.17-.58l-1.82-1a1.56,1.56,0,0,0-1.41,0h0c-.27.16-.38.36-.33.54A.71.71,0,0,1,107.12,69.26Z" transform="translate(-5.09 -5.09)"/><path id="_Tracciato_8" data-name="&lt;Tracciato&gt;" class="cls-8" d="M91.48,96.83a.17.17,0,0,0-.14,0h0l-1.53.89h0a.35.35,0,0,0-.17.22.3.3,0,0,0,.14.38.22.22,0,0,0,.14,0h0l1.5-.87h0a.36.36,0,0,0,.18-.23C91.67,97,91.61,96.86,91.48,96.83Z" transform="translate(-5.09 -5.09)"/><path id="_Tracciato_9" data-name="&lt;Tracciato&gt;" class="cls-9" d="M91.58,96.89a.17.17,0,0,0-.14,0h0l-1.53.89h0a.38.38,0,0,0-.16.22.29.29,0,0,0,.14.38.24.24,0,0,0,.14,0h0l1.5-.87h0a.36.36,0,0,0,.18-.23C91.77,97.09,91.71,96.92,91.58,96.89Z" transform="translate(-5.09 -5.09)"/><path id="_Tracciato_10" data-name="&lt;Tracciato&gt;" class="cls-8" d="M93.84,95.48a.18.18,0,0,0-.14,0h0l-1.53.89h0a.38.38,0,0,0-.16.22c-.05.17,0,.34.14.37a.17.17,0,0,0,.14,0h0l1.5-.87h0a.41.41,0,0,0,.19-.23A.31.31,0,0,0,93.84,95.48Z" transform="translate(-5.09 -5.09)"/><path id="_Tracciato_11" data-name="&lt;Tracciato&gt;" class="cls-9" d="M94,95.54a.2.2,0,0,0-.15,0h0l-1.53.89h0a.38.38,0,0,0-.16.22c0,.17,0,.34.14.37a.17.17,0,0,0,.14,0h0l1.51-.87h0a.36.36,0,0,0,.18-.23A.3.3,0,0,0,94,95.54Z" transform="translate(-5.09 -5.09)"/><path id="_Tracciato_12" data-name="&lt;Tracciato&gt;" class="cls-8" d="M89.11,98.2a.24.24,0,0,0-.14,0h0l-.37.21h0a.34.34,0,0,0-.16.22c0,.17,0,.34.14.37a.17.17,0,0,0,.14,0h0l.34-.19h0a.41.41,0,0,0,.19-.23A.31.31,0,0,0,89.11,98.2Z" transform="translate(-5.09 -5.09)"/><path id="_Tracciato_13" data-name="&lt;Tracciato&gt;" class="cls-9" d="M89.22,98.27a.2.2,0,0,0-.15,0h0l-.37.21h0a.38.38,0,0,0-.16.22c-.05.17,0,.34.14.37a.17.17,0,0,0,.14,0h0l.35-.19h0a.36.36,0,0,0,.18-.23A.29.29,0,0,0,89.22,98.27Z" transform="translate(-5.09 -5.09)"/><path class="cls-10" d="M65.85,88.54l47.32-14.31-19-11.1L57.75,84C57.75,84.12,65.85,88.54,65.85,88.54Z" transform="translate(-5.09 -5.09)"/><path id="_Tracciato_14" data-name="&lt;Tracciato&gt;" class="cls-7" d="M58.15,84.11,93.93,63.49a.55.55,0,0,1,.54,0l25.9,14.89s0,0,.06,0a.21.21,0,0,0-.06-.33L94.47,63.2a.55.55,0,0,0-.54,0L58.15,83.83a.2.2,0,0,0,0,.31Z" transform="translate(-5.09 -5.09)"/></g><g id="_Gruppo_3" data-name="&lt;Gruppo&gt;"><path id="_Tracciato_15" data-name="&lt;Tracciato&gt;" class="cls-11" d="M79.49,100.22c0,.31-.14.47-.39.36a1,1,0,0,1-.5-.77c0-.31.15-.47.39-.36A1,1,0,0,1,79.49,100.22Z" transform="translate(-5.09 -5.09)"/><g id="_Gruppo_4" data-name="&lt;Gruppo&gt;"><path id="_Tracciato_composto_" data-name="&lt;Tracciato composto&gt;" class="cls-12" d="M79.28,100.72a.44.44,0,0,1-.22,0,1.11,1.11,0,0,1-.56-.85.45.45,0,0,1,.16-.44.37.37,0,0,1,.38,0,1.1,1.1,0,0,1,.55.85h0a.48.48,0,0,1-.15.45A.52.52,0,0,1,79.28,100.72Zm-.45-1.2-.06,0a.31.31,0,0,0-.07.26.94.94,0,0,0,.44.69.19.19,0,0,0,.18,0c.06,0,.08-.14.07-.26h0a.9.9,0,0,0-.44-.68A.21.21,0,0,0,78.83,99.52Z" transform="translate(-5.09 -5.09)"/></g></g><path class="cls-13" d="M101.38,36.83C101.38,43,99,45,93.9,47.9l-64,36.94C29.55,83.8,25.07,64,25.07,64S90.8,25.77,93.9,25.77C98,25.77,101.38,30.72,101.38,36.83Z" transform="translate(-5.09 -5.09)"/><path class="cls-14" d="M27.88,72.49l-1.5-4.67L99,28.69s1.34,1.12,2,4.21Z" transform="translate(-5.09 -5.09)"/><path class="cls-15" d="M27,83.73c-3,0-5.48-4.15-5.48-9.06S24,65.6,27,65.6s5.48,4.15,5.48,9.07S30,83.73,27,83.73Z" transform="translate(-5.09 -5.09)"/><path class="cls-2" d="M27,67.6c1.39,0,3.48,2.82,3.48,7.07S28.37,81.73,27,81.73s-3.48-2.82-3.48-7.06S25.59,67.6,27,67.6m0-4c-4.13,0-7.48,4.95-7.48,11.07S22.85,85.73,27,85.73s7.48-5,7.48-11.06S31.11,63.6,27,63.6Z" transform="translate(-5.09 -5.09)"/></g></svg>