<svg xmlns="http://www.w3.org/2000/svg" xmlns:xlink="http://www.w3.org/1999/xlink" viewBox="0 0 185.79 157.38"><defs><style>.cls-1{isolation:isolate;}.cls-2{fill:#3aaa35;}.cls-3{fill:#93c782;}.cls-4{fill:#65b557;}.cls-5{fill:#3b2d7c;}.cls-6{fill:#d2ecfa;}.cls-10,.cls-11,.cls-12,.cls-13,.cls-14,.cls-15,.cls-16,.cls-17,.cls-18,.cls-19,.cls-20,.cls-21,.cls-23,.cls-24,.cls-6,.cls-7,.cls-8,.cls-9{fill-rule:evenodd;}.cls-7,.cls-76{fill:#e5effb;}.cls-8{fill:#f6bbc6;}.cls-9{fill:#d7e8f8;}.cls-10{fill:#f0c17d;}.cls-11{fill:#fedaa7;}.cls-12,.cls-46{fill:#5b5b5a;}.cls-13{fill:#353430;}.cls-14{fill:#f4fafe;}.cls-15{fill:#c1e1f0;}.cls-16{fill:#bcdded;}.cls-17{fill:#e1f2fc;}.cls-18,.cls-56{fill:#b2deeb;}.cls-19{fill:#4b235c;}.cls-20,.cls-59{fill:#8dd1e5;}.cls-21{fill:#9e4f98;}.cls-22{fill:#f7c0c0;}.cls-23{fill:#17365c;}.cls-24{fill:#172a45;}.cls-25,.cls-26,.cls-68{fill:#fff;}.cls-25,.cls-73{opacity:0.2;}.cls-25,.cls-26{mix-blend-mode:screen;}.cls-26{opacity:0.4;}.cls-27{fill:#808081;}.cls-28{fill:#36393b;}.cls-29{fill:#06577e;}.cls-30{fill:#073146;}.cls-31{fill:#10364a;}.cls-32{fill:#154764;}.cls-33{fill:#492e16;}.cls-34{fill:#946335;}.cls-35{fill:#323232;}.cls-36{fill:#6786a0;}.cls-37{fill:#4e4d4c;}.cls-38{fill:#a88212;}.cls-39{fill:#d1a20c;}.cls-40{fill:#a7b0ba;}.cls-41{fill:#bb3618;}.cls-42{fill:#952b14;}.cls-43{fill:#eaeaea;}.cls-44{fill:#9ea6b0;}.cls-45{fill:#3c3c3b;}.cls-47{fill:#a9b2bd;}.cls-48{fill:#d9d0d8;}.cls-49{fill:#f5ad1f;}.cls-50{fill:#f39200;}.cls-51{fill:#fbc93a;}.cls-52{fill:#b2b2b2;}.cls-53{fill:#ededed;}.cls-54{fill:#e64432;}.cls-55{fill:#fcbe0e;}.cls-57{fill:#169da3;}.cls-58{fill:#5dc2d6;}.cls-60{fill:#5ec4e4;}.cls-61{fill:#97d3df;}.cls-62{fill:#cae8f0;}.cls-63{fill:#6ac6da;}.cls-64{fill:#095a83;}.cls-65{fill:#26183c;opacity:0.42;mix-blend-mode:multiply;}.cls-66{fill:#a6caea;}.cls-67{fill:#f2f9fc;}.cls-69{fill:#eaf6fd;}.cls-70{fill:#36a9e1;}.cls-71{fill:#d3d0db;}.cls-72{fill:#71a5cf;}.cls-73{fill:url(#Sfumatura_senza_nome_3);}.cls-74{fill:#333;}.cls-75{fill:#a1b0d6;}.cls-77{fill:#706f6f;}.cls-78{fill:#c4cfdb;}.cls-79,.cls-84{fill:none;stroke-linecap:round;stroke-linejoin:round;}.cls-79{stroke:#fff;stroke-width:0.97px;}.cls-80{fill:#dce7f5;}.cls-81{fill:#261c35;}.cls-82{fill:#009fe3;}.cls-83{fill:#6f559c;}.cls-84{stroke:#dadde0;stroke-width:0.71px;}.cls-85{fill:#dadde0;}</style><linearGradient id="Sfumatura_senza_nome_3" x1="-699.04" y1="93.4" x2="-699.04" y2="102.69" gradientTransform="matrix(-1, 0, 0, 1, -592.86, 0)" gradientUnits="userSpaceOnUse"><stop offset="0" stop-color="#fff"/><stop offset="1" stop-opacity="0"/></linearGradient></defs><title>G12_10</title><g class="cls-1"><g id="Criminal"><polygon class="cls-2" points="185.79 99.85 185.79 104.6 96.32 157.38 96.32 152.63 185.79 99.85"/><polygon class="cls-3" points="96.32 152.63 96.32 157.38 0.22 101.65 0.22 96.9 96.32 152.63"/><polygon class="cls-4" points="96.1 152.65 0 96.92 0 96.65 90.31 44.74 185.79 99.87 96.25 152.74 96.1 152.65"/><path class="cls-5" d="M109.54,23.1c-1.11.76-2.24,1.89-2,3.22.16,1,1.1,1.82,1.25,2.86.28,1.91,2,15.34,3.61,14.86s1.86,1.75,3.48,2.26c1.31.4,2.3,1.55,3.61,2a4.94,4.94,0,0,0,4.76-1.56,6.43,6.43,0,0,0,2-4.72,4.64,4.64,0,0,0-2.8-4.1,4.64,4.64,0,0,0,2.42-5c-.47-2.09-2.32-3.52-3.84-5a2.65,2.65,0,0,1-.88-1.37,3.07,3.07,0,0,1,.45-1.67,23.07,23.07,0,0,0,2.3-9.58c.1-4.9-4.71-9.18-9-5.11-1.52,1.43-2,3.91-2.29,5.89C112.06,19.42,112.74,20.92,109.54,23.1Z" transform="translate(-1.92 -6.3)"/><path class="cls-5" d="M130.59,20.29c1.21.58,2.49,1.54,2.49,2.88,0,1-.82,2-.81,3,0,1.94,2.57,2.79,3.35,4.56.59,1.36,0,2.94.16,4.42a13.19,13.19,0,0,0,1.45,3.71,4.22,4.22,0,0,1,.18,3.84c-.88,1.45-2.91,1.63-4.59,1.4s-3.48-.68-5,.06c-1.24.6-2,1.87-3.27,2.47a5,5,0,0,1-4.94-.84A6.37,6.37,0,0,1,117,41.43,4.63,4.63,0,0,1,119.12,37,4.63,4.63,0,0,1,116,32.33c.16-2.14,1.77-3.83,3-5.55a2.62,2.62,0,0,0,.66-1.49,2.92,2.92,0,0,0-.69-1.58,23.16,23.16,0,0,1-3.7-9.13c-.83-4.83,3.29-9.78,8.18-6.4,1.71,1.19,2.59,3.56,3.13,5.48C127.55,17,127.11,18.62,130.59,20.29Z" transform="translate(-1.92 -6.3)"/><path class="cls-6" d="M122.55,26.36c4,2.3,6.17,4.78,4.88,5.53s-5.58-.5-9.57-2.8-6.17-4.78-4.87-5.53S118.56,24.06,122.55,26.36Z" transform="translate(-1.92 -6.3)"/><path class="cls-7" d="M123.25,25.85c4,2.74,6,6.64,3.7,7.78s-7.4-.16-11.37-2.91-5.19-5.86-2.88-7S119.28,23.1,123.25,25.85Z" transform="translate(-1.92 -6.3)"/><path class="cls-8" d="M121.83,18.25c-.19,1.19-1.27,3.93,0,7l-4.29,3.26-2-1.92a13.37,13.37,0,0,0,.17-6.45Z" transform="translate(-1.92 -6.3)"/><path class="cls-9" d="M113.56,23.43c-2.88-.14-5.43,9.37-6.42,14.12-.55,2.65-1.19,5.71-.08,6.15,3.88,1.57,5-4.08,5.64-5.92l3-8.65Z" transform="translate(-1.92 -6.3)"/><path class="cls-10" d="M112.32,49.53h-.91l.15,8.29c-.24,4.8-1.11,14.23-1.26,19-.09,3.06.68,4.58.59,6.86-.28,6.48.57,12.83.67,19.51L114.5,106c1.38-10.07,3.55-15.57,3.31-21.35-.39-9.63,0-9.48,1-15.49,1.6-9.27.46-2.69.15-6.37-.24-2.82-.75-6.41-3.07-13.56Z" transform="translate(-1.92 -6.3)"/><path class="cls-11" d="M118.68,54.34h-.9l.15,8.29c-.25,4.8-1.12,14.23-1.27,19-.09,3.06.69,4.58.59,6.86-.28,6.48.57,12.82.68,19.51l2.93,2.82c1.38-10.07,3.56-15.57,3.32-21.35-.4-9.63,0-9.48,1-15.49,1.59-9.27.46-2.69.14-6.37-.24-2.82-.75-6.41-3.06-13.56Z" transform="translate(-1.92 -6.3)"/><path class="cls-12" d="M121.49,24.8a7.62,7.62,0,0,0,3.73,4c3.47,2.06,1.63,8.42,0,12.64-.87,2.19-1.82,6.12-.67,8.39,6.86,13.44-9,23.81-12.89,14.16a18.29,18.29,0,0,1-.84-13.51c.7-2.2,1.31-3.56,1.22-4.61-.66-7.83-3.62-8-.53-16.38.55-1.5.63-2.76,1.32-3.64.49-.62,2-.83,3-1.21a3.43,3.43,0,0,0,.9,2.79C119.24,26.53,119.72,26.68,121.49,24.8Z" transform="translate(-1.92 -6.3)"/><path class="cls-12" d="M124.06,47.1c0,4.21,2.43,7.11,2.42,13.49,0,5.37-.62,12.13-1.45,20.26A1.89,1.89,0,0,1,124,82.49c-2.14,1.24-6.86.53-10.54-1.59-2.71-1.57-3.8-3.46-3.79-4.85-.7-6.77-1.73-18.38.38-25,.7-2.2,1.84-4.4,1.75-5.45C114.59,48.64,120,49,124.06,47.1Z" transform="translate(-1.92 -6.3)"/><path class="cls-13" d="M121.52,23.93c-1,2.1-4.4,3.29-5.6,3.51V31c2.87-1.27,6-3.42,6.51-4.57Z" transform="translate(-1.92 -6.3)"/><path class="cls-13" d="M116,23.52a5.74,5.74,0,0,0,.33,3.51l.41.12-.35.57L114.57,30c-.95-1.7-.52-3.22-.27-4.9Z" transform="translate(-1.92 -6.3)"/><path class="cls-12" d="M121.52,23.93c-1,2.1-4,2.9-5.22,3.11l.32,2.88c2.87-1.27,5.22-3.13,5.74-4.29Z" transform="translate(-1.92 -6.3)"/><path class="cls-12" d="M116,23.52a5.74,5.74,0,0,0,.33,3.51l-1.54,1.37c-.94-1.7-.25-2.76,0-4.44Z" transform="translate(-1.92 -6.3)"/><path class="cls-7" d="M114.8,44c-.5,6.64.69,24.28,1.63,27.85,3.67,1.29,7.45,1.5,9.43.34a2.27,2.27,0,0,0,1.27-2.26,129.91,129.91,0,0,0-.4-15.23A16.14,16.14,0,0,0,125,49.81a5.78,5.78,0,0,1-.9-2.71,14.75,14.75,0,0,1,1.11-5.68c1.68-4.22,4.12-10.58.65-12.64a9,9,0,0,1-3.61-3.61C119,29.79,115.67,32.28,114.8,44Zm-6.54,21.11a.61.61,0,0,1,0-.33v-.1c.15-7.37.87-10.74,1.78-13.59.7-2.2,1.84-4.4,1.75-5.45a30.28,30.28,0,0,0-1.33-6.37,7.92,7.92,0,0,1-1.56-4.91,97,97,0,0,1,3.82-10.49c.18-.18,1.68.39,2,.27a58.14,58.14,0,0,0-.83,21.54c.66,5.15-1.21,16.56-1.83,24C109.76,68.18,108.43,66.5,108.26,65.09Z" transform="translate(-1.92 -6.3)"/><path class="cls-14" d="M122.14,25.15c-7.35,7.48-7.43,11-7.48,21a75.14,75.14,0,0,1,4.47-10.6l-1.5-2.51,2.45-.33c1.43-2.4,3.24-4.58,3.83-6.55Z" transform="translate(-1.92 -6.3)"/><path class="cls-14" d="M116,23.15c-1.66.09-2.14.3-2.63,1.73l-1.52,3.74.73,1.1-1.68,2L114,47.16c-.29-7.57-.62-16.65,2-23.66Z" transform="translate(-1.92 -6.3)"/><path class="cls-11" d="M117.89,105.18a8,8,0,0,1-.53,3.45c-.58,1.57-3.33,3.49-4.48,4.63l.37,1.53,1.42.06,1.82-.15c1-.81,2-1.85,2.65-2.39,2.57-2.08,3.4-2.24,2.83-3.77a13.07,13.07,0,0,1,.06-6.05Z" transform="translate(-1.92 -6.3)"/><path class="cls-14" d="M122.88,30.27c-2,3.79-.15,12.71.08,17.16l4.31,1.4c.41-4.75,1.46-12.27.85-16.77-.24-1.78-1.32-3.23-2.63-3.25A3.17,3.17,0,0,0,122.88,30.27Z" transform="translate(-1.92 -6.3)"/><path class="cls-11" d="M101.53,30l-.06-.09-1-2.38c-.86-2.87-.8-3.88-3.72-4.89l-1,1.07-.59,2-.53.62c1.87,1.43,1.9,3,3.56,3.34l1.5,2.47Z" transform="translate(-1.92 -6.3)"/><path class="cls-8" d="M98.91,29.3l.18-.5c-.74-2.46.43-4.53-1.16-5.7a6.09,6.09,0,0,0-2-.94l-.77,3.49-.53.62c1.87,1.43,1.67,1.51,3.33,1.88Z" transform="translate(-1.92 -6.3)"/><path class="cls-8" d="M100.87,28.19a11.69,11.69,0,0,1-.41-2.29,3.49,3.49,0,0,0-.41-1.5c-.31-.69-.19-.89-.73-1.25L98,22.31c-1,.87,0,1.6.72,2.34-1.1,2.93-.68,3.33,1.69,5.24Z" transform="translate(-1.92 -6.3)"/><path class="cls-9" d="M100.77,27.59a9,9,0,0,1-2.6,2.4c2.33,2.79,7,17,11.31,13.59C112.46,41.22,102.63,30.69,100.77,27.59Z" transform="translate(-1.92 -6.3)"/><path class="cls-8" d="M111.81,49.25a8.2,8.2,0,0,0-4.28-.36c-.92.28-4.84,1.13-4.11,2.09.51.68,2.41,1.15,3.36,1.27l2.6-.09,2.5-.14Z" transform="translate(-1.92 -6.3)"/><path class="cls-15" d="M110.83,46.88l-9.2-5.31a2.44,2.44,0,0,0-2.2,0L94.8,44.26a.67.67,0,0,0,0,1.28L104,50.85a2.44,2.44,0,0,0,2.2,0l4.63-2.69A.68.68,0,0,0,110.83,46.88Z" transform="translate(-1.92 -6.3)"/><path class="cls-6" d="M109.86,46.54l-8.38-4.83-.22-.11h0l-.18-.06H101l-.07,0-.14,0h-.56l-.17,0h0l-.11,0-.1,0,0,0h0l-.18.09v.43l.18-.09h0l.13,0,.11,0,.21,0h.27l.25,0h0L101,42H101l.22.07.22.11L109.86,47a.75.75,0,0,1,.44.61v-.43A.75.75,0,0,0,109.86,46.54Z" transform="translate(-1.92 -6.3)"/><path class="cls-16" d="M111.28,47.14v.39h0v.6h0v.08h0v0l0,0h0s0,0,0,0l0,0v0l0,0,0,.05v0l0,0-.07.07h0l-.05,0s0,0,0,0l-.06,0,0,0h0l-4.63,2.69v-.61h0v-.43l4.63-2.69.06,0,.06,0,0,0,.05,0,0,0,.06-.08,0,0,0-.05,0,0,0,0s0,0,0,0l0-.05s0,0,0,0v0Zm0,.43h0v0Z" transform="translate(-1.92 -6.3)"/><path class="cls-6" d="M106.2,50.85v-.43l-.14.07,0,0-.12.05,0,0-.08,0h-.07l-.08,0h-.06l-.18,0h-.83l-.1,0h0l-.17-.06h0a1.36,1.36,0,0,1-.21-.1l-9.19-5.31a.85.85,0,0,1-.46-.55v.34h0v.59a.79.79,0,0,0,.46.64l9.2,5.31a1,1,0,0,0,.21.1h0l.17.06h0l.1,0h.83l.18,0h0l.05,0h.08l.06,0,.08,0h0l.12-.05h0l.14-.08v-.61Z" transform="translate(-1.92 -6.3)"/><path class="cls-16" d="M95.69,43.91h0l0,0,0,0,0,0,0,0h0l-.06.06h0v0a.05.05,0,0,0,0,0l0,0h0s0,0,0,0v0h0s0,0,0,0v0h0s0,0,0,0v0h0v.39a.06.06,0,0,1,0,0v0s0,0,0,0v0a.05.05,0,0,1,0,0v0l0,0,0,0,.06-.06h0l0,0,0,0,0,0,0,0,3.87-2.25.18-.09h0l.13,0,.11,0,.21,0h.27l.25,0h0L101,42H101l.22.07.22.11h0v-.43h0l-.22-.11h0l-.18-.06H101l-.07,0-.14,0h-.56l-.17,0h0l-.12,0-.09,0,0,0h0l-.18.09Z" transform="translate(-1.92 -6.3)"/><path class="cls-17" d="M110,47.66c.5-.3.46-.8-.09-1.12l-8.38-4.83a2.07,2.07,0,0,0-1.92-.05l-3.87,2.25c-.51.29-.47.79.09,1.11l8.37,4.84a2.15,2.15,0,0,0,1.93,0L110,47.66Zm.88.07-4.63,2.69a2.44,2.44,0,0,1-2.2,0l-9.19-5.31a.67.67,0,0,1,0-1.28l4.63-2.69a2.44,2.44,0,0,1,2.2,0l9.2,5.31A.68.68,0,0,1,110.83,47.73Z" transform="translate(-1.92 -6.3)"/><path class="cls-8" d="M108.67,49.93a1.93,1.93,0,0,0-1.41-1.29,3.5,3.5,0,0,1-.76-.31.33.33,0,0,1-.11-.32c0-.22.62-.51,1.31-.18l1.08.5a2.49,2.49,0,0,1,3,.94l-.48,1.09-1.74-.08Z" transform="translate(-1.92 -6.3)"/><path class="cls-14" d="M111.62,48.85c3.87-1.09,6-2.15,9.69-3,1.61-.36,3.28-.52,5-.81,1.68,3.12,1.28,4.82-1,5.62-3.24,1.13-10.55,1.25-13.9,1.51Z" transform="translate(-1.92 -6.3)"/><path class="cls-18" d="M102.39,32.6a16.58,16.58,0,0,0-1.11-2.29,14.78,14.78,0,0,1-2-4.65,9.68,9.68,0,0,1,0-2.06l-1.56,0-1.56,0a8.51,8.51,0,0,1,0,2.06,14.55,14.55,0,0,1-2,4.65A17.72,17.72,0,0,0,93,32.6a2.87,2.87,0,0,0-.15.44c-.33,1.29.91,2.32,2.2,2.81a7.86,7.86,0,0,0,5.3,0c1.29-.49,2.54-1.52,2.21-2.81C102.5,32.91,102.46,32.8,102.39,32.6Z" transform="translate(-1.92 -6.3)"/><path class="cls-19" d="M102.08,32.54a15.5,15.5,0,0,0-1-2.14c-.36-.66-.74-1.31-1.07-2h-4.6c-.32.66-.7,1.3-1.06,2a15.58,15.58,0,0,0-1,2.14,3.4,3.4,0,0,0-.14.42c-.31,1.2.86,2.17,2.06,2.62a7.11,7.11,0,0,0,2.48.43,7,7,0,0,0,2.48-.43c1.21-.45,2.37-1.42,2.07-2.62C102.19,32.83,102.15,32.73,102.08,32.54Z" transform="translate(-1.92 -6.3)"/><path class="cls-18" d="M98.8,22.9a2.41,2.41,0,0,0-2.2,0c-.62.35-.64.92,0,1.28a2.43,2.43,0,0,0,2.21,0C99.39,23.83,99.4,23.26,98.8,22.9Z" transform="translate(-1.92 -6.3)"/><path class="cls-20" d="M98.56,24a2,2,0,0,1-1.78,0c-.48-.28-.47-.73,0-1a2,2,0,0,1,1.77,0C99.07,23.3,99.06,23.74,98.56,24Z" transform="translate(-1.92 -6.3)"/><path class="cls-21" d="M99.37,27.8a3.66,3.66,0,0,0-3.32,0c-.93.52-1,1.38,0,1.92a3.66,3.66,0,0,0,3.32,0C100.25,29.2,100.27,28.34,99.37,27.8Z" transform="translate(-1.92 -6.3)"/><path class="cls-8" d="M95.66,23.42c-.85.13-1,.27-.81,1a4.27,4.27,0,0,0,.72,1.35c.41.56.45.41,1.18.63l.73.15c.13-1,.06-.92-1.11-1.51Z" transform="translate(-1.92 -6.3)"/><path class="cls-8" d="M94.92,23.9a3.68,3.68,0,0,0-.54.73,2.69,2.69,0,0,0,.09,1.06,1.6,1.6,0,0,0,.59.74l.42.32a6.8,6.8,0,0,0,1.47.61c.34-1.3,0-1.12-1.19-1.86Z" transform="translate(-1.92 -6.3)"/><path class="cls-8" d="M94.46,24.46a9.28,9.28,0,0,0-.66.75.77.77,0,0,0,0,.53,1.33,1.33,0,0,0,.51.61,2.57,2.57,0,0,0,.35.27,5.54,5.54,0,0,0,1.23.52c.29-1.09,0-.94-1-1.57Z" transform="translate(-1.92 -6.3)"/><path class="cls-8" d="M95.6,22.11c-.21.06-.3.32-.39.7A4.17,4.17,0,0,0,95,24c.06.61.87,1.22,1.29,1.62.79-.42.47-.91-.11-1.79.14-.4.41-1.06.09-1.42A.64.64,0,0,0,95.6,22.11Z" transform="translate(-1.92 -6.3)"/><path class="cls-8" d="M100.46,25.9a3.49,3.49,0,0,0-.41-1.5c-.31-.69-.19-.89-.73-1.25L98,22.31c-1,.87,0,1.6.72,2.34C99.84,26.43,100.22,26.75,100.46,25.9Z" transform="translate(-1.92 -6.3)"/><path class="cls-22" d="M111.67,14.14c0,3.93,2.85,7.11,6.37,7.11s6.37-3.18,6.37-7.11S121.56,7,118,7,111.67,10.21,111.67,14.14Z" transform="translate(-1.92 -6.3)"/><path class="cls-5" d="M112,16.27a6.57,6.57,0,0,1-1.55-4.58c.35-2.92,2.52-5.67,7.84-5.36s8.52,3.88,8,7.78c-.66,5.35-5.52,5.14-2.87,8.82a4.77,4.77,0,0,1-5.14-4.37c-.33-3,2.28-6.36,2.28-6.36C110.65,7.81,112,16.27,112,16.27Z" transform="translate(-1.92 -6.3)"/><path class="cls-22" d="M122,14.37c0,1.19.55,2.16,1.23,2.16s1.22-1,1.22-2.16-.55-2.17-1.22-2.17S122,13.17,122,14.37Z" transform="translate(-1.92 -6.3)"/><path class="cls-23" d="M113.78,112.46a2,2,0,0,0-.47,1c0,.43.41.74,1.33.81,1.1.09,2.92-1.21,4.1-2.41a13.43,13.43,0,0,0,3.1-3.88,3.73,3.73,0,0,1,.71,3.36l-.2,1.58-1.73.93-.74-.29-.06-.52c-.91.63-2,2.11-2.76,2.53a7.34,7.34,0,0,1-4.11.93c-.71,0-1.48-.51-1.38-1.27C111.75,113.92,113.21,112.83,113.78,112.46Z" transform="translate(-1.92 -6.3)"/><path class="cls-10" d="M111.56,101.67a7.82,7.82,0,0,1-.53,3.45c-.58,1.57-3.33,3.49-4.48,4.63l.38,1.53,1.41.06,1.83-.15c1-.81,2-1.85,2.64-2.38,2.57-2.09,3.4-2.25,2.83-3.78a13.07,13.07,0,0,1,.06-6Z" transform="translate(-1.92 -6.3)"/><path class="cls-24" d="M107.46,109a2,2,0,0,0-.47,1c0,.43.41.75,1.32.82,1.11.08,2.92-1.22,4.1-2.42a13.27,13.27,0,0,0,3.1-3.88,3.7,3.7,0,0,1,.72,3.36l-.21,1.58-1.73.93-.74-.29,0-.52c-.92.63-2,2.11-2.77,2.53a7.32,7.32,0,0,1-4.1.93c-.72,0-1.48-.51-1.38-1.27C105.42,110.41,106.88,109.32,107.46,109Z" transform="translate(-1.92 -6.3)"/><path class="cls-25" d="M96.77,30.38a1,1,0,1,1,0-1.63A1.18,1.18,0,0,1,96.77,30.38Z" transform="translate(-1.92 -6.3)"/><path class="cls-26" d="M96.31,32.22a.49.49,0,1,1-.89-.35.56.56,0,0,1,.67-.4A.57.57,0,0,1,96.31,32.22Z" transform="translate(-1.92 -6.3)"/><polygon class="cls-27" points="102.52 106.33 102.42 139.71 99.28 141.53 99.38 108.16 102.52 106.33"/><polygon class="cls-28" points="99.38 108.16 99.28 141.53 96.12 139.71 96.21 106.33 99.38 108.16"/><polygon class="cls-29" points="102.52 106.33 99.38 108.16 96.21 106.33 99.36 104.51 102.52 106.33"/><polygon class="cls-27" points="135.44 87.35 135.35 120.72 132.21 122.55 132.3 89.17 135.44 87.35"/><polygon class="cls-28" points="132.3 89.17 132.21 122.55 129.04 120.72 129.14 87.35 132.3 89.17"/><polygon class="cls-29" points="135.44 87.35 132.3 89.17 129.14 87.35 132.28 85.52 135.44 87.35"/><polygon class="cls-27" points="41.41 70.76 41.32 104.13 38.18 105.96 38.27 72.59 41.41 70.76"/><polygon class="cls-28" points="38.27 72.59 38.18 105.96 35.02 104.13 35.11 70.76 38.27 72.59"/><polygon class="cls-29" points="41.41 70.76 38.27 72.59 35.11 70.76 38.25 68.93 41.41 70.76"/><g class="cls-1"><polygon class="cls-30" points="74.38 51.81 74.28 85.19 71.14 87.01 71.23 53.64 74.38 51.81"/><polygon class="cls-31" points="71.23 53.64 71.14 87.01 67.98 85.19 68.07 51.81 71.23 53.64"/><polygon class="cls-29" points="74.38 51.81 71.23 53.64 68.07 51.81 71.21 49.99 74.38 51.81"/></g><rect class="cls-32" x="33.22" y="68.53" width="3.74" height="2.97"/><rect class="cls-32" x="134.37" y="85.88" width="3.74" height="2.97"/><path class="cls-33" d="M138.17,97.75l-31,17.93a9.89,9.89,0,0,1-9,0L37,80.36c-2.47-1.43-2.47-3.74,0-5.17L68,57.26a10,10,0,0,1,9,0l61.17,35.32C140.64,94,140.64,96.33,138.17,97.75Z" transform="translate(-1.92 -6.3)"/><path class="cls-34" d="M138.17,94.81l-31,17.93a10,10,0,0,1-9,0L37,77.42c-2.47-1.43-2.47-3.75,0-5.17L68,54.32a9.89,9.89,0,0,1,9,0l61.17,35.32C140.64,91.07,140.64,93.38,138.17,94.81Z" transform="translate(-1.92 -6.3)"/><polygon class="cls-35" points="96.89 79.72 84.6 72.58 84.6 71.23 96.89 78.37 96.89 79.72"/><polygon class="cls-36" points="96.89 78.39 84.6 71.25 96.11 64.61 108.4 71.75 96.89 78.39"/><polygon class="cls-37" points="108.4 71.75 108.4 73.1 96.9 79.74 96.89 78.39 108.4 71.75"/><g class="cls-1"><g class="cls-1"><g class="cls-1"><path class="cls-38" d="M99.88,75.23,99.52,75l0,0,.06,0,.36.21-.06,0-.05,0Z" transform="translate(-1.92 -6.3)"/><path class="cls-39" d="M100,75.27l-.36-.21a.65.65,0,0,0,.49-.1,1.69,1.69,0,0,0,.62-.67l.36.21a1.74,1.74,0,0,1-.61.67.68.68,0,0,1-.5.1Z" transform="translate(-1.92 -6.3)"/><path class="cls-38" d="M101.1,74.5l-.36-.21,0,0,.36.2,0,0Z" transform="translate(-1.92 -6.3)"/></g></g><g class="cls-1"><g class="cls-1"><path class="cls-38" d="M101.12,74.46l-.36-.2c.29-.56.27-1.12,0-1.29l.36.21c.31.17.33.73,0,1.28Z" transform="translate(-1.92 -6.3)"/></g></g><g class="cls-1"><g class="cls-1"><path class="cls-38" d="M99.88,75.23,99.52,75l0,0,.06,0,.36.21-.06,0-.05,0Z" transform="translate(-1.92 -6.3)"/></g></g><g class="cls-1"><g class="cls-1"><path class="cls-40" d="M98.69,73.4l0-.08a3.86,3.86,0,0,1,1.38-1.49,1.51,1.51,0,0,1,1.09-.23l.36.21a1.51,1.51,0,0,0-1.09.23,3.86,3.86,0,0,0-1.38,1.49l0,.08c-.64,1.23-.59,2.48.1,2.88l-.36-.21C98.1,75.88,98.05,74.64,98.69,73.4Z" transform="translate(-1.92 -6.3)"/><path class="cls-40" d="M101.57,71.81l-.36-.21.13.05.36.21-.13,0Z" transform="translate(-1.92 -6.3)"/></g></g><g class="cls-1"><g class="cls-1"><path class="cls-38" d="M101.7,71.86l-.36-.21.11,0,.36.21-.11,0Z" transform="translate(-1.92 -6.3)"/></g></g><g class="cls-1"><g class="cls-1"><path class="cls-41" d="M100.48,73.23l-.36-.21a.75.75,0,0,1,.49-.1l.36.21a.65.65,0,0,0-.49.1Z" transform="translate(-1.92 -6.3)"/><path class="cls-42" d="M101,73.13l-.36-.21.06,0,0,0,.36.21,0,0-.06,0Z" transform="translate(-1.92 -6.3)"/></g></g><g class="cls-1"><g class="cls-1"><path class="cls-42" d="M99.88,75.23,99.52,75c-.3-.18-.33-.74,0-1.29l0,0,.36.21,0,0c-.29.55-.26,1.11,0,1.29Z" transform="translate(-1.92 -6.3)"/><path class="cls-41" d="M99.86,73.9l-.36-.21a1.84,1.84,0,0,1,.62-.67l.36.21a1.76,1.76,0,0,0-.62.67Z" transform="translate(-1.92 -6.3)"/></g></g><path class="cls-43" d="M101.7,71.86c.79.32.89,1.64.21,2.93a3.92,3.92,0,0,1-1.42,1.57,1.45,1.45,0,0,1-1.23.19c-.79-.33-.88-1.64-.21-2.94A3.87,3.87,0,0,1,100.48,72,1.38,1.38,0,0,1,101.7,71.86Zm-.58,2.6c.3-.58.26-1.16-.09-1.31a.66.66,0,0,0-.55.08,1.79,1.79,0,0,0-.64.71c-.3.58-.26,1.17.09,1.31a.65.65,0,0,0,.56-.08,1.77,1.77,0,0,0,.63-.71Z" transform="translate(-1.92 -6.3)"/><path class="cls-44" d="M100.48,73.23a.66.66,0,0,1,.55-.08c.35.15.39.73.09,1.31a1.77,1.77,0,0,1-.63.71.65.65,0,0,1-.56.08c-.35-.14-.39-.73-.09-1.31A1.79,1.79,0,0,1,100.48,73.23Z" transform="translate(-1.92 -6.3)"/></g><g class="cls-1"><polygon class="cls-37" points="98.28 75.25 104.7 71.65 102.94 69.5 98.28 73.91 98.28 75.25"/><polygon class="cls-35" points="93.27 71.48 93.26 72.82 98.28 75.25 98.28 73.91 93.27 71.48"/></g><g class="cls-1"><polygon class="cls-45" points="98.83 73.6 96.35 72.16 96.34 68.4 98.83 69.84 98.83 73.6"/><g class="cls-1"><path class="cls-35" d="M101,71.33a11.08,11.08,0,0,0,1.46-5.19c0-1.77-.61-3-1.6-3.59L103.33,64a3.94,3.94,0,0,1,1.59,3.59,11.14,11.14,0,0,1-1.45,5.2,12,12,0,0,1-2.72,3.37L98.26,74.7A11.52,11.52,0,0,0,101,71.33Z" transform="translate(-1.92 -6.3)"/></g><g class="cls-1"><g class="cls-1"><path class="cls-46" d="M100.7,60.1l-2.48-1.44a6,6,0,0,1,3.83-.48l2.49,1.45a6,6,0,0,0-3.84.47Z" transform="translate(-1.92 -6.3)"/><path class="cls-46" d="M104.54,59.63l-2.49-1.45a4,4,0,0,1,1.07.44l2.48,1.44a4.07,4.07,0,0,0-1.06-.43Z" transform="translate(-1.92 -6.3)"/></g></g><polygon class="cls-45" points="98.79 57.56 96.31 56.11 96.3 52.36 98.78 53.8 98.79 57.56"/><path class="cls-37" d="M100.7,60.1c2-.86,3.87-.81,5.24.18s2.21,2.95,2.21,5.44a17.52,17.52,0,0,1-2.44,8.46,18,18,0,0,1-4.95,5.72V76.15a12.08,12.08,0,0,0,4.17-8.57c0-3-1.78-4.54-4.21-3.72Z" transform="translate(-1.92 -6.3)"/></g><path class="cls-47" d="M100.13,72.28V69.81a1,1,0,0,1-.57.81,3.14,3.14,0,0,1-2.86,0,1,1,0,0,1-.62-.85v2.47a1,1,0,0,0,.62.85,3.16,3.16,0,0,0,2.87,0A1,1,0,0,0,100.13,72.28Z" transform="translate(-1.92 -6.3)"/><path class="cls-48" d="M101.32,69.81V69a1.58,1.58,0,0,1-.89,1.28,5,5,0,0,1-4.53,0,1.63,1.63,0,0,1-1-1.34v.85a1.64,1.64,0,0,0,1,1.34,5,5,0,0,0,4.52,0A1.57,1.57,0,0,0,101.32,69.81Z" transform="translate(-1.92 -6.3)"/><path class="cls-43" d="M95.8,67.67c-1.22.73-1.18,1.91.1,2.62a5,5,0,0,0,4.53,0c1.22-.74,1.18-1.92-.1-2.63A5,5,0,0,0,95.8,67.67Z" transform="translate(-1.92 -6.3)"/><path class="cls-47" d="M100.67,69l0-12.17a1.25,1.25,0,0,1-.71,1,4,4,0,0,1-3.62,0,1.29,1.29,0,0,1-.79-1.07l0,12.17A1.29,1.29,0,0,0,96.34,70,4,4,0,0,0,100,70,1.25,1.25,0,0,0,100.67,69Z" transform="translate(-1.92 -6.3)"/><path class="cls-44" d="M99.92,55.72c1,.57,1,1.5.08,2.09a4,4,0,0,1-3.62,0c-1-.57-1-1.51-.08-2.1A4,4,0,0,1,99.92,55.72ZM96.81,56c-.71.43-.69,1.11,0,1.53a2.9,2.9,0,0,0,2.63,0c.71-.43.69-1.11,0-1.52a2.9,2.9,0,0,0-2.63,0Z" transform="translate(-1.92 -6.3)"/><path class="cls-48" d="M100,56.79V54a.91.91,0,0,1-.52.74,2.87,2.87,0,0,1-2.63,0A.93.93,0,0,1,96.3,54v2.82a1,1,0,0,0,.57.78,2.9,2.9,0,0,0,2.63,0A.9.9,0,0,0,100,56.79Z" transform="translate(-1.92 -6.3)"/><path class="cls-43" d="M96.82,53.22c-.72.43-.69,1.11.05,1.52a2.87,2.87,0,0,0,2.63,0c.71-.43.69-1.11,0-1.53A2.9,2.9,0,0,0,96.82,53.22Z" transform="translate(-1.92 -6.3)"/><g class="cls-1"><g class="cls-1"><g class="cls-1"><path class="cls-38" d="M102.86,62.68l-.36-.21,0,0h0l.36.21h0l0,0Z" transform="translate(-1.92 -6.3)"/><path class="cls-39" d="M103,62.72l-.36-.21a.67.67,0,0,0,.5-.1,1.73,1.73,0,0,0,.62-.66l.36.21a1.73,1.73,0,0,1-.62.66.67.67,0,0,1-.5.1Z" transform="translate(-1.92 -6.3)"/><path class="cls-38" d="M104.08,62l-.36-.21,0,0,.36.21,0,0Z" transform="translate(-1.92 -6.3)"/></g></g><g class="cls-1"><g class="cls-1"><path class="cls-38" d="M104.1,61.92l-.36-.21c.28-.55.26-1.11,0-1.29l.36.21c.31.18.33.74,0,1.29Z" transform="translate(-1.92 -6.3)"/></g></g><g class="cls-1"><g class="cls-1"><path class="cls-38" d="M102.86,62.68l-.36-.21,0,0h0l.36.21h0l0,0Z" transform="translate(-1.92 -6.3)"/></g></g><g class="cls-1"><g class="cls-1"><path class="cls-40" d="M101.67,60.86l0-.09a3.9,3.9,0,0,1,1.38-1.48,1.49,1.49,0,0,1,1.1-.23l.36.21a1.48,1.48,0,0,0-1.1.22A4,4,0,0,0,102.07,61l0,.09c-.64,1.23-.59,2.48.09,2.88l-.36-.21C101.08,63.34,101,62.09,101.67,60.86Z" transform="translate(-1.92 -6.3)"/><path class="cls-40" d="M104.55,59.27l-.36-.21.13,0,.36.21-.13,0Z" transform="translate(-1.92 -6.3)"/></g></g><g class="cls-1"><g class="cls-1"><path class="cls-38" d="M104.68,59.31l-.36-.21.11.06.36.2-.11,0Z" transform="translate(-1.92 -6.3)"/></g></g><g class="cls-1"><g class="cls-1"><path class="cls-41" d="M103.45,60.69l-.36-.21a.68.68,0,0,1,.5-.1l.36.21a.68.68,0,0,0-.5.1Z" transform="translate(-1.92 -6.3)"/><path class="cls-42" d="M104,60.59l-.36-.21,0,0,0,0,.36.21,0,0,0,0Z" transform="translate(-1.92 -6.3)"/></g></g><g class="cls-1"><g class="cls-1"><path class="cls-42" d="M102.86,62.68l-.36-.21c-.31-.18-.33-.74,0-1.29l0,0,.36.21,0,0c-.29.55-.27,1.11,0,1.29Z" transform="translate(-1.92 -6.3)"/><path class="cls-41" d="M102.84,61.35l-.36-.21a1.71,1.71,0,0,1,.61-.66l.36.21a1.71,1.71,0,0,0-.61.66Z" transform="translate(-1.92 -6.3)"/></g></g><path class="cls-43" d="M104.68,59.31c.79.33.88,1.64.21,2.93a4,4,0,0,1-1.43,1.58,1.4,1.4,0,0,1-1.23.18c-.78-.32-.88-1.64-.2-2.93a4,4,0,0,1,1.42-1.58A1.4,1.4,0,0,1,104.68,59.31Zm-.58,2.61c.3-.58.26-1.17-.1-1.31a.63.63,0,0,0-.55.08,1.67,1.67,0,0,0-.63.7c-.3.58-.26,1.17.09,1.32a.66.66,0,0,0,.55-.09,1.76,1.76,0,0,0,.64-.7Z" transform="translate(-1.92 -6.3)"/><path class="cls-44" d="M103.45,60.69a.63.63,0,0,1,.55-.08c.36.14.4.73.1,1.31a1.76,1.76,0,0,1-.64.7.66.66,0,0,1-.55.09c-.35-.15-.39-.74-.09-1.32A1.67,1.67,0,0,1,103.45,60.69Z" transform="translate(-1.92 -6.3)"/></g><g class="cls-1"><g class="cls-1"><g class="cls-1"><path class="cls-38" d="M102.9,76.7l-.36-.21,0,0h.06l.36.21H103l0,0Z" transform="translate(-1.92 -6.3)"/><path class="cls-39" d="M103,76.74l-.36-.21a.68.68,0,0,0,.5-.1,1.71,1.71,0,0,0,.61-.66l.36.21a1.71,1.71,0,0,1-.61.66.68.68,0,0,1-.5.1Z" transform="translate(-1.92 -6.3)"/><path class="cls-38" d="M104.12,76l-.36-.21,0,0,.36.21,0,0Z" transform="translate(-1.92 -6.3)"/></g></g><g class="cls-1"><g class="cls-1"><path class="cls-38" d="M104.14,75.94l-.36-.21c.29-.55.27-1.11,0-1.29l.36.21c.31.18.33.74,0,1.29Z" transform="translate(-1.92 -6.3)"/></g></g><g class="cls-1"><g class="cls-1"><path class="cls-38" d="M102.9,76.7l-.36-.21,0,0h.06l.36.21H103l0,0Z" transform="translate(-1.92 -6.3)"/></g></g><g class="cls-1"><g class="cls-1"><path class="cls-40" d="M101.71,74.88l.05-.09a3.83,3.83,0,0,1,1.38-1.48,1.46,1.46,0,0,1,1.09-.23l.36.21a1.45,1.45,0,0,0-1.09.22A3.93,3.93,0,0,0,102.12,75l-.05.09c-.64,1.23-.59,2.48.1,2.88l-.36-.21C101.12,77.36,101.07,76.11,101.71,74.88Z" transform="translate(-1.92 -6.3)"/><path class="cls-40" d="M104.59,73.29l-.36-.21.13,0,.36.21-.13,0Z" transform="translate(-1.92 -6.3)"/></g></g><g class="cls-1"><g class="cls-1"><path class="cls-38" d="M104.72,73.33l-.36-.21.11.06.36.2-.11,0Z" transform="translate(-1.92 -6.3)"/></g></g><g class="cls-1"><g class="cls-1"><path class="cls-41" d="M103.5,74.71l-.36-.21a.65.65,0,0,1,.49-.1l.36.21a.65.65,0,0,0-.49.1Z" transform="translate(-1.92 -6.3)"/><path class="cls-42" d="M104,74.61l-.36-.21.06,0,0,0,.36.21,0,0-.06,0Z" transform="translate(-1.92 -6.3)"/></g></g><g class="cls-1"><g class="cls-1"><path class="cls-42" d="M102.9,76.7l-.36-.21c-.3-.18-.33-.74,0-1.29l0,0,.36.21,0,0c-.29.55-.26,1.11,0,1.29Z" transform="translate(-1.92 -6.3)"/><path class="cls-41" d="M102.88,75.37l-.36-.21a1.73,1.73,0,0,1,.62-.66l.36.21a1.73,1.73,0,0,0-.62.66Z" transform="translate(-1.92 -6.3)"/></g></g><path class="cls-43" d="M104.72,73.33c.79.33.89,1.64.21,2.93a4,4,0,0,1-1.42,1.58,1.41,1.41,0,0,1-1.23.18c-.79-.32-.88-1.64-.21-2.93a4,4,0,0,1,1.43-1.58A1.38,1.38,0,0,1,104.72,73.33Zm-.58,2.61c.3-.58.26-1.17-.09-1.31a.62.62,0,0,0-.55.08,1.69,1.69,0,0,0-.64.7c-.3.58-.26,1.17.09,1.32a.69.69,0,0,0,.56-.09,1.74,1.74,0,0,0,.63-.7Z" transform="translate(-1.92 -6.3)"/><path class="cls-44" d="M103.5,74.71a.62.62,0,0,1,.55-.08c.35.14.39.73.09,1.31a1.74,1.74,0,0,1-.63.7.69.69,0,0,1-.56.09c-.35-.15-.39-.74-.09-1.32A1.69,1.69,0,0,1,103.5,74.71Z" transform="translate(-1.92 -6.3)"/></g><g class="cls-1"><path class="cls-40" d="M91.42,77.53a2.58,2.58,0,0,0,1.51,2.12,8.09,8.09,0,0,0,7.36,0,2.58,2.58,0,0,0,1.54-2.15V78h0v.34a2.62,2.62,0,0,1-1.54,2.15,8.11,8.11,0,0,1-7.37,0,2.58,2.58,0,0,1-1.51-2.12v-.44h0Z" transform="translate(-1.92 -6.3)"/><path class="cls-43" d="M93,75.38c-2,1.18-2,3.09,0,4.27a8.09,8.09,0,0,0,7.36,0c2-1.18,2.06-3.09,0-4.27A8.18,8.18,0,0,0,93,75.38Z" transform="translate(-1.92 -6.3)"/></g><path class="cls-49" d="M46.67,73.1,53,81.85a1.2,1.2,0,0,1-.86.59.4.4,0,0,1-.36-.12l-5.92-8.23a.4.4,0,0,0,.36.13h0l-.37-.51A1.18,1.18,0,0,1,46.67,73.1Z" transform="translate(-1.92 -6.3)"/><path class="cls-50" d="M45.88,74.09l5.92,8.23a.41.41,0,0,1,0-.4L45.88,73.7A.38.38,0,0,0,45.88,74.09Z" transform="translate(-1.92 -6.3)"/><path class="cls-50" d="M46.77,73.07a.38.38,0,0,1,.35.13l5.93,8.22a.41.41,0,0,1,0,.39l0,0L46.67,73.1Z" transform="translate(-1.92 -6.3)"/><path class="cls-43" d="M51.92,82.4a.45.45,0,0,1,0-.27,1.19,1.19,0,0,1,.88-.62.49.49,0,0,1,.25,0,.5.5,0,0,0,0-.13l.15.21.22.31.16.21.11.16,0,0,.05.06,0,0a.1.1,0,0,1,0,0l.07.11,0,0,0,0h0v0a.32.32,0,0,1,0,.14h0a.72.72,0,0,1,0,.19l0,0a.62.62,0,0,1-.15.22l-.07.07-.14.12-.09.06a.8.8,0,0,1-.16.08.38.38,0,0,1-.1,0l-.13,0h0a.5.5,0,0,1-.22,0l0,0a.31.31,0,0,1-.09-.07l-.19-.26h0l-.15-.21s.06,0,.09.06h0l-.09-.06L52,82.53l-.16-.21A.36.36,0,0,0,51.92,82.4Z" transform="translate(-1.92 -6.3)"/><path class="cls-47" d="M52,82.13h0l.94,1.3h0a.5.5,0,0,1-.22,0l0,0a.31.31,0,0,1-.09-.07l-.19-.26h0l-.15-.21s.06,0,.09.06h0l-.09-.06L52,82.53l-.16-.21a.36.36,0,0,0,.12.08A.45.45,0,0,1,52,82.13Z" transform="translate(-1.92 -6.3)"/><path class="cls-46" d="M52.54,83.29l.29.41a.39.39,0,0,1,0-.38l-.29-.4A.37.37,0,0,0,52.54,83.29Z" transform="translate(-1.92 -6.3)"/><path class="cls-47" d="M54,82.83l-.29-.4a.36.36,0,0,0-.34-.12,1.18,1.18,0,0,0-.86.61l.29.4a1.16,1.16,0,0,1,.86-.61A.36.36,0,0,1,54,82.83Z" transform="translate(-1.92 -6.3)"/><path class="cls-51" d="M52.83,83.7a.74.74,0,0,0,1.34-.36.79.79,0,0,0-.14-.51.36.36,0,0,0-.34-.12,1.2,1.2,0,0,0-.79.49,1.07,1.07,0,0,0-.1.22A.33.33,0,0,0,52.83,83.7Z" transform="translate(-1.92 -6.3)"/><path class="cls-46" d="M45.66,72.48l.09.76a.22.22,0,0,1,0-.13Z" transform="translate(-1.92 -6.3)"/><path class="cls-44" d="M46.36,72.8l-.7-.32.11.63a.67.67,0,0,1,.46-.33Z" transform="translate(-1.92 -6.3)"/><path class="cls-52" d="M45.75,73.25c0,.23,0,.47.08.71a.52.52,0,0,1,.05-.26l-.11-.59A.24.24,0,0,0,45.75,73.25Z" transform="translate(-1.92 -6.3)"/><path class="cls-53" d="M47,73.11l-.65-.31-.13,0a.67.67,0,0,0-.46.33l.11.59a1.19,1.19,0,0,1,.89-.63A.45.45,0,0,1,47,73.11Z" transform="translate(-1.92 -6.3)"/><path class="cls-46" d="M51.8,82.32l.16.21a.38.38,0,0,1,0-.4l-.15-.21A.41.41,0,0,0,51.8,82.32Z" transform="translate(-1.92 -6.3)"/><path class="cls-47" d="M53.2,81.63l-.15-.21a.37.37,0,0,0-.36-.12,1.19,1.19,0,0,0-.88.62l.15.21a1.19,1.19,0,0,1,.88-.62A.37.37,0,0,1,53.2,81.63Z" transform="translate(-1.92 -6.3)"/><path class="cls-47" d="M53.58,82.15l-.16-.21a.37.37,0,0,0-.36-.12,1.21,1.21,0,0,0-.88.62l.16.22a1.17,1.17,0,0,1,.88-.63A.4.4,0,0,1,53.58,82.15Z" transform="translate(-1.92 -6.3)"/><path class="cls-46" d="M52.18,82.84l.15.21a.39.39,0,0,1,0-.39l-.16-.22A.4.4,0,0,0,52.18,82.84Z" transform="translate(-1.92 -6.3)"/><path class="cls-54" d="M52.34,82.64v0h0Z" transform="translate(-1.92 -6.3)"/><path class="cls-47" d="M52.18,82.44a.4.4,0,0,0,0,.4L52,82.53a.38.38,0,0,1,0-.4Z" transform="translate(-1.92 -6.3)"/><path class="cls-47" d="M53.4,82.31h0l-.2-.27.06,0a.4.4,0,0,1,.36.12h0l.11.16,0,0,.05.06,0,0a.1.1,0,0,1,0,0l.07.11,0,0,0,0h0v0s0,0,0,.06l-.06-.07A.36.36,0,0,0,53.4,82.31Z" transform="translate(-1.92 -6.3)"/><path class="cls-47" d="M53.06,81.82H53l-.22-.31h.06a.46.46,0,0,1,.17,0l.07,0a.25.25,0,0,1,.12.08l.22.31A.37.37,0,0,0,53.06,81.82Z" transform="translate(-1.92 -6.3)"/><path class="cls-46" d="M53.4,82.31a.36.36,0,0,1,.34.12l.06.07.23.33a.36.36,0,0,0-.24-.11h-.14l-.29-.4Z" transform="translate(-1.92 -6.3)"/><path class="cls-46" d="M52.69,81.3a.37.37,0,0,1,.36.12l.15.21a.25.25,0,0,0-.12-.08l-.07,0a.46.46,0,0,0-.17,0h-.06l-.15-.21Z" transform="translate(-1.92 -6.3)"/><path class="cls-55" d="M52.84,81.51a.46.46,0,0,1,.17,0A.46.46,0,0,0,52.84,81.51Z" transform="translate(-1.92 -6.3)"/><polygon class="cls-55" points="51.66 75.85 51.66 75.85 51.5 75.64 51.66 75.85"/><path class="cls-46" d="M53.22,82l-.06,0L53,81.83h.06a.37.37,0,0,1,.36.12l.16.21A.4.4,0,0,0,53.22,82Z" transform="translate(-1.92 -6.3)"/><path class="cls-56" d="M133.28,90.48a5.85,5.85,0,0,0-.06-.77,7.52,7.52,0,0,0-.17-.75c-.15-.42-.16-.44-.28-.72a6.4,6.4,0,0,0-.39-.67,5.49,5.49,0,0,0-.51-.64,4.69,4.69,0,0,0-.63-.58,6.55,6.55,0,0,0-.69-.47,5,5,0,0,0-.67-.33l-.47-.17v.22c.94.54.91,1.41-.07,1.93a4,4,0,0,1-3.49,0,1.16,1.16,0,0,1-.69-1h0v-.89a2.08,2.08,0,0,0-.26.13,6.88,6.88,0,0,0-.88.57,6.12,6.12,0,0,0-.63.59,7.17,7.17,0,0,0-.5.64,4.82,4.82,0,0,0-.39.68,5.91,5.91,0,0,0-.27.72,4.9,4.9,0,0,0-.17.75,6.73,6.73,0,0,0-.06.77c0,.13,0,.3,0,.43s0,.38.08.54l0,.15h0a5.79,5.79,0,0,0,.28.88c0,.11.12.26.18.37a5,5,0,0,0,.35.58,2.43,2.43,0,0,0,.24.32c.14.17.35.39.51.55s.4.34.58.48l.46.3a5,5,0,0,0,.67.32l.61.22.55.13.52.07.5,0,.51,0a4.16,4.16,0,0,0,.51-.06c.35-.07.36-.07.54-.12a4.59,4.59,0,0,0,.59-.19,7.12,7.12,0,0,0,.66-.29,6.08,6.08,0,0,0,1.43-1.09,3.73,3.73,0,0,0,.26-.3c.14-.17.31-.41.43-.59s.27-.51.37-.73.11-.3.16-.43.09-.32.12-.46c0,.06,0,.12-.07.19a5.79,5.79,0,0,0,.14-.61A5.49,5.49,0,0,0,133.28,90.48Z" transform="translate(-1.92 -6.3)"/><path class="cls-57" d="M124.91,94.87a5.55,5.55,0,0,1-.92-.67,5.14,5.14,0,0,1-.68-.75,4.66,4.66,0,0,1-.64-1.16,5.07,5.07,0,0,1-.27-1A2.64,2.64,0,0,0,123.85,93a8.52,8.52,0,0,0,7.44.07,2.73,2.73,0,0,0,1.6-1.86c0,.18-.08.43-.14.62a6.61,6.61,0,0,1-.26.7,4.36,4.36,0,0,1-.59,1,5.43,5.43,0,0,1-2,1.55,5.57,5.57,0,0,1-2.59.49A5.45,5.45,0,0,1,124.91,94.87Z" transform="translate(-1.92 -6.3)"/><path class="cls-58" d="M131.44,89a8.59,8.59,0,0,0-7.44-.07c-2.1,1.12-2.17,3-.15,4.12a8.52,8.52,0,0,0,7.44.07C133.38,92,133.45,90.15,131.44,89Z" transform="translate(-1.92 -6.3)"/><path class="cls-26" d="M125.34,89.4a1.41,1.41,0,0,1-1.82.53,1.27,1.27,0,0,1,0-1.82,1.42,1.42,0,0,1,1.83-.53A1.28,1.28,0,0,1,125.34,89.4Z" transform="translate(-1.92 -6.3)"/><path class="cls-26" d="M124.72,91.27a.67.67,0,0,1-.78.45.61.61,0,0,1-.25-.83.65.65,0,0,1,.78-.45A.61.61,0,0,1,124.72,91.27Z" transform="translate(-1.92 -6.3)"/><rect class="cls-56" x="123.16" y="76.12" width="5.07" height="3.88"/><path class="cls-56" d="M125.08,86.57V84a1.17,1.17,0,0,0,.71,1,4.11,4.11,0,0,0,3.59,0,1.24,1.24,0,0,0,.79-1v2.55a1.22,1.22,0,0,1-.78,1,4.13,4.13,0,0,1-3.6,0A1.21,1.21,0,0,1,125.08,86.57Z" transform="translate(-1.92 -6.3)"/><path class="cls-59" d="M124.51,82.67V82.2a1.45,1.45,0,0,0,.87,1.19,5.07,5.07,0,0,0,4.4,0,1.52,1.52,0,0,0,.95-1.25v.47a1.51,1.51,0,0,1-.95,1.25,5,5,0,0,1-4.4-.05A1.45,1.45,0,0,1,124.51,82.67Z" transform="translate(-1.92 -6.3)"/><path class="cls-56" d="M129.87,81c1.19.68,1.15,1.77-.09,2.43a5.07,5.07,0,0,1-4.4,0c-1.19-.69-1.15-1.78.09-2.44A5,5,0,0,1,129.87,81Z" transform="translate(-1.92 -6.3)"/><path class="cls-59" d="M127.61,83.43a4.07,4.07,0,0,1-2-.45c-.41-.23-.63-.52-.63-.79s.26-.58.7-.82a4.19,4.19,0,0,1,1.92-.42,4.14,4.14,0,0,1,2,.46c.4.23.62.52.62.79s-.26.58-.7.81A4.19,4.19,0,0,1,127.61,83.43Z" transform="translate(-1.92 -6.3)"/><path class="cls-60" d="M125.71,81.81a4.19,4.19,0,0,1,1.92-.42,4.14,4.14,0,0,1,2,.46,1.33,1.33,0,0,1,.57.56.54.54,0,0,0,0-.21c0-.27-.22-.56-.62-.79a4.14,4.14,0,0,0-2-.46,4.19,4.19,0,0,0-1.92.42c-.44.24-.69.54-.7.82a.68.68,0,0,0,0,.23A1.44,1.44,0,0,1,125.71,81.81Z" transform="translate(-1.92 -6.3)"/><polygon class="cls-61" points="121.29 74.7 119.82 77.51 119.75 75.39 121.29 74.7"/><path class="cls-56" d="M114.67,87.34l0-6.08a1.64,1.64,0,0,0,1,1.35,5.75,5.75,0,0,0,5,0,1.72,1.72,0,0,0,1.09-1.42v6.08a1.7,1.7,0,0,1-1.08,1.42,5.75,5.75,0,0,1-5,0A1.63,1.63,0,0,1,114.67,87.34Z" transform="translate(-1.92 -6.3)"/><path class="cls-62" d="M120.74,79.89c1.35.78,1.31,2-.1,2.77a5.75,5.75,0,0,1-5,0c-1.35-.77-1.3-2,.11-2.77A5.77,5.77,0,0,1,120.74,79.89Z" transform="translate(-1.92 -6.3)"/><path class="cls-63" d="M120.63,80c1.3.74,1.25,1.92-.1,2.63a5.51,5.51,0,0,1-4.79,0c-1.29-.74-1.25-1.92.1-2.64A5.54,5.54,0,0,1,120.63,80Z" transform="translate(-1.92 -6.3)"/><polygon class="cls-62" points="119.21 73.86 121.29 74.7 119.58 75.51 119.21 73.86"/><polygon class="cls-63" points="119.18 74 121.01 74.7 119.52 75.42 119.18 74"/><path class="cls-64" d="M120.44,83.56a1.86,1.86,0,0,0,.89-.33v.22a2,2,0,0,1-.89.3Z" transform="translate(-1.92 -6.3)"/><path class="cls-64" d="M120.44,84.31a2,2,0,0,0,.89-.34v.22a2.1,2.1,0,0,1-.89.31Z" transform="translate(-1.92 -6.3)"/><path class="cls-64" d="M120.44,85.05a2,2,0,0,0,.89-.34v.23a2.09,2.09,0,0,1-.89.3Z" transform="translate(-1.92 -6.3)"/><path class="cls-64" d="M120.44,85.79a1.78,1.78,0,0,0,.89-.34v.23a2,2,0,0,1-.89.3Z" transform="translate(-1.92 -6.3)"/><path class="cls-64" d="M120.44,86.53a1.78,1.78,0,0,0,.89-.34v.23a2,2,0,0,1-.89.3Z" transform="translate(-1.92 -6.3)"/><path class="cls-64" d="M120.44,87.28a2,2,0,0,0,.89-.34v.22a2.1,2.1,0,0,1-.89.31Z" transform="translate(-1.92 -6.3)"/><path class="cls-26" d="M116.5,84.31c-.06.52-.44.9-.84.85a.84.84,0,0,1-.61-1c.07-.51.44-.89.84-.85A.84.84,0,0,1,116.5,84.31Z" transform="translate(-1.92 -6.3)"/><path class="cls-26" d="M116.67,86a.47.47,0,0,1-.45.45.46.46,0,0,1-.33-.54c0-.28.24-.48.45-.46A.46.46,0,0,1,116.67,86Z" transform="translate(-1.92 -6.3)"/><path class="cls-65" d="M95,102a.66.66,0,0,0,0,1.24l5.62,3.31a2.31,2.31,0,0,0,2.11,0l14.66-8.61a.65.65,0,0,0,0-1.23l-5.64-3.31a2.29,2.29,0,0,0-2.1,0Z" transform="translate(-1.92 -6.3)"/><path class="cls-66" d="M95.35,101.77a.64.64,0,0,0,0,1.2l5.45,3.2a2.26,2.26,0,0,0,2,0l14.21-8.35a.63.63,0,0,0,0-1.19l-5.46-3.21a2.23,2.23,0,0,0-2,0Z" transform="translate(-1.92 -6.3)"/><polyline class="cls-66" points="93.01 96.06 93.01 95.25 93.38 95.45 93.51 95.72 93.37 96.06"/><polyline class="cls-66" points="115.55 90.22 115.55 90.92 115.08 91.39 114.86 90.64 114.86 90.3"/><path class="cls-67" d="M95.35,101a.64.64,0,0,0,0,1.2l5.45,3.21a2.23,2.23,0,0,0,2,0l14.21-8.34a.64.64,0,0,0,0-1.2l-5.46-3.21a2.23,2.23,0,0,0-2,0Z" transform="translate(-1.92 -6.3)"/><path class="cls-68" d="M95.35,101.08a.64.64,0,0,0,0,1.2l5.45,3.21a2.23,2.23,0,0,0,2,0l14.21-8.34a.64.64,0,0,0,0-1.2l-5.46-3.2a2.23,2.23,0,0,0-2,0Z" transform="translate(-1.92 -6.3)"/><path class="cls-69" d="M95.35,101a.64.64,0,0,0,0,1.2l5.45,3.21a2.23,2.23,0,0,0,2,0l14.21-8.34a.64.64,0,0,0,0-1.2l-5.46-3.21a2.23,2.23,0,0,0-2,0Z" transform="translate(-1.92 -6.3)"/><polygon class="cls-70" points="107.77 86.69 95.28 94.02 102.15 98.07 114.62 90.73 107.77 86.69"/><path class="cls-68" d="M98.17,102.73c0,.25.41.45.93.45s1-.2,1-.45-.41-.44-.93-.44S98.18,102.49,98.17,102.73Z" transform="translate(-1.92 -6.3)"/><path class="cls-71" d="M98.19,102.72c0,.25.43.44,1,.44s1-.19,1-.44-.43-.43-1-.43S98.19,102.48,98.19,102.72Z" transform="translate(-1.92 -6.3)"/><path class="cls-67" d="M98.4,102.71c0,.19.33.34.74.34s.75-.15.75-.34-.34-.33-.75-.33S98.4,102.53,98.4,102.71Z" transform="translate(-1.92 -6.3)"/><path class="cls-68" d="M99.16,103c-.42,0-.75-.15-.75-.33a.24.24,0,0,1,0-.08.19.19,0,0,0,0,.1c0,.19.33.34.74.34a.88.88,0,0,0,.73-.26A1,1,0,0,1,99.16,103Z" transform="translate(-1.92 -6.3)"/><path class="cls-68" d="M114.62,95.12h0l-1.55-.91h0a.48.48,0,0,0-.18,0c-.13,0-.23,0-.23.11s0,0,0,0h0l1.55.9h0a.49.49,0,0,0,.19,0c.12,0,.23,0,.23-.11A.05.05,0,0,0,114.62,95.12Z" transform="translate(-1.92 -6.3)"/><path class="cls-71" d="M114.64,95.1h0l-1.55-.9h0a.45.45,0,0,0-.18,0c-.12,0-.23,0-.23.1a.05.05,0,0,0,0,0h0l1.55.89h0a.44.44,0,0,0,.18,0c.13,0,.23-.05.23-.11S114.66,95.12,114.64,95.1Z" transform="translate(-1.92 -6.3)"/><polygon class="cls-72" points="95.02 97.41 93.74 96.67 93.74 96.43 95.02 97.17 95.02 97.41"/><path class="cls-72" d="M97.31,103.78c0,.1,0,.15-.12.11a.33.33,0,0,1-.11-.25c0-.1,0-.15.11-.11A.3.3,0,0,1,97.31,103.78Z" transform="translate(-1.92 -6.3)"/><path class="cls-72" d="M100.67,105.77c0,.1,0,.15-.11.11a.33.33,0,0,1-.12-.25c0-.1.06-.15.12-.11A.33.33,0,0,1,100.67,105.77Z" transform="translate(-1.92 -6.3)"/><path class="cls-72" d="M100.41,105.63c0,.1,0,.15-.11.11a.3.3,0,0,1-.12-.25c0-.1,0-.15.12-.11A.33.33,0,0,1,100.41,105.63Z" transform="translate(-1.92 -6.3)"/><path class="cls-73" d="M98.66,101.19l16.49-5L109.69,93,97.2,100.32C97.2,100.38,98.66,101.19,98.66,101.19Z" transform="translate(-1.92 -6.3)"/><path class="cls-2" d="M91.39,67.57c.36.21.37.55,0,.76L67.83,82a1.44,1.44,0,0,1-1.31,0l-12-7c-.37-.21-.37-.55,0-.76L78,60.63a1.4,1.4,0,0,1,1.32,0Z" transform="translate(-1.92 -6.3)"/><path class="cls-3" d="M91.41,67.38c.37.21.37.55,0,.76L67.85,81.83a1.44,1.44,0,0,1-1.31,0l-12-6.94c-.37-.21-.37-.55,0-.76l23.57-13.7a1.44,1.44,0,0,1,1.31,0Z" transform="translate(-1.92 -6.3)"/><path class="cls-44" d="M86.15,65.17c-.29-1.78-4-3.67-6-3.11a3.08,3.08,0,0,0-.77.4c-.66.4-.6,1.12.17,1.57L82.91,66a2.9,2.9,0,0,0,2.62.11l.18-.1A.74.74,0,0,0,86.15,65.17Z" transform="translate(-1.92 -6.3)"/><path class="cls-74" d="M86.17,64.9a.79.79,0,0,1-.45.63l-.19.1a2.91,2.91,0,0,1-2.61-.1L79.59,63.6a1.08,1.08,0,0,1-.64-.83h0v.29a1.07,1.07,0,0,0,.64.84l3.33,1.92a2.91,2.91,0,0,0,2.61.11l.19-.11a.8.8,0,0,0,.45-.64V64.9Z" transform="translate(-1.92 -6.3)"/><path class="cls-75" d="M86.17,64.84s.08.43-.64.79h0a2.91,2.91,0,0,1-2.61-.1L79.58,63.6a1.14,1.14,0,0,1-.63-.76,1.1,1.1,0,0,0,.64.83l3.33,1.92a2.88,2.88,0,0,0,2.61.11l.19-.11a.8.8,0,0,0,.45-.64Z" transform="translate(-1.92 -6.3)"/><path class="cls-76" d="M86.15,64.74c-.28-1.78-4-3.67-6-3.11a3.16,3.16,0,0,0-.78.4c-.66.41-.6,1.13.18,1.57l3.33,1.93a2.91,2.91,0,0,0,2.61.1l.19-.1A.73.73,0,0,0,86.15,64.74Z" transform="translate(-1.92 -6.3)"/><path class="cls-44" d="M81.08,62a.26.26,0,0,0-.15,0c-.11,0-.16.09,0,.16s.64.2,1,.35.46,0,.42,0-.25-.19-.25-.19Z" transform="translate(-1.92 -6.3)"/><path class="cls-77" d="M81,62.07a.83.83,0,0,1,1,.11.9.9,0,0,1,.16.26A5,5,0,0,1,81,62.07Z" transform="translate(-1.92 -6.3)"/><path class="cls-44" d="M64.79,58.69s-1.26,3.43,0,4.15l.6.35h0l2.37,1.38a.37.37,0,0,1,0,.7L64.43,67.2a1.32,1.32,0,0,1-1.21,0l-1.69-1h0L61,65.86l-.08,0h0l-.58-.37s-1.06-.77-1.06-3.53Z" transform="translate(-1.92 -6.3)"/><path class="cls-76" d="M59.24,61.55c0,2.76,1.06,3.53,1.06,3.53l.58.37h0l.08,0,.54.34h0l.19.12,1.5.89a1.32,1.32,0,0,0,1.21,0l3.34-1.93a.37.37,0,0,0,0-.71l-1.5-.86-.87-.51h0l-.6-.35c-1.23-.71-.06-4,0-4.14h0Z" transform="translate(-1.92 -6.3)"/><path class="cls-78" d="M59.24,61.55c0,2.76,1.06,3.53,1.06,3.53l.58.37h0l.08,0,.54.34h0l.19.12,4.55-2.6-.87-.51h0l-.6-.35c-1.23-.71-.06-4,0-4.14h0Z" transform="translate(-1.92 -6.3)"/><path class="cls-79" d="M66.93,56.78l-.08,4.08a1,1,0,0,0,.5.84l3.75,2.17a.31.31,0,0,1,0,.54L67.47,66.6a.35.35,0,0,0,0,.61l1.51,1" transform="translate(-1.92 -6.3)"/><g class="cls-1"><path class="cls-80" d="M74,31.84l.89.51a.77.77,0,0,0-.78.07l-.88-.51A.76.76,0,0,1,74,31.84Z" transform="translate(-1.92 -6.3)"/><path class="cls-78" d="M49.37,68l-.89-.51a.79.79,0,0,1-.32-.7l.89.51A.75.75,0,0,0,49.37,68Z" transform="translate(-1.92 -6.3)"/><polygon class="cls-78" points="47.13 61.04 46.24 60.52 46.19 41.34 47.07 41.85 47.13 61.04"/><polygon class="cls-78" points="48.16 39.96 47.28 39.45 71.25 25.61 72.14 26.12 48.16 39.96"/><path class="cls-80" d="M49,48.16l-.88-.52a2.43,2.43,0,0,1,1.09-1.89l.88.52A2.41,2.41,0,0,0,49,48.16Z" transform="translate(-1.92 -6.3)"/><path class="cls-80" d="M74.06,32.42c.6-.34,1.09-.06,1.1.63l0,19.18a2.41,2.41,0,0,1-1.09,1.89L50.14,68c-.6.35-1.09.07-1.09-.62L49,48.16a2.41,2.41,0,0,1,1.09-1.89Z" transform="translate(-1.92 -6.3)"/></g><path class="cls-81" d="M74.06,32.4c.6-.35,1.1-.07,1.1.63l0,19.18a2.41,2.41,0,0,1-1.09,1.89l-24,13.84c-.6.35-1.09.07-1.09-.62L49,48.13a2.43,2.43,0,0,1,1.09-1.89Z" transform="translate(-1.92 -6.3)"/><path class="cls-76" d="M75.21,50.7v1.53a2.41,2.41,0,0,1-1.09,1.89L50.14,68c-.6.35-1.09.07-1.1-.62V65.81Z" transform="translate(-1.92 -6.3)"/><polygon class="cls-82" points="72.37 27.23 72.41 43.73 48.3 57.66 48.25 41.15 72.37 27.23"/><polygon class="cls-70" points="72.37 27.23 72.42 43.74 67.9 46.35 53.48 38.13 72.37 27.23"/><polygon class="cls-83" points="70.96 46.93 70.96 47.9 70.26 48.3 70.25 47.34 70.96 46.93"/><path class="cls-44" d="M83.27,67.62c.21.12.21.32,0,.45L67.89,77a.87.87,0,0,1-.77,0l-6.28-3.63a.23.23,0,0,1,0-.44L76.23,64A.85.85,0,0,1,77,64Z" transform="translate(-1.92 -6.3)"/><path class="cls-76" d="M83.27,67.36c.21.13.21.33,0,.45L67.89,76.75a.87.87,0,0,1-.77,0l-6.28-3.62c-.21-.13-.21-.33,0-.45l15.39-8.94a.85.85,0,0,1,.76,0Z" transform="translate(-1.92 -6.3)"/><path class="cls-47" d="M66.36,70.75c.06,0,.06.07,0,.1l-.81.47a.19.19,0,0,1-.18,0L65,71.08A.06.06,0,0,1,65,71l.81-.46a.19.19,0,0,1,.18,0Z" transform="translate(-1.92 -6.3)"/><path class="cls-76" d="M65.47,71.39a.25.25,0,0,1-.12,0l-.41-.24s-.07-.06-.07-.1a.12.12,0,0,1,.07-.1l.8-.47a.26.26,0,0,1,.24,0l.41.24a.11.11,0,0,1,0,.2l-.8.47A.23.23,0,0,1,65.47,71.39ZM65,71h0l.42.24a.15.15,0,0,0,.13,0l.8-.46h0l-.42-.24a.15.15,0,0,0-.13,0L65,71Z" transform="translate(-1.92 -6.3)"/><path class="cls-47" d="M65.26,71.39s0,.08,0,.1l-.8.47a.19.19,0,0,1-.18,0l-.42-.24a.06.06,0,0,1,0-.11l.8-.46a.19.19,0,0,1,.18,0Z" transform="translate(-1.92 -6.3)"/><path class="cls-76" d="M64.37,72a.21.21,0,0,1-.12,0l-.42-.24a.12.12,0,0,1-.06-.1.11.11,0,0,1,.06-.1l.8-.47a.25.25,0,0,1,.24,0l.42.24a.12.12,0,0,1,.06.1.11.11,0,0,1-.06.1l-.8.47A.27.27,0,0,1,64.37,72Zm-.49-.37h0l.41.24a.15.15,0,0,0,.13,0l.8-.46h0l-.41-.24a.15.15,0,0,0-.13,0l-.8.46Z" transform="translate(-1.92 -6.3)"/><path class="cls-47" d="M64.16,72a.06.06,0,0,1,0,.11l-.81.46a.19.19,0,0,1-.18,0l-.41-.24c-.06,0-.06-.07,0-.1l.81-.47a.19.19,0,0,1,.18,0Z" transform="translate(-1.92 -6.3)"/><path class="cls-76" d="M63.26,72.68a.27.27,0,0,1-.12,0l-.41-.24a.11.11,0,0,1,0-.2l.8-.47a.26.26,0,0,1,.24,0l.41.24s.07.06.07.1a.12.12,0,0,1-.07.1l-.8.47A.24.24,0,0,1,63.26,72.68Zm-.49-.37h0l.42.24a.15.15,0,0,0,.13,0l.8-.47h0l-.42-.24a.15.15,0,0,0-.13,0l-.8.46Z" transform="translate(-1.92 -6.3)"/><path class="cls-47" d="M63.05,72.67a.06.06,0,0,1,0,.11l-.8.46a.19.19,0,0,1-.18,0L61.65,73s0-.07,0-.1l.8-.47a.19.19,0,0,1,.18,0Z" transform="translate(-1.92 -6.3)"/><path class="cls-76" d="M62.16,73.32a.24.24,0,0,1-.12,0l-.42-.24a.11.11,0,0,1-.06-.1.12.12,0,0,1,.06-.1l.8-.46a.25.25,0,0,1,.24,0l.42.24a.11.11,0,0,1,.06.1.12.12,0,0,1-.06.1l-.8.46A.27.27,0,0,1,62.16,73.32ZM61.67,73h0l.41.24a.15.15,0,0,0,.13,0l.8-.47h0l-.41-.24a.15.15,0,0,0-.13,0l-.8.47Z" transform="translate(-1.92 -6.3)"/><path class="cls-47" d="M64.09,73.28s.06.07,0,.1l-.8.47a.19.19,0,0,1-.18,0l-.79-.46a.06.06,0,0,1,0-.11l.8-.46a.19.19,0,0,1,.18,0Z" transform="translate(-1.92 -6.3)"/><path class="cls-76" d="M63.2,73.92a.27.27,0,0,1-.12,0l-.79-.45a.12.12,0,0,1-.06-.1.11.11,0,0,1,.06-.1l.8-.47a.25.25,0,0,1,.24,0l.79.46a.12.12,0,0,1,.07.1s0,.07-.07.1l-.8.46A.24.24,0,0,1,63.2,73.92Zm-.86-.58h0l.79.46a.15.15,0,0,0,.13,0l.8-.47h0l-.79-.45a.15.15,0,0,0-.13,0l-.8.46Z" transform="translate(-1.92 -6.3)"/><path class="cls-47" d="M68,73.4c.06,0,.06.08,0,.11l-.81.46a.19.19,0,0,1-.18,0l-.79-.45a.06.06,0,0,1,0-.11l.8-.47a.28.28,0,0,1,.18,0Z" transform="translate(-1.92 -6.3)"/><path class="cls-76" d="M67.14,74.05A.27.27,0,0,1,67,74l-.79-.46a.11.11,0,0,1-.06-.1.12.12,0,0,1,.06-.1l.8-.46a.25.25,0,0,1,.24,0l.79.45s.07.06.07.1a.12.12,0,0,1-.07.1l-.8.47A.24.24,0,0,1,67.14,74.05Zm-.86-.59h0l.79.46a.15.15,0,0,0,.13,0l.8-.47h0L67.22,73a.15.15,0,0,0-.13,0l-.8.47Z" transform="translate(-1.92 -6.3)"/><path class="cls-47" d="M66.73,72.94a.06.06,0,0,1,0,.11l-.8.46a.19.19,0,0,1-.18,0L65,73.06A.06.06,0,0,1,65,73l.8-.47a.19.19,0,0,1,.18,0Z" transform="translate(-1.92 -6.3)"/><path class="cls-76" d="M65.84,73.59a.24.24,0,0,1-.12,0l-.79-.46a.12.12,0,0,1-.07-.1s0-.07.07-.1l.8-.46a.25.25,0,0,1,.24,0l.79.45a.12.12,0,0,1,.06.1.11.11,0,0,1-.06.1l-.8.47A.27.27,0,0,1,65.84,73.59ZM65,73h0l.79.45a.2.2,0,0,0,.13,0l.8-.47h0l-.79-.46a.15.15,0,0,0-.13,0L65,73Z" transform="translate(-1.92 -6.3)"/><path class="cls-47" d="M65.16,72.66s0,.08,0,.1l-.81.47a.19.19,0,0,1-.18,0l-.79-.46c-.05,0-.05-.07,0-.1l.8-.47a.19.19,0,0,1,.18,0Z" transform="translate(-1.92 -6.3)"/><path class="cls-76" d="M64.26,73.31a.27.27,0,0,1-.12,0l-.79-.46a.11.11,0,0,1,0-.2l.8-.47a.33.33,0,0,1,.24,0l.79.46s.07.06.07.1a.12.12,0,0,1-.07.1l-.8.47A.21.21,0,0,1,64.26,73.31Zm-.86-.59h0l.79.45a.15.15,0,0,0,.13,0l.8-.46h0l-.79-.46a.15.15,0,0,0-.13,0l-.8.46Z" transform="translate(-1.92 -6.3)"/><path class="cls-47" d="M71.75,72.46a.06.06,0,0,1,0,.11L71,73a.21.21,0,0,1-.19,0L70,72.58a.06.06,0,0,1,0-.11l.8-.46A.21.21,0,0,1,71,72Z" transform="translate(-1.92 -6.3)"/><path class="cls-76" d="M70.85,73.11a.2.2,0,0,1-.11,0l-.8-.46a.11.11,0,0,1-.06-.1.11.11,0,0,1,.06-.09l.81-.47A.24.24,0,0,1,71,72l.79.46a.1.1,0,0,1,.07.1s0,.07-.07.1l-.8.46A.21.21,0,0,1,70.85,73.11ZM70,72.52h0l.79.46a.15.15,0,0,0,.13,0l.8-.47h0l-.79-.46a.15.15,0,0,0-.13,0l-.8.47Z" transform="translate(-1.92 -6.3)"/><path class="cls-47" d="M72.81,71.84a.06.06,0,0,1,0,.11l-.8.47a.19.19,0,0,1-.18,0L71,72c-.06,0-.06-.08,0-.11l.8-.46a.19.19,0,0,1,.18,0Z" transform="translate(-1.92 -6.3)"/><path class="cls-76" d="M71.92,72.49a.24.24,0,0,1-.12,0L71,72s-.07-.06-.07-.1a.12.12,0,0,1,.07-.1l.8-.47a.25.25,0,0,1,.24,0l.79.46a.11.11,0,0,1,.06.1.12.12,0,0,1-.06.1l-.8.46A.27.27,0,0,1,71.92,72.49Zm-.87-.58h0l.79.46a.15.15,0,0,0,.13,0l.8-.47h0L72,71.43a.19.19,0,0,0-.13,0l-.8.47Z" transform="translate(-1.92 -6.3)"/><g class="cls-1"><path class="cls-47" d="M68.34,70.81s0,.07,0,.1l-.8.47a.19.19,0,0,1-.18,0l-.79-.46c-.06,0-.06-.07,0-.1l.8-.47a.19.19,0,0,1,.18,0Z" transform="translate(-1.92 -6.3)"/><path class="cls-76" d="M67.45,71.46a.24.24,0,0,1-.12,0L66.54,71a.11.11,0,0,1,0-.2l.8-.47a.26.26,0,0,1,.24,0l.79.46a.11.11,0,0,1,0,.2l-.8.47A.27.27,0,0,1,67.45,71.46Zm-.87-.59h0l.79.45a.15.15,0,0,0,.13,0l.8-.46h0l-.79-.45a.15.15,0,0,0-.13,0l-.8.46Z" transform="translate(-1.92 -6.3)"/><path class="cls-47" d="M69.92,71.09s0,.08,0,.1l-.8.47a.21.21,0,0,1-.19,0l-.79-.46s0-.07,0-.1l.8-.47a.21.21,0,0,1,.19,0Z" transform="translate(-1.92 -6.3)"/><path class="cls-76" d="M69,71.74a.2.2,0,0,1-.11,0l-.8-.46a.11.11,0,0,1-.06-.1.12.12,0,0,1,.06-.1l.81-.46a.24.24,0,0,1,.23,0l.79.45s.07.06.07.1a.1.1,0,0,1-.07.1l-.8.47A.21.21,0,0,1,69,71.74Zm-.86-.59h0l.79.45a.15.15,0,0,0,.13,0l.8-.46h0l-.79-.46a.15.15,0,0,0-.13,0l-.8.47Z" transform="translate(-1.92 -6.3)"/><path class="cls-47" d="M67.28,71.42a.06.06,0,0,1,0,.11l-.8.47a.21.21,0,0,1-.19,0l-.79-.46a.06.06,0,0,1,0-.11l.81-.46a.19.19,0,0,1,.18,0Z" transform="translate(-1.92 -6.3)"/><path class="cls-76" d="M66.39,72.07a.21.21,0,0,1-.12,0l-.79-.45s-.07-.06-.07-.1a.12.12,0,0,1,.07-.1l.8-.47a.25.25,0,0,1,.24,0l.79.46a.11.11,0,0,1,.06.1.12.12,0,0,1-.06.1l-.8.46A.27.27,0,0,1,66.39,72.07Zm-.87-.58h0l.79.46a.15.15,0,0,0,.13,0l.8-.47h0L66.46,71a.28.28,0,0,0-.13,0l-.8.47Z" transform="translate(-1.92 -6.3)"/><path class="cls-47" d="M71.23,71.55s0,.07,0,.1l-.8.47a.21.21,0,0,1-.19,0l-.79-.46a.06.06,0,0,1,0-.11l.8-.46a.21.21,0,0,1,.19,0Z" transform="translate(-1.92 -6.3)"/><path class="cls-76" d="M70.34,72.19a.21.21,0,0,1-.12,0l-.79-.45c-.05,0-.07-.06-.07-.1a.11.11,0,0,1,.06-.1l.81-.47a.24.24,0,0,1,.23,0l.8.46a.11.11,0,0,1,.06.1.12.12,0,0,1-.06.1l-.81.46A.2.2,0,0,1,70.34,72.19Zm-.87-.58h0l.79.46a.15.15,0,0,0,.13,0l.8-.47h0l-.79-.45a.15.15,0,0,0-.13,0l-.8.46Z" transform="translate(-1.92 -6.3)"/><path class="cls-47" d="M68.85,71.71c.06,0,.06.07,0,.1l-.81.47a.19.19,0,0,1-.18,0l-.79-.46s0-.08,0-.1l.8-.47a.19.19,0,0,1,.18,0Z" transform="translate(-1.92 -6.3)"/><path class="cls-76" d="M68,72.35a.27.27,0,0,1-.12,0l-.79-.45a.12.12,0,0,1-.06-.1.11.11,0,0,1,.06-.1l.8-.47a.26.26,0,0,1,.24,0l.79.46a.12.12,0,0,1,.07.1s0,.07-.07.1l-.8.46A.24.24,0,0,1,68,72.35Zm-.86-.58h0l.79.46a.15.15,0,0,0,.13,0l.8-.46h0L68,71.3a.15.15,0,0,0-.13,0l-.8.46Z" transform="translate(-1.92 -6.3)"/><path class="cls-47" d="M66.22,72a.06.06,0,0,1,0,.11l-.8.46a.21.21,0,0,1-.19,0l-.79-.45a.06.06,0,0,1,0-.11l.8-.47a.31.31,0,0,1,.19,0Z" transform="translate(-1.92 -6.3)"/><path class="cls-76" d="M65.32,72.69a.2.2,0,0,1-.11,0l-.79-.46a.1.1,0,0,1-.07-.1.12.12,0,0,1,.06-.1l.81-.46a.24.24,0,0,1,.23,0l.79.45c.05,0,.07.06.07.1a.11.11,0,0,1-.06.1l-.81.47A.21.21,0,0,1,65.32,72.69Zm-.86-.59h0l.79.46a.15.15,0,0,0,.13,0l.8-.47h0l-.79-.46a.15.15,0,0,0-.13,0l-.8.47Z" transform="translate(-1.92 -6.3)"/><path class="cls-47" d="M70.16,72.16a.06.06,0,0,1,0,.11l-.8.47a.19.19,0,0,1-.18,0l-.79-.46a.06.06,0,0,1,0-.11l.8-.46a.19.19,0,0,1,.18,0Z" transform="translate(-1.92 -6.3)"/><path class="cls-76" d="M69.27,72.81a.27.27,0,0,1-.12,0l-.79-.45a.12.12,0,0,1-.06-.1.11.11,0,0,1,.06-.1l.8-.47a.25.25,0,0,1,.24,0l.79.46a.12.12,0,0,1,.07.1s0,.07-.07.1l-.8.46A.24.24,0,0,1,69.27,72.81Zm-.86-.58h0l.79.46a.13.13,0,0,0,.12,0l.81-.47h0l-.79-.46a.15.15,0,0,0-.13,0l-.81.47Z" transform="translate(-1.92 -6.3)"/><path class="cls-47" d="M67.79,72.32a.06.06,0,0,1,0,.11l-.8.46a.19.19,0,0,1-.18,0L66,72.44a.06.06,0,0,1,0-.11l.8-.46a.19.19,0,0,1,.18,0Z" transform="translate(-1.92 -6.3)"/><path class="cls-76" d="M66.9,73a.27.27,0,0,1-.12,0L66,72.49a.14.14,0,0,1-.06-.1.11.11,0,0,1,.06-.1l.8-.47a.25.25,0,0,1,.24,0l.79.46a.12.12,0,0,1,.07.1s0,.07-.07.1l-.8.46A.24.24,0,0,1,66.9,73ZM66,72.39h0l.79.46a.13.13,0,0,0,.12,0l.81-.47h0L67,71.91a.15.15,0,0,0-.13,0l-.81.47Z" transform="translate(-1.92 -6.3)"/><path class="cls-47" d="M69.1,72.78a.06.06,0,0,1,0,.11l-.8.46a.21.21,0,0,1-.19,0l-.79-.45a.06.06,0,0,1,0-.11l.81-.46a.19.19,0,0,1,.18,0Z" transform="translate(-1.92 -6.3)"/><path class="cls-76" d="M68.21,73.43a.21.21,0,0,1-.12,0l-.79-.46a.12.12,0,0,1-.07-.1.1.1,0,0,1,.07-.09l.8-.47a.25.25,0,0,1,.24,0l.79.46a.11.11,0,0,1,.06.1.12.12,0,0,1-.06.1l-.81.46A.2.2,0,0,1,68.21,73.43Zm-.87-.59h0l.79.46a.15.15,0,0,0,.13,0l.8-.47h0l-.79-.46a.15.15,0,0,0-.13,0l-.8.47Z" transform="translate(-1.92 -6.3)"/></g><path class="cls-47" d="M73.1,69.24c.05,0,.05.07,0,.1l-.8.47a.19.19,0,0,1-.18,0l-.79-.46s0-.07,0-.1l.8-.47a.19.19,0,0,1,.18,0Z" transform="translate(-1.92 -6.3)"/><path class="cls-76" d="M72.21,69.89a.24.24,0,0,1-.12,0l-.79-.46a.11.11,0,0,1,0-.2l.8-.47a.33.33,0,0,1,.24,0l.79.46a.11.11,0,0,1,0,.2l-.8.47A.27.27,0,0,1,72.21,69.89Zm-.87-.59h0l.79.45a.15.15,0,0,0,.13,0l.8-.46h0l-.79-.45a.13.13,0,0,0-.12,0l-.81.46Z" transform="translate(-1.92 -6.3)"/><path class="cls-47" d="M77.07,69.37a.06.06,0,0,1,0,.11l-.8.46a.21.21,0,0,1-.19,0l-.79-.45a.06.06,0,0,1,0-.11l.8-.47a.31.31,0,0,1,.19,0Z" transform="translate(-1.92 -6.3)"/><path class="cls-76" d="M76.17,70a.2.2,0,0,1-.11,0l-.8-.46a.11.11,0,0,1-.06-.1.12.12,0,0,1,.06-.1l.81-.46a.24.24,0,0,1,.23,0l.79.45s.07.06.07.1a.1.1,0,0,1-.07.1l-.8.47A.21.21,0,0,1,76.17,70Zm-.86-.59h0l.79.46a.15.15,0,0,0,.13,0l.8-.47h0L76.25,69a.15.15,0,0,0-.13,0l-.8.47Z" transform="translate(-1.92 -6.3)"/><path class="cls-47" d="M75.49,69.07a.06.06,0,0,1,0,.11l-.81.46a.19.19,0,0,1-.18,0l-.79-.45a.06.06,0,0,1,0-.11l.8-.47a.28.28,0,0,1,.18,0Z" transform="translate(-1.92 -6.3)"/><path class="cls-76" d="M74.59,69.72a.27.27,0,0,1-.12,0l-.79-.46a.11.11,0,0,1-.06-.1.12.12,0,0,1,.06-.1l.8-.46a.25.25,0,0,1,.24,0l.79.45s.07.06.07.1a.12.12,0,0,1-.07.1l-.8.47A.21.21,0,0,1,74.59,69.72Zm-.86-.59h0l.79.46a.15.15,0,0,0,.13,0l.8-.47h0l-.79-.46a.15.15,0,0,0-.13,0l-.8.47Z" transform="translate(-1.92 -6.3)"/><path class="cls-47" d="M73.65,67.72a.06.06,0,0,1,0,.11l-.8.46a.21.21,0,0,1-.19,0l-.79-.45a.06.06,0,0,1,0-.11l.81-.46a.19.19,0,0,1,.18,0Z" transform="translate(-1.92 -6.3)"/><path class="cls-76" d="M72.76,68.37a.21.21,0,0,1-.12,0l-.79-.46a.1.1,0,0,1,0-.19l.8-.47a.25.25,0,0,1,.24,0l.79.46a.11.11,0,0,1,.06.1.12.12,0,0,1-.06.1l-.8.46A.27.27,0,0,1,72.76,68.37Zm-.87-.59h0l.79.46a.15.15,0,0,0,.13,0l.8-.47h0l-.79-.46a.15.15,0,0,0-.13,0l-.8.47Z" transform="translate(-1.92 -6.3)"/><path class="cls-47" d="M74.71,67.11c.05,0,.05.07,0,.1l-.8.47a.19.19,0,0,1-.18,0l-.79-.46c-.06,0-.06-.08,0-.11l.8-.46a.19.19,0,0,1,.18,0Z" transform="translate(-1.92 -6.3)"/><path class="cls-76" d="M73.82,67.75a.24.24,0,0,1-.12,0l-.79-.45s-.07-.06-.07-.1a.12.12,0,0,1,.07-.1l.8-.47a.25.25,0,0,1,.24,0l.79.46a.11.11,0,0,1,.06.1.12.12,0,0,1-.06.1l-.8.46A.27.27,0,0,1,73.82,67.75ZM73,67.17h0l.79.46a.15.15,0,0,0,.13,0l.8-.47h0l-.79-.45a.15.15,0,0,0-.13,0l-.8.46Z" transform="translate(-1.92 -6.3)"/><path class="cls-47" d="M75.22,68c.06,0,.06.08,0,.11l-.81.47a.19.19,0,0,1-.18,0l-.79-.46a.06.06,0,0,1,0-.11l.8-.46a.19.19,0,0,1,.18,0Z" transform="translate(-1.92 -6.3)"/><path class="cls-76" d="M74.33,68.65l-.12,0-.79-.45a.12.12,0,0,1-.06-.1.11.11,0,0,1,.06-.1l.8-.47a.25.25,0,0,1,.24,0l.79.46a.12.12,0,0,1,.07.1s0,.07-.07.1l-.8.46A.24.24,0,0,1,74.33,68.65Zm-.86-.58h0l.79.46a.15.15,0,0,0,.13,0l.8-.47h0l-.79-.46a.15.15,0,0,0-.13,0l-.8.47Z" transform="translate(-1.92 -6.3)"/><path class="cls-47" d="M74.16,68.62a.06.06,0,0,1,0,.11l-.8.46a.19.19,0,0,1-.18,0l-.79-.45a.06.06,0,0,1,0-.11l.8-.47a.28.28,0,0,1,.18,0Z" transform="translate(-1.92 -6.3)"/><path class="cls-76" d="M73.27,69.27a.27.27,0,0,1-.12,0l-.79-.46a.11.11,0,0,1-.06-.1.12.12,0,0,1,.06-.1l.8-.46a.26.26,0,0,1,.24,0l.79.45s.07.06.07.1a.12.12,0,0,1-.07.1l-.8.47A.24.24,0,0,1,73.27,69.27Zm-.86-.59h0l.79.46a.13.13,0,0,0,.12,0l.81-.47h0l-.79-.46a.15.15,0,0,0-.13,0l-.81.47Z" transform="translate(-1.92 -6.3)"/><g class="cls-1"><path class="cls-47" d="M74.42,69.69a.06.06,0,0,1,0,.11l-.8.46a.19.19,0,0,1-.18,0l-.79-.46c-.05,0-.05-.07,0-.1l.8-.47a.19.19,0,0,1,.18,0Z" transform="translate(-1.92 -6.3)"/><path class="cls-76" d="M73.53,70.34a.24.24,0,0,1-.12,0l-.79-.46a.12.12,0,0,1-.07-.1s0-.07.07-.1l.8-.46a.25.25,0,0,1,.24,0l.79.45a.12.12,0,0,1,.06.1.11.11,0,0,1-.06.1l-.8.47Zm-.87-.59h0l.79.45a.15.15,0,0,0,.13,0l.8-.46h0l-.79-.46a.15.15,0,0,0-.13,0l-.8.47Z" transform="translate(-1.92 -6.3)"/><path class="cls-47" d="M76,70a.06.06,0,0,1,0,.11l-.8.46a.19.19,0,0,1-.18,0l-.79-.46s0-.07,0-.1l.8-.47a.19.19,0,0,1,.18,0Z" transform="translate(-1.92 -6.3)"/><path class="cls-76" d="M75.11,70.64a.27.27,0,0,1-.12,0l-.79-.46a.11.11,0,0,1-.06-.1.12.12,0,0,1,.06-.1l.8-.46a.26.26,0,0,1,.24,0l.79.45s.07.06.07.1a.12.12,0,0,1-.07.1l-.8.47A.27.27,0,0,1,75.11,70.64Zm-.86-.59h0l.8.45a.13.13,0,0,0,.12,0l.81-.46h0l-.8-.46a.13.13,0,0,0-.12,0l-.81.47Z" transform="translate(-1.92 -6.3)"/><path class="cls-47" d="M73.36,70.31s0,.07,0,.1l-.8.47a.21.21,0,0,1-.19,0l-.79-.46s0-.07,0-.1l.8-.47a.21.21,0,0,1,.19,0Z" transform="translate(-1.92 -6.3)"/><path class="cls-76" d="M72.46,71a.2.2,0,0,1-.11,0l-.8-.46a.11.11,0,0,1,0-.2l.81-.47a.31.31,0,0,1,.23,0l.79.46c.05,0,.07.06.07.1a.1.1,0,0,1-.07.1l-.8.47A.21.21,0,0,1,72.46,71Zm-.86-.59h0l.79.45a.15.15,0,0,0,.13,0l.8-.46h0l-.79-.46a.15.15,0,0,0-.13,0l-.8.46Z" transform="translate(-1.92 -6.3)"/><path class="cls-47" d="M74.94,70.61s0,.07,0,.1l-.8.47a.21.21,0,0,1-.19,0l-.79-.46s0-.07,0-.1l.8-.47a.21.21,0,0,1,.19,0Z" transform="translate(-1.92 -6.3)"/><path class="cls-76" d="M74.05,71.26a.21.21,0,0,1-.12,0l-.79-.46a.11.11,0,0,1,0-.2l.8-.47a.24.24,0,0,1,.23,0l.8.46a.11.11,0,0,1,0,.2l-.81.47A.2.2,0,0,1,74.05,71.26Zm-.87-.59h0l.79.45a.15.15,0,0,0,.13,0l.8-.46h0l-.79-.45a.15.15,0,0,0-.13,0l-.8.46Z" transform="translate(-1.92 -6.3)"/></g><g class="cls-1"><path class="cls-47" d="M68.57,69.46c.06,0,.06.08,0,.11l-.81.46a.19.19,0,0,1-.18,0l-.42-.24s0-.07,0-.1l.81-.47a.19.19,0,0,1,.18,0Z" transform="translate(-1.92 -6.3)"/><path class="cls-76" d="M67.68,70.11a.27.27,0,0,1-.12,0l-.41-.24a.12.12,0,0,1-.07-.1s0-.07.07-.1l.8-.46a.25.25,0,0,1,.24,0l.41.24a.12.12,0,0,1,.07.1.15.15,0,0,1-.07.1l-.8.46A.24.24,0,0,1,67.68,70.11Zm-.49-.37h0l.42.24a.15.15,0,0,0,.13,0l.8-.47h0l-.42-.24a.15.15,0,0,0-.13,0l-.8.47Z" transform="translate(-1.92 -6.3)"/><path class="cls-47" d="M70.46,69.57c.05,0,.06.08,0,.11l-.8.47a.28.28,0,0,1-.18,0l-.79-.46a.06.06,0,0,1,0-.11l.8-.46a.19.19,0,0,1,.18,0Z" transform="translate(-1.92 -6.3)"/><path class="cls-76" d="M69.57,70.22a.27.27,0,0,1-.12,0l-.79-.45a.12.12,0,0,1-.06-.1.11.11,0,0,1,.06-.1l.8-.47a.26.26,0,0,1,.24,0l.79.46a.12.12,0,0,1,.07.1s0,.07-.07.1l-.8.46A.24.24,0,0,1,69.57,70.22Zm-.86-.58h0l.79.46a.15.15,0,0,0,.13,0l.8-.47h0l-.79-.46a.15.15,0,0,0-.13,0l-.8.47Z" transform="translate(-1.92 -6.3)"/><path class="cls-47" d="M72,69.86s0,.07,0,.1l-.8.47a.19.19,0,0,1-.18,0l-.8-.46a.06.06,0,0,1,0-.11l.81-.46a.19.19,0,0,1,.18,0Z" transform="translate(-1.92 -6.3)"/><path class="cls-76" d="M71.15,70.5a.21.21,0,0,1-.12,0L70.24,70s-.07-.06-.07-.1a.12.12,0,0,1,.07-.1l.8-.47a.25.25,0,0,1,.24,0l.79.46a.11.11,0,0,1,.06.1.12.12,0,0,1-.06.1l-.8.46A.27.27,0,0,1,71.15,70.5Zm-.87-.58h0l.79.46a.15.15,0,0,0,.13,0l.8-.47h0l-.79-.45a.15.15,0,0,0-.13,0l-.8.46Z" transform="translate(-1.92 -6.3)"/><path class="cls-47" d="M69.4,70.19a.06.06,0,0,1,0,.11l-.8.46a.19.19,0,0,1-.18,0l-.79-.45a.06.06,0,0,1,0-.11l.8-.47a.19.19,0,0,1,.18,0Z" transform="translate(-1.92 -6.3)"/><path class="cls-76" d="M68.51,70.84a.24.24,0,0,1-.12,0l-.79-.46a.12.12,0,0,1-.07-.1s0-.07.07-.1l.8-.46a.25.25,0,0,1,.24,0l.79.45a.12.12,0,0,1,.06.1.11.11,0,0,1-.06.1l-.8.47A.27.27,0,0,1,68.51,70.84Zm-.86-.59h0l.8.46a.17.17,0,0,0,.12,0l.81-.47h0l-.8-.46a.13.13,0,0,0-.12,0l-.81.47Z" transform="translate(-1.92 -6.3)"/><path class="cls-47" d="M71,70.47a.06.06,0,0,1,0,.11l-.8.46A.21.21,0,0,1,70,71l-.79-.45a.06.06,0,0,1,0-.11L70,70a.21.21,0,0,1,.19,0Z" transform="translate(-1.92 -6.3)"/><path class="cls-76" d="M70.09,71.12a.21.21,0,0,1-.12,0l-.79-.46a.1.1,0,0,1-.07-.1s0-.07.07-.1L70,70a.24.24,0,0,1,.23,0l.8.46a.11.11,0,0,1,.06.1.11.11,0,0,1-.06.09l-.81.47A.2.2,0,0,1,70.09,71.12Zm-.87-.59h0L70,71a.15.15,0,0,0,.13,0l.8-.47h0l-.79-.46a.15.15,0,0,0-.13,0l-.8.47Z" transform="translate(-1.92 -6.3)"/><path class="cls-47" d="M72.29,70.93s0,.07,0,.1l-.8.47a.19.19,0,0,1-.18,0L70.52,71s0-.07,0-.1l.8-.47a.19.19,0,0,1,.18,0Z" transform="translate(-1.92 -6.3)"/><path class="cls-76" d="M71.4,71.58a.24.24,0,0,1-.12,0l-.79-.46a.11.11,0,0,1,0-.2l.8-.47a.25.25,0,0,1,.24,0l.79.46a.11.11,0,0,1,0,.2l-.8.47A.27.27,0,0,1,71.4,71.58ZM70.54,71h0l.8.45a.13.13,0,0,0,.12,0l.81-.46h0l-.8-.45a.13.13,0,0,0-.12,0l-.81.46Z" transform="translate(-1.92 -6.3)"/></g><path class="cls-47" d="M69.68,68.82a.06.06,0,0,1,0,.11l-.8.46a.19.19,0,0,1-.18,0l-.42-.24s0-.07,0-.1l.8-.47a.19.19,0,0,1,.18,0Z" transform="translate(-1.92 -6.3)"/><path class="cls-76" d="M68.79,69.47a.21.21,0,0,1-.12,0l-.42-.24a.11.11,0,0,1,0-.2l.8-.47a.25.25,0,0,1,.24,0l.42.24a.12.12,0,0,1,.06.1.11.11,0,0,1-.06.1l-.8.47A.27.27,0,0,1,68.79,69.47Zm-.49-.37h0l.41.24a.19.19,0,0,0,.13,0l.8-.47h0l-.41-.24a.15.15,0,0,0-.13,0l-.8.46Z" transform="translate(-1.92 -6.3)"/><path class="cls-47" d="M76.55,68.45a.06.06,0,0,1,0,.11l-.8.46a.19.19,0,0,1-.18,0l-.79-.45c-.06,0-.06-.08,0-.11l.81-.46a.19.19,0,0,1,.18,0Z" transform="translate(-1.92 -6.3)"/><path class="cls-76" d="M75.66,69.1a.24.24,0,0,1-.12,0l-.79-.46a.1.1,0,0,1,0-.19l.8-.47a.26.26,0,0,1,.24,0l.79.46a.11.11,0,0,1,.06.1.12.12,0,0,1-.06.1l-.8.46A.27.27,0,0,1,75.66,69.1Zm-.87-.59h0l.79.46a.15.15,0,0,0,.13,0l.8-.47h0L75.73,68a.15.15,0,0,0-.13,0l-.8.47Z" transform="translate(-1.92 -6.3)"/><path class="cls-47" d="M82.75,67.43c.06,0,.06.07,0,.1L82,68a.19.19,0,0,1-.18,0l-.39-.23s0-.07,0-.1l.8-.47a.21.21,0,0,1,.19,0Z" transform="translate(-1.92 -6.3)"/><path class="cls-76" d="M81.86,68.07a.27.27,0,0,1-.12,0l-.38-.22a.1.1,0,0,1-.07-.1.12.12,0,0,1,.06-.1l.81-.46a.24.24,0,0,1,.23,0l.39.22a.12.12,0,0,1,.07.1s0,.07-.07.1L82,68A.24.24,0,0,1,81.86,68.07Zm-.46-.35h0l.39.22a.15.15,0,0,0,.13,0l.8-.47h0l-.39-.22a.15.15,0,0,0-.13,0l-.8.47Z" transform="translate(-1.92 -6.3)"/><g class="cls-1"><path class="cls-47" d="M79.47,65.54s0,.07,0,.1l-.8.47a.19.19,0,0,1-.18,0l-.79-.46s0-.08,0-.1l.8-.47a.19.19,0,0,1,.18,0Z" transform="translate(-1.92 -6.3)"/><path class="cls-76" d="M78.58,66.18l-.12,0-.79-.46s-.07-.06-.07-.1a.12.12,0,0,1,.07-.1l.8-.47a.25.25,0,0,1,.24,0l.79.46a.11.11,0,0,1,0,.2l-.8.46A.27.27,0,0,1,78.58,66.18Zm-.87-.58h0l.79.46a.15.15,0,0,0,.13,0l.81-.46h0l-.79-.45a.13.13,0,0,0-.12,0l-.81.46Z" transform="translate(-1.92 -6.3)"/><path class="cls-47" d="M75.2,65.61a.06.06,0,0,1,0,.11l-.8.46a.19.19,0,0,1-.18,0l-.42-.24s0-.07,0-.1l.81-.47a.19.19,0,0,1,.18,0Z" transform="translate(-1.92 -6.3)"/><path class="cls-76" d="M74.31,66.26a.27.27,0,0,1-.12,0L73.78,66a.12.12,0,0,1-.07-.1.1.1,0,0,1,.07-.1l.8-.47a.24.24,0,0,1,.23,0l.42.24s.07.06.07.1a.12.12,0,0,1-.07.1l-.8.47A.24.24,0,0,1,74.31,66.26Zm-.49-.37h0l.42.25a.28.28,0,0,0,.13,0l.8-.47h0l-.42-.24a.15.15,0,0,0-.13,0l-.8.46Z" transform="translate(-1.92 -6.3)"/><path class="cls-47" d="M76.83,65.87s.06.08,0,.11l-.8.46a.19.19,0,0,1-.18,0L75.06,66a.06.06,0,0,1,0-.11l.8-.47a.28.28,0,0,1,.18,0Z" transform="translate(-1.92 -6.3)"/><path class="cls-76" d="M75.94,66.52a.27.27,0,0,1-.12,0L75,66a.11.11,0,0,1-.06-.1.12.12,0,0,1,.06-.1l.8-.46a.25.25,0,0,1,.24,0l.79.45a.15.15,0,0,1,.07.1.12.12,0,0,1-.07.1l-.8.47A.24.24,0,0,1,75.94,66.52Zm-.86-.59h0l.79.46a.15.15,0,0,0,.13,0l.8-.47h0L76,65.46a.15.15,0,0,0-.13,0l-.8.47Z" transform="translate(-1.92 -6.3)"/><path class="cls-47" d="M78.41,66.15a.06.06,0,0,1,0,.11l-.8.47a.28.28,0,0,1-.18,0l-.8-.46a.06.06,0,0,1,0-.11l.81-.46a.19.19,0,0,1,.18,0Z" transform="translate(-1.92 -6.3)"/><path class="cls-76" d="M77.52,66.8a.21.21,0,0,1-.12,0l-.79-.45a.15.15,0,0,1-.07-.1.12.12,0,0,1,.07-.1l.8-.47a.25.25,0,0,1,.24,0l.79.46a.11.11,0,0,1,.06.1.12.12,0,0,1-.06.1l-.8.46A.27.27,0,0,1,77.52,66.8Zm-.87-.58h0l.79.46a.15.15,0,0,0,.13,0l.8-.47h0l-.79-.46a.15.15,0,0,0-.13,0l-.8.47Z" transform="translate(-1.92 -6.3)"/><path class="cls-47" d="M74.1,66.25a.06.06,0,0,1,0,.11l-.8.46a.21.21,0,0,1-.19,0l-.41-.24s0-.07,0-.1l.8-.47a.19.19,0,0,1,.18,0Z" transform="translate(-1.92 -6.3)"/><path class="cls-76" d="M73.21,66.9a.21.21,0,0,1-.12,0l-.42-.24a.11.11,0,0,1-.06-.1.12.12,0,0,1,.06-.1l.8-.46a.25.25,0,0,1,.24,0l.42.24a.11.11,0,0,1,.06.1.11.11,0,0,1-.06.09l-.81.47A.2.2,0,0,1,73.21,66.9Zm-.49-.37h0l.41.24a.15.15,0,0,0,.13,0l.8-.47h0l-.41-.24a.15.15,0,0,0-.13,0l-.8.46Z" transform="translate(-1.92 -6.3)"/><path class="cls-47" d="M75.77,66.49s0,.08,0,.1l-.8.47a.19.19,0,0,1-.18,0L74,66.6s0-.07,0-.1l.8-.47A.19.19,0,0,1,75,66Z" transform="translate(-1.92 -6.3)"/><path class="cls-76" d="M74.88,67.14a.27.27,0,0,1-.12,0L74,66.65a.14.14,0,0,1-.07-.1s0-.07.07-.1l.8-.46A.29.29,0,0,1,75,66l.79.46a.12.12,0,0,1,.06.1.1.1,0,0,1-.06.1l-.8.47A.27.27,0,0,1,74.88,67.14ZM74,66.55h0l.8.45a.13.13,0,0,0,.12,0l.81-.46h0l-.8-.46a.13.13,0,0,0-.12,0l-.81.46Z" transform="translate(-1.92 -6.3)"/><path class="cls-47" d="M80.5,66.15s0,.07,0,.1l-1.59.93a.19.19,0,0,1-.18,0l-.79-.46a.06.06,0,0,1,0-.11l1.59-.92a.19.19,0,0,1,.18,0Z" transform="translate(-1.92 -6.3)"/><path class="cls-76" d="M78.82,67.25a.27.27,0,0,1-.12,0l-.79-.45a.12.12,0,0,1-.06-.1.11.11,0,0,1,.06-.1l1.59-.93a.25.25,0,0,1,.24,0l.79.46a.12.12,0,0,1,.07.1s0,.07-.07.1l-1.59.92A.24.24,0,0,1,78.82,67.25ZM78,66.67h0l.79.46a.13.13,0,0,0,.12,0l1.6-.93h0l-.79-.45a.15.15,0,0,0-.13,0l-1.6.92Z" transform="translate(-1.92 -6.3)"/><path class="cls-47" d="M77.35,66.77a.06.06,0,0,1,0,.11l-.8.46a.21.21,0,0,1-.19,0l-.79-.45a.06.06,0,0,1,0-.11l.8-.47a.21.21,0,0,1,.19,0Z" transform="translate(-1.92 -6.3)"/><path class="cls-76" d="M76.46,67.42a.21.21,0,0,1-.12,0l-.79-.46a.1.1,0,0,1-.07-.1s0-.07.07-.1l.8-.46a.24.24,0,0,1,.23,0l.8.45a.12.12,0,0,1,.06.1.11.11,0,0,1-.06.1l-.81.47A.2.2,0,0,1,76.46,67.42Zm-.87-.59h0l.79.46a.29.29,0,0,0,.13,0l.8-.47h0l-.79-.46a.15.15,0,0,0-.13,0l-.8.47Z" transform="translate(-1.92 -6.3)"/><path class="cls-47" d="M73,66.89A.06.06,0,0,1,73,67l-.8.47a.19.19,0,0,1-.18,0l-.42-.24a.06.06,0,0,1,0-.11l.81-.47a.19.19,0,0,1,.18,0Z" transform="translate(-1.92 -6.3)"/><path class="cls-76" d="M72.1,67.54a.27.27,0,0,1-.12,0l-.41-.24a.12.12,0,0,1-.07-.1s0-.07.07-.1l.8-.46a.25.25,0,0,1,.24,0l.41.24a.12.12,0,0,1,.07.1s0,.07-.07.1l-.8.46A.24.24,0,0,1,72.1,67.54Zm-.49-.37h0l.42.24a.15.15,0,0,0,.13,0L73,67h0l-.42-.24a.15.15,0,0,0-.13,0l-.8.47Z" transform="translate(-1.92 -6.3)"/><path class="cls-47" d="M78.68,67.22s0,.07,0,.1l-.8.47a.21.21,0,0,1-.19,0l-.79-.46a.06.06,0,0,1,0-.11l.81-.46a.19.19,0,0,1,.18,0Z" transform="translate(-1.92 -6.3)"/><path class="cls-76" d="M77.79,67.86a.21.21,0,0,1-.12,0l-.79-.45s-.07-.06-.07-.1a.12.12,0,0,1,.07-.1l.8-.47a.25.25,0,0,1,.24,0l.79.46a.11.11,0,0,1,.06.1.12.12,0,0,1-.06.1l-.8.46A.27.27,0,0,1,77.79,67.86Zm-.87-.58h0l.79.46a.15.15,0,0,0,.13,0l.8-.47h0l-.79-.45a.15.15,0,0,0-.13,0l-.8.46Z" transform="translate(-1.92 -6.3)"/><path class="cls-47" d="M81.55,66.74s0,.07,0,.1l-2.13,1.24a.19.19,0,0,1-.18,0l-.79-.45c-.06,0-.06-.08,0-.11l2.14-1.24a.19.19,0,0,1,.18,0Z" transform="translate(-1.92 -6.3)"/><path class="cls-76" d="M79.33,68.16a.24.24,0,0,1-.12,0l-.79-.46a.12.12,0,0,1-.07-.1s0-.07.07-.1l2.13-1.24a.25.25,0,0,1,.24,0l.79.46a.11.11,0,0,1,0,.2l-2.13,1.24A.27.27,0,0,1,79.33,68.16Zm-.87-.59h0l.79.45a.2.2,0,0,0,.13,0l2.13-1.24h0l-.79-.45a.15.15,0,0,0-.13,0l-2.13,1.24Z" transform="translate(-1.92 -6.3)"/><path class="cls-47" d="M77.61,67.83c.06,0,.06.08,0,.11l-.81.47a.19.19,0,0,1-.18,0L75.84,68a.06.06,0,0,1,0-.11l.8-.46a.19.19,0,0,1,.18,0Z" transform="translate(-1.92 -6.3)"/><path class="cls-76" d="M76.72,68.48a.27.27,0,0,1-.12,0L75.81,68a.12.12,0,0,1-.06-.1.11.11,0,0,1,.06-.1l.8-.47a.25.25,0,0,1,.24,0l.79.46a.12.12,0,0,1,.07.1s0,.07-.07.1l-.8.46A.24.24,0,0,1,76.72,68.48Zm-.86-.58h0l.79.46a.15.15,0,0,0,.13,0l.8-.47h0l-.79-.46a.15.15,0,0,0-.13,0l-.8.47Z" transform="translate(-1.92 -6.3)"/><path class="cls-47" d="M79.19,68.13c.06,0,.06.08,0,.11l-.81.47a.19.19,0,0,1-.18,0l-.79-.46a.06.06,0,0,1,0-.11l.8-.46a.19.19,0,0,1,.18,0Z" transform="translate(-1.92 -6.3)"/><path class="cls-76" d="M78.3,68.78a.27.27,0,0,1-.12,0l-.79-.45a.12.12,0,0,1-.06-.1.11.11,0,0,1,.06-.1l.8-.47a.26.26,0,0,1,.24,0l.79.46a.12.12,0,0,1,.07.1s0,.07-.07.1l-.8.46A.24.24,0,0,1,78.3,68.78Zm-.86-.58h0l.79.46a.15.15,0,0,0,.13,0l.8-.47h0l-.79-.46a.28.28,0,0,0-.13,0l-.8.47Z" transform="translate(-1.92 -6.3)"/></g><g class="cls-1"><path class="cls-47" d="M71.89,67.54s0,.07,0,.1l-.8.47a.21.21,0,0,1-.19,0l-.41-.24a.06.06,0,0,1,0-.11l.8-.46a.19.19,0,0,1,.18,0Z" transform="translate(-1.92 -6.3)"/><path class="cls-76" d="M71,68.18l-.12,0-.42-.24a.14.14,0,0,1-.06-.1.11.11,0,0,1,.06-.1l.8-.47a.25.25,0,0,1,.24,0l.42.24a.11.11,0,0,1,0,.2l-.8.47Zm-.49-.36h0l.41.24a.15.15,0,0,0,.13,0l.8-.46h0l-.41-.24a.15.15,0,0,0-.13,0l-.8.47Z" transform="translate(-1.92 -6.3)"/><path class="cls-47" d="M70.78,68.18s.06.07,0,.1l-.8.47a.19.19,0,0,1-.18,0l-.42-.24a.06.06,0,0,1,0-.11l.81-.46a.19.19,0,0,1,.18,0Z" transform="translate(-1.92 -6.3)"/><path class="cls-76" d="M69.89,68.83a.27.27,0,0,1-.12,0l-.41-.24s-.07-.06-.07-.1a.12.12,0,0,1,.07-.1l.8-.47a.26.26,0,0,1,.24,0l.41.24s.07.06.07.1a.12.12,0,0,1-.07.1l-.8.47A.24.24,0,0,1,69.89,68.83Zm-.49-.37h0l.42.24a.15.15,0,0,0,.13,0l.8-.46h0L70.34,68a.15.15,0,0,0-.13,0l-.8.46Z" transform="translate(-1.92 -6.3)"/><path class="cls-47" d="M72.59,68.34a.06.06,0,0,1,0,.11l-.8.46a.21.21,0,0,1-.19,0l-.79-.46s0-.07,0-.1l.8-.47a.21.21,0,0,1,.19,0Z" transform="translate(-1.92 -6.3)"/><path class="cls-76" d="M71.69,69a.2.2,0,0,1-.11,0l-.79-.46a.1.1,0,0,1-.07-.1.12.12,0,0,1,.06-.1l.81-.46a.24.24,0,0,1,.23,0l.79.45s.07.06.07.1a.11.11,0,0,1-.06.1l-.81.47A.21.21,0,0,1,71.69,69Zm-.86-.59h0l.79.45a.15.15,0,0,0,.13,0l.8-.46h0l-.79-.46a.15.15,0,0,0-.13,0l-.8.47Z" transform="translate(-1.92 -6.3)"/></g><path class="cls-47" d="M71.53,69s0,.07,0,.1l-.81.47a.19.19,0,0,1-.18,0l-.79-.46s0-.07,0-.1l.8-.47a.19.19,0,0,1,.18,0Z" transform="translate(-1.92 -6.3)"/><path class="cls-76" d="M70.63,69.6l-.12,0-.79-.46a.12.12,0,0,1-.06-.1.11.11,0,0,1,.06-.1l.8-.47a.26.26,0,0,1,.24,0l.79.46a.11.11,0,0,1,0,.2l-.8.47ZM69.77,69h0l.79.46a.15.15,0,0,0,.13,0l.8-.46h0l-.79-.45a.15.15,0,0,0-.13,0l-.8.46Z" transform="translate(-1.92 -6.3)"/><path class="cls-47" d="M76.31,65s0,.07,0,.1l-.8.47a.21.21,0,0,1-.19,0l-.41-.24a.06.06,0,0,1,0-.11l.8-.46a.19.19,0,0,1,.18,0Z" transform="translate(-1.92 -6.3)"/><path class="cls-76" d="M75.42,65.62a.21.21,0,0,1-.12,0l-.42-.24a.12.12,0,0,1-.06-.1.11.11,0,0,1,.06-.1l.8-.47a.25.25,0,0,1,.24,0l.42.24a.11.11,0,0,1,0,.2l-.81.47A.2.2,0,0,1,75.42,65.62Zm-.49-.37h0l.41.24a.15.15,0,0,0,.13,0l.8-.46h0l-.41-.24h-.13l-.8.47Z" transform="translate(-1.92 -6.3)"/><path class="cls-47" d="M77.41,64.33s0,.07,0,.1l-.8.47a.19.19,0,0,1-.18,0L76,64.66a.06.06,0,0,1,0-.11l.8-.46a.21.21,0,0,1,.19,0Z" transform="translate(-1.92 -6.3)"/><path class="cls-76" d="M76.52,65a.27.27,0,0,1-.12,0L76,64.7a.1.1,0,0,1-.07-.1.13.13,0,0,1,.07-.1l.8-.46A.24.24,0,0,1,77,64l.42.24a.12.12,0,0,1,.07.1s0,.07-.07.1l-.8.46A.24.24,0,0,1,76.52,65ZM76,64.6h0l.42.24a.13.13,0,0,0,.12,0l.81-.47h0L77,64.13a.15.15,0,0,0-.13,0l-.8.47Z" transform="translate(-1.92 -6.3)"/><path class="cls-47" d="M78.44,64.94a.06.06,0,0,1,0,.11l-1.33.77a.28.28,0,0,1-.18,0l-.79-.46a.06.06,0,0,1,0-.11l1.32-.77a.21.21,0,0,1,.19,0Z" transform="translate(-1.92 -6.3)"/><path class="cls-76" d="M77,65.89a.27.27,0,0,1-.12,0l-.79-.45a.12.12,0,0,1-.06-.1.11.11,0,0,1,.06-.1l1.33-.77a.24.24,0,0,1,.23,0l.8.45a.12.12,0,0,1,.06.1.11.11,0,0,1-.06.1l-1.33.77A.21.21,0,0,1,77,65.89Zm-.86-.58h0l.79.46a.15.15,0,0,0,.13,0L78.41,65h0l-.79-.46a.15.15,0,0,0-.13,0l-1.32.77Z" transform="translate(-1.92 -6.3)"/><path class="cls-47" d="M76.29,67.39s0,.07,0,.1l-.8.47a.21.21,0,0,1-.19,0l-.79-.46c-.05,0-.05-.07,0-.1l.8-.47a.21.21,0,0,1,.19,0Z" transform="translate(-1.92 -6.3)"/><path class="cls-76" d="M75.39,68a.2.2,0,0,1-.11,0l-.8-.46a.11.11,0,0,1,0-.2l.81-.47a.24.24,0,0,1,.23,0l.79.46a.11.11,0,0,1,0,.2l-.8.47A.21.21,0,0,1,75.39,68Zm-.86-.59h0l.79.45a.15.15,0,0,0,.13,0l.8-.46h0L75.47,67a.15.15,0,0,0-.13,0l-.8.46Z" transform="translate(-1.92 -6.3)"/><path class="cls-47" d="M69.62,73.7s0,.08,0,.1l-.8.47a.21.21,0,0,1-.19,0l-.79-.46s0-.07,0-.1l.81-.47a.19.19,0,0,1,.18,0Z" transform="translate(-1.92 -6.3)"/><path class="cls-76" d="M68.73,74.35a.21.21,0,0,1-.12,0l-.79-.46a.12.12,0,0,1-.07-.1s0-.07.07-.1l.8-.46a.25.25,0,0,1,.24,0l.79.45a.12.12,0,0,1,.06.1.11.11,0,0,1-.06.1l-.8.47A.27.27,0,0,1,68.73,74.35Zm-.87-.59h0l.79.45a.15.15,0,0,0,.13,0l.8-.46h0l-.79-.46a.15.15,0,0,0-.13,0l-.8.47Z" transform="translate(-1.92 -6.3)"/><path class="cls-47" d="M68.41,75.76a.06.06,0,0,1,0,.11l-.8.46a.19.19,0,0,1-.18,0l-.94-.54s0-.08,0-.1l.8-.47a.19.19,0,0,1,.18,0Z" transform="translate(-1.92 -6.3)"/><path class="cls-76" d="M67.52,76.41a.24.24,0,0,1-.12,0l-.94-.54a.12.12,0,0,1-.06-.1.11.11,0,0,1,.06-.1l.8-.47a.25.25,0,0,1,.24,0l.94.54a.12.12,0,0,1,.06.1.11.11,0,0,1-.06.1l-.8.47A.27.27,0,0,1,67.52,76.41Zm-1-.67h0l.93.55a.15.15,0,0,0,.13,0l.8-.47h0l-.93-.54a.15.15,0,0,0-.13,0l-.8.46Z" transform="translate(-1.92 -6.3)"/><path class="cls-47" d="M71.85,73.76a.06.06,0,0,1,0,.11l-1,.6a.19.19,0,0,1-.18,0l-.94-.54a.06.06,0,0,1,0-.11l1-.6a.19.19,0,0,1,.18,0Z" transform="translate(-1.92 -6.3)"/><path class="cls-76" d="M70.73,74.55a.21.21,0,0,1-.12,0L69.67,74a.11.11,0,0,1-.06-.1.12.12,0,0,1,.06-.1l1-.6a.25.25,0,0,1,.24,0l.94.54a.12.12,0,0,1,.06.1.11.11,0,0,1-.06.1l-1,.61A.27.27,0,0,1,70.73,74.55Zm-1-.68h0l.94.54a.15.15,0,0,0,.13,0l1-.6h0l-.94-.54a.15.15,0,0,0-.13,0l-1,.6Z" transform="translate(-1.92 -6.3)"/><path class="cls-47" d="M70.55,74.52s0,.07,0,.1l-.8.47a.19.19,0,0,1-.18,0l-.94-.54a.06.06,0,0,1,0-.11l.8-.46a.19.19,0,0,1,.18,0Z" transform="translate(-1.92 -6.3)"/><path class="cls-76" d="M69.66,75.17a.24.24,0,0,1-.12,0l-.94-.54a.12.12,0,0,1-.06-.1.11.11,0,0,1,.06-.1l.8-.47a.25.25,0,0,1,.24,0l.94.54a.12.12,0,0,1,.06.1.11.11,0,0,1-.06.1l-.8.47A.27.27,0,0,1,69.66,75.17Zm-1-.67h0l.93.54a.15.15,0,0,0,.13,0l.8-.46h0L69.59,74a.15.15,0,0,0-.13,0l-.81.47Z" transform="translate(-1.92 -6.3)"/><path class="cls-47" d="M68.56,74.31a.06.06,0,0,1,0,.11l-2.13,1.24a.19.19,0,0,1-.18,0l-.79-.46s0-.07,0-.1l2.13-1.24a.19.19,0,0,1,.18,0Z" transform="translate(-1.92 -6.3)"/><path class="cls-76" d="M66.34,75.73a.23.23,0,0,1-.12,0l-.79-.46a.11.11,0,0,1,0-.2l2.13-1.24a.25.25,0,0,1,.24,0l.79.46a.11.11,0,0,1,.06.1.12.12,0,0,1-.06.1l-2.13,1.24A.25.25,0,0,1,66.34,75.73Zm-.87-.58h0l.79.45a.15.15,0,0,0,.13,0l2.14-1.24h0l-.79-.46a.13.13,0,0,0-.12,0l-2.14,1.24Z" transform="translate(-1.92 -6.3)"/><path class="cls-47" d="M69.48,75.14a.06.06,0,0,1,0,.11l-.8.46a.19.19,0,0,1-.18,0l-.94-.54a.06.06,0,0,1,0-.11l.8-.46a.19.19,0,0,1,.18,0Z" transform="translate(-1.92 -6.3)"/><path class="cls-76" d="M68.59,75.79a.24.24,0,0,1-.12,0l-.94-.54a.12.12,0,0,1-.06-.1.11.11,0,0,1,.06-.1l.8-.47a.26.26,0,0,1,.24,0l.94.54a.12.12,0,0,1,.06.1.11.11,0,0,1-.06.1l-.8.47A.27.27,0,0,1,68.59,75.79Zm-1-.67h0l.93.54a.15.15,0,0,0,.13,0l.8-.46h0l-.93-.54a.15.15,0,0,0-.13,0l-.8.46Z" transform="translate(-1.92 -6.3)"/><path class="cls-47" d="M81.69,68a.06.06,0,0,1,0,.11l-.8.46a.19.19,0,0,1-.18,0l-.94-.54s0-.07,0-.1l.8-.47a.21.21,0,0,1,.19,0Z" transform="translate(-1.92 -6.3)"/><path class="cls-76" d="M80.8,68.69a.27.27,0,0,1-.12,0l-.94-.54a.11.11,0,0,1,0-.2l.81-.47a.3.3,0,0,1,.23,0l.94.55a.12.12,0,0,1,.07.1s0,.07-.07.1l-.8.46A.24.24,0,0,1,80.8,68.69Zm-1-.67h0l.94.54a.13.13,0,0,0,.12,0l.81-.47h0l-.94-.54a.15.15,0,0,0-.13,0l-.8.46Z" transform="translate(-1.92 -6.3)"/><path class="cls-47" d="M80.64,68.66s0,.07,0,.1l-.81.47a.19.19,0,0,1-.18,0L79.26,69a.06.06,0,0,1,0-.11l.81-.47a.19.19,0,0,1,.18,0Z" transform="translate(-1.92 -6.3)"/><path class="cls-76" d="M79.74,69.31a.27.27,0,0,1-.12,0l-.38-.23a.12.12,0,0,1-.07-.1s0-.07.07-.1l.8-.46a.25.25,0,0,1,.24,0l.38.22a.11.11,0,0,1,0,.2l-.8.47A.21.21,0,0,1,79.74,69.31ZM79.28,69h0l.39.22a.15.15,0,0,0,.13,0l.8-.46h0l-.39-.22a.15.15,0,0,0-.13,0l-.8.47Z" transform="translate(-1.92 -6.3)"/><path class="cls-47" d="M78.13,68.75a.06.06,0,0,1,0,.11l-.8.46a.19.19,0,0,1-.18,0l-.79-.45c-.06,0-.06-.08,0-.11l.81-.46a.19.19,0,0,1,.18,0Z" transform="translate(-1.92 -6.3)"/><path class="cls-76" d="M77.24,69.4a.24.24,0,0,1-.12,0l-.79-.45a.15.15,0,0,1-.07-.1.12.12,0,0,1,.07-.1l.8-.47a.26.26,0,0,1,.24,0l.79.46a.11.11,0,0,1,.06.1.12.12,0,0,1-.06.1l-.8.46A.27.27,0,0,1,77.24,69.4Zm-.87-.59h0l.79.46a.15.15,0,0,0,.13,0l.8-.47h0l-.79-.46a.15.15,0,0,0-.13,0l-.8.47Z" transform="translate(-1.92 -6.3)"/><path class="cls-47" d="M78.48,69.91a.06.06,0,0,1,0,.11l-1,.6a.19.19,0,0,1-.18,0l-.94-.54a.06.06,0,0,1,0-.11l1-.6a.21.21,0,0,1,.19,0Z" transform="translate(-1.92 -6.3)"/><path class="cls-76" d="M77.35,70.7a.24.24,0,0,1-.12,0l-.94-.54a.12.12,0,0,1-.06-.1.11.11,0,0,1,.06-.1l1-.61a.31.31,0,0,1,.23,0l.94.55a.12.12,0,0,1,.07.1s0,.07-.07.1l-1,.6A.27.27,0,0,1,77.35,70.7Zm-1-.67h0l.93.54a.15.15,0,0,0,.13,0l1-.6h0l-.94-.54a.15.15,0,0,0-.13,0l-1,.6Z" transform="translate(-1.92 -6.3)"/><path class="cls-47" d="M79.58,69.27a.06.06,0,0,1,0,.11l-.8.46a.21.21,0,0,1-.19,0l-.93-.54s0-.07,0-.1l.8-.47a.19.19,0,0,1,.18,0Z" transform="translate(-1.92 -6.3)"/><path class="cls-76" d="M78.69,69.92a.21.21,0,0,1-.12,0l-.94-.54a.11.11,0,0,1,0-.2l.8-.47a.25.25,0,0,1,.24,0l.94.54a.12.12,0,0,1,.06.1.11.11,0,0,1-.06.1l-.81.47A.2.2,0,0,1,78.69,69.92Zm-1-.67h0l.94.54a.15.15,0,0,0,.13,0l.8-.47h0l-.94-.54a.13.13,0,0,0-.12,0l-.81.46Z" transform="translate(-1.92 -6.3)"/><path class="cls-47" d="M73.87,71.23c.06,0,.06.07,0,.1l-.81.47a.19.19,0,0,1-.18,0l-.79-.46s0-.08,0-.1l.8-.47a.19.19,0,0,1,.18,0Z" transform="translate(-1.92 -6.3)"/><path class="cls-76" d="M73,71.87a.27.27,0,0,1-.12,0l-.79-.45a.12.12,0,0,1-.06-.1.11.11,0,0,1,.06-.1l.8-.47a.25.25,0,0,1,.24,0l.79.46a.12.12,0,0,1,.07.1s0,.07-.07.1l-.8.46A.24.24,0,0,1,73,71.87Zm-.86-.58h0l.79.46a.15.15,0,0,0,.13,0l.8-.46h0l-.79-.45a.15.15,0,0,0-.13,0l-.8.46Z" transform="translate(-1.92 -6.3)"/><path class="cls-47" d="M77.16,70.68s0,.07,0,.1l-5,2.92a.19.19,0,0,1-.18,0L71,73.16c-.05,0-.05-.07,0-.1l5-2.93a.19.19,0,0,1,.18,0Z" transform="translate(-1.92 -6.3)"/><path class="cls-76" d="M72,73.78a.27.27,0,0,1-.12,0L71,73.21a.12.12,0,0,1-.07-.1A.1.1,0,0,1,71,73l5-2.92a.25.25,0,0,1,.24,0l.94.54a.14.14,0,0,1,.07.1s0,.07-.07.1l-5,2.92A.21.21,0,0,1,72,73.78Zm-1-.67h0l.94.54a.15.15,0,0,0,.13,0l5-2.93h0l-.94-.54a.15.15,0,0,0-.13,0L71,73.1Z" transform="translate(-1.92 -6.3)"/><path class="cls-47" d="M70.68,73.08a.06.06,0,0,1,0,.11l-.8.46a.19.19,0,0,1-.18,0l-.79-.45a.06.06,0,0,1,0-.11l.8-.47a.19.19,0,0,1,.18,0Z" transform="translate(-1.92 -6.3)"/><path class="cls-76" d="M69.79,73.73a.27.27,0,0,1-.12,0l-.79-.46a.11.11,0,0,1-.06-.1.12.12,0,0,1,.06-.1l.8-.46a.25.25,0,0,1,.24,0l.79.45s.07.06.07.1a.12.12,0,0,1-.07.1l-.8.47A.24.24,0,0,1,69.79,73.73Zm-.86-.59h0l.8.46a.13.13,0,0,0,.12,0l.81-.47h0l-.79-.46a.15.15,0,0,0-.13,0l-.81.47Z" transform="translate(-1.92 -6.3)"/><path class="cls-47" d="M67,74a.06.06,0,0,1,0,.11l-1.59.92a.19.19,0,0,1-.18,0l-.8-.46c-.05,0-.05-.07,0-.1l1.6-.93a.19.19,0,0,1,.18,0Z" transform="translate(-1.92 -6.3)"/><path class="cls-76" d="M65.29,75.13a.21.21,0,0,1-.12,0l-.79-.46a.12.12,0,0,1-.07-.1s0-.07.07-.1L66,73.52a.25.25,0,0,1,.24,0L67,74a.12.12,0,0,1,.06.1.11.11,0,0,1-.06.1l-1.59.93A.27.27,0,0,1,65.29,75.13Zm-.87-.59h0l.79.45a.15.15,0,0,0,.13,0l1.59-.92h0l-.79-.46a.15.15,0,0,0-.13,0l-1.59.93Z" transform="translate(-1.92 -6.3)"/><path class="cls-47" d="M65.65,73.57s0,.08,0,.1l-1.32.77a.21.21,0,0,1-.19,0L63.35,74a.06.06,0,0,1,0-.11l1.33-.77a.19.19,0,0,1,.18,0Z" transform="translate(-1.92 -6.3)"/><path class="cls-76" d="M64.23,74.52a.2.2,0,0,1-.11,0L63.33,74a.1.1,0,0,1-.07-.1.12.12,0,0,1,.06-.1l1.33-.77a.33.33,0,0,1,.24,0l.79.46a.12.12,0,0,1,.06.1.11.11,0,0,1-.06.1l-1.33.77A.21.21,0,0,1,64.23,74.52Zm-.86-.59h0l.79.46a.15.15,0,0,0,.13,0l1.32-.77h0l-.79-.46a.15.15,0,0,0-.13,0l-1.32.77Z" transform="translate(-1.92 -6.3)"/><path class="cls-47" d="M67.47,70.1a.06.06,0,0,1,0,.11l-.8.47a.19.19,0,0,1-.18,0l-.42-.24a.06.06,0,0,1,0-.11l.8-.47a.28.28,0,0,1,.18,0Z" transform="translate(-1.92 -6.3)"/><path class="cls-76" d="M66.58,70.75a.21.21,0,0,1-.12,0L66,70.48a.11.11,0,0,1-.06-.1.12.12,0,0,1,.06-.1l.8-.46a.25.25,0,0,1,.24,0l.42.24a.11.11,0,0,1,.06.1.12.12,0,0,1-.06.1l-.8.46A.27.27,0,0,1,66.58,70.75Zm-.49-.37h0l.41.24a.15.15,0,0,0,.13,0l.8-.47h0L67,69.91a.15.15,0,0,0-.13,0l-.8.47Z" transform="translate(-1.92 -6.3)"/><polygon class="cls-36" points="81.75 90.8 63.6 80.25 75.11 73.61 93.26 84.16 81.75 90.8"/><polygon class="cls-35" points="93.26 84.19 75.11 73.62 75.11 72.27 93.26 82.84 93.26 84.19"/><polygon class="cls-37" points="75.1 72.29 75.11 73.64 63.6 80.28 63.6 78.94 75.1 72.29"/><polygon class="cls-35" points="81.75 90.8 63.6 80.23 63.6 78.88 81.75 89.45 81.75 90.8"/><polygon class="cls-37" points="93.26 82.82 93.26 84.17 81.76 90.81 81.75 89.47 93.26 82.82"/><path class="cls-40" d="M86.7,88c0,.5-.53.33-.61.42-.26.3-1,.3-2,.2-.79-.09-1.66.18-2.81.06a30.87,30.87,0,0,0-3.62-.62,35.09,35.09,0,0,1-5-.16l.4-2.83a26.1,26.1,0,0,0,4.32.06c1.5,0,2.93.91,4.15,1.15,1,.2,1.86-.2,2.62,0,.95.25,1.7.48,2,1C86.25,87.45,86.7,87.63,86.7,88Z" transform="translate(-1.92 -6.3)"/><path class="cls-84" d="M72.59,87.92a4.37,4.37,0,0,1,0-1.55c.23-1.29.46-1.39.46-1.39" transform="translate(-1.92 -6.3)"/><path class="cls-85" d="M73.69,85.87a35.76,35.76,0,0,0,4.14,0,6,6,0,0,1,2,.47A16.63,16.63,0,0,0,81.8,87c-1.37-.22-2.61-1-4-1A18.44,18.44,0,0,1,73.69,85.87Z" transform="translate(-1.92 -6.3)"/><path class="cls-85" d="M84.72,87.86a12.52,12.52,0,0,0-1.61.15A6,6,0,0,1,81.47,88a27.12,27.12,0,0,0-3.18-.64,13.29,13.29,0,0,1,3.21.45,6.6,6.6,0,0,0,1.6.1A8,8,0,0,1,84.72,87.86Z" transform="translate(-1.92 -6.3)"/></g></g></svg>