<svg xmlns="http://www.w3.org/2000/svg" viewBox="0 0 453.73 288.97"><defs><style>.cls-1{fill:#3aaa35;}.cls-2{fill:#93c782;}.cls-3{fill:#65b557;}.cls-4{fill:#855815;}.cls-5{fill:#4c9a34;}.cls-20,.cls-6{fill:#fff;}.cls-6{opacity:0.1;}.cls-7{fill:#77b82a;}.cls-8{fill:#268f37;}.cls-9{fill:#202244;}.cls-10{fill:#ab6375;}.cls-11{fill:#4c456f;}.cls-12{fill:#e4b26f;}.cls-13{fill:#2a3475;}.cls-14{fill:#3b2d7c;}.cls-15{fill:#f6c0be;}.cls-16{fill:#ebebeb;}.cls-17{fill:#bdbec0;}.cls-18{fill:#4c4691;}.cls-19{fill:#66b657;}.cls-19,.cls-26{stroke:#eaeaea;}.cls-19,.cls-24,.cls-27{stroke-miterlimit:10;}.cls-19,.cls-24,.cls-26,.cls-27{stroke-width:4px;}.cls-21{fill:#be1622;}.cls-22{fill:#fbc01f;}.cls-23{fill:#d2a01e;}.cls-24,.cls-26,.cls-27{fill:none;stroke-linecap:round;}.cls-24{stroke:#278f37;}.cls-25{fill:#278f37;}.cls-26{stroke-linejoin:round;}.cls-27{stroke:#fbc01f;}.cls-28{fill:#848383;}.cls-29{fill:#efefef;}.cls-30{fill:#4e4d4c;}.cls-31{fill:#f5ad1f;}.cls-32{fill:#333;}</style></defs><title>G12_09_01</title><g id="Livello_1" data-name="Livello 1"><polygon class="cls-1" points="325.71 231.44 325.71 236.19 236.25 288.97 236.25 284.22 325.71 231.44"/><polygon class="cls-2" points="236.25 284.22 236.25 288.97 140.15 233.24 140.15 228.49 236.25 284.22"/><polygon class="cls-3" points="236.02 284.24 139.93 228.5 139.93 228.24 230.23 176.33 325.71 231.46 236.17 284.32 236.02 284.24"/><ellipse class="cls-1" cx="230.15" cy="228.74" rx="65.41" ry="34.02"/></g><g id="Livello_2" data-name="Livello 2"><g id="_Gruppo_" data-name="&lt;Gruppo&gt;"><g id="_Gruppo_2" data-name="&lt;Gruppo&gt;"><rect id="_Tracciato_" data-name="&lt;Tracciato&gt;" class="cls-4" x="305.23" y="195.03" width="4.83" height="36.01"/><g id="_Gruppo_3" data-name="&lt;Gruppo&gt;"><path id="_Tracciato_2" data-name="&lt;Tracciato&gt;" class="cls-5" d="M330.38,200.05c-.79-19.14-16.21-40-16.21-40s-15.42,20.89-16.22,40c-.4,9.84,3.25,25.07,16.22,25.07S330.79,209.89,330.38,200.05Z" transform="translate(-6.53 -6.78)"/><path id="_Tracciato_3" data-name="&lt;Tracciato&gt;" class="cls-6" d="M314.17,160s-15.42,20.89-16.22,40c-.4,9.84,3.25,25.07,16.22,25.07Z" transform="translate(-6.53 -6.78)"/></g></g><g id="_Gruppo_4" data-name="&lt;Gruppo&gt;"><polygon id="_Tracciato_4" data-name="&lt;Tracciato&gt;" class="cls-7" points="304.26 226.59 301.75 231.46 306.76 231.46 304.26 226.59"/><polygon id="_Tracciato_5" data-name="&lt;Tracciato&gt;" class="cls-7" points="311.52 223.98 309.01 231.46 314.02 231.46 311.52 223.98"/><polygon id="_Tracciato_6" data-name="&lt;Tracciato&gt;" class="cls-7" points="315.21 228.05 312.7 231.46 317.71 231.46 315.21 228.05"/><polygon id="_Tracciato_7" data-name="&lt;Tracciato&gt;" class="cls-7" points="308.35 226.85 305.85 231.46 310.86 231.46 308.35 226.85"/></g></g><ellipse class="cls-8" cx="205.01" cy="218.14" rx="23.13" ry="12.03"/><path class="cls-9" d="M226.56,217.61l1.18,1.89s18.51-.31,19.59,1.85-.31,15.58-.31,15.58-5.24-.31-5.86-.47-.46-8.94-1.85-9.56-21.59.77-21.59.77-2.31-5.86-1.7-6.48S226.56,217.61,226.56,217.61Z" transform="translate(-6.53 -6.78)"/><path class="cls-9" d="M248.93,243.64s7.25.52,7.13-.43-6.49-2.55-6.49-2.55Z" transform="translate(-6.53 -6.78)"/><path class="cls-10" d="M212.69,228.49a9.05,9.05,0,0,1,.16,2.3c-.39,1.56-4.32,2-4.7,1.06S211.7,228,211.7,228Z" transform="translate(-6.53 -6.78)"/><path class="cls-11" d="M213.9,221.27a24.61,24.61,0,0,0,2.49,7.11c1.14,1.78,8.06.73,13.41,2.58,4.39,1.52,14.24,10.27,18,12.46a1.68,1.68,0,0,0,2.26-.56c.52-.82,1-1.8.66-2.23-.61-.83-7-10.7-13-13.16s-14.39-5.76-14.39-5.76Z" transform="translate(-6.53 -6.78)"/><path class="cls-12" d="M225.26,200.87s-1.62-1.78-3.29-1.38-12.06,5.5-12.63,6.42-3.07,8.27-4.52,11.41,4.67,10.34,4.67,10.34,3.34,2.61,3.67,1.54-3.48-10.65-3.48-10.65,2.72-7.9,2.85-7.35S225.26,200.87,225.26,200.87Z" transform="translate(-6.53 -6.78)"/><path class="cls-12" d="M222.05,201.6l-10.21,5.68L211,210.4s2.22,11.43,3.18,13,7.3.8,9.45-.11,3-5.65,3-5.65l-3.35-17Z" transform="translate(-6.53 -6.78)"/><path class="cls-10" d="M213.49,197.8a4.5,4.5,0,1,0,3.32-5.43A4.49,4.49,0,0,0,213.49,197.8Z" transform="translate(-6.53 -6.78)"/><path class="cls-10" d="M219.63,197.73l-.4,4.86h0a2.89,2.89,0,0,1-3.06,1.08l-.53-.14.06-5.18Z" transform="translate(-6.53 -6.78)"/><path class="cls-10" d="M213,198.1c.23.93.81,1.6,1.3,1.48s.71-1,.49-1.91-.81-1.6-1.3-1.48S212.79,197.16,213,198.1Z" transform="translate(-6.53 -6.78)"/><path class="cls-11" d="M216.81,192.37a4.48,4.48,0,0,1,4.73,1.79,6.53,6.53,0,0,1-2.64,1.3c-.34.08-3.57.41-3.57-.17a8,8,0,0,1-.31,2.12,1.53,1.53,0,0,0-1.51-1.13h-.12A4.5,4.5,0,0,1,216.81,192.37Z" transform="translate(-6.53 -6.78)"/><path class="cls-12" d="M227.39,198.18s6.16,9.64,6,12.93a3.42,3.42,0,0,1-4.63,3.29c-1.54-.61-6.58-11.72-6.58-11.72l.1-3a4,4,0,0,1,3.6,1.65c1.44,2,3.39,8.12,3.39,8.12l-3.68-10.74Z" transform="translate(-6.53 -6.78)"/><path class="cls-10" d="M227.74,197.51a1.66,1.66,0,1,1-1.66-1.66A1.66,1.66,0,0,1,227.74,197.51Z" transform="translate(-6.53 -6.78)"/><path class="cls-13" d="M274,242.5s-.11,2.18-.13,2.38-1,.66-2.3.39a14,14,0,0,1-4.68-2.19c-.66-.65,1.44-.51,2.73-.39a10,10,0,0,0,2.63-.19Z" transform="translate(-6.53 -6.78)"/><path class="cls-14" d="M276.42,209.85s-1.22,8.7-1.57,11.51-.88,18-.87,21.14c0,2-1.41,1-1.94.66s-2.81-19.5-2.81-24.51-.35-14.79-.35-14.79Z" transform="translate(-6.53 -6.78)"/><path class="cls-15" d="M251,182.71a1.75,1.75,0,1,0,1.07-2.23A1.75,1.75,0,0,0,251,182.71Z" transform="translate(-6.53 -6.78)"/><path class="cls-15" d="M262.92,173.14a5.32,5.32,0,1,0,5.31-5.31A5.32,5.32,0,0,0,262.92,173.14Z" transform="translate(-6.53 -6.78)"/><path class="cls-13" d="M266,244.78s-.1,2.18-.12,2.38-.95.66-2.3.39-5.15-1.54-5.82-2.19,1.44-.51,2.72-.39a25.61,25.61,0,0,0,3.78-.19Z" transform="translate(-6.53 -6.78)"/><path class="cls-14" d="M276.51,204.24l-5.86,4.81s-3.43,11.78-3.78,14.59-.88,18-.88,21.14c0,2-1.4,1-1.93.66s-2.81-19.5-2.81-24.51,2.21-22.52,2.21-22.52l12.39.05Z" transform="translate(-6.53 -6.78)"/><ellipse class="cls-14" cx="267.76" cy="197.99" rx="3.3" ry="7.06"/><path class="cls-15" d="M253.49,182.9s4.81,10,5.26,11.72c.34,1.35-2.17,3.27-3.16,2.22S252,183.33,252,183.33Z" transform="translate(-6.53 -6.78)"/><path class="cls-16" d="M264.2,192.41c.88-4.25-.84-8.48.13-9.28a29.88,29.88,0,0,1,7.4-3.92s4.25-2,5.85,0,7.42,10.61,7.3,13.49c-.06,1.56-.7,4.22-1,6.51-.71.41-1.86,1.17-2.95.63,0-2.64-.11-5.68-.21-6.07-.17-.71-4.18-8.51-4.18-8.51a55,55,0,0,1-1.77,5.85c-.71,1.59,5,9.57,3.21,25.91-.14,1.28-3.69,1.6-6.34,1.78S260.89,217,260.89,217,263.37,196.42,264.2,192.41Z" transform="translate(-6.53 -6.78)"/><path class="cls-17" d="M262.83,184.73c.79-.53,2.15-.47,3.11-1,.8.31.21,1.63.21,1.63s-1.66,6.09-.3,11.21c.3,1.16-.76,20.49.46,21.6-2.27-.43-5.42-1.2-5.42-1.2s2.45-22.08,3-24.35C265,188.25,261.63,185.54,262.83,184.73Z" transform="translate(-6.53 -6.78)"/><path class="cls-15" d="M271.63,174.49l.8,5.7h0a3.42,3.42,0,0,1-3.24,2.05l-.66,0-1.27-6Z" transform="translate(-6.53 -6.78)"/><path class="cls-16" d="M252,184.29a3.09,3.09,0,0,0,1.92-.84s3.38,8.22,3.66,7.9a23.45,23.45,0,0,0,3.52-4.89c2-3.69,4.41-3.93,4.41-3.93,4.09.44,3.29,3,2.62,5a4.25,4.25,0,0,1-2.05,2.38,5.93,5.93,0,0,0-1.61,1.19c-2.49,2.65-6.41,6.29-8.34,6.29-.73,0-1.36-1.82-1.64-2.83C253.71,191.74,252,184.29,252,184.29Z" transform="translate(-6.53 -6.78)"/><path class="cls-18" d="M264.63,174.68a1.14,1.14,0,0,1,1.74-.89,1.48,1.48,0,0,1,.4,1.59,4.35,4.35,0,0,1-.91,1.47,25.39,25.39,0,0,0,5.6,2.83l2.46-3.58a5.72,5.72,0,0,0,.92-1.72,6.9,6.9,0,0,0-1.14-5.1,7.29,7.29,0,0,0-5.26-2.48,6.14,6.14,0,0,0-4.62,2.24C262.45,170.7,264,172.9,264.63,174.68Z" transform="translate(-6.53 -6.78)"/><path class="cls-18" d="M276.3,181.5c-.31,1.11-1.24,2-1.27,3.18a9.47,9.47,0,0,0,.26,1.58,3.86,3.86,0,1,1-7.67.68,3.1,3.1,0,0,0-.14-1.26c-.19-.41-.61-.65-.9-1-1.09-1.32,0-3.33-.29-5-.12-.65-.77-1.6-.69-2.25.14-1.09,1.57-1.18,2-2.07.73-1.42-.08-2.56.08-4a2.9,2.9,0,0,1,3.88-2.58,6.05,6.05,0,0,1,3.78,4.15c.35,1.33.1,2.75.33,4.1S276.72,180,276.3,181.5Z" transform="translate(-6.53 -6.78)"/><path class="cls-15" d="M284.8,193.84s-1.47,10.89-1.92,12.59c.23-1.07-2.15-.93-2.15-.93V193.77a6.12,6.12,0,0,0,1.94.37A4.06,4.06,0,0,0,284.8,193.84Z" transform="translate(-6.53 -6.78)"/><path class="cls-15" d="M279.8,206.43a1.7,1.7,0,1,0,1.69-1.7A1.69,1.69,0,0,0,279.8,206.43Z" transform="translate(-6.53 -6.78)"/><circle class="cls-19" cx="72.87" cy="115.24" r="70.87"/><circle class="cls-19" cx="380.87" cy="115.24" r="70.87"/><circle class="cls-19" cx="227.91" cy="72.87" r="70.87"/><circle class="cls-20" cx="227.91" cy="72.87" r="42.52"/><polygon class="cls-20" points="236.16 96.06 271.14 117.96 252.91 83.2 236.16 96.06"/><path class="cls-21" d="M262.68,72.32a15.07,15.07,0,0,0-28.08-7.6,15.06,15.06,0,0,0-28.07,7.6c0,20.35,28.07,35,28.07,35S262.68,95,262.68,72.32Z" transform="translate(-6.53 -6.78)"/><g id="_Gruppo_5" data-name="&lt;Gruppo&gt;"><g id="_Gruppo_6" data-name="&lt;Gruppo&gt;"><rect id="_Tracciato_8" data-name="&lt;Tracciato&gt;" class="cls-4" x="165.23" y="204.03" width="4.83" height="36.01"/><g id="_Gruppo_7" data-name="&lt;Gruppo&gt;"><path id="_Tracciato_9" data-name="&lt;Tracciato&gt;" class="cls-5" d="M190.38,209.05c-.79-19.14-16.21-40-16.21-40s-15.42,20.89-16.22,40c-.4,9.84,3.25,25.07,16.22,25.07S190.79,218.89,190.38,209.05Z" transform="translate(-6.53 -6.78)"/><path id="_Tracciato_10" data-name="&lt;Tracciato&gt;" class="cls-6" d="M174.17,169s-15.42,20.89-16.22,40c-.4,9.84,3.25,25.07,16.22,25.07Z" transform="translate(-6.53 -6.78)"/></g></g><g id="_Gruppo_8" data-name="&lt;Gruppo&gt;"><polygon id="_Tracciato_11" data-name="&lt;Tracciato&gt;" class="cls-7" points="164.26 235.59 161.75 240.46 166.76 240.46 164.26 235.59"/><polygon id="_Tracciato_12" data-name="&lt;Tracciato&gt;" class="cls-7" points="171.52 232.98 169.01 240.46 174.03 240.46 171.52 232.98"/><polygon id="_Tracciato_13" data-name="&lt;Tracciato&gt;" class="cls-7" points="175.21 237.05 172.7 240.46 177.71 240.46 175.21 237.05"/><polygon id="_Tracciato_14" data-name="&lt;Tracciato&gt;" class="cls-7" points="168.35 235.85 165.85 240.46 170.86 240.46 168.35 235.85"/></g></g><path class="cls-22" d="M78.15,167.6C76.75,166.92,44,150.65,44,127.1V105.42A19.19,19.19,0,0,1,63.13,86.25H95.65a19.19,19.19,0,0,1,19.17,19.17V127.1c0,26.18-32.95,40-34.35,40.57l-1.18.48Z" transform="translate(-6.53 -6.78)"/><path class="cls-23" d="M95.65,89.08A16.35,16.35,0,0,1,112,105.42V127.1c0,24.58-32.6,38-32.6,38s-32.6-15.9-32.6-38V105.42A16.35,16.35,0,0,1,63.13,89.08H95.65m0-5.67H63.13a22,22,0,0,0-22,22V127.1c0,25.3,34.33,42.33,35.79,43l2.28,1.12,2.35-1c1.48-.6,36.12-15.13,36.12-43.19V105.42a22,22,0,0,0-22-22Z" transform="translate(-6.53 -6.78)"/><path class="cls-23" d="M79.37,159.08h0s28.35-11.62,28.35-33v-3.26H79.35Z" transform="translate(-6.53 -6.78)"/><path class="cls-23" d="M79.34,93H65.25a14.21,14.21,0,0,0-14.2,14.21v15.62l28.3,0Z" transform="translate(-6.53 -6.78)"/><path class="cls-24" d="M445.5,122a58.07,58.07,0,1,1-33.15-52.49" transform="translate(-6.53 -6.78)"/><polygon class="cls-25" points="401.34 67.26 413.31 67.02 407.12 56.78 401.34 67.26"/><line class="cls-26" x1="380.87" y1="150.51" x2="380.87" y2="162.01"/><line class="cls-26" x1="427.64" y1="115.24" x2="415.13" y2="115.24"/><line class="cls-26" x1="413.94" y1="148.31" x2="411.93" y2="146.31"/><line class="cls-26" x1="411.93" y1="84.17" x2="413.94" y2="82.17"/><line class="cls-26" x1="364" y1="155.82" x2="362.91" y2="158.44"/><line class="cls-26" x1="424.06" y1="133.2" x2="421.45" y2="132.11"/><line class="cls-26" x1="398.72" y1="158.48" x2="397.63" y2="155.86"/><line class="cls-26" x1="421.49" y1="98.47" x2="424.11" y2="97.39"/><line class="cls-26" x1="380.87" y1="68.47" x2="380.87" y2="80.97"/><line class="cls-26" x1="346.6" y1="115.24" x2="334.09" y2="115.24"/><line class="cls-26" x1="349.8" y1="84.17" x2="347.79" y2="82.17"/><line class="cls-26" x1="347.79" y1="148.31" x2="349.8" y2="146.31"/><line class="cls-26" x1="398.82" y1="72.04" x2="397.73" y2="74.66"/><line class="cls-26" x1="340.35" y1="98.4" x2="337.67" y2="97.29"/><line class="cls-26" x1="364.1" y1="74.62" x2="363.02" y2="72"/><line class="cls-26" x1="338.24" y1="132.84" x2="340.35" y2="131.97"/><line class="cls-27" x1="387.46" y1="117.84" x2="417.13" y2="129.53"/><line class="cls-27" x1="385.88" y1="110.23" x2="398.68" y2="97.43"/><path class="cls-25" d="M387.39,131.11a9.09,9.09,0,1,1,9.09-9.09A9.09,9.09,0,0,1,387.39,131.11Z" transform="translate(-6.53 -6.78)"/><path class="cls-22" d="M387.39,114.94A7.09,7.09,0,1,1,380.3,122a7.08,7.08,0,0,1,7.09-7.08m0-4A11.09,11.09,0,1,0,398.48,122a11.1,11.1,0,0,0-11.09-11.08Z" transform="translate(-6.53 -6.78)"/></g><g id="Livello_3" data-name="Livello 3"><path class="cls-28" d="M250.62,284.72c0,1.62-2.54,2.94-5.67,2.94s-5.67-1.32-5.67-2.94,2.54-2.27,5.67-2.27S250.62,283.09,250.62,284.72Z" transform="translate(-6.53 -6.78)"/><ellipse class="cls-29" cx="238.47" cy="277.3" rx="3.15" ry="1.64"/><polygon class="cls-29" points="241.62 277.27 235.33 277.36 235.58 243.08 241.37 243.08 241.62 277.27"/><path class="cls-22" d="M245.36,258.59v8.75a6.58,6.58,0,0,1-1.31-.38l-1.07-.62-96.53-55.77v-8.75L243,257.61l1.21.71A4.79,4.79,0,0,0,245.36,258.59Z" transform="translate(-6.53 -6.78)"/><polygon class="cls-30" points="238.83 253.19 238.83 253.93 139.93 196.78 139.93 196.03 238.83 253.19"/><polyline class="cls-30" points="238.83 259.19 238.83 259.94 139.93 202.78 139.93 202.04"/><circle class="cls-28" cx="238.47" cy="243.08" r="4.25"/><path class="cls-31" d="M335.58,205.87v8.75L248.88,266s-1.65.8-1.93,1a4.25,4.25,0,0,1-1.59.4v-8.75a3.76,3.76,0,0,0,2.13-.7c.43-.25,1.34-.73,1.34-.73Z" transform="translate(-6.53 -6.78)"/><polygon class="cls-32" points="329.05 200.08 329.05 200.83 238.83 253.93 238.83 253.19 329.05 200.08"/><polygon class="cls-32" points="329.05 206.09 329.05 206.83 238.83 259.94 238.83 259.19 329.05 206.09"/></g></svg>