<svg xmlns="http://www.w3.org/2000/svg" viewBox="0 0 425.16 285.58"><defs><style>.cls-1{fill:#3aaa35;}.cls-2{fill:#93c782;}.cls-3{fill:#65b557;}.cls-4{fill:#1d71b8;}.cls-5{fill:#075a92;}.cls-6{fill:#e6e9f3;}.cls-7{fill:#fff;}.cls-8{fill:#e5effb;}.cls-9{fill:#f6bbc6;}.cls-10{fill:#5b5b5a;}.cls-11{fill:#303b45;}.cls-12{fill:#353430;}.cls-13{fill:#3b2d7c;}.cls-14{fill:#a6daf2;}.cls-15{fill:none;stroke:#353430;stroke-miterlimit:10;}.cls-16{fill:#ebebeb;}.cls-17{fill:#a9b2bd;}.cls-18{font-size:10px;fill:#f9b233;font-family:MyriadPro-BoldCond, Myriad Pro;font-weight:700;}.cls-19{letter-spacing:0em;}.cls-20{letter-spacing:-0.01em;}.cls-21{letter-spacing:0.01em;}.cls-22{letter-spacing:0.01em;}.cls-23{letter-spacing:-0.01em;}.cls-24{letter-spacing:-0.01em;}.cls-25{letter-spacing:-0.03em;}.cls-26{letter-spacing:-0.01em;}</style></defs><title>G12_03</title><g id="Tiles"><polygon class="cls-1" points="185.79 91.57 185.79 96.32 96.32 149.1 96.32 144.35 185.79 91.57"/><polygon class="cls-2" points="96.32 144.35 96.32 149.1 0.22 93.37 0.22 88.62 96.32 144.35"/><polygon class="cls-3" points="96.1 144.37 0 88.64 0 88.37 90.31 36.46 185.79 91.59 96.25 144.46 96.1 144.37"/><polygon class="cls-1" points="425.16 228.05 425.16 232.8 335.69 285.58 335.69 280.83 425.16 228.05"/><polygon class="cls-2" points="335.69 280.83 335.69 285.58 239.6 229.85 239.6 225.1 335.69 280.83"/><polygon class="cls-3" points="335.47 280.85 239.38 225.12 239.38 224.85 329.68 172.94 425.16 228.07 335.62 280.94 335.47 280.85"/></g><g id="Criminal"><polygon class="cls-1" points="305.16 160.05 305.16 164.8 215.69 217.58 215.69 212.83 305.16 160.05"/><polygon class="cls-2" points="215.69 212.83 215.69 217.58 119.6 161.85 119.6 157.1 215.69 212.83"/><polygon class="cls-3" points="215.47 212.84 119.38 157.12 119.38 156.85 209.68 104.94 305.16 160.07 215.62 212.94 215.47 212.84"/><ellipse class="cls-1" cx="211.66" cy="158.6" rx="59.96" ry="31.18"/><polygon class="cls-4" points="207.93 52.76 257.34 80.61 257.27 159.61 208.72 132.25 207.79 53.25 207.93 52.76"/><polygon class="cls-5" points="207.79 53.25 256.34 80.61 256.27 159.61 207.72 132.25 201.79 56.25 207.79 53.25"/><polygon class="cls-6" points="249.21 84.01 249.13 161.01 255.32 157.81 255.25 80.81 249.21 84.01"/><polygon class="cls-7" points="201.79 57.25 249.21 84.01 249.13 161.01 201.72 134.25 201.79 57.25"/><polygon class="cls-8" points="249.21 84.01 201.79 57.25 207.63 54.57 255.25 80.81 249.21 84.01"/><polygon class="cls-4" points="201.79 56.25 250.34 83.61 250.27 162.61 201.72 135.25 200.79 56.25 201.79 56.25"/><polygon class="cls-5" points="200.79 56.25 249.34 83.61 249.27 162.61 200.72 135.25 200.79 56.25"/><polygon class="cls-4" points="207.79 53.25 201.79 56.25 200.79 56.25 207.93 52.76 207.79 53.25"/><polygon class="cls-4" points="68.93 0.76 118.34 28.61 118.27 107.61 69.72 80.25 68.79 1.25 68.93 0.76"/><polygon class="cls-5" points="68.79 1.25 117.34 28.61 117.27 107.61 68.72 80.25 62.79 4.25 68.79 1.25"/><polygon class="cls-6" points="110.21 32.01 110.14 109.01 116.32 105.81 116.25 28.81 110.21 32.01"/><polygon class="cls-7" points="62.79 5.25 110.21 32.01 110.14 109.01 62.72 82.25 62.79 5.25"/><polygon class="cls-8" points="110.21 32.01 62.79 5.25 68.63 2.57 116.25 28.81 110.21 32.01"/><polygon class="cls-4" points="62.79 4.25 111.34 31.61 111.27 110.61 62.72 83.25 61.79 4.25 62.79 4.25"/><polygon class="cls-5" points="61.79 4.25 110.34 31.61 110.27 110.61 61.72 83.25 61.79 4.25"/><polygon class="cls-4" points="68.79 1.25 62.79 4.25 61.79 4.25 68.93 0.76 68.79 1.25"/><polygon class="cls-4" points="308.93 140.76 358.34 168.61 358.27 247.61 309.72 220.25 308.79 141.25 308.93 140.76"/><polygon class="cls-5" points="308.79 141.25 357.34 168.61 357.27 247.61 308.72 220.25 302.79 144.25 308.79 141.25"/><polygon class="cls-6" points="350.21 172.01 350.13 249.01 356.32 245.81 356.25 168.81 350.21 172.01"/><polygon class="cls-7" points="302.79 145.25 350.21 172.01 350.13 249.01 302.72 222.25 302.79 145.25"/><polygon class="cls-8" points="350.21 172.01 302.79 145.25 308.63 142.57 356.25 168.81 350.21 172.01"/><polygon class="cls-4" points="302.79 144.25 351.34 171.61 351.27 250.61 302.72 223.25 301.79 144.25 302.79 144.25"/><polygon class="cls-5" points="301.79 144.25 350.34 171.61 350.27 250.61 301.72 223.25 301.79 144.25"/><polygon class="cls-4" points="308.79 141.25 302.79 144.25 301.79 144.25 308.93 140.76 308.79 141.25"/><path class="cls-9" d="M178.93,123.86l-.23,0a2.4,2.4,0,0,1-.38-1c-.35-1.57-1.37-.63-1.37-.63l-2,.63s1,3.31,2.69,4.56a2,2,0,0,0,1.27.47,2,2,0,0,0,0-4Z" transform="translate(-5.2 -5.79)"/><path class="cls-10" d="M188.57,92.84s-5-2.38-6.91,0-7.32,13.47-7.94,16.82.62,11.08,1.25,13.17,3.35,0,3.35,0,.83-10.25,1-11.08,4.19-10.88,4.19-10.88a63.94,63.94,0,0,0,2.09,6.9c.83,1.89-1,7.32-1.47,8.79s3.35,2.93,6.49,3.14,9-2.31,9-2.31,2.1-17.15-1.66-19S188.57,92.84,188.57,92.84Z" transform="translate(-5.2 -5.79)"/><path class="cls-11" d="M204.75,172.56c-1.58-1.06-3.25-.27-3.67-.33a3.84,3.84,0,0,1-3.79-3.12c-.06-.33-.07-3.14-.07-3.14l-2.6.33s-1.35,8.76-1.42,9.92.3,1.35,1.71,1.91,5.1-1.8,7.12-2.16S206.34,173.61,204.75,172.56Z" transform="translate(-5.2 -5.79)"/><path class="cls-11" d="M189.3,168.61c-1.59-1.05-3.25-.27-3.68-.33s-1.84,0-2.4-.4c-.21-.9,1.56-5.17,1.56-5.17l-1.13-.15-2.35.87s-3.48,7.68-3.55,8.85.3,1.35,1.71,1.91,5.1-1.81,7.12-2.16S190.89,169.66,189.3,168.61Z" transform="translate(-5.2 -5.79)"/><path class="cls-9" d="M200.72,88.89a6.27,6.27,0,1,1-4.61-7.58A6.26,6.26,0,0,1,200.72,88.89Z" transform="translate(-5.2 -5.79)"/><path class="cls-12" d="M184.17,116.56a64.89,64.89,0,0,0-1.46,7.2c0,1.37,3.12,15.18,4.38,19.15s-6.89,20.29-6.89,21.33,1.05,2.51,2.3,2.3,10.88-18.19,11.92-21.75,2.09-20.08,2.09-20.08l3.13-7.32Z" transform="translate(-5.2 -5.79)"/><path class="cls-10" d="M183,121.77l6.93,5.66s4.08,14,4.5,17.36-1.25,19.68-.2,21.77,2.72,1.68,3.35,1.26,3.54-20.29,3.54-26.26S199.58,117,199.58,117l-15.41-.41Z" transform="translate(-5.2 -5.79)"/><path class="cls-9" d="M189.35,88.16l-.94,6.73h0a4,4,0,0,0,3.83,2.41l.77,0,1.51-7.08Z" transform="translate(-5.2 -5.79)"/><path class="cls-13" d="M198.21,90.16a1.3,1.3,0,0,0-1.69-1.46,1.69,1.69,0,0,0-.87,1.65,5.09,5.09,0,0,0,.62,1.88,29.23,29.23,0,0,1-7,1.62l-1.77-4.61a6.58,6.58,0,0,1-.56-2.15,7.87,7.87,0,0,1,2.64-5.35,8.34,8.34,0,0,1,6.49-1.33,7,7,0,0,1,4.51,3.72C201.7,86.34,199.4,88.36,198.21,90.16Z" transform="translate(-5.2 -5.79)"/><path class="cls-13" d="M193,77.19a8.74,8.74,0,0,0-4.34-1.79c-2-.38-4.29-.53-6,.67s-2.24,3.31-2.46,5.3a7.67,7.67,0,0,0,.35,3.84,6.38,6.38,0,0,0,5.3,3.41,8.21,8.21,0,0,0,5.77-1.43C194.28,85.23,195.74,79.62,193,77.19Z" transform="translate(-5.2 -5.79)"/><path class="cls-14" d="M194.52,81.54c-.11,3-2.23,6.54-5.2,7.06l.14.42a6.66,6.66,0,0,0,5.75-5.27C195.42,82.75,195.06,82.4,194.52,81.54Z" transform="translate(-5.2 -5.79)"/><path class="cls-15" d="M195.11,120.58a28.92,28.92,0,0,1,3.59,5.19" transform="translate(-5.2 -5.79)"/><path class="cls-9" d="M217.3,101.41a2.69,2.69,0,1,1-2.69-2.69A2.7,2.7,0,0,1,217.3,101.41Z" transform="translate(-5.2 -5.79)"/><path class="cls-12" d="M198,98.36c-1.49-.74-3.26-1.75-4.87-2.71,2,7.61,3.9,16.13,1.07,23.59a39.84,39.84,0,0,0,5.46-1.85S201.74,100.24,198,98.36Z" transform="translate(-5.2 -5.79)"/><path class="cls-10" d="M191.3,94.69,198,98.36s1.88.67,3.76,5.25,5.74,8,7,8.47c0,0,3.9-8.51,4.73-9.13s2.1,0,2.08.66c-.08,2.71-1.89,14.83-4.6,15.88s-20.59-13.09-20.8-16.86A25.82,25.82,0,0,1,191.3,94.69Z" transform="translate(-5.2 -5.79)"/><path class="cls-16" d="M185.71,115.22c-.35-.09-.71-.16-1.05-.27-.21.69-.39,1.26-.49,1.61-.41,1.46,3.35,2.93,6.49,3.14s9-2.31,9-2.31.12-1,.25-2.47C195,116.92,189.4,118.16,185.71,115.22Z" transform="translate(-5.2 -5.79)"/><path class="cls-17" d="M195,116.51a20.28,20.28,0,0,1-.8,2.73,39.84,39.84,0,0,0,5.46-1.85s.12-1,.25-2.47A31.91,31.91,0,0,1,195,116.51Z" transform="translate(-5.2 -5.79)"/><text class="cls-18" transform="matrix(0.9, 0.5, -0.01, 1, 67.57, 25.69)"><tspan class="cls-19">L</tspan><tspan x="3.75" y="0">egisl</tspan><tspan class="cls-20" x="20.13" y="0">a</tspan><tspan x="24.25" y="0">tion I</tspan><tspan class="cls-21" x="11.2" y="12">D</tspan><tspan x="16.18" y="12">rugs</tspan></text><text class="cls-18" transform="matrix(0.9, 0.5, -0.01, 1, 205.46, 78.07)"><tspan class="cls-19">L</tspan><tspan x="3.75" y="0">egisl</tspan><tspan class="cls-20" x="20.13" y="0">a</tspan><tspan x="24.25" y="0">tion II</tspan><tspan class="cls-22" x="6" y="12">S</tspan><tspan class="cls-23" x="10.04" y="12">e</tspan><tspan x="14.14" y="12">x</tspan><tspan class="cls-24" x="18.1" y="12"> </tspan><tspan class="cls-25" x="19.58" y="12">T</tspan><tspan x="23.21" y="12">rade</tspan></text><text class="cls-18" transform="matrix(0.9, 0.5, -0.01, 1, 304.35, 166.44)"><tspan class="cls-19">L</tspan><tspan x="3.75" y="0">egisl</tspan><tspan class="cls-20" x="20.13" y="0">a</tspan><tspan x="24.25" y="0">tion III</tspan><tspan class="cls-26" x="10.2" y="12">W</tspan><tspan x="16.91" y="12">ildli</tspan><tspan class="cls-26" x="30.34" y="12">f</tspan><tspan x="33.12" y="12">e</tspan></text></g></svg>