<svg xmlns="http://www.w3.org/2000/svg" xmlns:xlink="http://www.w3.org/1999/xlink" viewBox="0 0 145.73 145.73"><defs><style>.cls-1{isolation:isolate;}.cls-2{fill:#66b657;stroke:#eaeaea;stroke-miterlimit:10;stroke-width:4px;}.cls-3{fill:#00323f;}.cls-4{fill:#041c21;}.cls-5{fill:#ffe7be;}.cls-6{fill:#26183c;opacity:0.42;mix-blend-mode:multiply;}.cls-7{fill:#a6caea;}.cls-8{fill:#f2f9fc;}.cls-9{fill:#fff;}.cls-10{fill:#eaf6fd;}.cls-11{fill:#36a9e1;}.cls-12{fill:#d3d0db;}.cls-13{fill:#71a5cf;}.cls-14{opacity:0.2;fill:url(#Sfumatura_senza_nome_3);}.cls-15{fill:#014250;}.cls-16,.cls-17{opacity:0.4;}.cls-16{fill:url(#Sfumatura_senza_nome_32);}.cls-17{fill:url(#Sfumatura_senza_nome_32-2);}</style><linearGradient id="Sfumatura_senza_nome_3" x1="-269" y1="52.38" x2="-269" y2="77.29" gradientTransform="matrix(-1, 0, 0, 1, -189.75, 0)" gradientUnits="userSpaceOnUse"><stop offset="0" stop-color="#fff"/><stop offset="1" stop-opacity="0"/></linearGradient><linearGradient id="Sfumatura_senza_nome_32" x1="-235.04" y1="53.66" x2="-235.04" y2="91.92" gradientTransform="matrix(-1, 0, 0, 1, -189.75, 0)" gradientUnits="userSpaceOnUse"><stop offset="0" stop-color="#01323f"/><stop offset="0.3" stop-color="#013340" stop-opacity="0.95"/><stop offset="0.53" stop-color="#013542" stop-opacity="0.8"/><stop offset="0.74" stop-color="#013947" stop-opacity="0.53"/><stop offset="0.93" stop-color="#013f4d" stop-opacity="0.17"/><stop offset="1" stop-color="#014250" stop-opacity="0"/></linearGradient><linearGradient id="Sfumatura_senza_nome_32-2" x1="-271.5" y1="72.94" x2="-271.5" y2="118.82" xlink:href="#Sfumatura_senza_nome_32"/></defs><title>G12_12_01</title><g class="cls-1"><g id="Mobile"><circle class="cls-2" cx="72.87" cy="72.87" r="70.87"/><path class="cls-3" d="M18.25,75.26c-2.26,1.33-2.26,3.5,0,4.84l51.32,30.32a9,9,0,0,0,8.23,0l61.83-36.16c2.26-1.33,2.26-3.5,0-4.83L88.26,39.1a9,9,0,0,0-8.23,0Z" transform="translate(-5.64 -3.9)"/><path class="cls-4" d="M131.87,76.24,77.59,44.52a1.79,1.79,0,0,1,0-3.1l3.41-2a1.79,1.79,0,0,1,1.79,0L137.09,71.2a1.79,1.79,0,0,1,0,3.1l-3.41,2A1.79,1.79,0,0,1,131.87,76.24Z" transform="translate(-5.64 -3.9)"/><polygon class="cls-5" points="58 45.48 67.53 39.8 126.14 74.37 116.57 80.06 58 45.48"/><path class="cls-3" d="M73.17,44.28l57.63,34-8.59,5.11-57.59-34,8.55-5.1m0-1.16L62.66,49.38l59.55,35.16,10.55-6.27L73.17,43.12Z" transform="translate(-5.64 -3.9)"/><path class="cls-6" d="M49.31,75.38c-1.55.91-1.56,2.41,0,3.32l15.08,8.87a6.11,6.11,0,0,0,5.64,0L109.34,64.5c1.55-.91,1.55-2.4,0-3.31L94.23,52.31a6.19,6.19,0,0,0-5.65,0Z" transform="translate(-5.64 -3.9)"/><path class="cls-7" d="M50.23,74.81c-1.5.88-1.5,2.33,0,3.22l14.62,8.59a6,6,0,0,0,5.47,0l38.09-22.37c1.51-.88,1.51-2.32,0-3.21l-14.65-8.6a6,6,0,0,0-5.47,0Z" transform="translate(-5.64 -3.9)"/><polyline class="cls-7" points="43.46 72.52 43.46 70.34 44.46 70.88 44.8 71.58 44.43 72.52"/><polyline class="cls-7" points="103.9 56.86 103.9 58.72 102.62 59.98 102.06 57.96 102.06 57.07"/><path class="cls-8" d="M50.23,72.87c-1.5.88-1.5,2.33,0,3.21l14.62,8.6a5.94,5.94,0,0,0,5.47,0l38.09-22.36c1.51-.88,1.51-2.33,0-3.21l-14.65-8.6a5.94,5.94,0,0,0-5.47,0Z" transform="translate(-5.64 -3.9)"/><path class="cls-9" d="M50.23,73c-1.5.88-1.5,2.33,0,3.21l14.62,8.6a5.94,5.94,0,0,0,5.47,0l38.09-22.36c1.51-.88,1.51-2.33,0-3.21l-14.65-8.6a5.94,5.94,0,0,0-5.47,0Z" transform="translate(-5.64 -3.9)"/><path class="cls-10" d="M50.23,72.87c-1.5.88-1.5,2.33,0,3.21l14.62,8.6a5.94,5.94,0,0,0,5.47,0l38.09-22.36c1.51-.88,1.51-2.33,0-3.21l-14.65-8.6a5.94,5.94,0,0,0-5.47,0Z" transform="translate(-5.64 -3.9)"/><polygon class="cls-11" points="83.03 47.39 49.53 67.04 67.96 77.91 101.41 58.21 83.03 47.39"/><path class="cls-9" d="M57.79,77.4c0,.66,1.09,1.19,2.49,1.19s2.57-.53,2.6-1.19-1.09-1.2-2.49-1.2S57.82,76.73,57.79,77.4Z" transform="translate(-5.64 -3.9)"/><path class="cls-12" d="M57.85,77.38c0,.65,1.13,1.17,2.54,1.17s2.54-.52,2.54-1.17-1.14-1.18-2.54-1.18S57.85,76.72,57.85,77.38Z" transform="translate(-5.64 -3.9)"/><path class="cls-8" d="M58.39,77.35c0,.49.9.89,2,.89s2-.4,2-.89-.9-.9-2-.9S58.39,76.85,58.39,77.35Z" transform="translate(-5.64 -3.9)"/><path class="cls-9" d="M60.43,78.18c-1.11,0-2-.41-2-.9a.54.54,0,0,1,0-.21.49.49,0,0,0-.09.28c0,.49.9.89,2,.89a2.28,2.28,0,0,0,1.94-.69A2.48,2.48,0,0,1,60.43,78.18Z" transform="translate(-5.64 -3.9)"/><path class="cls-9" d="M101.89,57l0,0h0L97.7,54.53h0a1,1,0,0,0-.47-.1c-.34,0-.62.13-.62.29a.14.14,0,0,0,.07.12s0,0,0,0h0l4.15,2.42h0a.94.94,0,0,0,.48.12c.35,0,.63-.13.63-.29A.19.19,0,0,0,101.89,57Z" transform="translate(-5.64 -3.9)"/><path class="cls-12" d="M102,56.93h0l-4.15-2.41h0a1,1,0,0,0-.48-.11c-.34,0-.62.13-.62.29a.19.19,0,0,0,.07.13l0,0h0l4.14,2.41h0a1,1,0,0,0,.49.11c.34,0,.62-.13.62-.29A.21.21,0,0,0,102,56.93Z" transform="translate(-5.64 -3.9)"/><polygon class="cls-13" points="48.85 76.12 45.42 74.13 45.42 73.49 48.85 75.48 48.85 76.12"/><path class="cls-13" d="M55.48,80.21c0,.27-.14.4-.31.29a.84.84,0,0,1-.31-.67c0-.26.14-.39.31-.29A.87.87,0,0,1,55.48,80.21Z" transform="translate(-5.64 -3.9)"/><path class="cls-13" d="M64.5,85.54c0,.26-.14.39-.31.29a.87.87,0,0,1-.3-.67c0-.27.13-.4.3-.29A.84.84,0,0,1,64.5,85.54Z" transform="translate(-5.64 -3.9)"/><path class="cls-13" d="M63.79,85.17c0,.26-.14.39-.31.29a.87.87,0,0,1-.3-.67c0-.27.13-.4.3-.29A.84.84,0,0,1,63.79,85.17Z" transform="translate(-5.64 -3.9)"/><path class="cls-14" d="M59.09,73.26l44.23-13.37L88.67,51.3,55.18,70.94C55.18,71.1,59.09,73.26,59.09,73.26Z" transform="translate(-5.64 -3.9)"/><path class="cls-15" d="M18.25,75.26c-2.26,1.33-2.26,3.5,0,4.84l51.32,30.32a9,9,0,0,0,8.23,0l37.54-22L94.05,70.64,74,58.8,57.88,52Z" transform="translate(-5.64 -3.9)"/><path class="cls-4" d="M103.8,92.13,84.15,75.72l-.2-.14L64.08,63.86l-.19-.1-11-4.59a1.56,1.56,0,0,1-.18-2.79l3.58-2a1.56,1.56,0,0,1,1.38-.09l13.27,5.51.19.1L91,71.58l.2.14,18.76,15.67a1.56,1.56,0,0,1-.23,2.55l-4.11,2.35A1.56,1.56,0,0,1,103.8,92.13Z" transform="translate(-5.64 -3.9)"/><path class="cls-16" d="M28.12,85.74,74,58.8,57.88,52,17.74,75.61a2.35,2.35,0,0,0-.07,4C19.42,80.73,28.12,85.74,28.12,85.74Z" transform="translate(-5.64 -3.9)"/><path class="cls-17" d="M78.2,110.19l37.14-21.73L94.33,71,48.14,97.76c0,.13,13.48,8,21.07,12.43A8.9,8.9,0,0,0,78.2,110.19Z" transform="translate(-5.64 -3.9)"/></g></g></svg>