<svg xmlns="http://www.w3.org/2000/svg" viewBox="0 0 189.57 163.52"><defs><style>.cls-1{isolation:isolate;}.cls-2{fill:#3aaa35;}.cls-3{fill:#92c682;}.cls-4{fill:#66b557;}.cls-5{fill:#d9d9d9;mix-blend-mode:multiply;}.cls-6{fill:#855815;}.cls-7{fill:#4c9a34;}.cls-13,.cls-8{fill:#fff;}.cls-8{opacity:0.1;}.cls-9{fill:#77b82a;}.cls-10{fill:#d3cf84;}.cls-11{fill:#5f8d2f;}.cls-12{fill:#be1823;}.cls-14{fill:#848383;}.cls-15{fill:#efefef;}.cls-16{fill:#fbc01f;}.cls-17{fill:#4e4d4c;}.cls-18{fill:#f5ad1f;}.cls-19{fill:#333;}.cls-20{fill:#4d4a81;}.cls-21{fill:#f6bbc6;}.cls-22{fill:#303b45;}.cls-23{fill:#5b5b5a;}.cls-24{fill:#353430;}.cls-25{fill:#eaeaea;}.cls-26,.cls-27,.cls-28{fill:none;stroke-miterlimit:10;stroke-width:1.06px;}.cls-26{stroke:#fbc01f;}.cls-27{stroke:#4294ce;}.cls-28{stroke:#fff;}.cls-29{fill:#ebebeb;}.cls-30{fill:#9ea6b0;}.cls-31{fill:#424241;}.cls-32{fill:#36a9e1;}</style></defs><title>G12_04_03</title><g class="cls-1"><g id="Livello_1" data-name="Livello 1"><polygon class="cls-2" points="189.57 106 189.57 110.75 100.1 163.52 100.1 158.78 189.57 106"/><polygon class="cls-3" points="100.1 158.78 100.1 163.52 4.01 107.79 4.01 103.04 100.1 158.78"/><polygon class="cls-4" points="99.88 158.79 3.78 103.06 3.78 102.79 94.09 50.89 189.57 106.02 100.03 158.88 99.88 158.79"/><ellipse class="cls-5" cx="97.59" cy="105.52" rx="45.88" ry="24.09"/></g><g id="Livello_2" data-name="Livello 2"><g id="_Gruppo_" data-name="&lt;Gruppo&gt;"><g id="_Gruppo_2" data-name="&lt;Gruppo&gt;"><rect id="_Tracciato_" data-name="&lt;Tracciato&gt;" class="cls-6" x="105.3" y="41.79" width="4.83" height="36.01"/><g id="_Gruppo_3" data-name="&lt;Gruppo&gt;"><path id="_Tracciato_2" data-name="&lt;Tracciato&gt;" class="cls-7" d="M127.56,41.55c-.8-19.14-16.22-40-16.22-40s-15.42,20.89-16.21,40c-.41,9.84,3.24,25.07,16.21,25.07S128,51.39,127.56,41.55Z" transform="translate(-3.62 -1.52)"/><path id="_Tracciato_3" data-name="&lt;Tracciato&gt;" class="cls-8" d="M111.34,1.52s-15.42,20.89-16.21,40c-.41,9.84,3.24,25.07,16.21,25.07Z" transform="translate(-3.62 -1.52)"/></g></g><g id="_Gruppo_4" data-name="&lt;Gruppo&gt;"><polygon id="_Tracciato_4" data-name="&lt;Tracciato&gt;" class="cls-9" points="104.33 73.35 101.83 78.22 106.84 78.22 104.33 73.35"/><polygon id="_Tracciato_5" data-name="&lt;Tracciato&gt;" class="cls-9" points="111.59 70.73 109.09 78.22 114.1 78.22 111.59 70.73"/><polygon id="_Tracciato_6" data-name="&lt;Tracciato&gt;" class="cls-9" points="115.28 74.81 112.78 78.22 117.79 78.22 115.28 74.81"/><polygon id="_Tracciato_7" data-name="&lt;Tracciato&gt;" class="cls-9" points="108.43 73.61 105.92 78.22 110.93 78.22 108.43 73.61"/></g></g><g id="_Gruppo_5" data-name="&lt;Gruppo&gt;"><g id="_Gruppo_6" data-name="&lt;Gruppo&gt;"><rect id="_Tracciato_8" data-name="&lt;Tracciato&gt;" class="cls-6" x="145.81" y="112.15" width="5.92" height="6.84"/><ellipse class="cls-10" cx="148.77" cy="112.15" rx="2.96" ry="1.23"/></g><g id="_Gruppo_7" data-name="&lt;Gruppo&gt;"><polygon id="_Tracciato_9" data-name="&lt;Tracciato&gt;" class="cls-11" points="146.42 115.37 144.31 119.46 148.53 119.46 146.42 115.37"/><polygon id="_Tracciato_10" data-name="&lt;Tracciato&gt;" class="cls-11" points="152.53 113.17 150.42 119.46 154.63 119.46 152.53 113.17"/><polygon id="_Tracciato_11" data-name="&lt;Tracciato&gt;" class="cls-11" points="155.63 116.6 153.52 119.46 157.74 119.46 155.63 116.6"/><polygon id="_Tracciato_12" data-name="&lt;Tracciato&gt;" class="cls-11" points="149.86 115.59 147.76 119.46 151.97 119.46 149.86 115.59"/></g></g><g id="_Gruppo_8" data-name="&lt;Gruppo&gt;"><g id="_Gruppo_9" data-name="&lt;Gruppo&gt;"><rect id="_Tracciato_13" data-name="&lt;Tracciato&gt;" class="cls-6" x="82.54" y="63.49" width="5.92" height="6.84"/><ellipse class="cls-10" cx="85.5" cy="63.49" rx="2.96" ry="1.23"/></g><g id="_Gruppo_10" data-name="&lt;Gruppo&gt;"><polygon id="_Tracciato_14" data-name="&lt;Tracciato&gt;" class="cls-11" points="83.16 66.7 81.05 70.79 85.26 70.79 83.16 66.7"/><polygon id="_Tracciato_15" data-name="&lt;Tracciato&gt;" class="cls-11" points="89.26 64.5 87.16 70.79 91.37 70.79 89.26 64.5"/><polygon id="_Tracciato_16" data-name="&lt;Tracciato&gt;" class="cls-11" points="92.36 67.93 90.26 70.79 94.47 70.79 92.36 67.93"/><polygon id="_Tracciato_17" data-name="&lt;Tracciato&gt;" class="cls-11" points="86.6 66.92 84.49 70.79 88.7 70.79 86.6 66.92"/></g></g><g id="_Gruppo_11" data-name="&lt;Gruppo&gt;"><g id="_Gruppo_12" data-name="&lt;Gruppo&gt;"><rect id="_Tracciato_18" data-name="&lt;Tracciato&gt;" class="cls-6" x="155.95" y="98.67" width="9.48" height="10.95"/><ellipse class="cls-10" cx="160.69" cy="98.67" rx="4.74" ry="1.96"/></g><g id="_Gruppo_13" data-name="&lt;Gruppo&gt;"><polygon id="_Tracciato_19" data-name="&lt;Tracciato&gt;" class="cls-11" points="156.93 103.82 153.56 110.37 160.3 110.37 156.93 103.82"/><polygon id="_Tracciato_20" data-name="&lt;Tracciato&gt;" class="cls-11" points="166.7 100.3 163.33 110.37 170.07 110.37 166.7 100.3"/><polygon id="_Tracciato_21" data-name="&lt;Tracciato&gt;" class="cls-11" points="171.66 105.78 168.29 110.37 175.04 110.37 171.66 105.78"/><polygon id="_Tracciato_22" data-name="&lt;Tracciato&gt;" class="cls-11" points="162.44 104.17 159.07 110.37 165.81 110.37 162.44 104.17"/></g></g><path class="cls-12" d="M84.25,101.38a4,4,0,0,0-2.63.81,2.12,2.12,0,0,0-1.1,1.77,2,2,0,0,0,1.92,1.41,5,5,0,0,1,1,.16.68.68,0,0,1,.44.87c-.09.32-.3.63-.22.95.12.48.92.83,1.75.88a4.77,4.77,0,0,0,2.3-.47,4.57,4.57,0,0,1,1-.4c1.55-.33,2.9,1.09,4.51.89a3.18,3.18,0,0,0,1.32-.52l2.59-1.5c.58-.34,1.22-.76,1.07-1.23s-1.32-.81-2.28-1c1.69-.69,2.47-2,1.84-3.18a1.15,1.15,0,0,0-.51-.49,3.36,3.36,0,0,0-1.1-.21,11.79,11.79,0,0,0-3.57.11,4.15,4.15,0,0,1-2.09.28c-.22-.07-.38-.18-.59-.25a2.11,2.11,0,0,0-1.14.07c-1.19.35-2.05,1.19-3.38,1.14C85,101.5,84.65,101.41,84.25,101.38Z" transform="translate(-3.62 -1.52)"/><ellipse class="cls-12" cx="75.29" cy="106.14" rx="1.69" ry="0.98"/><path class="cls-12" d="M86.54,109.24c.35.2.35.52,0,.72a1.38,1.38,0,0,1-1.25,0,.38.38,0,0,1,0-.72A1.38,1.38,0,0,1,86.54,109.24Z" transform="translate(-3.62 -1.52)"/><path class="cls-12" d="M87,99.15a.48.48,0,0,1,0,.92,1.74,1.74,0,0,1-1.6,0,.49.49,0,0,1,0-.92A1.74,1.74,0,0,1,87,99.15Z" transform="translate(-3.62 -1.52)"/><path class="cls-12" d="M93,96.47a.9.9,0,0,1,0,1.69,3.26,3.26,0,0,1-2.92,0,.89.89,0,0,1,0-1.69A3.26,3.26,0,0,1,93,96.47Z" transform="translate(-3.62 -1.52)"/><ellipse class="cls-12" cx="88.29" cy="107.85" rx="0.53" ry="0.3"/><ellipse class="cls-12" cx="75.92" cy="103.64" rx="0.93" ry="0.54"/><ellipse class="cls-12" cx="96.3" cy="101.56" rx="0.93" ry="0.54"/><ellipse class="cls-12" cx="84.69" cy="107.51" rx="1.36" ry="0.78"/><path class="cls-13" d="M63.16,98.42a4.21,4.21,0,0,1,2.54-.06l10.2,3s10.76-2.06,11.18-2.21h0l.18-.11.16-.09h0a8.41,8.41,0,0,0,0-.87s-3.33.88-5.12-.43a4.23,4.23,0,0,1-.54-.47A2.16,2.16,0,0,1,81.19,96c-.17-1,.5-2,1.94-2.66a4.4,4.4,0,0,1,.5-.21,8.5,8.5,0,0,1,3.7-.41,8,8,0,0,1,1.89.43,5,5,0,0,1,1.28.66,1.76,1.76,0,0,1,.93,1.91c0,.22,0,.47,0,.87l.68-.34,0,0a1.49,1.49,0,0,0,.21,0h0a2.24,2.24,0,0,1,.23-.06h0l.49-.09,10.6-1.52,6.88-4.85a2.44,2.44,0,0,1,.58-.3,3.89,3.89,0,0,1,2.77.1l0,0c1,.48,1.16,1.35.33,1.94l-7.19,5.07a2.26,2.26,0,0,1-.56.28,2.13,2.13,0,0,1-.45.13l-.22.09a4.1,4.1,0,0,1-.67.17l-7,.13v.87l20,9.59,1,.43,11.23-.77,1.63-.12c1.63-.11,3.11.56,3.31,1.5v0c.14.68-.43,1.32-1.38,1.66a4.47,4.47,0,0,1-1.22.25l-2,.14-12.12.84h-.07a4.34,4.34,0,0,1-.51,0l-.31,0-.26,0-.34-.07-.21,0a3,3,0,0,1-.45-.17h0l-1.74-.79-8.5-4.28v.87l2.42,6.48.38,1,5.29,6.35.87,1c.66.79.17,1.74-1.1,2.2a2.63,2.63,0,0,1-.3.09l0,0a4.16,4.16,0,0,1-4-.81l-.71-.85-5.45-6.54s0,0,0,0a1.38,1.38,0,0,1-.35-.5l-.52-1.39-2.32-6.2-5.15-2.62-3.52-1.8-2.94-1.5c-.14,0-12.16,2.33-12.16,2.33H76.5l-.4.05h-.5l-.27,0a2,2,0,0,1-.24,0l-.37-.08-.1,0-11.19-3.28c-1.3-.37-1.85-1.28-1.23-2l0,0a2.09,2.09,0,0,1,.93-.6Zm-.82-.76h0a3.51,3.51,0,0,0-1.51,1l0,0c-1,1.18-.12,2.63,1.92,3.22l11.19,3.27.21.06a4.63,4.63,0,0,0,.54.11l.34,0h.08l.38,0h.82l.57-.07.22,0c.1,0,8.29-1.57,11.33-2.17l2.28,1.16,3.51,1.79L99,108.52l2.21,5.91.52,1.39a2.13,2.13,0,0,0,.46.69l0,0,5.46,6.55.7.85c1.09,1.3,3.8,1.85,6.05,1.22h.06l.44-.14c2-.71,2.68-2.15,1.67-3.35l-.87-1-5.21-6.25-.34-.9-1.72-4.6,5.34,2.42,1.73.78.12.05c.21.09.42.16.64.23l.3.07h0c.12,0,.28.07.47.1l.36,0h.09l.42,0h.89l12.11-.84,2-.14a6.75,6.75,0,0,0,1.86-.38c1.48-.53,2.31-1.53,2.1-2.53v0c-.3-1.44-2.56-2.46-5-2.29l-1.63.12-10.59.73-.43-.19-17.68-8.45,4.06-.59a5.56,5.56,0,0,0,1.12-.27l.17-.06.5-.16a4.34,4.34,0,0,0,.94-.47L115.51,92a1.72,1.72,0,0,0,.87-1.66A2.29,2.29,0,0,0,115,88.79l0,0a6.36,6.36,0,0,0-4.57-.17,3.93,3.93,0,0,0-1,.49l-6.56,4.63L93.12,95.1a3.47,3.47,0,0,0-1.41-1.83A6.48,6.48,0,0,0,90,92.41a10,10,0,0,0-2.45-.55,11.09,11.09,0,0,0-4.77.53c-.23.09-.45.17-.65.27-1.8.84-2.74,2.13-2.52,3.45a3,3,0,0,0,.75,1.45,5.44,5.44,0,0,0,.71.62,7.9,7.9,0,0,0,1.62.89L76,100.38,66.4,97.56a6.84,6.84,0,0,0-4.06.1Z" transform="translate(-3.62 -1.52)"/></g><g id="Livello_3" data-name="Livello 3"><path class="cls-14" d="M107.8,154.22c0,1.62-2.54,2.94-5.67,2.94s-5.67-1.32-5.67-2.94S99,152,102.13,152,107.8,152.59,107.8,154.22Z" transform="translate(-3.62 -1.52)"/><ellipse class="cls-15" cx="98.55" cy="152.06" rx="3.15" ry="1.64"/><polygon class="cls-15" points="101.7 152.03 95.4 152.12 95.65 117.84 101.44 117.84 101.7 152.03"/><path class="cls-16" d="M102.53,128.09v8.75a6.58,6.58,0,0,1-1.31-.38l-1.07-.62L3.62,80.07V71.32l96.57,55.79,1.21.71A4.9,4.9,0,0,0,102.53,128.09Z" transform="translate(-3.62 -1.52)"/><polygon class="cls-17" points="98.91 127.94 98.91 128.69 0 71.54 0 70.79 98.91 127.94"/><polyline class="cls-17" points="98.91 133.95 98.91 134.69 0 77.54 0 76.8"/><circle class="cls-14" cx="98.55" cy="117.84" r="4.25"/><path class="cls-18" d="M192.75,75.37v8.75l-86.69,51.36s-1.66.8-1.93,1a4.33,4.33,0,0,1-1.6.4v-8.75a3.79,3.79,0,0,0,2.14-.7c.42-.25,1.33-.73,1.33-.73Z" transform="translate(-3.62 -1.52)"/><polygon class="cls-19" points="189.13 74.84 189.13 75.59 98.91 128.69 98.91 127.94 189.13 74.84"/><polygon class="cls-19" points="189.13 80.85 189.13 81.59 98.91 134.69 98.91 133.95 189.13 80.85"/><path class="cls-20" d="M74.51,24c-1.61-1.09-1.27-1.84-1.48-3.58a5.86,5.86,0,0,0-1.15-3c-1.9-2.24-5.51-.94-6.4,0a7,7,0,0,0-1.57,2.74c-.48,1.69-.25,2.49-2,3.33-.6.29-1.25.77-1.25,1.44s.41,1,.41,1.51c0,1-1.29,1.39-1.68,2.28-.3.68,0,1.48-.08,2.22a6.66,6.66,0,0,1-.73,1.86,2.11,2.11,0,0,0-.08,1.92,2.24,2.24,0,0,0,2.3.7,4.46,4.46,0,0,1,2.51,0c.61.3,1,.94,1.64,1.24a2.49,2.49,0,0,0,2.47-.42l.17-.15a2.31,2.31,0,0,0,2,.42c.65-.21,1.15-.78,1.8-1,.82-.26.93-1.37,1.75-1.13S74.76,28,74.9,27.07c.07-.52.55-.92.63-1.43C75.63,25,75.06,24.4,74.51,24Z" transform="translate(-3.62 -1.52)"/><path class="cls-21" d="M77.94,27.13s4.41,8,4.22,11a3.18,3.18,0,0,1-4.31,3.06c-1.44-.57-6.14-10.92-6.14-10.92l.1-2.78a3.75,3.75,0,0,1,3.35,1.54c1.34,1.82,3.17,7.57,3.17,7.57l-1.92-10Z" transform="translate(-3.62 -1.52)"/><path class="cls-22" d="M67.5,78.57A8.1,8.1,0,0,0,66.88,81c0,.91.35,1.16.35,1.16a20.34,20.34,0,0,0,2.33.57c.51,0,1.35.83,2.57.91s2.77.46,2.94-.5c.1-.58-1.4-1.14-3.16-2.33a9.33,9.33,0,0,1-2-1.93Z" transform="translate(-3.62 -1.52)"/><path class="cls-22" d="M60,81.1s.1.86.86.82a2.49,2.49,0,0,0,1.44-.87l-.19,3.07s-.43,4.6-1.77,5.08c-1,.34-1.38-.86-1.55-1.57a2.22,2.22,0,0,1,0-.89Z" transform="translate(-3.62 -1.52)"/><path class="cls-22" d="M62.58,65.19s.76-11.78.51-12.67-.51-5.7-.51-5.7l10.64-3.93s.59,16.17.84,17.81S69.9,78.91,69.9,78.91a1.41,1.41,0,0,1-1.4.88c-1.06-.05-1-.84-1-.84S70.1,62.57,70.1,61.81,69,53,69,53s-1.52,7.6-2,10.89-4.69,17.13-4.69,17.13-.29,1.3-1.25,1.44-1.15-.91-1.15-.91Z" transform="translate(-3.62 -1.52)"/><path class="cls-23" d="M74.34,61.09,71.25,75.23l-3.66-.64,2-11.48-.74-8.23L67,65.51,63.31,78.57,60,78l2.42-13.59L63,52.58a8.87,8.87,0,0,1-.29-7.18c0-.76.68.13.68.13l10.48-1.92.51,3Z" transform="translate(-3.62 -1.52)"/><path class="cls-22" d="M67.84,78.62l2.06.29a9.33,9.33,0,0,0,2,1.93c.42.28.82.53,1.18.75a.34.34,0,0,1,0,.1c0,.27-.36.37-.63.39a9.45,9.45,0,0,1-3.82-.83,2,2,0,0,1-.86-.5,1.49,1.49,0,0,1-.29-.87A1.78,1.78,0,0,1,67.84,78.62Z" transform="translate(-3.62 -1.52)"/><path class="cls-22" d="M61.74,83.29a15.69,15.69,0,0,1-.57,1.8c-.1.23-.23.47-.46.53a.57.57,0,0,1-.55-.23,1.72,1.72,0,0,1-.34-1,9.81,9.81,0,0,1,.12-3.06c.09-.46.28-1,.73-1.14a1.52,1.52,0,0,1,1.15.29,1.11,1.11,0,0,1,.47.39c.11.22,0,.43-.07.66Z" transform="translate(-3.62 -1.52)"/><path class="cls-23" d="M67.41,28.14s3.56-.87,5.29-.44.32,3.17.46,3.75c0,.09,2.75,3.48,2.77,4.36a3.64,3.64,0,0,1-2.26,3.29l1.78,7.1s-8.74,3.36-10.88,2.28-2.47-2.43-2.39-3.06c0-.38,1.64-3.42,1.62-3.8l-1.3-7.94a4.09,4.09,0,0,1,1.71-3.23Z" transform="translate(-3.62 -1.52)"/><path class="cls-21" d="M78.55,26.21A1.55,1.55,0,1,1,77,24.67,1.54,1.54,0,0,1,78.55,26.21Z" transform="translate(-3.62 -1.52)"/><path class="cls-23" d="M71.81,27.51a3.75,3.75,0,0,1,3.35,1.54,6.76,6.76,0,0,1,.75,1.3c.84,1.88,2,5.14,2,5.14L75,37l-.14-.26c-1.58-3-3.13-6.41-3.13-6.41Z" transform="translate(-3.62 -1.52)"/><path class="cls-21" d="M68.64,28.13s-1.54.43-1.68.79,1-.34,2.22.55A11.06,11.06,0,0,1,71.44,32s1.14-.73,1.11-3S68.64,28.13,68.64,28.13Z" transform="translate(-3.62 -1.52)"/><path class="cls-21" d="M71.55,25.46,71.69,29l-.34.06a2.7,2.7,0,0,1-3,.31h0c-.27-.14.35-1.39,0-1l.31-3.25Z" transform="translate(-3.62 -1.52)"/><polygon class="cls-23" points="67 27.63 66.33 29.25 64.14 29.55 62.97 27.34 64.44 25.74 64.82 25.63 64.76 26.13 67 27.63"/><polygon class="cls-24" points="67.28 29.79 66.22 29.47 67 27.63 67.28 29.79"/><polygon class="cls-23" points="67.77 31.16 70.02 28.12 68.44 25.22 67.98 25.38 67.77 31.16"/><circle class="cls-25" cx="65.77" cy="28.1" r="0.6"/><line class="cls-26" x1="68.92" y1="32.1" x2="70.99" y2="31.71"/><line class="cls-27" x1="68.92" y1="32.1" x2="69.6" y2="31.97"/><line class="cls-28" x1="70.31" y1="31.84" x2="70.99" y2="31.71"/><path class="cls-29" d="M74.94,44.27l.51,1.93s-6.66,3.53-10.88,2.28c-2.45-.72-2.47-2.43-2.39-3.06a4.33,4.33,0,0,1,.22-.84s.79,1.13,3.47,1.5C69,46.51,74.94,44.27,74.94,44.27Z" transform="translate(-3.62 -1.52)"/><path class="cls-29" d="M73.08,45.52l.72-.2s-3.42-10.61-7.4-14.14c-.47-.42-2.33-1.09-2.82-.69a4,4,0,0,0-.59.64,6.56,6.56,0,0,1,3.91,2.12C69.39,35.9,73.08,45.52,73.08,45.52Z" transform="translate(-3.62 -1.52)"/><path class="cls-21" d="M75.19,22.76A4.2,4.2,0,1,1,71,18.57,4.19,4.19,0,0,1,75.19,22.76Z" transform="translate(-3.62 -1.52)"/><path class="cls-20" d="M74.4,21.78a1.08,1.08,0,0,0,.54-.36,0,0,0,0,0,0,0c.81-2-1.92-3.19-4.54-3-2.31.18-3.61,2-3.61,4.35,0,1,1.54.17,1.46.56-.12.57,0,2.22,1,2.18-.6-.7.45-1.73.71-1.94C71.83,22.08,72.81,22.39,74.4,21.78Z" transform="translate(-3.62 -1.52)"/><path class="cls-21" d="M68.32,22.9a1,1,0,1,1-1.95,0,1,1,0,1,1,1.95,0Z" transform="translate(-3.62 -1.52)"/><path class="cls-16" d="M70.41,18.41a2.84,2.84,0,0,1,.72.1A2.31,2.31,0,0,0,70,18.2a2.35,2.35,0,0,0-2.33,2.09A3,3,0,0,1,70.41,18.41Z" transform="translate(-3.62 -1.52)"/><path class="cls-30" d="M77.27,29.67H75.83a10.29,10.29,0,0,1-2.12-2.83l-.86-3.12a8.84,8.84,0,0,1,2.57.15l3,1.7a1.14,1.14,0,0,1,.57,1v2C79,29.41,78.19,29.67,77.27,29.67Z" transform="translate(-3.62 -1.52)"/><path class="cls-31" d="M75.25,29.52l-3-1.7a1.13,1.13,0,0,1-.58-1v-2a1.14,1.14,0,0,1,1.71-1l3,1.7a1.14,1.14,0,0,1,.57,1v2A1.13,1.13,0,0,1,75.25,29.52Z" transform="translate(-3.62 -1.52)"/><path class="cls-30" d="M74.92,29.52l-3-1.7a1.14,1.14,0,0,1-.57-1v-2a1,1,0,0,1,1.55-1l3,1.7a1.29,1.29,0,0,1,.73,1v2A1.14,1.14,0,0,1,74.92,29.52Z" transform="translate(-3.62 -1.52)"/><path class="cls-21" d="M74.75,28.12s-2.07,8.31-2.2,8.74a22.18,22.18,0,0,1-1.92,4.39c-.13.24-.61,1.22-.78,1.46-.19-.12-1.06.3-1.24.18a37.94,37.94,0,0,1-2.82-2.71,22.22,22.22,0,0,1-2.54-5.12c0-.5,4.59,1.58,4.67,1.08l.69.82a73.25,73.25,0,0,1,4.82-9.53C74,26.58,74.75,28.12,74.75,28.12Z" transform="translate(-3.62 -1.52)"/><path class="cls-21" d="M72.39,26.72a1.55,1.55,0,1,1,1.18,1.84A1.55,1.55,0,0,1,72.39,26.72Z" transform="translate(-3.62 -1.52)"/><circle class="cls-30" cx="74.67" cy="25.92" r="1.14"/><circle class="cls-32" cx="74.56" cy="25.92" r="0.95"/><path class="cls-23" d="M66.58,47.61l.22-.37Z" transform="translate(-3.62 -1.52)"/><path class="cls-23" d="M74.67,28l.08.14Z" transform="translate(-3.62 -1.52)"/><path class="cls-23" d="M68.79,36.41s-4.93,3.72-5.15,3.76c0,.15-1-4-1-3.84a7.45,7.45,0,0,1,1-5.58c1-1.41,5.44-1.73,5.44-1.73.9.63-.85,6.54-.85,6.54Z" transform="translate(-3.62 -1.52)"/><path class="cls-29" d="M69,34.49a14.85,14.85,0,0,0-2.6-3.31c-.47-.42-2.33-1.09-2.82-.69a4,4,0,0,0-.59.64,6.56,6.56,0,0,1,3.91,2.12,13.74,13.74,0,0,1,1.61,2.31Z" transform="translate(-3.62 -1.52)"/></g></g></svg>