<svg xmlns="http://www.w3.org/2000/svg" viewBox="0 0 145.73 145.73"><defs><style>.cls-1{fill:#a7b0ba;}.cls-2{fill:none;stroke:#dadde0;stroke-linecap:round;stroke-linejoin:round;stroke-width:0.71px;}.cls-3{fill:#dadde0;}.cls-4{fill:#66b657;stroke:#eaeaea;stroke-miterlimit:10;stroke-width:4px;}.cls-5{fill:#a1c0d5;}.cls-6{fill:#658db0;}.cls-7{fill:#5c91af;}.cls-8{fill:#454544;}.cls-9{fill:#5b5b5a;}.cls-10{fill:#323232;}.cls-11{fill:#3c3c3b;}.cls-12{fill:#c9bda1;}.cls-13{fill:#8f816a;}.cls-14{fill:#a4977c;}</style></defs><title>G12_11_01</title><g id="Mobile"><path class="cls-1" d="M84.09,87.59c0,.32-.33.21-.38.26-.17.2-.61.2-1.26.13s-1.06.12-1.78,0a19.24,19.24,0,0,0-2.28-.39,23,23,0,0,1-3.15-.1l.25-1.79a16.69,16.69,0,0,0,2.73,0,12.81,12.81,0,0,1,2.62.73c.65.12,1.18-.13,1.66,0s1.07.3,1.25.62C83.8,87.23,84.09,87.34,84.09,87.59Z" transform="translate(-5.64 -3.9)"/><path class="cls-2" d="M75.18,87.61a2.84,2.84,0,0,1,0-1c.15-.85.3-.92.3-.92" transform="translate(-5.64 -3.9)"/><path class="cls-3" d="M75.9,86.26c.91.07,1.81,0,2.73-.06a3.92,3.92,0,0,1,1.36.32c.43.16.83.38,1.27.5a20.36,20.36,0,0,0-2.63-.62A11.38,11.38,0,0,1,75.9,86.26Z" transform="translate(-5.64 -3.9)"/><path class="cls-3" d="M82.84,87.49c-.34,0-.67.09-1,.12a4,4,0,0,1-1,0c-.69-.14-1.32-.36-2-.45a7.29,7.29,0,0,1,2,.25C81.46,87.55,82.15,87.37,82.84,87.49Z" transform="translate(-5.64 -3.9)"/><circle class="cls-4" cx="72.87" cy="72.87" r="70.87"/><path class="cls-5" d="M93.22,131.28c-.07-.74.07-3.93,0-4.81s-1-11.16-1.1-12.38-.58-5.62-.73-6.71-.26-4.45-.48-6.31-.62-9.47-.71-10a14,14,0,0,1-.06-3.4,4.4,4.4,0,0,0-.22-2c-.11-.73-.36-5.36-.44-5.64s-.11-1.2-.29-1.9a15,15,0,0,1-.29-1.72c0-.35-.26-2.49-.26-2.49H64.52s-.29,2.14-.25,2.49A13.74,13.74,0,0,1,64,78.2c-.18.7-.22,1.61-.29,1.9s-.33,4.91-.44,5.64a4.55,4.55,0,0,0-.22,2,14,14,0,0,1-.06,3.4c-.09.49-.49,8.1-.71,10s-.33,5.21-.47,6.31-.59,5.48-.74,6.71-1,11.5-1.1,12.38.08,4.07,0,4.81-.69,6.59-.51,7.05c0,0,5-.81,7.84.21a7.6,7.6,0,0,0,.48-1.41c.07-.49-.37-1.36-.18-1.58a5.69,5.69,0,0,0,1-2.27,6.39,6.39,0,0,1,0-2.39,7.64,7.64,0,0,0,.36-2.49,30.28,30.28,0,0,1,.7-4.18c.25-1,1-5.92,1-7A22.94,22.94,0,0,1,71.3,113c.22-.56.59-3.54.77-4.7a32.16,32.16,0,0,1,1.1-5.75c.7-1.89,2.2-6.07,2.39-6.63s.51-1.82.55-2.1l.47-.11.48.11a21,21,0,0,0,.55,2.1c.18.56,1.68,4.74,2.38,6.63a30.46,30.46,0,0,1,1.1,5.75c.18,1.16.55,4.14.77,4.7a22.94,22.94,0,0,1,.66,4.18c0,1.09.77,6,1,7a31.7,31.7,0,0,1,.69,4.18,7.37,7.37,0,0,0,.37,2.49,6.61,6.61,0,0,1,0,2.39,5.43,5.43,0,0,0,1,2.27c.18.22-.26,1.09-.19,1.58a8.47,8.47,0,0,0,.48,1.41c2.86-1,7.84-.21,7.84-.21A69.42,69.42,0,0,0,93.22,131.28Z" transform="translate(-5.64 -3.9)"/><path class="cls-6" d="M64.27,76.48,64.52,74H88.64s.2,2.08.26,2.49Z" transform="translate(-5.64 -3.9)"/><path class="cls-6" d="M75.78,74v2.49h.63V93.77l.44,0V88.9s1.76.32,1.76-2.91V74Z" transform="translate(-5.64 -3.9)"/><path class="cls-5" d="M77.53,75.11a.41.41,0,1,1-.4-.4A.4.4,0,0,1,77.53,75.11Z" transform="translate(-5.64 -3.9)"/><path class="cls-6" d="M71.88,76.48s1.05,4.91-8.26,4.21l0,.74s9.15,1.51,9.15-5Z" transform="translate(-5.64 -3.9)"/><path class="cls-6" d="M81.27,76.48s-1,4.91,8.26,4.21l.06.74s-9.16,1.51-9.16-5Z" transform="translate(-5.64 -3.9)"/><path class="cls-7" d="M67.27,138.54s.16-.36.3-.74a17.93,17.93,0,0,0-8.16-.3,3.07,3.07,0,0,0,0,.83S64.41,137.52,67.27,138.54Z" transform="translate(-5.64 -3.9)"/><path class="cls-7" d="M85.89,138.54s-.16-.36-.29-.74a17.94,17.94,0,0,1,8.16-.3,3.36,3.36,0,0,1,0,.83S88.75,137.52,85.89,138.54Z" transform="translate(-5.64 -3.9)"/><path class="cls-8" d="M126.38,32.24l-7.93-5.45-5.28-1.32-.22-.06-5.27-1.32-9.57,1.06s-.28,10.07-1.86,13.45L89.89,63.54s2,4.48,11.77,7h0l.11,0,.11,0h0c9.74,2.38,13.67-.6,13.67-.6l6.14-25C121.89,41.24,126.38,32.24,126.38,32.24Z" transform="translate(-5.64 -3.9)"/><path class="cls-8" d="M96.25,38.6c1.58-3.38,1.86-13.45,1.86-13.45L87.67,30,92.8,40l3.39-1.19Z" transform="translate(-5.64 -3.9)"/><polygon class="cls-9" points="83.97 25.16 89.08 35.45 87.16 36.12 82.03 26.05 83.97 25.16"/><path class="cls-8" d="M121.72,45c.2-3.73,4.69-12.74,4.69-12.74l7,9.15-9.27,6.47-2.43-2.65Z" transform="translate(-5.64 -3.9)"/><polygon class="cls-9" points="126.43 35.79 117.07 42.46 118.45 43.95 127.72 37.49 126.43 35.79"/><polygon class="cls-9" points="104.59 20.83 104.04 26.06 105.96 28.86 104.66 31.01 103.13 25.2 104.24 20.74 104.59 20.83"/><polygon class="cls-9" points="110.65 22.35 110.3 22.26 108.42 27.1 105.96 28.86 104.66 31.01 95.76 66.55 97.9 67.03 106.79 31.54 107.69 29.17 109.54 26.8 110.65 22.35"/><path class="cls-10" d="M111.72,35.47a.49.49,0,0,1-.94-.24.49.49,0,1,1,.94.24Z" transform="translate(-5.64 -3.9)"/><circle class="cls-10" cx="109.93" cy="40.63" r="0.49" transform="translate(38.17 133.49) rotate(-75.94)"/><path class="cls-10" d="M109.08,46a.5.5,0,0,1-.6.36.49.49,0,0,1,.24-1A.5.5,0,0,1,109.08,46Z" transform="translate(-5.64 -3.9)"/><path class="cls-10" d="M107.75,51.32a.49.49,0,0,1-.94-.24.49.49,0,1,1,.94.24Z" transform="translate(-5.64 -3.9)"/><path class="cls-10" d="M106.43,56.6a.5.5,0,0,1-.59.36.5.5,0,0,1-.36-.6.48.48,0,0,1,.59-.35A.48.48,0,0,1,106.43,56.6Z" transform="translate(-5.64 -3.9)"/><path class="cls-10" d="M105.11,61.89a.49.49,0,0,1-.6.35.48.48,0,0,1-.35-.59.49.49,0,0,1,.59-.36A.5.5,0,0,1,105.11,61.89Z" transform="translate(-5.64 -3.9)"/><polygon class="cls-10" points="104.43 20.99 103.26 25.68 105.96 28.86 109.54 26.8 110.76 22.15 104.43 20.99"/><polygon class="cls-11" points="113.78 32.01 113.58 23.42 112.8 22.89 104.62 20.32 102.04 20.19 97.41 27.91 103.13 26.2 104.24 21.69 110.65 23.35 109.54 27.8 113.78 32.01"/><polygon class="cls-8" points="104.91 19.07 102.04 21.19 98.75 26.65 103.13 26.2 104.91 19.07"/><polygon class="cls-8" points="111.32 20.68 112.86 23.9 113.17 30.01 109.54 27.8 111.32 20.68"/><rect class="cls-8" x="112.05" y="21.81" width="2.75" height="6.61" transform="translate(55.87 125.14) rotate(-75.94)"/><path class="cls-12" d="M68.34,43.34c-2.41-5.47-2-17.93-2-17.93a.73.73,0,0,0-.09-.08l0-.25a8.77,8.77,0,0,1,4.15,3.75C72.18,31.74,83.06,58.6,80.78,60.7l-6.85,2.71-5.35-19C68.43,43.74,68.34,43.34,68.34,43.34Z" transform="translate(-5.64 -3.9)"/><path class="cls-12" d="M36.33,49c.39-6-4.3-17.52-4.3-17.52a.61.61,0,0,1,.07-.1L32,31.15a8.78,8.78,0,0,0-2.62,5c-.61,3.32-1.5,33.41,1.18,33.86H37.9L36.49,50.12C36.39,49.41,36.33,49,36.33,49Z" transform="translate(-5.64 -3.9)"/><path class="cls-12" d="M66.57,25.14c-1.39-1.38-10.46-2-10.46-2l-7.7.82h0l-7.52,1.87s-8.3,3.69-9.13,5.46c0,0,4.69,11.56,4.3,17.52,0,0,1.93,15,5,20.59l.65,3.67,15-2.65h0l14.95-2.64-.65-3.67c.93-6.3-2.4-21-2.4-21C66.13,37.6,66.57,25.14,66.57,25.14Z" transform="translate(-5.64 -3.9)"/><rect class="cls-13" x="41.12" y="66.72" width="30.37" height="3.73" transform="translate(-16.72 6.95) rotate(-10.03)"/><polygon class="cls-14" points="37.41 27.98 42.27 24.63 37.51 17.7 35.25 21.93 37.41 27.98"/><polygon class="cls-14" points="50.04 25.75 44.33 24.27 46.42 16.12 49.99 19.32 50.04 25.75"/><polygon class="cls-13" points="37.51 17.7 46.42 16.12 44.33 24.27 42.27 24.63 37.51 17.7"/><rect class="cls-14" x="52.43" y="28.03" width="0.47" height="42.76" transform="translate(-13.44 6.02) rotate(-10.03)"/><polygon class="cls-13" points="68.29 59.51 75.14 56.79 75.95 59.71 69 62.22 68.29 59.51"/><polygon class="cls-13" points="32.26 66.06 24.89 66.06 25.22 69.07 32.6 68.85 32.26 66.06"/></g></svg>