<svg xmlns="http://www.w3.org/2000/svg" viewBox="0 0 145.73 145.73"><defs><style>.cls-1{fill:#a7b0ba;}.cls-2,.cls-6{fill:none;stroke-linecap:round;stroke-linejoin:round;}.cls-2{stroke:#dadde0;stroke-width:0.71px;}.cls-3{fill:#dadde0;}.cls-4{fill:#66b657;stroke:#eaeaea;stroke-miterlimit:10;stroke-width:4px;}.cls-5{fill:#9cc98f;}.cls-6{stroke:#cbe3c0;stroke-width:5.67px;}.cls-7{fill:#cbe3c0;}</style></defs><title>G12_11_02</title><g id="Mobile"><path class="cls-1" d="M84.09,87.59c0,.32-.33.21-.38.26-.17.2-.61.2-1.26.13s-1.06.12-1.78,0a19.24,19.24,0,0,0-2.28-.39,23,23,0,0,1-3.15-.1l.25-1.79a16.69,16.69,0,0,0,2.73,0,12.81,12.81,0,0,1,2.62.73c.65.12,1.18-.13,1.66,0s1.07.3,1.25.62C83.8,87.23,84.09,87.34,84.09,87.59Z" transform="translate(-5.64 -3.9)"/><path class="cls-2" d="M75.18,87.61a2.84,2.84,0,0,1,0-1c.15-.85.3-.92.3-.92" transform="translate(-5.64 -3.9)"/><path class="cls-3" d="M75.9,86.26c.91.07,1.81,0,2.73-.06a3.92,3.92,0,0,1,1.36.32c.43.16.83.38,1.27.5a20.36,20.36,0,0,0-2.63-.62A11.38,11.38,0,0,1,75.9,86.26Z" transform="translate(-5.64 -3.9)"/><path class="cls-3" d="M82.84,87.49c-.34,0-.67.09-1,.12a4,4,0,0,1-1,0c-.69-.14-1.32-.36-2-.45a7.29,7.29,0,0,1,2,.25C81.46,87.55,82.15,87.37,82.84,87.49Z" transform="translate(-5.64 -3.9)"/><circle class="cls-4" cx="72.87" cy="72.87" r="70.87"/><path class="cls-5" d="M133.59,100.77c-1,3.93-4.74.57-5.52,1.12-2.65,1.87-8.12,1.56-16-1.22C106,98.52,98.7,98.93,90,95.81c-8-2.88-17.25-9.29-27.19-11.7C49.36,80.84,35.69,78,24.13,73.38l8.49-21.45c10.53,4.53,23.45,6.25,33.7,8.74,11.77,2.86,21.21,12.69,30.34,16.89,7.61,3.49,15,1.93,20.52,5,6.94,3.79,12.4,8.95,13.58,13.44C131.16,97.5,134.34,97.71,133.59,100.77Z" transform="translate(-5.64 -3.9)"/><path class="cls-6" d="M23.15,74.19A34.92,34.92,0,0,1,26.23,61.5c4.43-10.08,6.46-10.44,6.46-10.44" transform="translate(-5.64 -3.9)"/><path class="cls-7" d="M62.19,66c4.2,1.43,8.28,3.13,12.36,4.83s8.1,3.5,12.13,5.29l12,5.5c2,.91,4,1.84,6,2.73,1,.46,2,.89,3,1.31a15.72,15.72,0,0,0,3.13,1,12.37,12.37,0,0,1-3.31-.47c-1.09-.25-2.15-.58-3.22-.89-2.11-.67-4.21-1.4-6.28-2.18-4.15-1.55-8.22-3.3-12.26-5.09s-8-3.72-12-5.73S66,68.18,62.19,66Z" transform="translate(-5.64 -3.9)"/><path class="cls-7" d="M36.17,59.6a67,67,0,0,1,8.25,2.87c2.69,1.09,5.32,2.29,7.95,3.47l7.85,3.6c2.62,1.18,5.25,2.32,8,3.41a37.47,37.47,0,0,1-8.57-1.86,79.42,79.42,0,0,1-8.13-3.22Q47.53,66,43.71,64C41.16,62.59,38.65,61.15,36.17,59.6Z" transform="translate(-5.64 -3.9)"/><path class="cls-7" d="M118.44,95.75c-4.26-1-8.59-1.07-13-1.69A50.7,50.7,0,0,1,99,92.79a44.74,44.74,0,0,1-6.29-2.23c-4-1.82-7.85-4-11.69-6a93,93,0,0,0-11.84-5.4,49.08,49.08,0,0,1,12.56,3.9c2,.86,4,1.84,6,2.77s3.9,1.91,5.87,2.76a57,57,0,0,0,12.24,3.81C110,93.34,114.42,93.91,118.44,95.75Z" transform="translate(-5.64 -3.9)"/></g></svg>