<svg xmlns="http://www.w3.org/2000/svg" xmlns:xlink="http://www.w3.org/1999/xlink" viewBox="0 0 488.04 323.85"><defs><style>.cls-1{fill:none;}.cls-2{isolation:isolate;}.cls-3{fill:#3aaa35;}.cls-4{fill:#93c782;}.cls-5{fill:#65b557;}.cls-6{fill:#d9d9d9;}.cls-16,.cls-6{mix-blend-mode:multiply;}.cls-7{fill:#ef7967;}.cls-8{fill:#4d4471;}.cls-9{fill:#3b2d7c;}.cls-10{fill:#8782bd;}.cls-11{fill:#e52421;}.cls-12{fill:#442e15;}.cls-13{fill:#624018;}.cls-14{fill:#6e4819;}.cls-15{clip-path:url(#clip-path);}.cls-16{opacity:0.21;}.cls-17{clip-path:url(#clip-path-3);}.cls-18{clip-path:url(#clip-path-4);}.cls-19{fill:url(#Sfumatura_senza_nome_12);}.cls-20{clip-path:url(#clip-path-6);}.cls-21{clip-path:url(#clip-path-7);}.cls-22{fill:url(#Sfumatura_senza_nome_12-2);}.cls-23{fill:#d3ccc7;}.cls-24{fill:#f4f0ed;}.cls-25{clip-path:url(#clip-path-9);}.cls-26{clip-path:url(#clip-path-10);}.cls-27{fill:url(#Sfumatura_senza_nome_12-3);}.cls-28{fill:#f4f1ef;}.cls-29{fill:#547992;}.cls-30{fill:#6c8fa8;}.cls-31{fill:#678aa5;}.cls-32{fill:#93b0c6;}.cls-33{fill:#888989;}.cls-34{fill:#efeeee;}.cls-35{fill:#fff;}.cls-36{fill:#273544;}.cls-37{fill:#7899b6;}.cls-38{opacity:0.19;mix-blend-mode:overlay;}.cls-39{clip-path:url(#clip-path-12);}.cls-40{clip-path:url(#clip-path-13);}.cls-41{fill:url(#Sfumatura_senza_nome_21);}.cls-42{clip-path:url(#clip-path-14);}.cls-43{clip-path:url(#clip-path-15);}.cls-44{fill:url(#Sfumatura_senza_nome_21-2);}.cls-45{fill:#b7b7b6;}.cls-46{fill:#f9b233;}.cls-47{fill:#1d1d1b;}.cls-48{fill:#7d4e24;}.cls-49{fill:#6786a0;}.cls-50{fill:#261c35;}.cls-51{fill:#f7c0c0;}.cls-52{fill:#4c4691;}.cls-53{fill:#333;}.cls-54{fill:#a1b0d6;}.cls-55{fill:#40345e;}.cls-56{fill:#372b4f;}.cls-57{fill:#322747;}</style><clipPath id="clip-path" transform="translate(-3.87 -1.24)"><rect class="cls-1" x="39.69" y="122.98" width="113.39" height="90.46"/></clipPath><clipPath id="clip-path-3" transform="translate(-3.87 -1.24)"><rect class="cls-1" x="41.7" y="176.37" width="51.77" height="37.08"/></clipPath><clipPath id="clip-path-4" transform="translate(-3.87 -1.24)"><polygon class="cls-1" points="41.71 176.37 41.7 184.12 93.46 213.44 93.47 205.69 41.71 176.37"/></clipPath><linearGradient id="Sfumatura_senza_nome_12" x1="-726.24" y1="1364.93" x2="-725.57" y2="1364.93" gradientTransform="matrix(76.44, 0, 0, -76.44, 55551.5, 104528.15)" gradientUnits="userSpaceOnUse"><stop offset="0" stop-color="#fff"/><stop offset="0" stop-color="#fff"/><stop offset="0.06" stop-color="#ececec"/><stop offset="0.23" stop-color="#bcbcbc"/><stop offset="0.39" stop-color="#949494"/><stop offset="0.56" stop-color="#757575"/><stop offset="0.71" stop-color="#5f5f5f"/><stop offset="0.86" stop-color="#525252"/><stop offset="1" stop-color="#4d4d4d"/></linearGradient><clipPath id="clip-path-6" transform="translate(-3.87 -1.24)"><rect class="cls-1" x="41.71" y="143.22" width="108.56" height="62.47"/></clipPath><clipPath id="clip-path-7" transform="translate(-3.87 -1.24)"><polygon class="cls-1" points="150.27 172.55 98.52 143.23 41.71 176.37 93.47 205.69 150.27 172.55"/></clipPath><linearGradient id="Sfumatura_senza_nome_12-2" x1="-720.54" y1="1357.15" x2="-719.86" y2="1357.15" gradientTransform="matrix(160.3, 0, 0, -160.3, 115536.78, 217718.6)" xlink:href="#Sfumatura_senza_nome_12"/><clipPath id="clip-path-9" transform="translate(-3.87 -1.24)"><rect class="cls-1" x="39.69" y="168.14" width="53.77" height="38.51"/></clipPath><clipPath id="clip-path-10" transform="translate(-3.87 -1.24)"><polygon class="cls-1" points="39.7 168.14 39.69 176.19 93.44 206.65 93.46 198.6 39.7 168.14"/></clipPath><linearGradient id="Sfumatura_senza_nome_12-3" x1="-725.82" y1="1364.33" x2="-725.15" y2="1364.33" gradientTransform="matrix(79.4, 0, 0, -79.4, 57663.04, 108508.16)" xlink:href="#Sfumatura_senza_nome_12"/><clipPath id="clip-path-12" transform="translate(-3.87 -1.24)"><rect class="cls-1" x="63.06" y="166.16" width="46.05" height="12.91"/></clipPath><clipPath id="clip-path-13" transform="translate(-3.87 -1.24)"><path class="cls-1" d="M108.57,178.87h0a1.2,1.2,0,0,1-1.06.13c-2.41-.88-12.15-4.31-18.32-5-5.63-.59-11.79.63-17.92-1.15a14.31,14.31,0,0,1-8.21-6.73s5,5.55,8.35,6.15c6.22,1.12,14.37.53,18.58.87,3.29.26,11.71,1.08,18.36,3.58a1.19,1.19,0,0,1,.22,2.11"/></clipPath><linearGradient id="Sfumatura_senza_nome_21" x1="-702.6" y1="1366.6" x2="-701.92" y2="1366.6" gradientTransform="translate(-47673.96 93105.32) rotate(180) scale(68)" gradientUnits="userSpaceOnUse"><stop offset="0" stop-color="#4d4d4d"/><stop offset="0.05" stop-color="#6e6e6e"/><stop offset="0.18" stop-color="#bcbcbc"/><stop offset="0.28" stop-color="#ececec"/><stop offset="0.32" stop-color="#fff"/><stop offset="0.38" stop-color="#ccc"/><stop offset="0.47" stop-color="#888"/><stop offset="0.53" stop-color="#5d5d5d"/><stop offset="0.56" stop-color="#4d4d4d"/><stop offset="0.62" stop-color="#626262"/><stop offset="0.76" stop-color="#989797"/><stop offset="0.94" stop-color="#e9e8e8"/><stop offset="0.97" stop-color="#e7e6e6"/><stop offset="0.98" stop-color="#e0dfdf"/><stop offset="0.98" stop-color="#d5d4d4"/><stop offset="0.99" stop-color="#c4c3c3"/><stop offset="0.99" stop-color="#aeadad"/><stop offset="0.99" stop-color="#929292"/><stop offset="1" stop-color="#737373"/><stop offset="1" stop-color="#4f4f4f"/><stop offset="1" stop-color="#4d4d4d"/></linearGradient><clipPath id="clip-path-14" transform="translate(-3.87 -1.24)"><rect class="cls-1" x="64.81" y="162.22" width="28.13" height="7.88"/></clipPath><clipPath id="clip-path-15" transform="translate(-3.87 -1.24)"><path class="cls-1" d="M92.6,170h0a.7.7,0,0,1-.64.08c-1.48-.53-7.42-2.63-11.19-3-3.44-.36-7.2.39-11-.7a8.71,8.71,0,0,1-5-4.11s3.06,3.39,5.1,3.76c3.8.68,8.77.32,11.34.53a45.29,45.29,0,0,1,11.22,2.18A.73.73,0,0,1,92.6,170"/></clipPath><linearGradient id="Sfumatura_senza_nome_21-2" x1="-694.67" y1="1377" x2="-693.99" y2="1377" gradientTransform="translate(-28761.18 57353.32) rotate(180) scale(41.53)" xlink:href="#Sfumatura_senza_nome_21"/></defs><title>G12_09_02</title><g class="cls-2"><g id="Livello_1" data-name="Livello 1"><polygon class="cls-3" points="322.79 266.33 322.79 271.08 233.32 323.85 233.32 319.11 322.79 266.33"/><polygon class="cls-4" points="233.32 319.11 233.32 323.85 137.22 268.12 137.22 263.38 233.32 319.11"/><polygon class="cls-5" points="233.1 319.12 137 263.39 137 263.12 227.31 211.22 322.79 266.35 233.25 319.21 233.1 319.12"/><ellipse class="cls-6" cx="230.26" cy="263.73" rx="62.69" ry="32.6"/><polygon class="cls-3" points="185.79 186.33 185.79 191.08 96.32 243.85 96.32 239.1 185.79 186.33"/><polygon class="cls-4" points="96.32 239.1 96.32 243.85 0.22 188.12 0.22 183.38 96.32 239.1"/><polygon class="cls-5" points="96.1 239.12 0 183.39 0 183.12 90.31 131.22 185.79 186.35 96.25 239.21 96.1 239.12"/><ellipse class="cls-6" cx="93.26" cy="183.73" rx="62.69" ry="32.6"/><polygon class="cls-3" points="460.79 186.33 460.79 191.08 371.32 243.85 371.32 239.1 460.79 186.33"/><polygon class="cls-4" points="371.32 239.1 371.32 243.85 275.22 188.12 275.22 183.38 371.32 239.1"/><polygon class="cls-5" points="371.1 239.12 275 183.39 275 183.12 365.31 131.22 460.79 186.35 371.25 239.21 371.1 239.12"/><ellipse class="cls-6" cx="368.26" cy="183.73" rx="62.69" ry="32.6"/></g><g id="Livello_2" data-name="Livello 2"><path class="cls-7" d="M228.31,160.26s-12.09,10.59-12.71,11.16,2.39,4.51,4.22,4.79c0,0,7.22-3.72,7.85-4.52s2.81-8.49,2.81-8.49Z" transform="translate(-3.87 -1.24)"/><path class="cls-8" d="M243,153.18c1,.26,2.12.79,2.32,1.81.16.79-.32,1.61-.16,2.4.3,1.46,2.38,1.72,3.23,3,.66.94.44,2.23.79,3.32a10.47,10.47,0,0,0,1.66,2.59,3.27,3.27,0,0,1,.72,2.88c-.45,1.24-2,1.68-3.27,1.76s-2.74,0-3.78.8c-.85.64-1.26,1.73-2.11,2.37a3.8,3.8,0,0,1-3.87.11,5,5,0,0,1-2.66-2.91,3.61,3.61,0,0,1,1-3.71,3.6,3.6,0,0,1-3.08-3c-.21-1.64.76-3.17,1.47-4.66a2,2,0,0,0,.27-1.23,2.22,2.22,0,0,0-.76-1.09,17.94,17.94,0,0,1-4.19-6.36c-1.35-3.53,1-7.9,5.23-6.08,1.48.64,2.51,2.3,3.21,3.67C240.2,151.17,240.11,152.44,243,153.18Z" transform="translate(-3.87 -1.24)"/><path class="cls-9" d="M238.72,251.52a14.6,14.6,0,0,1,1.11,4.42c-.05,1.62-.63,2.07-.63,2.07a36.32,36.32,0,0,1-4.19,1c-.92.05-2.43,1.5-4.62,1.66s-5,.81-5.28-.92c-.18-1,2.5-2,5.67-4.18a17.35,17.35,0,0,0,3.62-3.46Z" transform="translate(-3.87 -1.24)"/><path class="cls-9" d="M251.91,255.62s.06,2-1.32,1.9A4.41,4.41,0,0,1,248,256l.34,5.52s.78,8.26,3.19,9.13c1.72.61,2.48-1.55,2.77-2.83a33.46,33.46,0,0,0-.2-4.11A47.57,47.57,0,0,0,251.91,255.62Z" transform="translate(-3.87 -1.24)"/><path class="cls-7" d="M247.55,227.45c-.64-5.66-1.36-21.18-.91-22.77s.91-10.25.91-10.25l-19.13-7.06-2.4,2.36s.12,18.82-.33,21.78,8.71,40.62,8.71,40.62a2.52,2.52,0,0,0,2.51,1.57,1.76,1.76,0,0,0,1.81-2.18c-1.19-11,.68-11-3-27.94-.29-1.34.23-18,.23-18s2.71,13.66,3.64,19.58c1.67,10.67,6.59,19.92,8.43,30.8a2.73,2.73,0,0,0,2.24,2.59c1.72.26,1.83-1.62,1.83-1.62s-1.37-9.61-2.16-18.86C249.47,232.89,247.88,230.33,247.55,227.45Z" transform="translate(-3.87 -1.24)"/><path class="cls-9" d="M223,210.71s1.38,10.33,12.75,10S252,214.15,252,214.15s-4.64-20.89-4.64-22.27-20.06-3.22-20.06-3.22L225,192.93Z" transform="translate(-3.87 -1.24)"/><path class="cls-7" d="M238.73,251.82l-4.33.31a17.35,17.35,0,0,1-3.62,3.46c-.75.51-1.46,1-2.12,1.34a.65.65,0,0,0,0,.2c.06.48.65.66,1.13.69a16.83,16.83,0,0,0,6.87-1.49,3.46,3.46,0,0,0,1.54-.9,2.7,2.7,0,0,0,.54-1.56A14.8,14.8,0,0,0,238.73,251.82Z" transform="translate(-3.87 -1.24)"/><path class="cls-7" d="M249.07,260c.3,1.09.26,4.18,1.86,4.18,3.22,0,1.56-5.21,1.19-7-.17-.83-.32-2.39-1.13-2.66a2.7,2.7,0,0,0-2.07.51,2.07,2.07,0,0,0-.84.71c-.19.39,0,.77.13,1.17Z" transform="translate(-3.87 -1.24)"/><path class="cls-10" d="M240,161.84a16.26,16.26,0,0,0-10.6-1.78,5.6,5.6,0,0,0-4.39,3.87c0,.17-1.89,7.92-1.93,9.48a7.08,7.08,0,0,0,3.14,6.17L225,192.93s9.67,6.68,19,2.59a8,8,0,0,0,3.36-3.64s-3.64-9.09-3.63-9.43l2.94-12.17c-.06-2.31-.14-3.93-2-5.28C244.64,165,241.45,162.8,240,161.84Z" transform="translate(-3.87 -1.24)"/><path class="cls-10" d="M231,159.71a6.75,6.75,0,0,0-6,2.76,10,10,0,0,0-1.33,1.92l2.06,11.79.06,0c2.86-5.41,5.42-11.45,5.42-11.45Z" transform="translate(-3.87 -1.24)"/><path class="cls-7" d="M236.66,160.83s2.77.77,3,1.41-2.28,2.95-4,5.22c-2,2.64-4.3,5.95-4.3,5.95s-1.81-6.92-1.75-11.1S236.66,160.83,236.66,160.83Z" transform="translate(-3.87 -1.24)"/><path class="cls-7" d="M228,153.34l2.65,8h0a5,5,0,0,0,5.58.57l.84-.45-2.21-8.7Z" transform="translate(-3.87 -1.24)"/><path class="cls-7" d="M239.3,151a7.78,7.78,0,1,1-7.78-7.78A7.78,7.78,0,0,1,239.3,151Z" transform="translate(-3.87 -1.24)"/><path class="cls-7" d="M240.23,151.26c0,1.67-.71,3-1.59,3s-1.59-1.35-1.59-3,.71-3,1.59-3S240.23,149.59,240.23,151.26Z" transform="translate(-3.87 -1.24)"/><path class="cls-8" d="M231.52,143.17a7.78,7.78,0,0,0-7.24,4.93,11.15,11.15,0,0,0,5,1.11c.62,0,6.18-.76,5.94-1.74a13.46,13.46,0,0,0,1.38,3.46,2.64,2.64,0,0,1,2.09-2.52l.2,0A7.79,7.79,0,0,0,231.52,143.17Z" transform="translate(-3.87 -1.24)"/><path class="cls-8" d="M236.56,152.32a8.07,8.07,0,0,1,.3-2.88,3.66,3.66,0,0,0-.31-2.82c-.79-1.14-2.41-1.23-3.8-1.18a21.5,21.5,0,0,0-4.66.55c-.74.21-3.41,1-3.56,2s2.66,2.2,3.37,2.55A17.63,17.63,0,0,0,236.56,152.32Z" transform="translate(-3.87 -1.24)"/><path class="cls-7" d="M222,153.59a2.79,2.79,0,1,0,2.51-3A2.78,2.78,0,0,0,222,153.59Z" transform="translate(-3.87 -1.24)"/><path class="cls-7" d="M219.82,176.21s2.74-4.56,2.7-6.33,2.74-15,2.74-15l-2.18-.68s-7.71,13.42-8,17.11c-.15,1.77-.69,4.12.14,5.08.26.29,1.23.28,1.56.26S219.82,176.21,219.82,176.21Z" transform="translate(-3.87 -1.24)"/><path class="cls-7" d="M228.9,154.41a2.79,2.79,0,1,0,2.79-2.78A2.79,2.79,0,0,0,228.9,154.41Z" transform="translate(-3.87 -1.24)"/><path class="cls-7" d="M237.79,175.74s-2.51-3.38-2.87-5.11-3.23-14-3.23-14l2-1.17s7.72,11.31,8.86,14.84a42.3,42.3,0,0,1,1,5,11.11,11.11,0,0,1-1.46.62C241.75,176,237.79,175.74,237.79,175.74Z" transform="translate(-3.87 -1.24)"/><path class="cls-7" d="M243.21,164.08s-1.79.31-2.56,3c-1.19,4.12-2.91,7.83-3,8.4-.19.82,4,4.19,4.67,3.87,2.88-1.36,3.94-7.14,4.18-8.12C248,165,243.21,164.08,243.21,164.08Z" transform="translate(-3.87 -1.24)"/><polygon class="cls-11" points="180.93 113.71 200.03 139.1 201.94 131.25 218.49 142.23 200.68 121.16 198.18 128.42 180.93 113.71"/><polygon class="cls-11" points="212.66 91.86 211.89 123.63 218.26 118.66 224.42 137.54 223.52 109.97 217.06 114.11 212.66 91.86"/><polygon class="cls-11" points="247.54 92.82 230.98 119.94 238.98 118.82 234.87 138.25 247.89 113.93 240.22 114.28 247.54 92.82"/><polygon class="cls-11" points="278.33 111.82 249.58 125.36 256.87 128.83 242.75 142.79 267.01 129.64 260.41 125.71 278.33 111.82"/><polygon class="cls-12" points="91.36 211.15 89.6 212.21 89.59 200.63 91.36 199.57 91.36 211.15"/><polygon class="cls-13" points="147.42 153.9 147.43 178.49 95.67 148.4 95.66 123.82 147.42 153.9"/><polygon class="cls-12" points="149.2 177.43 147.43 178.49 147.42 153.9 149.19 152.85 149.2 177.43"/><polygon class="cls-14" points="149.19 152.85 147.42 153.9 95.67 123.82 97.43 122.76 149.19 152.85"/><polygon class="cls-13" points="147.43 176.49 89.58 210.21 89.59 204.46 147.44 170.74 147.43 176.49"/><polygon class="cls-12" points="89.59 204.46 89.58 212.21 37.83 182.88 37.84 175.13 89.59 204.46"/><g class="cls-15"><g class="cls-16"><g class="cls-17"><g class="cls-18"><rect class="cls-19" x="37.83" y="175.13" width="51.77" height="37.08"/></g></g></g></g><polygon class="cls-14" points="146.4 171.32 94.64 141.99 37.84 175.13 89.59 204.46 146.4 171.32"/><g class="cls-15"><g class="cls-16"><g class="cls-20"><g class="cls-21"><rect class="cls-22" x="37.84" y="141.99" width="108.56" height="62.47"/></g></g></g></g><polygon class="cls-23" points="148.57 171 89.57 205.42 89.58 197.37 148.58 162.95 148.57 171"/><polygon class="cls-24" points="89.58 197.37 89.57 205.42 35.81 174.96 35.83 166.91 89.58 197.37"/><g class="cls-15"><g class="cls-16"><g class="cls-25"><g class="cls-26"><rect class="cls-27" x="35.81" y="166.91" width="53.77" height="38.51"/></g></g></g></g><polygon class="cls-28" points="148.58 162.95 89.58 197.37 35.82 166.91 94.82 132.49 148.58 162.95"/><polygon class="cls-29" points="126.07 176.11 126.07 188.97 89.57 209.97 89.58 197.37 126.07 176.11"/><polygon class="cls-30" points="89.58 197.37 89.57 209.96 35.81 179.37 35.81 166.91 89.58 197.37"/><polygon class="cls-31" points="89.58 197.32 126.1 176.11 126.1 177.42 89.58 199.15 89.58 199.15 89.58 197.32"/><polygon class="cls-32" points="37.41 167.76 89.58 197.32 89.58 199.15 35.81 168.09 35.81 166.86 37.41 167.76"/><rect class="cls-1" x="35.81" y="121.75" width="113.39" height="90.46"/><polygon class="cls-33" points="126.07 188.97 126.07 176.11 132.52 172.4 132.52 185.26 126.07 188.97"/><g class="cls-15"><path class="cls-34" d="M114.55,156.17a.81.81,0,0,0,0,.16,1.05,1.05,0,0,0,0,.19l0,.15c0,.07.06.13.08.19a1,1,0,0,0,.07.15,1.74,1.74,0,0,0,.11.18,1.09,1.09,0,0,0,.08.15l.15.19.1.12.2.2.11.11.27.21.1.08.42.27,12.11,7a9.68,9.68,0,0,0,8.77,0l5.79-3.44a3.55,3.55,0,0,0,.43-.28l.1-.07.28-.22.1-.1c.07-.07.15-.13.21-.2l.1-.13.16-.19.08-.15.12-.18.06-.16a1.42,1.42,0,0,0,.08-.18.94.94,0,0,0,0-.16,1.05,1.05,0,0,0,.05-.19s0-.1,0-.15a1.23,1.23,0,0,0,0-.19h0v3a3.13,3.13,0,0,1-1.83,2.56l-6,3.09a9.65,9.65,0,0,1-8.77,0l-11.92-6.69a3.11,3.11,0,0,1-1.81-2.52v-3a1,1,0,0,0,0,.17" transform="translate(-3.87 -1.24)"/><path class="cls-34" d="M144.82,159.76c0,.05,0,.1,0,.15a1.05,1.05,0,0,1-.05.19.94.94,0,0,1,0,.16c0,.06-.05.12-.08.19l-.06.14-.12.19-.08.15-.16.19-.1.13c-.06.07-.14.13-.21.2l-.11.1a2.88,2.88,0,0,1-.27.22l-.1.08c-.13.09-.27.18-.43.27l-5.79,3.44a9.68,9.68,0,0,1-8.77,0l-12.11-7-.42-.27-.1-.08-.27-.21-.11-.11-.2-.19a.64.64,0,0,0-.1-.13l-.15-.19a1.09,1.09,0,0,1-.08-.15,1.74,1.74,0,0,1-.11-.18,1,1,0,0,1-.07-.15c0-.06,0-.12-.08-.19l0-.15a1.33,1.33,0,0,1,0-.19.81.81,0,0,1,0-.16,3,3,0,0,1,1.81-2.73l5.66-3a9.68,9.68,0,0,1,8.77,0L143,157a3.07,3.07,0,0,1,1.81,2.53,1.37,1.37,0,0,1,0,.19" transform="translate(-3.87 -1.24)"/><path class="cls-35" d="M114.64,156.66c0,.07.06.13.08.19a1,1,0,0,0,.07.15,1.74,1.74,0,0,0,.11.18,1.09,1.09,0,0,0,.08.15l.15.19.11.12a1.75,1.75,0,0,0,.19.2l.11.11.27.21.1.08.42.27,12.11,7a9.68,9.68,0,0,0,8.77,0l5.79-3.44a3.55,3.55,0,0,0,.43-.28l.1-.07a2.88,2.88,0,0,0,.27-.22l.11-.1.21-.2.1-.13c.05-.07.11-.13.16-.19l.08-.15.12-.19a1.16,1.16,0,0,0,.06-.15,1.42,1.42,0,0,0,.08-.18.94.94,0,0,0,0-.16v0a2.32,2.32,0,0,1,.07.52,1.37,1.37,0,0,1,0,.19.76.76,0,0,1,0,.15,1.05,1.05,0,0,1-.05.19.94.94,0,0,1,0,.16c0,.06-.05.12-.08.19l-.06.14-.12.19-.08.15c0,.06-.11.12-.16.19l-.1.12c-.06.07-.14.14-.21.21l-.11.1a2.88,2.88,0,0,1-.27.22l-.1.07a3.55,3.55,0,0,1-.43.28l-5.79,3.44a9.68,9.68,0,0,1-8.77,0l-12.11-7-.42-.27-.1-.08-.27-.21-.11-.11a1.75,1.75,0,0,1-.19-.2l-.11-.12-.15-.19a1.09,1.09,0,0,1-.08-.15,1.74,1.74,0,0,1-.11-.18,1,1,0,0,1-.07-.15c0-.06,0-.12-.08-.19l0-.15a1.33,1.33,0,0,1,0-.19.81.81,0,0,1,0-.16,2.3,2.3,0,0,1,0-.69h0l0,.15" transform="translate(-3.87 -1.24)"/><path class="cls-34" d="M87.93,141.19c0,.05,0,.11,0,.16s0,.12,0,.18a.94.94,0,0,0,0,.16,1.42,1.42,0,0,0,.08.18l.06.15a1.18,1.18,0,0,0,.11.19,1.1,1.1,0,0,0,.09.14,1.39,1.39,0,0,0,.15.19.64.64,0,0,0,.1.13,1.8,1.8,0,0,0,.2.19l.11.12.26.2.11.09.42.27,12.11,7a9.65,9.65,0,0,0,8.77,0l5.79-3.44a4.5,4.5,0,0,0,.43-.27l.09-.07.28-.22.11-.1.21-.21.1-.13a1.39,1.39,0,0,0,.15-.19,1.1,1.1,0,0,0,.09-.14l.11-.19a1,1,0,0,0,.07-.15c0-.06.06-.12.08-.19a.83.83,0,0,1,0-.15c0-.06,0-.13,0-.19s0-.1,0-.16,0-.12,0-.19h0v3a3.06,3.06,0,0,1-1.83,2.56l-6,3.42a9.7,9.7,0,0,1-8.78,0l-11.91-7a3.08,3.08,0,0,1-1.8-2.53v-3c0,.06,0,.12,0,.18" transform="translate(-3.87 -1.24)"/><path class="cls-34" d="M118.21,144.77c0,.06,0,.11,0,.16s0,.12,0,.19a.83.83,0,0,0,0,.15c0,.07-.06.13-.08.19a1,1,0,0,1-.07.15l-.11.19a1.1,1.1,0,0,1-.09.14,1.39,1.39,0,0,1-.15.19l-.1.13-.21.2-.11.11-.28.22-.09.07a4.5,4.5,0,0,1-.43.27l-5.79,3.44a9.65,9.65,0,0,1-8.77,0l-12.11-7-.42-.27-.11-.09-.26-.2-.11-.12a1.8,1.8,0,0,1-.2-.19.64.64,0,0,1-.1-.13,1.39,1.39,0,0,1-.15-.19,1.1,1.1,0,0,1-.09-.14,1.18,1.18,0,0,1-.11-.19l-.06-.15a1.42,1.42,0,0,1-.08-.18.94.94,0,0,1,0-.16c0-.06,0-.12,0-.18s0-.11,0-.16a3,3,0,0,1,1.82-2.74l5.06-3a9.68,9.68,0,0,1,8.77,0l12.84,6.63a3.09,3.09,0,0,1,1.8,2.53c0,.07,0,.13,0,.19" transform="translate(-3.87 -1.24)"/><path class="cls-35" d="M88,141.68a1.42,1.42,0,0,0,.08.18l.06.15a1.18,1.18,0,0,0,.11.19.67.67,0,0,0,.09.14,1.39,1.39,0,0,0,.15.19.64.64,0,0,0,.1.13,1.8,1.8,0,0,0,.2.19l.11.11a2.65,2.65,0,0,0,.26.21l.11.08a4.38,4.38,0,0,0,.42.28l12.11,7a9.65,9.65,0,0,0,8.77,0l5.79-3.44a4.5,4.5,0,0,0,.43-.27l.09-.07.28-.22.11-.11.21-.2a1.13,1.13,0,0,1,.1-.13,1.39,1.39,0,0,0,.15-.19,1.1,1.1,0,0,0,.09-.14l.11-.19a1,1,0,0,0,.07-.15c0-.06,0-.12.08-.19a.83.83,0,0,1,0-.15v0a2.24,2.24,0,0,1,.07.51c0,.07,0,.13,0,.19s0,.11,0,.16,0,.12,0,.19a.83.83,0,0,0,0,.15c0,.07-.06.13-.08.19a1,1,0,0,1-.07.15l-.11.19s0,.09-.09.14a1.39,1.39,0,0,1-.15.19,1.13,1.13,0,0,0-.1.13l-.21.2-.11.11-.28.22-.09.07a4.5,4.5,0,0,1-.43.27l-5.79,3.44a9.65,9.65,0,0,1-8.77,0l-12.11-7a4.38,4.38,0,0,1-.42-.28l-.11-.08a2.65,2.65,0,0,1-.26-.21,1.14,1.14,0,0,1-.11-.11,1.8,1.8,0,0,1-.2-.19,1.13,1.13,0,0,1-.1-.13,1.39,1.39,0,0,1-.15-.19,1.1,1.1,0,0,1-.09-.14,1.18,1.18,0,0,1-.11-.19l-.06-.15a1.42,1.42,0,0,1-.08-.18.94.94,0,0,1,0-.16c0-.06,0-.12,0-.18s0-.11,0-.16a2.31,2.31,0,0,1,.06-.69h0a.94.94,0,0,0,0,.16" transform="translate(-3.87 -1.24)"/><path class="cls-36" d="M98.69,188.83l-.07,0,.07,0" transform="translate(-3.87 -1.24)"/><path class="cls-36" d="M99,188.88l-.17,0,.17,0" transform="translate(-3.87 -1.24)"/><path class="cls-36" d="M99.11,188.86l-.16,0Z" transform="translate(-3.87 -1.24)"/></g><path class="cls-7" d="M127.79,159.57s.39,9.78.39,10.3-3,.84-3.88.14a43.78,43.78,0,0,1-1.29-5.36,47.11,47.11,0,0,1,2.57-4.8Z" transform="translate(-3.87 -1.24)"/><path class="cls-8" d="M124.76,150.12a1.71,1.71,0,0,0-1.77-.27c-.41.26-.57.82-1,1.08-.78.48-1.76-.33-2.66-.2-.69.11-1.17.74-1.8,1.05a6.25,6.25,0,0,1-1.84.35,2,2,0,0,0-1.57.89,2.12,2.12,0,0,0,.59,2.18,4.13,4.13,0,0,1,1.23,2c.07.64-.23,1.28-.16,1.92a2.33,2.33,0,0,0,1.57,1.76,3,3,0,0,0,2.4,0,2.18,2.18,0,0,0,1.24-2,2.18,2.18,0,0,0,2.63.1,5.42,5.42,0,0,0,1.45-2.61,1.18,1.18,0,0,1,.43-.63,1.27,1.27,0,0,1,.8-.12,10.82,10.82,0,0,0,4.56-.82c2.13-.88,3.07-3.76.5-4.86a4.66,4.66,0,0,0-3,.13C126.82,150.51,126.3,151.09,124.76,150.12Z" transform="translate(-3.87 -1.24)"/><path class="cls-10" d="M122.21,155.09a9.93,9.93,0,0,1,5.23,3.93,3.41,3.41,0,0,1,.13,3.57c-.06.09-2.71,4.15-3.38,4.83a4.32,4.32,0,0,1-4,1.2l-5.4,6.11s-7-1.48-9.1-7.3a4.9,4.9,0,0,1,.2-3s5.55-2.2,5.69-2.35l4.15-6.4c1-.94,1.8-1.59,3.18-1.32C118.86,154.35,121.16,154.83,122.21,155.09Z" transform="translate(-3.87 -1.24)"/><path class="cls-10" d="M126.92,158.17a4.1,4.1,0,0,1,1.31,3.82,5.83,5.83,0,0,1-.29,1.4l-6.08,4v0c1.19-3.53,2.79-7.19,2.79-7.19Z" transform="translate(-3.87 -1.24)"/><path class="cls-7" d="M124,156.12s0-.2-.41-.05-.77.57-.92,1.58a2.6,2.6,0,0,0,1.76,2.56,2.12,2.12,0,0,0,1.86-.36C128.24,158.16,124,156.12,124,156.12Z" transform="translate(-3.87 -1.24)"/><path class="cls-7" d="M131,156.82,126.33,159h0a3,3,0,0,1-2.59-2.23l-.15-.56,4.77-2.67Z" transform="translate(-3.87 -1.24)"/><path class="cls-7" d="M127.3,150.82a4.74,4.74,0,1,0,6.7.18A4.74,4.74,0,0,0,127.3,150.82Z" transform="translate(-3.87 -1.24)"/><path class="cls-7" d="M126.78,150.54c-.74.7-1,1.58-.67,2s1.26.14,2-.56,1-1.58.66-2S127.51,149.84,126.78,150.54Z" transform="translate(-3.87 -1.24)"/><path class="cls-8" d="M134,151a4.72,4.72,0,0,1,.85,5.26,6.79,6.79,0,0,1-2.57-1.73c-.26-.27-2.25-3.05-1.72-3.35a8.87,8.87,0,0,1-2.1.84,1.62,1.62,0,0,0,.23-2l-.07-.11A4.73,4.73,0,0,1,134,151Z" transform="translate(-3.87 -1.24)"/><path class="cls-8" d="M127.84,152.6a4.65,4.65,0,0,0,1.15-1.34,2.24,2.24,0,0,1,1.38-1c.83-.13,1.55.55,2.11,1.18a13.13,13.13,0,0,1,1.71,2.29c.22.42,1,1.93.61,2.41s-2.08-.25-2.54-.42A10.68,10.68,0,0,1,127.84,152.6Z" transform="translate(-3.87 -1.24)"/><path class="cls-7" d="M139.88,167.9a1.7,1.7,0,1,1-.16-2.39A1.71,1.71,0,0,1,139.88,167.9Z" transform="translate(-3.87 -1.24)"/><path class="cls-7" d="M127.53,174.31a12.47,12.47,0,0,0,3.36-1.19c.87-.65,7.09-5.11,7.09-5.11l-.44-1.32s-8.07,2.09-10,3.25a26,26,0,0,0-2.47,1.87,6.72,6.72,0,0,0,.43.87C125.62,172.83,127.53,174.31,127.53,174.31Z" transform="translate(-3.87 -1.24)"/><path class="cls-7" d="M120,155.82a2.29,2.29,0,0,1-1.2,2.07c-2.13,1.51-3.92,3.24-4.22,3.43s-3.21-1.46-3.16-1.91c.2-1.93,3.32-3.7,3.83-4C118.5,153.24,120,155.82,120,155.82Z" transform="translate(-3.87 -1.24)"/><path class="cls-37" d="M130,177.34,93.46,198.6,39.69,168.14,76,146.92s30.24,12.05,39.56,17.3C119.7,166.57,130,177.34,130,177.34Z" transform="translate(-3.87 -1.24)"/><g class="cls-38"><g class="cls-39"><g class="cls-40"><rect class="cls-41" x="59.18" y="164.93" width="46.32" height="12.96"/></g></g></g><g class="cls-38"><g class="cls-42"><g class="cls-43"><rect class="cls-44" x="60.93" y="160.99" width="28.29" height="7.92"/></g></g></g><path class="cls-45" d="M136.39,186.5V173.63a10.07,10.07,0,0,1-1.93-1.33c-1.41-1.21-3.15-3-4-3.46-2.67-1.51-8.21-7.79-14.39-10.42-4.68-2-9.29-1.53-13.73-4L82.5,143.13,76,146.94l19.8,11.15c4.93,2.78,10.53,2.9,15.75,5.13,8,3.39,11.91,9,14.65,10.54a29.83,29.83,0,0,1,2.69,2.82,3.17,3.17,0,0,0,1.09.76v12.87Z" transform="translate(-3.87 -1.24)"/><path class="cls-7" d="M384.2,86.26s12.09,10.59,12.71,11.16-2.39,4.51-4.22,4.79c0,0-7.22-3.72-7.84-4.52S382,89.2,382,89.2Z" transform="translate(-3.87 -1.24)"/><path class="cls-8" d="M368,79.65c-1,.34-2,1-2.15,2-.09.8.46,1.57.36,2.38-.17,1.48-2.21,1.92-2.95,3.21-.57,1-.25,2.26-.5,3.39a10.28,10.28,0,0,1-1.43,2.72,3.28,3.28,0,0,0-.46,2.93c.56,1.19,2.1,1.5,3.41,1.47s2.73-.23,3.84.46c.9.57,1.41,1.62,2.3,2.18a3.82,3.82,0,0,0,3.87-.23A4.92,4.92,0,0,0,376.71,97a3.6,3.6,0,0,0-1.28-3.62,3.57,3.57,0,0,0,2.81-3.29c.06-1.65-1-3.09-1.88-4.52a2.08,2.08,0,0,1-.38-1.2,2.34,2.34,0,0,1,.67-1.15,17.75,17.75,0,0,0,3.61-6.7c1-3.64-1.7-7.79-5.74-5.6-1.41.76-2.29,2.51-2.87,3.94C370.64,77.4,370.85,78.65,368,79.65Z" transform="translate(-3.87 -1.24)"/><path class="cls-9" d="M373.8,177.52a14.51,14.51,0,0,0-1.12,4.42c.05,1.62.63,2.07.63,2.07a36.32,36.32,0,0,0,4.19,1c.92.05,2.44,1.5,4.62,1.66s5,.81,5.28-.92c.19-1-2.5-2-5.67-4.18a17.35,17.35,0,0,1-3.62-3.46Z" transform="translate(-3.87 -1.24)"/><path class="cls-9" d="M360.6,181.62s-.06,2,1.32,1.9a4.45,4.45,0,0,0,2.59-1.55l-.35,5.52s-.77,8.26-3.19,9.13c-1.72.61-2.48-1.55-2.77-2.83a31.62,31.62,0,0,1,.21-4.11A46.88,46.88,0,0,1,360.6,181.62Z" transform="translate(-3.87 -1.24)"/><path class="cls-7" d="M365,153.45c.64-5.66,1.37-21.18.91-22.77s-.91-10.25-.91-10.25l19.13-7.06,2.4,2.36s-.12,18.82.33,21.78-8.71,40.62-8.71,40.62a2.51,2.51,0,0,1-2.5,1.57,1.75,1.75,0,0,1-1.81-2.18c1.18-11-.69-11,3-27.94.29-1.34-.22-18-.22-18s-2.72,13.66-3.65,19.58c-1.67,10.67-6.58,19.92-8.42,30.8a2.75,2.75,0,0,1-2.24,2.59c-1.73.26-1.84-1.62-1.84-1.62s1.37-9.61,2.17-18.86C363,158.89,364.64,156.33,365,153.45Z" transform="translate(-3.87 -1.24)"/><path class="cls-9" d="M389.47,136.71s-1.38,10.33-12.75,10-16.19-6.55-16.19-6.55,4.65-20.89,4.65-22.27,20.05-3.22,20.05-3.22l2.28,4.27Z" transform="translate(-3.87 -1.24)"/><path class="cls-7" d="M373.79,177.82l4.32.31a17.35,17.35,0,0,0,3.62,3.46c.75.51,1.47.95,2.13,1.34a.66.66,0,0,1,0,.2c-.05.48-.65.66-1.13.69a16.87,16.87,0,0,1-6.87-1.49,3.52,3.52,0,0,1-1.54-.9,2.69,2.69,0,0,1-.53-1.56A12.17,12.17,0,0,1,373.79,177.82Z" transform="translate(-3.87 -1.24)"/><path class="cls-7" d="M363.45,186c-.3,1.09-.27,4.18-1.86,4.18-3.22,0-1.56-5.21-1.2-7,.17-.83.33-2.39,1.13-2.66a2.69,2.69,0,0,1,2.07.51,2,2,0,0,1,.84.71c.19.39,0,.77-.13,1.17C364,183.93,363.73,185,363.45,186Z" transform="translate(-3.87 -1.24)"/><path class="cls-10" d="M372.55,87.84a16.27,16.27,0,0,1,10.6-1.78,5.6,5.6,0,0,1,4.39,3.87c0,.17,1.89,7.92,1.93,9.48a7.05,7.05,0,0,1-3.13,6.17l1.17,13.35s-9.67,6.68-19,2.59a8,8,0,0,1-3.36-3.64s3.63-9.09,3.62-9.43l-2.93-12.17c.05-2.31-.13-4,1.74-5.31C367.61,91,371.06,88.8,372.55,87.84Z" transform="translate(-3.87 -1.24)"/><path class="cls-10" d="M381.55,85.71a6.74,6.74,0,0,1,6,2.76,10,10,0,0,1,1.33,1.92l-2.06,11.79-.06,0c-2.85-5.41-5.41-11.45-5.41-11.45Z" transform="translate(-3.87 -1.24)"/><path class="cls-7" d="M375.86,86.83s-2.77.77-3,1.41,2.28,3,4,5.22c2,2.64,4.3,6,4.3,6s1.82-6.92,1.75-11.1S375.86,86.83,375.86,86.83Z" transform="translate(-3.87 -1.24)"/><path class="cls-7" d="M383,78.49l-1.94,8.2h0a5,5,0,0,1-5.51,1.07l-.88-.38,1.44-8.86Z" transform="translate(-3.87 -1.24)"/><path class="cls-7" d="M371.74,76.83a7.78,7.78,0,1,0,7.78-7.78A7.78,7.78,0,0,0,371.74,76.83Z" transform="translate(-3.87 -1.24)"/><path class="cls-7" d="M370.63,77.49c.14,1.66,1,2.94,1.84,2.86s1.46-1.48,1.32-3.14-1-2.94-1.85-2.87S370.48,75.83,370.63,77.49Z" transform="translate(-3.87 -1.24)"/><path class="cls-8" d="M378.59,68.66a7.78,7.78,0,0,1,7.64,4.28,11.07,11.07,0,0,1-4.85,1.54c-.61.06-6.22-.21-6.07-1.21a13.42,13.42,0,0,1-1.07,3.56,2.64,2.64,0,0,0-2.3-2.32l-.2,0A7.78,7.78,0,0,1,378.59,68.66Z" transform="translate(-3.87 -1.24)"/><path class="cls-8" d="M374.37,78.22a8.23,8.23,0,0,0-.55-2.84,3.72,3.72,0,0,1,.06-2.84c.68-1.2,2.29-1.43,3.68-1.5a19.9,19.9,0,0,1,4.69.14c.76.13,3.49.7,3.72,1.66s-2.46,2.43-3.13,2.84A17.63,17.63,0,0,1,374.37,78.22Z" transform="translate(-3.87 -1.24)"/><path class="cls-7" d="M409.52,83.32a2.78,2.78,0,1,1-2.51-3A2.78,2.78,0,0,1,409.52,83.32Z" transform="translate(-3.87 -1.24)"/><path class="cls-7" d="M390.91,98.47s2.63-4.63,4.19-5.47,11.7-9.75,11.7-9.75l1.67,1.56s-7.89,13.32-11,15.39c-1.46,1-3.24,2.63-4.49,2.38-.38-.08-.85-.93-1-1.23S390.91,98.47,390.91,98.47Z" transform="translate(-3.87 -1.24)"/><path class="cls-7" d="M357,125a2.78,2.78,0,1,1,3.27,2.19A2.78,2.78,0,0,1,357,125Z" transform="translate(-3.87 -1.24)"/><path class="cls-7" d="M360.23,103a40.46,40.46,0,0,0-1.83,5.56c-.8,4.73-.48,14.33-.48,14.33l2.15.77s5.4-12.59,5.83-16.27a40.94,40.94,0,0,0,0-5.08,10.67,10.67,0,0,0-1.55-.32C364.06,102,360.23,103,360.23,103Z" transform="translate(-3.87 -1.24)"/><path class="cls-7" d="M372.62,92.12s.81,1.63-.9,3.82c-2.63,3.39-5.82,7.52-6.2,8-.56.64-5.69.49-5.54-.24,1.35-6.28,5.74-11,6.42-11.7C369.42,88.63,372.62,92.12,372.62,92.12Z" transform="translate(-3.87 -1.24)"/><path class="cls-46" d="M385.37,32.52l-6.56-7.86,11.7-.22-4.37-9.15,12.91,2.82-.37-8.26,9.26,4.37.53-11.55,11.24,8.67,5.46-10.1,7.93,9,11.44-9,1.92,10.09,13.8-6.09-3.43,8.52L470.91,11l-4.27,6.85,11.15-.65-4,5.46,10.21-.1-4.41,7.08,9.63,3-7.56,4.91,10.28,5.44-12.06,1.9,10.92,9.06-17.14-1.42,2.26,7.77-10.53-2.42L468,68.33l-12.14-6.77-.32,10.25-9.1-8.12-5.18,13-8.12-12-4.43,8-4.38-8.46-6.72,5.87S416.34,62.74,416,63L391.24,77.35l15.65-16.94-12.27,3.28,5.15-6.41-14.62,1.1,6.93-6.33L378.38,50l7.44-6.28L370.6,37.42Z" transform="translate(-3.87 -1.24)"/><path class="cls-35" d="M457.32,36.36c-.73.12-.92.85-.56,2.2-.82-.16-1.24.13-1.25.86q.63,2.44,2.62.5l2,.46.28,0,.16-1.09a9.13,9.13,0,0,1-2.95-2.66Z" transform="translate(-3.87 -1.24)"/><path class="cls-35" d="M459.55,44.21a2,2,0,0,0-1.76-1.37,1.48,1.48,0,0,0-1.65.49c0,.61.41,1.05,1.18,1.29l.6.31-.31,1.72.68.5c.57-.14.92-.67,1.06-1.59l5.84-3.4L463,41.74Z" transform="translate(-3.87 -1.24)"/><path class="cls-35" d="M457.82,31.37l-.05.28c-.39,2.64.89,4.69,3.86,6.15L461.57,40l1.13.17a6.19,6.19,0,0,1,.25-1.91l.81.1a3.21,3.21,0,0,1-.25,1.87l1.71.21.18-1.75.56.07.19,2,.9.07.51,0-.1-2.82a7.4,7.4,0,0,0,4.21-5.75l0-.27q.45-3-5.36-4.22Q460.58,27.3,457.82,31.37Z" transform="translate(-3.87 -1.24)"/><path class="cls-35" d="M471.54,42.46l-3.48-.92-.32.24-.09.56q4.56,1.44,4.08,2.34l.15,1.34c.64.61,1.31.52,2-.25-.57-1.2-.67-1.93-.31-2.21,0-.28.61-.78,1.7-1.5-.1-.63-.58-1-1.43-1.06A2.37,2.37,0,0,0,471.54,42.46Z" transform="translate(-3.87 -1.24)"/><path class="cls-35" d="M471.83,36.8a9,9,0,0,1-2.75,3.51l1.32.48a5.53,5.53,0,0,1,2.7-1.38l1.16.06c.52-.55.1-.92-1.27-1.11C473.46,36.8,473.07,36.28,471.83,36.8Z" transform="translate(-3.87 -1.24)"/><path class="cls-47" d="M390.59,37.29c-1-.69-1.41-2-1.3-3.87s2.07-3.29,5.86-4.21l.33-2.17,1.76-.19-.48,2.36,1.15.22.39-2.33,1.62-.15-.55,2.68c2.44,1,3.67,2,3.67,3.07a1.76,1.76,0,0,1-.52,1.17q-1.61.84-3.78-1.48l-.65,3.84a7.93,7.93,0,0,1,3,1.34c1,.69,1.41,2,1.3,3.86s-2.07,3.29-5.87,4.21l-.31,2-1.76.21.47-2.25-1.15-.21-.38,2.21-1.61.13.53-2.56c-2.44-1-3.67-2-3.67-3.05a1.85,1.85,0,0,1,.52-1.18c1.06-.55,2.32-.06,3.77,1.49l.66-3.84A8,8,0,0,1,390.59,37.29Zm1.7-4.4c0,.9.6,1.47,1.8,1.72l.66-3.14C393.28,31.36,392.46,31.83,392.29,32.89Zm3.12,10.3.65-3.71L395,39.13,394.2,43Zm.8-11.52-.64,3.71,1.06.35.78-3.9ZM399.33,42c0-.9-.6-1.48-1.78-1.72l-.67,3.13C398.35,43.5,399.16,43,399.33,42Z" transform="translate(-3.87 -1.24)"/><path class="cls-47" d="M408.94,28.47q1.35,1.82,4.48,5.71c1.9-2.2,3.51-4.09,4.82-5.69a9.5,9.5,0,0,1,3.89,2.73c-1.49,1.7-3.35,3.69-5.56,6q4.21,3.84,6.08,5.48a10.46,10.46,0,0,1-3.82,3.91,73.54,73.54,0,0,1-5.41-6.36q-3.23,3.89-5.66,6.44a13.92,13.92,0,0,1-3.68-3.52A56.89,56.89,0,0,0,410,37.42c-2.64-2.5-4.46-4.34-5.47-5.5A13.77,13.77,0,0,1,408.94,28.47Z" transform="translate(-3.87 -1.24)"/><path class="cls-47" d="M430.24,28.19a12,12,0,0,1,3.46-.6,5,5,0,0,1,2.74.7c.49,1,.19,1.65-.91,1.84a5.55,5.55,0,0,0-4.29.25q-5.28,2.67-4,8.91,2.08,4.66,8.21,3.64c2.71-1,3.72-3.16,3-6.33-1-2.52-2.87-3.42-5.52-2.73a3,3,0,0,0-1.86,3.85,2.16,2.16,0,0,0,2.56,1.81,1,1,0,0,0,.8-1.39c-.4-.43-.76-.53-1.08-.31-.77.13-1.14-.21-1.09-1,0-.61.51-1.12,1.46-1.5A2.46,2.46,0,0,1,436.82,37q1.1,2.82-2.54,4.6c-3.1.43-5-.6-5.73-3.09q-1-4.92,3.69-6.81,6-1.57,8.57,4.08a9.9,9.9,0,0,1,.4,2.68q0,4.54-5.2,6.85a14.86,14.86,0,0,1-3.13.37,8.64,8.64,0,0,1-8-5,14.68,14.68,0,0,1-.55-3.77Q424.29,31.15,430.24,28.19Z" transform="translate(-3.87 -1.24)"/><path class="cls-47" d="M446.58,25.22q1.83,1.44,2,4.83l2.93-.55a2,2,0,0,1,1.06,1.9,4.09,4.09,0,0,1-.16,1.08l-2.67.75a30.51,30.51,0,0,1,2.7,8.53c-.48,3.56-1.32,5.94-2.5,7.14h-.27l-3.41-14.69-2.93.86a3.21,3.21,0,0,1-1-2.23,3.07,3.07,0,0,1,.08-.67L444.93,31l-1.16-4.49V26.2C444,25.55,444.92,25.22,446.58,25.22Zm.5,8.71,3,13a11.22,11.22,0,0,0,1.34-5,21.57,21.57,0,0,0-2.64-8.46Z" transform="translate(-3.87 -1.24)"/><path class="cls-47" d="M467.43,26.91l.26,0c3.74,1.25,5.48,2.82,5.2,4.7l-.29,1.9-.84,1.84,1.38.19c.32.06.69.68,1.12,1.86,1.07.34,1.58.7,1.52,1.07a1,1,0,0,1-.52,1.59c.79.48,1.19.91,1.21,1.3l-.09.56a2.92,2.92,0,0,1-1.78,2.28l.63,1.72c-.07.5-.8,1-2.19,1.63l-1.93-.28-1-2.38-3.75-2-5.76,3.49-.32.69c-.09.53-.53.94-1.32,1.21L457,48c-.53-.26-.73-.85-.59-1.77l.36-.5c-1.09-.15-1.63-1-1.6-2.45l.09-.56c.07-.45.47-.68,1.21-.67l0-.26c-1.34-.2-2.13-1.15-2.37-2.87.31-.89.75-1.29,1.3-1.21q-.5-2.56,1.5-2.58l.07-.54-.48-2.31c.41-2.77,2.34-4.53,5.81-5.29a26.52,26.52,0,0,1,3.14-.22A14.07,14.07,0,0,1,467.43,26.91Zm-10.11,9.45c-.73.12-.92.85-.56,2.2-.82-.16-1.24.13-1.25.86q.63,2.44,2.62.5l2,.46.28,0,.16-1.09a9.13,9.13,0,0,1-2.95-2.66Zm2.23,7.85a2,2,0,0,0-1.76-1.37,1.48,1.48,0,0,0-1.65.49c0,.61.41,1.05,1.18,1.29l.6.31-.31,1.72.68.5c.57-.14.92-.67,1.06-1.59l5.84-3.4L463,41.74Zm-1.73-12.84-.05.28c-.39,2.64.89,4.69,3.86,6.15L461.57,40l1.13.17a6.19,6.19,0,0,1,.25-1.91l.81.1a3.21,3.21,0,0,1-.25,1.87l1.71.21.18-1.75.56.07.19,2,.9.07.51,0-.1-2.82a7.4,7.4,0,0,0,4.21-5.75l0-.27q.45-3-5.36-4.22Q460.58,27.3,457.82,31.37Zm1.54,10.29,0,.28.47.63.31-.23.08-.56Zm4.73-11,.23.31,0,.26c-.65,2.64-1.41,4-2.3,4.14a4,4,0,0,1-1.43-3.56A3.88,3.88,0,0,1,464.09,30.62Zm.2,4.23.56.07.22,1.75-1.32.21Zm2.15-4.51.25,0A3.07,3.07,0,0,1,469,32.27l-.13,1a2.92,2.92,0,0,1-1.62,2l-.52-.08c-.32-.08-.71-1-1.16-2.72l.26-1.75Zm5.1,12.12-3.48-.92-.32.24-.09.56q4.56,1.44,4.08,2.34l.15,1.34c.64.61,1.31.52,2-.25-.57-1.2-.67-1.93-.31-2.21,0-.28.61-.78,1.7-1.5-.1-.63-.58-1-1.43-1.06A2.37,2.37,0,0,0,471.54,42.46Zm.29-5.66a9,9,0,0,1-2.75,3.51l1.32.48a5.53,5.53,0,0,1,2.7-1.38l1.16.06c.52-.55.1-.92-1.27-1.11C473.46,36.8,473.07,36.28,471.83,36.8Z" transform="translate(-3.87 -1.24)"/><path class="cls-35" d="M447.08,33.93l3,13a11.22,11.22,0,0,0,1.34-5,21.57,21.57,0,0,0-2.64-8.46Z" transform="translate(-3.87 -1.24)"/><path class="cls-48" d="M77.83,91.28s1-10.61.47-14.17c-.07-.49-.88-.83-.88-.83a2.4,2.4,0,0,1,2.69-1.22c1.35.22,1.3,2.07,1.3,2.07l.07,14.14Z" transform="translate(-3.87 -1.24)"/><path class="cls-49" d="M77.83,91.28a22.51,22.51,0,0,0-.34,9.29,23.2,23.2,0,0,0,4,6.53l0-15.83Z" transform="translate(-3.87 -1.24)"/><path class="cls-50" d="M103.75,72.13s1.2-5.4,4-7.36S129.9,55,132,55.38s22.83,11.3,26.75,17S174.3,99.11,174.3,99.11s-3.05,3-5.1,2.09-16.49-20-16.49-20S135,66.3,135.65,67.25,103.75,72.13,103.75,72.13Z" transform="translate(-3.87 -1.24)"/><path class="cls-50" d="M108.53,68.57,130.72,61l5.84,2.87S154.34,83.14,151.31,88c-4.41,7.13-20.32,8.48-28.47,4.27-8.55-4.42-17.41-23.4-17.41-23.4Z" transform="translate(-3.87 -1.24)"/><path class="cls-50" d="M114.14,77.57s-4.28,13.06-12.26,11.68c-6.61-1.15-19.53-2.83-19.53-2.83l-.15-7c2.58-.18,20-1.57,20-1.57l2-7.4S110.81,65.27,114.14,77.57Z" transform="translate(-3.87 -1.24)"/><path class="cls-51" d="M115.44,50.36c1.09,1.6,1.3,3.36.46,3.93s-2.41-.25-3.5-1.84-1.3-3.35-.46-3.93S114.34,48.77,115.44,50.36Z" transform="translate(-3.87 -1.24)"/><circle class="cls-51" cx="167.8" cy="99.91" r="3.29"/><circle class="cls-51" cx="79.97" cy="82.94" r="4.22" transform="translate(-36.77 58.53) rotate(-34.44)"/><path class="cls-51" d="M114.35,50.67a9,9,0,1,1-12.56-2.34A9,9,0,0,1,114.35,50.67Z" transform="translate(-3.87 -1.24)"/><path class="cls-51" d="M106,59.76l7.79,5.92h0a5.81,5.81,0,0,0,5.72-3.11l.51-1-7.83-6.87Z" transform="translate(-3.87 -1.24)"/><path class="cls-52" d="M101.79,48.33a9,9,0,0,0-3.68,9.48,13,13,0,0,0,5.48-2.21c.59-.39,5.41-4.78,4.54-5.55a16.43,16.43,0,0,0,3.59,2.4,3.06,3.06,0,0,1,.35-3.78l.16-.17A9,9,0,0,0,101.79,48.33Z" transform="translate(-3.87 -1.24)"/><path class="cls-53" d="M105.42,55.14c-.94.65-1,2.08-1.56,2.46s-1.91-.08-2.85.57c-1.42,1-2,2.63-1.24,3.7s2.48,1.15,3.9.18c.94-.65,1-2.08,1.56-2.46s1.91.08,2.85-.57c1.42-1,2-2.63,1.24-3.7S106.84,54.17,105.42,55.14Z" transform="translate(-3.87 -1.24)"/><ellipse class="cls-35" cx="102.04" cy="60.31" rx="1.44" ry="1.03" transform="translate(-20.1 67.05) rotate(-34.44)"/><ellipse class="cls-35" cx="107.06" cy="56.87" rx="1.44" ry="1.03" transform="translate(-17.27 69.28) rotate(-34.44)"/><path class="cls-50" d="M118.86,64.77s-4.53-7.93-6.66-10.06a25,25,0,0,0-6.66-4.45c-1.48-.54-5.16-1-6.25.67-1.93,2.88-1.18,6.88-1.18,6.88s-1.69-4.26-1.73-5.76c-.06-2,1.46-6,3-7.28,2.12-1.75,8-4.25,10.77-2.15,3,2.27,9.34,6.66,11.26,9.88.94,1.58,1.63,7.17,1.63,7.17Z" transform="translate(-3.87 -1.24)"/><path class="cls-54" d="M79.65,102.29c-.15-.39-.27-.72-.28-.73a11.06,11.06,0,0,1-1-5.11,25.81,25.81,0,0,1,1.17-5.18H77.83a22.51,22.51,0,0,0-.34,9.29,23.2,23.2,0,0,0,4,6.53v-.36A8.89,8.89,0,0,1,79.65,102.29Z" transform="translate(-3.87 -1.24)"/><polygon class="cls-37" points="78.61 88.78 78.61 90.04 72.92 90.03 72.9 88.69 78.61 88.78"/><circle class="cls-50" cx="117.42" cy="89.79" r="6.83"/><circle class="cls-50" cx="128.92" cy="92.63" r="12.77"/><circle class="cls-50" cx="141.18" cy="89.74" r="8.21"/><circle class="cls-55" cx="133.93" cy="144.29" r="3.35"/><circle class="cls-56" cx="141.18" cy="132.89" r="5.43"/><circle class="cls-57" cx="141.18" cy="115.35" r="8.69"/></g></g></svg>