<svg xmlns="http://www.w3.org/2000/svg" viewBox="0 0 185.79 157.72"><defs><style>.cls-1{fill:#39a935;}.cls-2{fill:#92c681;}.cls-3{fill:#65b457;}.cls-4{fill:#bec9c5;}.cls-5{fill:#add6c6;}.cls-6{fill:#d0dcd7;}.cls-7{fill:#dbe8e3;}.cls-8{fill:#e7f5ef;}.cls-9{fill:#6786a0;}.cls-10{fill:#454d5a;}.cls-11{fill:#61d8cc;}.cls-12{fill:#91e8dd;}.cls-13{fill:#00a79d;}.cls-14{fill:#e5effb;}.cls-15{fill:#a1b0d6;}.cls-16{fill:#c4cfdb;}.cls-17{fill:#dce7f5;}.cls-18{fill:#9fb0bf;}.cls-19{fill:#edece7;}.cls-20{fill:#e0968d;}.cls-21{fill:#7aa7cc;}.cls-22{fill:#d5ebfa;}.cls-23{fill:#9ea6b0;}.cls-24{fill:#333;}.cls-25{fill:#6f6f6e;}.cls-26{fill:none;stroke:#fff;stroke-linecap:round;stroke-linejoin:round;stroke-width:0.97px;}.cls-27{isolation:isolate;}.cls-28{fill:#261c35;}.cls-29{fill:#009ee2;}.cls-30{fill:#35a8e0;}.cls-31{fill:#6f559c;}.cls-32{fill:#a9b2bd;}.cls-33{fill:#704a1d;}.cls-34{fill:#d98e38;}.cls-35{fill:#bf7d31;}.cls-36{fill:#82cbe0;}.cls-37{fill:#8fdff7;}.cls-38{fill:#f6bfbe;}.cls-39{fill:#9fbbc7;}.cls-40{fill:#b9dae7;}.cls-41{fill:#9edbba;}.cls-42{fill:#af3e30;}.cls-43{fill:#b03b06;}.cls-44{fill:#d64708;}.cls-45{fill:#dd9e9e;}.cls-46{fill:#2c3277;}.cls-47{fill:#3b2c7c;}.cls-48{fill:#fff;}.cls-49{fill:#bcbec0;}.cls-50{fill:#4b4590;}.cls-51{fill:#303b45;}.cls-52{fill:#35342f;}.cls-53{fill:#5b5b5a;}.cls-54{fill:#8c8c8c;}.cls-55{fill:#f5bac5;}.cls-56{fill:#ee7866;}.cls-57{fill:#eaeaea;}.cls-58{fill:#ebebeb;}.cls-59{fill:#a8a8a8;}.cls-60{fill:#dee4ed;}.cls-61{fill:#fff200;}</style></defs><title>G12_04_02</title><g id="Layer_8" data-name="Layer 8"><polygon class="cls-1" points="185.79 100.19 185.79 104.94 96.32 157.72 96.32 152.97 185.79 100.19"/><polygon class="cls-2" points="96.32 152.97 96.32 157.72 0.22 101.99 0.22 97.24 96.32 152.97"/><polygon class="cls-3" points="96.1 152.99 0 97.26 0 96.99 90.31 45.08 185.79 100.21 96.25 153.08 96.1 152.99"/></g><g id="Layer_16" data-name="Layer 16"><rect class="cls-4" x="90.31" y="16.65" width="0.62" height="17.01" transform="translate(18.97 83.99) rotate(-58.83)"/><rect class="cls-4" x="90.24" y="24.77" width="0.62" height="17.77" transform="translate(11.67 88.03) rotate(-58.82)"/><g id="_Gruppo_" data-name="&lt;Gruppo&gt;"><path class="cls-5" d="M85.3,43.76A2,2,0,0,0,84.83,42c-.35-.23-.72.17-.82.9a2,2,0,0,0,.48,1.72C84.84,44.89,85.2,44.49,85.3,43.76Z" transform="translate(-3.21 -5.68)"/><path class="cls-5" d="M84,34a2,2,0,0,0,.48,1.73c.35.23.71-.18.81-.9a2,2,0,0,0-.47-1.73C84.48,32.85,84.11,33.25,84,34Z" transform="translate(-3.21 -5.68)"/><path class="cls-5" d="M84.05,25.37a2,2,0,0,0,.47,1.72c.36.23.72-.17.82-.9a2,2,0,0,0-.47-1.72C84.52,24.25,84.15,24.65,84.05,25.37Z" transform="translate(-3.21 -5.68)"/><polygon class="cls-6" points="73.26 9.22 89.45 18.55 105.91 9.32 89.68 0 73.26 9.22"/><polygon class="cls-4" points="74.26 55.22 74.26 38.55 73.69 38.21 73.2 38.21 73.2 56.12 89.44 65.43 89.44 47.22 88.72 47.22 88.18 46.9 88.18 63.3 74.26 55.22"/><polygon class="cls-4" points="89.44 47.22 89.44 18.56 89.45 18.55 73.26 9.22 73.2 9.25 73.2 38.21 73.69 38.21 74.26 38.55 74.26 28.93 74.26 19.69 74.26 11.41 88.18 19.4 88.18 27.87 88.18 37.11 88.18 46.9 88.72 47.22 89.44 47.22"/><polygon class="cls-7" points="89.45 18.55 89.44 18.56 89.44 47.22 89.44 65.43 105.91 56.02 105.91 9.32 89.45 18.55"/><polygon class="cls-6" points="74.26 38.55 74.26 55.22 88.18 63.3 88.18 46.9 74.26 38.55"/><path class="cls-7" d="M91.39,42.79v9.78L77.47,44.23V34.61Zm-6.09,1A2,2,0,0,0,84.83,42c-.35-.23-.72.17-.82.9a2,2,0,0,0,.48,1.72C84.84,44.89,85.2,44.49,85.3,43.76Z" transform="translate(-3.21 -5.68)"/><path class="cls-7" d="M91.39,33.55v9.24L77.47,34.61V25.37ZM85.3,34.8a2,2,0,0,0-.47-1.73c-.35-.22-.72.18-.82.9a2,2,0,0,0,.48,1.73C84.84,35.93,85.2,35.52,85.3,34.8Z" transform="translate(-3.21 -5.68)"/><path class="cls-7" d="M91.39,25.08v8.47L77.47,25.37V17.09Zm-6,1.11a2,2,0,0,0-.47-1.72c-.35-.22-.72.18-.82.9a2,2,0,0,0,.47,1.72C84.88,27.32,85.24,26.92,85.34,26.19Z" transform="translate(-3.21 -5.68)"/></g><rect class="cls-4" x="84.12" y="21.83" width="0.62" height="17.01" transform="translate(11.55 81.19) rotate(-58.82)"/><rect class="cls-4" x="84.34" y="30.67" width="0.62" height="17.77" transform="translate(3.78 85.83) rotate(-58.83)"/></g><g id="Layer_14" data-name="Layer 14"><path class="cls-8" d="M93,110.63a1.24,1.24,0,0,1-.62.68,3.52,3.52,0,0,1-3.16,0,1.28,1.28,0,0,1-.62-.68.93.93,0,0,1,0-.24v.48a1.13,1.13,0,0,0,.66.92,3.52,3.52,0,0,0,3.16,0,1.13,1.13,0,0,0,.66-.92v-.48A.64.64,0,0,1,93,110.63Z" transform="translate(-3.21 -5.68)"/><path class="cls-6" d="M89.17,111.31a3.52,3.52,0,0,0,3.16,0,1.24,1.24,0,0,0,.62-.68.64.64,0,0,0,0-.24,1.11,1.11,0,0,0-.66-.91,3.45,3.45,0,0,0-3.16,0,1.11,1.11,0,0,0-.66.91.93.93,0,0,0,0,.24A1.28,1.28,0,0,0,89.17,111.31Z" transform="translate(-3.21 -5.68)"/><path class="cls-8" d="M107.2,118.19a1.28,1.28,0,0,1-.61.67,3.48,3.48,0,0,1-3.17,0,1.3,1.3,0,0,1-.62-.67,1,1,0,0,1,0-.24v.47a1.12,1.12,0,0,0,.66.92,3.54,3.54,0,0,0,3.17,0,1.13,1.13,0,0,0,.65-.92V118A.67.67,0,0,1,107.2,118.19Z" transform="translate(-3.21 -5.68)"/><path class="cls-6" d="M103.42,118.86a3.48,3.48,0,0,0,3.17,0,1.28,1.28,0,0,0,.61-.67.67.67,0,0,0,0-.24,1.13,1.13,0,0,0-.65-.92,3.54,3.54,0,0,0-3.17,0,1.12,1.12,0,0,0-.66.92,1,1,0,0,0,0,.24A1.3,1.3,0,0,0,103.42,118.86Z" transform="translate(-3.21 -5.68)"/><path class="cls-8" d="M158.16,90.94a1.24,1.24,0,0,1-.62.68,3.52,3.52,0,0,1-3.16,0,1.28,1.28,0,0,1-.62-.68.59.59,0,0,1,0-.23v.47a1.11,1.11,0,0,0,.66.91,3.45,3.45,0,0,0,3.16,0,1.11,1.11,0,0,0,.66-.91v-.47A.59.59,0,0,1,158.16,90.94Z" transform="translate(-3.21 -5.68)"/><path class="cls-6" d="M154.38,91.62a3.52,3.52,0,0,0,3.16,0,1.24,1.24,0,0,0,.62-.68.59.59,0,0,0,0-.23,1.11,1.11,0,0,0-.66-.92,3.52,3.52,0,0,0-3.16,0,1.11,1.11,0,0,0-.66.92.59.59,0,0,0,0,.23A1.28,1.28,0,0,0,154.38,91.62Z" transform="translate(-3.21 -5.68)"/><path class="cls-9" d="M156.27,82.08c.14.25.58.26-1,1.17L107.5,110.6c-1.58.9-3,1.44-3.13,1.18s1-1.19,2.61-2.1l47.76-27.35C156.33,81.42,156.12,81.82,156.27,82.08Z" transform="translate(-3.21 -5.68)"/><path class="cls-9" d="M105,111.74c-.15.25-.63.25-1.08,0L90.33,104c-.46-.26-.71-.68-.56-.93s.62-.25,1.08,0l13.62,7.74C104.92,111.07,105.17,111.49,105,111.74Z" transform="translate(-3.21 -5.68)"/><path class="cls-9" d="M155.62,82.87c-.14.25-.63.25-1.08,0l-13.62-7.74c-.45-.26-.7-.67-.56-.93s.63-.25,1.08,0l13.62,7.74C155.52,82.2,155.77,82.62,155.62,82.87Z" transform="translate(-3.21 -5.68)"/><path class="cls-10" d="M90.75,110.78a1,1,0,0,1-1-1V92.7a1,1,0,1,1,2,0v17.06A1,1,0,0,1,90.75,110.78Z" transform="translate(-3.21 -5.68)"/><path class="cls-10" d="M105,118.57a1,1,0,0,1-1-1V100.49a1,1,0,1,1,2,0v17.06A1,1,0,0,1,105,118.57Z" transform="translate(-3.21 -5.68)"/><path class="cls-10" d="M156,90.94a1,1,0,0,1-1-1V72.86a1,1,0,0,1,2.06,0V89.92A1,1,0,0,1,156,90.94Z" transform="translate(-3.21 -5.68)"/><path class="cls-11" d="M159.33,72.74l-17.18-9.92a2.92,2.92,0,0,0-2.52.28L87.87,93c-.52.3-.8.66-.8,1a.55.55,0,0,0,.31.48l.41.24,16.77,9.68a2.88,2.88,0,0,0,2.52-.28l51.76-29.89.08,0a1.37,1.37,0,0,0,.72-.87v-.1A.55.55,0,0,0,159.33,72.74Z" transform="translate(-3.21 -5.68)"/><path class="cls-12" d="M104.56,104.36,87.79,94.68l-.41-.24a.55.55,0,0,1-.31-.48v1.65a.54.54,0,0,0,.31.47L104.56,106a2.07,2.07,0,0,0,1.1.16v-1.65A1.89,1.89,0,0,1,104.56,104.36Z" transform="translate(-3.21 -5.68)"/><path class="cls-13" d="M158.92,74.15l-.08,0-51.76,29.89a3.51,3.51,0,0,1-1.42.44v1.65a3.69,3.69,0,0,0,1.42-.45l51.76-29.88a1.4,1.4,0,0,0,.8-.92V73.28A1.37,1.37,0,0,1,158.92,74.15Z" transform="translate(-3.21 -5.68)"/></g><g id="Layer_34_copy" data-name="Layer 34 copy"><path class="cls-8" d="M27.29,109.44a.83.83,0,0,1-.4.44,2.29,2.29,0,0,1-2.07,0,.79.79,0,0,1-.4-.44.4.4,0,0,1,0-.15v.31a.71.71,0,0,0,.43.59,2.23,2.23,0,0,0,2.07,0,.73.73,0,0,0,.43-.59v-.31A.4.4,0,0,1,27.29,109.44Z" transform="translate(-3.21 -5.68)"/><path class="cls-6" d="M24.82,109.88a2.29,2.29,0,0,0,2.07,0,.83.83,0,0,0,.4-.44.4.4,0,0,0,0-.15.73.73,0,0,0-.43-.6,2.29,2.29,0,0,0-2.07,0,.71.71,0,0,0-.43.6.4.4,0,0,0,0,.15A.79.79,0,0,0,24.82,109.88Z" transform="translate(-3.21 -5.68)"/><path class="cls-8" d="M60.45,77.12a.82.82,0,0,1-.4.44,2.29,2.29,0,0,1-2.07,0,.82.82,0,0,1-.4-.44.45.45,0,0,1,0-.16v.31a.75.75,0,0,0,.43.6,2.29,2.29,0,0,0,2.07,0,.75.75,0,0,0,.43-.6V77A.45.45,0,0,1,60.45,77.12Z" transform="translate(-3.21 -5.68)"/><path class="cls-6" d="M58,77.56a2.29,2.29,0,0,0,2.07,0,.82.82,0,0,0,.4-.44.45.45,0,0,0,0-.16.75.75,0,0,0-.43-.6,2.29,2.29,0,0,0-2.07,0,.75.75,0,0,0-.43.6.45.45,0,0,0,0,.16A.82.82,0,0,0,58,77.56Z" transform="translate(-3.21 -5.68)"/><path class="cls-10" d="M58.88,76.49c-.35,0-.63-.1-.63-.87V52.39c0-.77.28-1.39.64-1.39s.65.62.65,1.39V75.62C59.54,76.39,59.24,76.49,58.88,76.49Z" transform="translate(-3.21 -5.68)"/><path class="cls-10" d="M25.72,108.82c-.36,0-.64-.1-.64-.87V84.72c0-.77.29-1.4.65-1.4s.64.63.64,1.4V108C26.37,108.72,26.08,108.82,25.72,108.82Z" transform="translate(-3.21 -5.68)"/><path class="cls-8" d="M70.8,85.06a.85.85,0,0,1-.41.44,2.27,2.27,0,0,1-2.06,0,.85.85,0,0,1-.41-.44.78.78,0,0,1,0-.16v.32a.71.71,0,0,0,.43.59,2.27,2.27,0,0,0,2.06,0,.71.71,0,0,0,.43-.59V84.9A.78.78,0,0,1,70.8,85.06Z" transform="translate(-3.21 -5.68)"/><path class="cls-6" d="M68.33,85.5a2.27,2.27,0,0,0,2.06,0,.85.85,0,0,0,.41-.44.78.78,0,0,0,0-.16.71.71,0,0,0-.43-.59,2.27,2.27,0,0,0-2.06,0,.71.71,0,0,0-.43.59.78.78,0,0,0,0,.16A.85.85,0,0,0,68.33,85.5Z" transform="translate(-3.21 -5.68)"/><path class="cls-10" d="M69.23,84.44c-.36,0-.64-.11-.64-.88V60.34c0-.77.29-1.4.65-1.4s.64.63.64,1.4V83.56C69.88,84.33,69.58,84.44,69.23,84.44Z" transform="translate(-3.21 -5.68)"/><path class="cls-8" d="M14.25,102.57a.79.79,0,0,1-.4.44,2.29,2.29,0,0,1-2.07,0,.83.83,0,0,1-.4-.44.41.41,0,0,1,0-.16v.32a.73.73,0,0,0,.43.59,2.29,2.29,0,0,0,2.07,0,.71.71,0,0,0,.43-.59v-.32A.41.41,0,0,1,14.25,102.57Z" transform="translate(-3.21 -5.68)"/><path class="cls-6" d="M11.78,103a2.29,2.29,0,0,0,2.07,0,.79.79,0,0,0,.4-.44.41.41,0,0,0,0-.16.71.71,0,0,0-.43-.59,2.29,2.29,0,0,0-2.07,0,.73.73,0,0,0-.43.59.41.41,0,0,0,0,.16A.83.83,0,0,0,11.78,103Z" transform="translate(-3.21 -5.68)"/><path class="cls-10" d="M12.68,102c-.35,0-.63-.11-.63-.88V77.85c0-.78.29-1.4.64-1.4s.65.62.65,1.4v23.22C13.34,101.84,13,102,12.68,102Z" transform="translate(-3.21 -5.68)"/><polygon class="cls-14" points="72.11 53.77 72.1 53.77 70.47 54.71 20.82 83.37 5.67 74.62 4.04 73.68 4.04 75.57 20.82 85.26 72.1 55.65 72.14 55.65 72.11 53.77"/><polygon class="cls-15" points="20.82 83.37 70.47 54.71 72.1 53.77 55.31 44.07 4.04 73.68 5.67 74.62 20.82 83.37"/><polygon class="cls-9" points="72.11 53.77 72.1 53.77 70.47 54.71 20.82 83.37 20.82 85.26 72.1 55.65 72.14 55.65 72.11 53.77"/><polygon class="cls-16" points="53.44 58.41 41.81 51.7 41.81 37.45 53.44 44.16 53.44 58.41"/><polygon class="cls-17" points="53.44 44.13 41.81 37.42 48.93 33.31 60.56 40.02 53.44 44.13"/><polygon class="cls-18" points="60.56 54.3 53.44 58.41 53.44 44.16 60.56 40.05 60.56 54.3"/><path class="cls-14" d="M63.54,58.48a2.24,2.24,0,0,1-1,1.74L57.89,62.9c-.55.32-1,.06-1-.58v-11a2.25,2.25,0,0,1,1-1.75l4.64-2.67c.55-.32,1-.06,1,.58Z" transform="translate(-3.21 -5.68)"/><polygon class="cls-18" points="60.56 44.53 53.52 48.59 53.52 48.38 60.56 44.32 60.56 44.53"/><path class="cls-19" d="M60.92,58.18a.44.44,0,0,1-.19.33l-.95.55a.12.12,0,0,1-.19-.11V57.74a.42.42,0,0,1,.19-.32l.95-.55a.12.12,0,0,1,.19.11Z" transform="translate(-3.21 -5.68)"/><path class="cls-20" d="M60.84,58.16a.4.4,0,0,1-.17.29l-.83.48c-.1,0-.17,0-.17-.1V57.77a.37.37,0,0,1,.17-.29l.83-.48c.09,0,.17,0,.17.09Z" transform="translate(-3.21 -5.68)"/><path class="cls-19" d="M61.41,58.67a.17.17,0,0,1-.09.14l-2.13,1.24s-.09,0-.09,0h0a.2.2,0,0,1,.09-.15l2.13-1.23a.06.06,0,0,1,.09.05Z" transform="translate(-3.21 -5.68)"/><path class="cls-18" d="M61.36,51.5a.47.47,0,0,1-.08.3L59.14,53s-.08-.06-.08-.2h0a.5.5,0,0,1,.08-.31l2.14-1.23s.08.07.08.21Z" transform="translate(-3.21 -5.68)"/><path class="cls-19" d="M61.41,59a.19.19,0,0,1-.09.15l-2.13,1.23s-.09,0-.09-.05h0a.17.17,0,0,1,.09-.14l2.13-1.24s.09,0,.09,0Z" transform="translate(-3.21 -5.68)"/><path class="cls-19" d="M61.41,59.26a.19.19,0,0,1-.09.15l-2.13,1.23s-.09,0-.09,0h0a.18.18,0,0,1,.09-.14l2.13-1.23s.09,0,.09,0Z" transform="translate(-3.21 -5.68)"/><path class="cls-19" d="M61.41,59.6a.17.17,0,0,1-.09.14L59.19,61s-.09,0-.09,0h0a.18.18,0,0,1,.09-.14l2.13-1.23s.09,0,.09.05Z" transform="translate(-3.21 -5.68)"/><path class="cls-21" d="M57.62,67.3a.28.28,0,0,1,0,.54L40.78,77.63a1,1,0,0,1-.94,0l-8.6-5a.29.29,0,0,1,0-.55l16.84-9.78a1,1,0,0,1,.94,0Z" transform="translate(-3.21 -5.68)"/><path class="cls-22" d="M57.64,67.16a.29.29,0,0,1,0,.55L40.8,77.49a1,1,0,0,1-.94,0l-8.6-5a.29.29,0,0,1,0-.55L48.1,62.2a1,1,0,0,1,.94,0Z" transform="translate(-3.21 -5.68)"/><path class="cls-23" d="M53.87,65.59c-.2-1.28-2.84-2.63-4.26-2.23a2.18,2.18,0,0,0-.55.29c-.48.29-.43.8.12,1.12l2.38,1.37a2.07,2.07,0,0,0,1.87.08l.13-.07A.52.52,0,0,0,53.87,65.59Z" transform="translate(-3.21 -5.68)"/><path class="cls-24" d="M53.89,65.39a.57.57,0,0,1-.33.45l-.13.08a2.1,2.1,0,0,1-1.87-.08l-2.38-1.38a.75.75,0,0,1-.45-.59h0v.2a.77.77,0,0,0,.45.6l2.38,1.38a2.1,2.1,0,0,0,1.87.08l.13-.08a.55.55,0,0,0,.33-.46v-.2Z" transform="translate(-3.21 -5.68)"/><path class="cls-15" d="M53.89,65.35s0,.3-.46.57h0a2.1,2.1,0,0,1-1.87-.08l-2.38-1.38a.78.78,0,0,1-.45-.54.79.79,0,0,0,.45.59l2.38,1.37a2.07,2.07,0,0,0,1.87.08l.13-.07a.58.58,0,0,0,.33-.46Z" transform="translate(-3.21 -5.68)"/><path class="cls-14" d="M53.88,65.28C53.67,64,51,62.65,49.62,63.05a2.43,2.43,0,0,0-.56.29c-.47.29-.43.8.12,1.12l2.38,1.38a2.1,2.1,0,0,0,1.87.08l.13-.08A.53.53,0,0,0,53.88,65.28Z" transform="translate(-3.21 -5.68)"/><path class="cls-23" d="M50.25,63.34s0,0-.11,0-.11.06,0,.11.46.14.7.25.33,0,.3,0-.18-.13-.18-.13Z" transform="translate(-3.21 -5.68)"/><path class="cls-25" d="M50.18,63.37a.59.59,0,0,1,.69.08,1.05,1.05,0,0,1,.12.18A3.59,3.59,0,0,1,50.18,63.37Z" transform="translate(-3.21 -5.68)"/><path class="cls-23" d="M38.6,61s-.89,2.45,0,3l.44.25h0l1.7,1a.27.27,0,0,1,0,.51L38.35,67a.93.93,0,0,1-.86,0l-1.22-.72h0l-.38-.25-.06,0h0l-.41-.26s-.76-.55-.76-2.53Z" transform="translate(-3.21 -5.68)"/><path class="cls-14" d="M34.64,63c0,2,.76,2.53.76,2.53l.41.26h0l0,0,.39.25h0l.14.08,1.08.64a.93.93,0,0,0,.86,0l2.39-1.38c.24-.13.24-.36,0-.5l-1.07-.62L39,63.92h0l-.43-.25c-.88-.51,0-2.85,0-3h0Z" transform="translate(-3.21 -5.68)"/><path class="cls-16" d="M34.64,63c0,2,.76,2.53.76,2.53l.41.26h0l0,0,.39.25h0l.14.08,3.26-1.86L39,63.92h0l-.43-.25c-.88-.51,0-2.85,0-3h0Z" transform="translate(-3.21 -5.68)"/><path class="cls-26" d="M40.14,59.59l-.06,2.91a.69.69,0,0,0,.36.6l2.68,1.56a.22.22,0,0,1,0,.38l-2.6,1.57a.25.25,0,0,0,0,.43l1.08.75" transform="translate(-3.21 -5.68)"/><g class="cls-27"><path class="cls-17" d="M45.16,41.76l.63.36a.56.56,0,0,0-.56.06l-.63-.37A.55.55,0,0,1,45.16,41.76Z" transform="translate(-3.21 -5.68)"/><path class="cls-16" d="M27.58,67.64,27,67.27a.55.55,0,0,1-.23-.5l.63.36A.57.57,0,0,0,27.58,67.64Z" transform="translate(-3.21 -5.68)"/><polygon class="cls-16" points="24.14 61.45 23.51 61.09 23.47 47.38 24.1 47.74 24.14 61.45"/><polygon class="cls-16" points="24.88 46.39 24.25 46.03 41.39 36.13 42.02 36.5 24.88 46.39"/><path class="cls-17" d="M27.31,53.42l-.63-.36a1.71,1.71,0,0,1,.78-1.35l.63.36A1.74,1.74,0,0,0,27.31,53.42Z" transform="translate(-3.21 -5.68)"/><path class="cls-17" d="M45.23,42.18c.43-.25.79,0,.79.45l0,13.71a1.74,1.74,0,0,1-.78,1.35L28.14,67.58c-.43.25-.79,0-.79-.45l0-13.71a1.74,1.74,0,0,1,.78-1.35Z" transform="translate(-3.21 -5.68)"/></g><path class="cls-28" d="M45.23,42.16c.43-.25.79,0,.79.45l0,13.71a1.72,1.72,0,0,1-.78,1.35l-17.14,9.9c-.43.25-.78,0-.79-.45l0-13.71a1.67,1.67,0,0,1,.78-1.35Z" transform="translate(-3.21 -5.68)"/><path class="cls-14" d="M46.05,55.24v1.1a1.69,1.69,0,0,1-.78,1.35L28.14,67.58c-.43.25-.79,0-.79-.45V66Z" transform="translate(-3.21 -5.68)"/><polygon class="cls-29" points="42.18 37.29 42.22 49.09 24.98 59.04 24.95 47.24 42.18 37.29"/><polygon class="cls-30" points="42.18 37.29 42.22 49.09 38.99 50.96 28.69 45.09 42.18 37.29"/><polygon class="cls-31" points="41.18 51.37 41.18 52.06 40.67 52.35 40.67 51.66 41.18 51.37"/><path class="cls-23" d="M51.81,67.34c.16.08.16.23,0,.31L40.82,74a.59.59,0,0,1-.55,0l-4.48-2.58c-.15-.09-.16-.24,0-.32l11-6.39a.59.59,0,0,1,.55,0Z" transform="translate(-3.21 -5.68)"/><path class="cls-14" d="M51.81,67.15c.16.09.16.23,0,.32l-11,6.39a.59.59,0,0,1-.55,0l-4.48-2.59c-.15-.09-.16-.23,0-.32l11-6.39a.59.59,0,0,1,.55,0Z" transform="translate(-3.21 -5.68)"/><path class="cls-32" d="M39.73,69.57s0,.05,0,.08l-.57.33A.15.15,0,0,1,39,70l-.3-.17a0,0,0,0,1,0-.08l.57-.33a.17.17,0,0,1,.14,0Z" transform="translate(-3.21 -5.68)"/><path class="cls-14" d="M39.09,70A.11.11,0,0,1,39,70l-.3-.17a.08.08,0,0,1,0-.07.07.07,0,0,1,0-.07l.58-.34a.22.22,0,0,1,.16,0l.3.18a.08.08,0,0,1,0,.07s0,0,0,.07l-.57.33A.13.13,0,0,1,39.09,70Zm-.34-.26h0l.3.18h.09l.57-.34h0l-.29-.17a.17.17,0,0,0-.1,0l-.57.33Z" transform="translate(-3.21 -5.68)"/><path class="cls-32" d="M38.94,70s0,0,0,.07l-.57.34a.15.15,0,0,1-.13,0l-.3-.17a0,0,0,0,1,0-.08l.58-.33a.15.15,0,0,1,.13,0Z" transform="translate(-3.21 -5.68)"/><path class="cls-14" d="M38.3,70.49a.11.11,0,0,1-.08,0l-.3-.17a.08.08,0,0,1,0-.07.07.07,0,0,1,0-.07l.58-.34a.25.25,0,0,1,.17,0L39,70a.08.08,0,0,1,0,.07.1.1,0,0,1,0,.07l-.57.33S38.34,70.49,38.3,70.49ZM38,70.23h0l.3.17a.08.08,0,0,0,.09,0l.57-.33h0l-.29-.17a.17.17,0,0,0-.1,0l-.57.33Z" transform="translate(-3.21 -5.68)"/><path class="cls-32" d="M38.15,70.49s0,.05,0,.07l-.57.34a.15.15,0,0,1-.13,0l-.3-.18a0,0,0,0,1,0-.07l.58-.33a.15.15,0,0,1,.13,0Z" transform="translate(-3.21 -5.68)"/><path class="cls-14" d="M37.52,71l-.09,0-.3-.17a.08.08,0,0,1,0-.07.07.07,0,0,1,0-.07l.58-.34a.17.17,0,0,1,.17,0l.29.17a.1.1,0,0,1,0,.08.1.1,0,0,1,0,.07l-.57.33Zm-.35-.26h0l.3.17a.08.08,0,0,0,.09,0l.57-.33h0l-.29-.17h-.1l-.57.33Z" transform="translate(-3.21 -5.68)"/><path class="cls-32" d="M37.36,71s0,0,0,.07l-.57.34a.15.15,0,0,1-.13,0l-.3-.18a0,0,0,0,1,0-.07l.58-.33a.1.1,0,0,1,.13,0Z" transform="translate(-3.21 -5.68)"/><path class="cls-14" d="M36.73,71.41l-.09,0-.3-.17a.09.09,0,0,1,0-.07.09.09,0,0,1,0-.08l.58-.33a.17.17,0,0,1,.17,0l.29.17a.1.1,0,0,1,0,.07.1.1,0,0,1,0,.08l-.57.33Zm-.35-.26h0l.3.17a.07.07,0,0,0,.09,0l.57-.33h0l-.29-.17a.07.07,0,0,0-.09,0l-.58.33Z" transform="translate(-3.21 -5.68)"/><path class="cls-32" d="M38.11,71.38s0,.05,0,.07l-.57.34a.15.15,0,0,1-.13,0l-.57-.33s0,0,0-.08l.57-.33a.15.15,0,0,1,.13,0Z" transform="translate(-3.21 -5.68)"/><path class="cls-14" d="M37.47,71.84l-.08,0-.57-.33a.08.08,0,0,1,0-.07s0,0,0-.07l.57-.33a.17.17,0,0,1,.17,0l.57.32a.1.1,0,0,1,0,.08.1.1,0,0,1,0,.07l-.57.33Zm-.62-.42h0l.57.32a.07.07,0,0,0,.09,0l.57-.33h0l-.57-.33a.14.14,0,0,0-.09,0l-.57.34Z" transform="translate(-3.21 -5.68)"/><path class="cls-32" d="M40.93,71.47a0,0,0,0,1,0,.07l-.58.34a.15.15,0,0,1-.13,0l-.56-.33s0,0,0-.08l.57-.33a.15.15,0,0,1,.13,0Z" transform="translate(-3.21 -5.68)"/><path class="cls-14" d="M40.29,71.93l-.09,0-.56-.33a.08.08,0,0,1,0-.07s0-.05,0-.07l.57-.33a.17.17,0,0,1,.17,0l.57.32a.09.09,0,0,1,0,.08.09.09,0,0,1,0,.07l-.58.33Zm-.62-.42h0l.56.32a.07.07,0,0,0,.09,0l.58-.33h0l-.57-.33a.14.14,0,0,0-.09,0l-.57.34Z" transform="translate(-3.21 -5.68)"/><path class="cls-32" d="M40,71.14s0,0,0,.07l-.58.34a.15.15,0,0,1-.13,0l-.56-.33s0,0,0-.08l.57-.33a.15.15,0,0,1,.13,0Z" transform="translate(-3.21 -5.68)"/><path class="cls-14" d="M39.36,71.6l-.09,0-.56-.33a.08.08,0,0,1-.05-.07s0-.05.05-.07l.57-.33a.17.17,0,0,1,.17,0l.56.32a.1.1,0,0,1,.05.08.1.1,0,0,1-.05.07l-.57.33Zm-.62-.42h0l.56.32a.08.08,0,0,0,.09,0l.58-.33h0l-.57-.33a.14.14,0,0,0-.09,0l-.58.34Z" transform="translate(-3.21 -5.68)"/><path class="cls-32" d="M38.87,70.94a0,0,0,0,1,0,.07l-.57.34a.17.17,0,0,1-.14,0L37.6,71a0,0,0,0,1,0-.08l.57-.33a.15.15,0,0,1,.13,0Z" transform="translate(-3.21 -5.68)"/><path class="cls-14" d="M38.23,71.4l-.08,0-.57-.33a.08.08,0,0,1,0-.07s0,0,0-.07l.57-.33a.17.17,0,0,1,.17,0l.57.32a.09.09,0,0,1,0,.07.09.09,0,0,1,0,.08l-.57.33ZM37.61,71h0l.56.32a.09.09,0,0,0,.1,0l.57-.33h0l-.57-.33a.14.14,0,0,0-.09,0l-.57.34Z" transform="translate(-3.21 -5.68)"/><path class="cls-32" d="M43.58,70.8s0,0,0,.07l-.57.34a.15.15,0,0,1-.13,0l-.57-.33a0,0,0,0,1,0-.08l.57-.33a.15.15,0,0,1,.13,0Z" transform="translate(-3.21 -5.68)"/><path class="cls-14" d="M42.94,71.26l-.08,0-.57-.33a.08.08,0,0,1,0-.07s0,0,0-.07l.57-.33a.17.17,0,0,1,.17,0l.57.32a.1.1,0,0,1,0,.07.1.1,0,0,1,0,.08l-.57.33Zm-.62-.42h0l.57.32a.07.07,0,0,0,.09,0l.57-.33h0L43,70.5a.14.14,0,0,0-.09,0l-.57.34Z" transform="translate(-3.21 -5.68)"/><path class="cls-32" d="M44.34,70.35s0,.06,0,.08l-.57.33a.15.15,0,0,1-.13,0l-.57-.32s0-.06,0-.08l.57-.33a.15.15,0,0,1,.13,0Z" transform="translate(-3.21 -5.68)"/><path class="cls-14" d="M43.7,70.82l-.08,0-.57-.33a.08.08,0,0,1,0-.07.07.07,0,0,1,0-.07l.57-.34a.25.25,0,0,1,.17,0l.57.33s0,0,0,.07a.08.08,0,0,1,0,.07l-.57.34Zm-.62-.42h0l.57.33h.09l.57-.33h0l-.56-.33a.17.17,0,0,0-.1,0l-.57.33Z" transform="translate(-3.21 -5.68)"/><g class="cls-27"><path class="cls-32" d="M41.15,69.61a0,0,0,0,1,0,.08l-.58.33a.15.15,0,0,1-.13,0l-.56-.32s0-.06,0-.08l.57-.33a.15.15,0,0,1,.13,0Z" transform="translate(-3.21 -5.68)"/><path class="cls-14" d="M40.51,70.08l-.09,0-.56-.33s0,0,0-.07a.08.08,0,0,1,0-.07l.57-.34a.25.25,0,0,1,.17,0l.56.33s.05,0,.05.07a.08.08,0,0,1-.05.07l-.57.34Zm-.62-.42h0l.56.33a.14.14,0,0,0,.09,0l.58-.33h0l-.57-.33h-.09l-.57.33Z" transform="translate(-3.21 -5.68)"/><path class="cls-32" d="M42.27,69.81s0,.06,0,.08l-.57.33a.15.15,0,0,1-.13,0L41,69.9a0,0,0,0,1,0-.08l.58-.33a.15.15,0,0,1,.13,0Z" transform="translate(-3.21 -5.68)"/><path class="cls-14" d="M41.63,70.28l-.08,0L41,69.93a.08.08,0,0,1,0-.07.07.07,0,0,1,0-.07l.58-.34a.25.25,0,0,1,.17,0l.56.33s.05,0,.05.07a.08.08,0,0,1-.05.07l-.57.34ZM41,69.86h0l.57.33a.14.14,0,0,0,.09,0l.57-.33h0l-.56-.33h-.1l-.57.33Z" transform="translate(-3.21 -5.68)"/><path class="cls-32" d="M40.39,70.05s0,.06,0,.08l-.58.33a.15.15,0,0,1-.13,0l-.56-.32a0,0,0,0,1,0-.08l.57-.33a.15.15,0,0,1,.13,0Z" transform="translate(-3.21 -5.68)"/><path class="cls-14" d="M39.75,70.52l-.09,0-.56-.33s-.05,0-.05-.07A.08.08,0,0,1,39.1,70l.57-.34a.25.25,0,0,1,.17,0l.57.33a.08.08,0,0,1,0,.07.07.07,0,0,1,0,.07l-.58.34Zm-.62-.42h0l.56.33h.09l.58-.33h0l-.57-.33a.14.14,0,0,0-.09,0l-.57.33Z" transform="translate(-3.21 -5.68)"/><path class="cls-32" d="M43.21,70.14s0,.06,0,.08l-.57.33a.15.15,0,0,1-.13,0l-.57-.33s0,0,0-.07l.57-.34a.15.15,0,0,1,.13,0Z" transform="translate(-3.21 -5.68)"/><path class="cls-14" d="M42.57,70.6a.11.11,0,0,1-.08,0l-.57-.32a.1.1,0,0,1-.05-.07.1.1,0,0,1,.05-.08l.57-.33a.17.17,0,0,1,.17,0l.57.33a.07.07,0,0,1,0,.07.08.08,0,0,1,0,.07l-.57.33A.15.15,0,0,1,42.57,70.6ZM42,70.19h0l.56.33a.17.17,0,0,0,.1,0l.57-.34h0l-.57-.32a.07.07,0,0,0-.09,0l-.57.33Z" transform="translate(-3.21 -5.68)"/><path class="cls-32" d="M41.51,70.26s0,0,0,.07l-.57.33a.11.11,0,0,1-.13,0l-.57-.32a0,0,0,0,1,0-.08l.58-.33a.15.15,0,0,1,.13,0Z" transform="translate(-3.21 -5.68)"/><path class="cls-14" d="M40.87,70.72l-.08,0-.57-.33a.08.08,0,0,1,0-.14l.58-.33a.17.17,0,0,1,.17,0l.56.32a.1.1,0,0,1,0,.07.08.08,0,0,1,0,.07L41,70.7Zm-.61-.42h0l.57.33a.14.14,0,0,0,.09,0l.57-.33h0L40.93,70h-.09l-.58.34Z" transform="translate(-3.21 -5.68)"/><path class="cls-32" d="M39.63,70.5a0,0,0,0,1,0,.07l-.58.33a.1.1,0,0,1-.13,0l-.56-.32a0,0,0,0,1,0-.08l.57-.33a.15.15,0,0,1,.13,0Z" transform="translate(-3.21 -5.68)"/><path class="cls-14" d="M39,71l-.09,0-.56-.33s-.05,0-.05-.07,0-.05.05-.07l.57-.33a.17.17,0,0,1,.17,0l.57.32a.08.08,0,0,1,0,.07.07.07,0,0,1,0,.07l-.58.34Zm-.62-.42h0l.56.33H39l.57-.33h0L39,70.2a.14.14,0,0,0-.09,0l-.57.34Z" transform="translate(-3.21 -5.68)"/><path class="cls-32" d="M42.45,70.58a0,0,0,0,1,0,.08l-.57.33a.17.17,0,0,1-.14,0l-.56-.32s0-.06,0-.08l.57-.33a.15.15,0,0,1,.13,0Z" transform="translate(-3.21 -5.68)"/><path class="cls-14" d="M41.81,71.05l-.09,0-.56-.33s0,0,0-.07a.08.08,0,0,1,0-.07l.57-.34a.25.25,0,0,1,.17,0l.57.33a.08.08,0,0,1,0,.07.07.07,0,0,1,0,.07l-.58.34Zm-.62-.42h0l.56.33a.17.17,0,0,0,.1,0l.57-.33h0l-.57-.33a.14.14,0,0,0-.09,0l-.57.33Z" transform="translate(-3.21 -5.68)"/><path class="cls-32" d="M40.75,70.7s0,0,0,.07l-.57.34a.15.15,0,0,1-.13,0l-.57-.33a0,0,0,0,1,0-.08l.58-.33a.15.15,0,0,1,.13,0Z" transform="translate(-3.21 -5.68)"/><path class="cls-14" d="M40.12,71.16l-.09,0-.56-.33a.08.08,0,0,1,0-.07.1.1,0,0,1,0-.07l.58-.33a.17.17,0,0,1,.17,0l.56.32a.1.1,0,0,1,0,.07.1.1,0,0,1,0,.08l-.57.33Zm-.62-.42h0l.57.32a.07.07,0,0,0,.09,0l.57-.33h0l-.56-.33a.14.14,0,0,0-.09,0l-.58.34Z" transform="translate(-3.21 -5.68)"/><path class="cls-32" d="M41.69,71a0,0,0,0,1,0,.07l-.58.33a.15.15,0,0,1-.13,0l-.56-.32a0,0,0,0,1,0-.08L41,70.7a.15.15,0,0,1,.13,0Z" transform="translate(-3.21 -5.68)"/><path class="cls-14" d="M41.05,71.49l-.09,0-.56-.33s0,0,0-.07,0,0,0-.07l.57-.33a.17.17,0,0,1,.17,0l.57.32a.08.08,0,0,1,0,.07.07.07,0,0,1,0,.07l-.58.34Zm-.62-.42h0l.56.33h.09l.58-.33h0l-.57-.33a.14.14,0,0,0-.09,0l-.57.34Z" transform="translate(-3.21 -5.68)"/></g><path class="cls-32" d="M44.55,68.49a0,0,0,0,1,0,.08L44,68.9a.17.17,0,0,1-.14,0l-.56-.33s0,0,0-.07l.57-.33a.1.1,0,0,1,.13,0Z" transform="translate(-3.21 -5.68)"/><path class="cls-14" d="M43.91,69a.11.11,0,0,1-.08,0l-.57-.32a.1.1,0,0,1,0-.07.1.1,0,0,1,0-.08l.57-.33a.17.17,0,0,1,.17,0l.57.33a.08.08,0,0,1,0,.14l-.58.33A.11.11,0,0,1,43.91,69Zm-.62-.41h0l.56.33H44l.57-.34h0L44,68.2a.07.07,0,0,0-.09,0l-.57.33Z" transform="translate(-3.21 -5.68)"/><path class="cls-32" d="M47.38,68.59s0,0,0,.07l-.57.34a.15.15,0,0,1-.13,0l-.57-.33a0,0,0,0,1,0-.08l.58-.33a.15.15,0,0,1,.13,0Z" transform="translate(-3.21 -5.68)"/><path class="cls-14" d="M46.74,69.05l-.08,0-.57-.33a.07.07,0,0,1,0-.07.08.08,0,0,1,0-.07l.58-.33a.17.17,0,0,1,.17,0l.56.32a.1.1,0,0,1,.05.07.1.1,0,0,1-.05.08l-.57.33Zm-.61-.42h0l.57.32a.07.07,0,0,0,.09,0l.57-.33h0l-.56-.33a.14.14,0,0,0-.09,0l-.58.34Z" transform="translate(-3.21 -5.68)"/><path class="cls-32" d="M46.25,68.37a0,0,0,0,1,0,.08l-.57.33a.15.15,0,0,1-.13,0L45,68.45a0,0,0,0,1,0-.07l.58-.33a.1.1,0,0,1,.13,0Z" transform="translate(-3.21 -5.68)"/><path class="cls-14" d="M45.61,68.84a.11.11,0,0,1-.08,0L45,68.49a.08.08,0,0,1,0-.07.07.07,0,0,1,0-.07l.58-.34a.17.17,0,0,1,.17,0l.56.33s0,0,0,.07,0,0,0,.07l-.57.33A.16.16,0,0,1,45.61,68.84ZM45,68.42h0l.57.33a.14.14,0,0,0,.09,0l.57-.34h0l-.56-.33a.14.14,0,0,0-.09,0l-.58.33Z" transform="translate(-3.21 -5.68)"/><path class="cls-32" d="M44.94,67.41s0,0,0,.07l-.57.34a.15.15,0,0,1-.13,0l-.57-.33s0,0,0-.07l.57-.34a.15.15,0,0,1,.13,0Z" transform="translate(-3.21 -5.68)"/><path class="cls-14" d="M44.3,67.87l-.08,0-.57-.33a.08.08,0,0,1,0-.07s0,0,0-.07l.57-.33a.17.17,0,0,1,.17,0l.57.32a.1.1,0,0,1,0,.08.1.1,0,0,1,0,.07l-.57.33Zm-.62-.42h0l.57.32a.07.07,0,0,0,.09,0l.57-.33h0l-.57-.32a.07.07,0,0,0-.09,0l-.57.33Z" transform="translate(-3.21 -5.68)"/><path class="cls-32" d="M45.7,67a0,0,0,0,1,0,.07l-.57.34a.17.17,0,0,1-.14,0l-.56-.33a0,0,0,0,1,0-.08l.57-.33a.15.15,0,0,1,.13,0Z" transform="translate(-3.21 -5.68)"/><path class="cls-14" d="M45.06,67.43l-.08,0-.57-.33a.08.08,0,0,1,0-.07s0-.05,0-.07l.57-.33a.17.17,0,0,1,.17,0l.57.32a.09.09,0,0,1,0,.08.09.09,0,0,1,0,.07l-.58.33ZM44.44,67h0l.56.32a.09.09,0,0,0,.1,0l.57-.33h0l-.57-.33a.14.14,0,0,0-.09,0l-.57.34Z" transform="translate(-3.21 -5.68)"/><path class="cls-32" d="M46.07,67.61s0,0,0,.08l-.58.33a.15.15,0,0,1-.13,0l-.56-.33s0,0,0-.07l.57-.34a.15.15,0,0,1,.13,0Z" transform="translate(-3.21 -5.68)"/><path class="cls-14" d="M45.43,68.07a.15.15,0,0,1-.09,0l-.56-.32a.1.1,0,0,1-.05-.08.1.1,0,0,1,.05-.07l.57-.33a.17.17,0,0,1,.17,0l.57.33a.08.08,0,0,1,0,.07.1.1,0,0,1,0,.07l-.58.33A.11.11,0,0,1,45.43,68.07Zm-.62-.42h0l.56.32a.07.07,0,0,0,.09,0l.58-.33h0l-.57-.32a.08.08,0,0,0-.09,0l-.57.33Z" transform="translate(-3.21 -5.68)"/><path class="cls-32" d="M45.31,68.05a0,0,0,0,1,0,.08l-.58.33a.15.15,0,0,1-.13,0L44,68.13s0,0,0-.07l.57-.34a.15.15,0,0,1,.13,0Z" transform="translate(-3.21 -5.68)"/><path class="cls-14" d="M44.67,68.51a.15.15,0,0,1-.09,0L44,68.17A.1.1,0,0,1,44,68.1.1.1,0,0,1,44,68l.57-.33a.17.17,0,0,1,.17,0l.57.33a.07.07,0,0,1,0,.07.08.08,0,0,1,0,.07l-.58.33A.11.11,0,0,1,44.67,68.51Zm-.62-.42h0l.56.33h.09l.58-.34h0l-.57-.32a.07.07,0,0,0-.09,0l-.57.33Z" transform="translate(-3.21 -5.68)"/><g class="cls-27"><path class="cls-32" d="M45.49,68.81s0,.06,0,.08l-.57.33a.15.15,0,0,1-.13,0l-.57-.32a0,0,0,0,1,0-.08l.58-.33a.15.15,0,0,1,.13,0Z" transform="translate(-3.21 -5.68)"/><path class="cls-14" d="M44.85,69.28l-.08,0-.57-.33a.08.08,0,0,1,0-.07.07.07,0,0,1,0-.07l.58-.34a.25.25,0,0,1,.17,0l.56.33s.05,0,.05.07a.08.08,0,0,1-.05.07l-.57.34Zm-.61-.42h0l.57.33a.14.14,0,0,0,.09,0l.57-.33h0l-.56-.33h-.1l-.57.33Z" transform="translate(-3.21 -5.68)"/><path class="cls-32" d="M46.62,69s0,0,0,.07l-.57.34a.15.15,0,0,1-.13,0l-.57-.33a0,0,0,0,1,0-.07l.58-.34a.15.15,0,0,1,.13,0Z" transform="translate(-3.21 -5.68)"/><path class="cls-14" d="M46,69.49l-.08,0-.57-.33a.07.07,0,0,1,0-.07.08.08,0,0,1,0-.07l.58-.33a.17.17,0,0,1,.17,0l.56.32a.1.1,0,0,1,0,.08.1.1,0,0,1,0,.07l-.57.33Zm-.61-.42h0l.57.32a.08.08,0,0,0,.09,0l.57-.33h0L46,68.74a.07.07,0,0,0-.09,0l-.58.33Z" transform="translate(-3.21 -5.68)"/><path class="cls-32" d="M44.73,69.26s0,0,0,.07l-.57.34a.15.15,0,0,1-.13,0l-.57-.33a0,0,0,0,1,0-.08l.57-.33a.17.17,0,0,1,.14,0Z" transform="translate(-3.21 -5.68)"/><path class="cls-14" d="M44.09,69.72l-.08,0-.57-.33a.07.07,0,0,1,0-.07.08.08,0,0,1,0-.07L44,68.9a.17.17,0,0,1,.17,0l.57.32a.1.1,0,0,1,0,.07.1.1,0,0,1,0,.08l-.57.33Zm-.62-.42h0l.57.32a.07.07,0,0,0,.09,0l.57-.33h0L44.15,69h-.1l-.57.34Z" transform="translate(-3.21 -5.68)"/><path class="cls-32" d="M45.86,69.47a0,0,0,0,1,0,.08l-.57.33a.15.15,0,0,1-.13,0l-.57-.33a0,0,0,0,1,0-.07l.58-.34a.15.15,0,0,1,.13,0Z" transform="translate(-3.21 -5.68)"/><path class="cls-14" d="M45.22,69.93a.11.11,0,0,1-.08,0l-.57-.32a.09.09,0,0,1,0-.07.09.09,0,0,1,0-.08l.58-.33a.17.17,0,0,1,.17,0l.56.33a.08.08,0,0,1,0,.07s0,0,0,.07l-.57.33A.15.15,0,0,1,45.22,69.93Zm-.61-.42h0l.57.33a.14.14,0,0,0,.09,0l.57-.34h0l-.56-.32a.09.09,0,0,0-.1,0l-.57.33Z" transform="translate(-3.21 -5.68)"/></g><g class="cls-27"><path class="cls-32" d="M41.31,68.65a0,0,0,0,1,0,.08l-.57.33a.15.15,0,0,1-.13,0l-.3-.17a0,0,0,0,1,0-.08l.57-.33a.15.15,0,0,1,.13,0Z" transform="translate(-3.21 -5.68)"/><path class="cls-14" d="M40.67,69.12a.11.11,0,0,1-.08,0l-.3-.17a.07.07,0,0,1,0-.07.08.08,0,0,1,0-.07l.57-.33a.17.17,0,0,1,.17,0l.3.17s.05,0,.05.07,0,0-.05.07l-.57.33A.16.16,0,0,1,40.67,69.12Zm-.35-.27h0l.3.17a.14.14,0,0,0,.09,0l.57-.34h0L41,68.51a.17.17,0,0,0-.1,0l-.57.34Z" transform="translate(-3.21 -5.68)"/><path class="cls-32" d="M42.66,68.73a0,0,0,0,1,0,.08l-.57.33a.15.15,0,0,1-.13,0l-.57-.33a0,0,0,0,1,0-.07L42,68.4a.15.15,0,0,1,.13,0Z" transform="translate(-3.21 -5.68)"/><path class="cls-14" d="M42,69.19a.11.11,0,0,1-.08,0l-.57-.32a.09.09,0,0,1,0-.07.09.09,0,0,1,0-.08l.58-.33a.17.17,0,0,1,.17,0l.56.33a.08.08,0,0,1,0,.07s0,0,0,.07l-.57.33S42.06,69.19,42,69.19Zm-.61-.41h0l.57.33a.14.14,0,0,0,.09,0l.57-.34h0l-.56-.32a.07.07,0,0,0-.09,0l-.58.33Z" transform="translate(-3.21 -5.68)"/><path class="cls-32" d="M43.79,68.93a0,0,0,0,1,0,.08l-.57.33a.15.15,0,0,1-.13,0L42.52,69s0-.06,0-.08l.57-.33a.15.15,0,0,1,.13,0Z" transform="translate(-3.21 -5.68)"/><path class="cls-14" d="M43.15,69.4a.11.11,0,0,1-.08,0l-.57-.32s0,0,0-.07a.08.08,0,0,1,0-.07l.57-.34a.17.17,0,0,1,.17,0l.57.33s0,0,0,.07,0,0,0,.07l-.57.33A.16.16,0,0,1,43.15,69.4ZM42.53,69h0l.57.33h.09l.57-.34h0l-.57-.33a.14.14,0,0,0-.09,0l-.57.33Z" transform="translate(-3.21 -5.68)"/><path class="cls-32" d="M41.9,69.17a0,0,0,0,1,0,.08l-.57.33a.15.15,0,0,1-.13,0l-.56-.33s0,0,0-.07l.58-.33a.15.15,0,0,1,.13,0Z" transform="translate(-3.21 -5.68)"/><path class="cls-14" d="M41.27,69.64a.16.16,0,0,1-.09,0l-.56-.32s0,0,0-.07a.08.08,0,0,1,0-.07l.57-.34a.17.17,0,0,1,.17,0l.56.33s0,0,0,.07,0,.05,0,.07l-.57.33A.11.11,0,0,1,41.27,69.64Zm-.62-.42h0l.57.33a.14.14,0,0,0,.09,0l.57-.34h0l-.56-.33h-.09l-.58.33Z" transform="translate(-3.21 -5.68)"/><path class="cls-32" d="M43,69.37a0,0,0,0,1,0,.08l-.57.33a.15.15,0,0,1-.13,0l-.57-.32s0-.06,0-.08l.57-.33a.15.15,0,0,1,.13,0Z" transform="translate(-3.21 -5.68)"/><path class="cls-14" d="M42.39,69.84l-.08,0-.57-.33a.08.08,0,0,1,0-.07.07.07,0,0,1,0-.07l.57-.34a.25.25,0,0,1,.17,0l.57.33s.05,0,.05.07a.08.08,0,0,1-.05.07l-.57.34Zm-.62-.42h0l.57.33a.14.14,0,0,0,.09,0l.57-.33h0l-.56-.33a.17.17,0,0,0-.1,0l-.57.33Z" transform="translate(-3.21 -5.68)"/><path class="cls-32" d="M44,69.7s0,0,0,.07l-.57.34a.15.15,0,0,1-.13,0l-.57-.33s0,0,0-.07l.57-.34a.15.15,0,0,1,.13,0Z" transform="translate(-3.21 -5.68)"/><path class="cls-14" d="M43.33,70.16a.11.11,0,0,1-.08,0l-.57-.33a.08.08,0,0,1,0-.07.1.1,0,0,1,0-.07l.57-.33a.17.17,0,0,1,.17,0l.57.33a.08.08,0,0,1,0,.07.1.1,0,0,1,0,.07l-.57.33A.15.15,0,0,1,43.33,70.16Zm-.62-.42h0l.57.32a.07.07,0,0,0,.09,0l.57-.33h0l-.57-.32a.07.07,0,0,0-.09,0l-.57.33Z" transform="translate(-3.21 -5.68)"/></g><path class="cls-32" d="M42.1,68.19a0,0,0,0,1,0,.08l-.57.33a.15.15,0,0,1-.13,0l-.3-.17s0-.05,0-.08l.57-.33a.15.15,0,0,1,.13,0Z" transform="translate(-3.21 -5.68)"/><path class="cls-14" d="M41.46,68.66l-.08,0-.3-.18a.07.07,0,0,1,0-.07.08.08,0,0,1,0-.07l.57-.33a.17.17,0,0,1,.17,0l.3.17s.05,0,.05.07a.08.08,0,0,1-.05.07l-.57.34Zm-.35-.27h0l.3.17a.14.14,0,0,0,.09,0l.57-.33h0l-.29-.18h-.1l-.57.34Z" transform="translate(-3.21 -5.68)"/><path class="cls-32" d="M47,67.93s0,0,0,.08l-.57.33a.15.15,0,0,1-.13,0L45.74,68a0,0,0,0,1,0-.07l.58-.34a.15.15,0,0,1,.13,0Z" transform="translate(-3.21 -5.68)"/><path class="cls-14" d="M46.38,68.39s-.07,0-.09,0l-.57-.32a.12.12,0,0,1,0-.08.09.09,0,0,1,0-.07l.58-.33a.17.17,0,0,1,.17,0l.56.33a.08.08,0,0,1,0,.07s0,0,0,.07l-.57.33A.11.11,0,0,1,46.38,68.39ZM45.76,68h0l.57.33h.09L47,68h0l-.56-.32a.07.07,0,0,0-.09,0l-.58.33Z" transform="translate(-3.21 -5.68)"/><path class="cls-32" d="M51.45,67.2a0,0,0,0,1,0,.07l-.58.34a.15.15,0,0,1-.13,0l-.27-.16s0-.06,0-.08L51,67a.15.15,0,0,1,.13,0Z" transform="translate(-3.21 -5.68)"/><path class="cls-14" d="M50.81,67.66l-.09,0-.27-.16s-.05,0-.05-.07a.08.08,0,0,1,.05-.07L51,67a.17.17,0,0,1,.17,0l.28.16a.09.09,0,0,1,0,.07.09.09,0,0,1,0,.08l-.58.33Zm-.33-.25h0l.27.16a.09.09,0,0,0,.1,0l.57-.33h0l-.28-.16h-.09l-.57.33Z" transform="translate(-3.21 -5.68)"/><g class="cls-27"><path class="cls-32" d="M49.1,65.85s0,.05,0,.07l-.57.33a.1.1,0,0,1-.13,0l-.57-.32a0,0,0,0,1,0-.08l.58-.33a.15.15,0,0,1,.13,0Z" transform="translate(-3.21 -5.68)"/><path class="cls-14" d="M48.46,66.31l-.08,0L47.81,66a.08.08,0,0,1,0-.14l.58-.33a.17.17,0,0,1,.17,0l.56.32a.1.1,0,0,1,.05.07.08.08,0,0,1-.05.07l-.57.34Zm-.61-.42h0l.57.33a.14.14,0,0,0,.09,0l.57-.33h0l-.56-.33h-.1l-.57.34Z" transform="translate(-3.21 -5.68)"/><path class="cls-32" d="M46.05,65.9s0,0,0,.07l-.57.34a.15.15,0,0,1-.13,0l-.3-.17s0-.06,0-.08l.57-.33a.15.15,0,0,1,.13,0Z" transform="translate(-3.21 -5.68)"/><path class="cls-14" d="M45.41,66.36l-.08,0-.3-.17s-.05,0-.05-.07A.08.08,0,0,1,45,66l.57-.34a.25.25,0,0,1,.17,0l.3.17a.1.1,0,0,1,0,.08.1.1,0,0,1,0,.07l-.57.33Zm-.35-.26h0l.3.17a.07.07,0,0,0,.09,0l.57-.33h0l-.3-.17a.14.14,0,0,0-.09,0l-.57.33Z" transform="translate(-3.21 -5.68)"/><path class="cls-32" d="M47.22,66.09a0,0,0,0,1,0,.07l-.58.33a.1.1,0,0,1-.13,0L46,66.17a0,0,0,0,1,0-.08l.57-.33a.15.15,0,0,1,.13,0Z" transform="translate(-3.21 -5.68)"/><path class="cls-14" d="M46.58,66.55l-.09,0-.56-.33s0,0,0-.07,0,0,0-.07l.57-.33a.17.17,0,0,1,.17,0l.57.32a.08.08,0,0,1,0,.07.07.07,0,0,1,0,.07l-.58.34ZM46,66.13h0l.56.33a.14.14,0,0,0,.09,0l.58-.33h0l-.57-.33a.14.14,0,0,0-.09,0l-.57.34Z" transform="translate(-3.21 -5.68)"/><path class="cls-32" d="M48.34,66.29s0,0,0,.07l-.57.34a.15.15,0,0,1-.13,0l-.57-.33a0,0,0,0,1,0-.08l.58-.33a.15.15,0,0,1,.13,0Z" transform="translate(-3.21 -5.68)"/><path class="cls-14" d="M47.7,66.75l-.08,0-.57-.33a.07.07,0,0,1,0-.07.08.08,0,0,1,0-.07l.58-.33a.17.17,0,0,1,.17,0l.56.32a.1.1,0,0,1,0,.07.1.1,0,0,1,0,.08l-.57.33Zm-.61-.42h0l.57.32a.07.07,0,0,0,.09,0l.57-.33h0L47.76,66h-.09l-.58.34Z" transform="translate(-3.21 -5.68)"/><path class="cls-32" d="M45.26,66.36s0,0,0,.07l-.57.34a.15.15,0,0,1-.13,0l-.3-.18s0,0,0-.07l.57-.33a.1.1,0,0,1,.13,0Z" transform="translate(-3.21 -5.68)"/><path class="cls-14" d="M44.62,66.82l-.08,0-.3-.17a.1.1,0,0,1-.05-.07.08.08,0,0,1,.05-.07l.57-.34a.17.17,0,0,1,.17,0l.3.17a.1.1,0,0,1,0,.08.1.1,0,0,1,0,.07l-.57.33Zm-.35-.26h0l.3.17a.07.07,0,0,0,.09,0l.57-.33h0l-.3-.17a.14.14,0,0,0-.09,0l-.57.33Z" transform="translate(-3.21 -5.68)"/><path class="cls-32" d="M46.46,66.53a0,0,0,0,1,0,.07l-.58.34a.15.15,0,0,1-.13,0l-.56-.33a0,0,0,0,1,0-.08l.57-.33a.15.15,0,0,1,.13,0Z" transform="translate(-3.21 -5.68)"/><path class="cls-14" d="M45.82,67l-.09,0-.56-.33a.08.08,0,0,1-.05-.07s0,0,.05-.07l.57-.33a.17.17,0,0,1,.17,0l.57.32a.09.09,0,0,1,0,.07.09.09,0,0,1,0,.08L45.9,67Zm-.62-.42h0l.56.32a.07.07,0,0,0,.09,0l.58-.33h0l-.57-.33a.14.14,0,0,0-.09,0l-.57.34Z" transform="translate(-3.21 -5.68)"/><path class="cls-32" d="M49.84,66.28a0,0,0,0,1,0,.08L48.7,67a.15.15,0,0,1-.13,0L48,66.69s0,0,0-.07L49.14,66a.15.15,0,0,1,.13,0Z" transform="translate(-3.21 -5.68)"/><path class="cls-14" d="M48.64,67.07a.15.15,0,0,1-.09,0L48,66.73a.1.1,0,0,1-.05-.08.1.1,0,0,1,.05-.07l1.13-.66a.17.17,0,0,1,.17,0l.57.33a.07.07,0,0,1,0,.07.08.08,0,0,1,0,.07l-1.14.66A.11.11,0,0,1,48.64,67.07ZM48,66.65h0l.57.32a.07.07,0,0,0,.09,0l1.14-.66h0L49.25,66a.07.07,0,0,0-.09,0L48,66.65Z" transform="translate(-3.21 -5.68)"/><path class="cls-32" d="M47.58,66.73s0,0,0,.07l-.57.34a.15.15,0,0,1-.13,0l-.57-.33s0,0,0-.08l.58-.33a.15.15,0,0,1,.13,0Z" transform="translate(-3.21 -5.68)"/><path class="cls-14" d="M47,67.19l-.09,0-.56-.33a.08.08,0,0,1,0-.07.1.1,0,0,1,0-.07l.58-.33a.17.17,0,0,1,.17,0l.56.32a.1.1,0,0,1,0,.08.1.1,0,0,1,0,.07l-.57.33Zm-.62-.42h0l.57.32a.07.07,0,0,0,.09,0l.57-.33h0L47,66.43a.14.14,0,0,0-.09,0l-.58.34Z" transform="translate(-3.21 -5.68)"/><path class="cls-32" d="M44.47,66.82s0,.05,0,.07l-.57.34a.15.15,0,0,1-.13,0l-.3-.18s0,0,0-.07l.57-.34a.15.15,0,0,1,.13,0Z" transform="translate(-3.21 -5.68)"/><path class="cls-14" d="M43.83,67.28l-.08,0-.3-.17A.1.1,0,0,1,43.4,67a.1.1,0,0,1,.05-.08l.57-.33a.17.17,0,0,1,.17,0l.3.17a.1.1,0,0,1,0,.07.1.1,0,0,1,0,.08l-.57.33ZM43.48,67h0l.3.17a.07.07,0,0,0,.09,0l.57-.33h0l-.3-.17a.07.07,0,0,0-.09,0l-.57.33Z" transform="translate(-3.21 -5.68)"/><path class="cls-32" d="M48.53,67.05s0,0,0,.07l-.58.33a.1.1,0,0,1-.13,0l-.56-.32a0,0,0,0,1,0-.08l.57-.33a.15.15,0,0,1,.13,0Z" transform="translate(-3.21 -5.68)"/><path class="cls-14" d="M47.9,67.51l-.09,0-.56-.33s0,0,0-.07,0,0,0-.07l.57-.33a.17.17,0,0,1,.17,0l.56.32a.1.1,0,0,1,.05.07.08.08,0,0,1-.05.07l-.57.34Zm-.62-.42h0l.56.33s.07,0,.09,0l.58-.33h0L48,66.75a.14.14,0,0,0-.09,0l-.58.34Z" transform="translate(-3.21 -5.68)"/><path class="cls-32" d="M50.59,66.7a0,0,0,0,1,0,.08l-1.53.89a.15.15,0,0,1-.13,0l-.56-.33a0,0,0,0,1,0-.08l1.52-.88a.15.15,0,0,1,.13,0Z" transform="translate(-3.21 -5.68)"/><path class="cls-14" d="M49,67.72l-.09,0-.56-.33a.08.08,0,0,1-.05-.07s0,0,.05-.07l1.52-.89a.25.25,0,0,1,.17,0l.57.33a.08.08,0,0,1,0,.07.07.07,0,0,1,0,.07l-1.53.89Zm-.62-.42h0l.56.32a.07.07,0,0,0,.09,0l1.53-.88h0L50,66.41h-.09l-1.52.89Z" transform="translate(-3.21 -5.68)"/><path class="cls-32" d="M47.77,67.49s0,.05,0,.07l-.57.34a.15.15,0,0,1-.13,0l-.56-.33s0,0,0-.08l.58-.33a.15.15,0,0,1,.13,0Z" transform="translate(-3.21 -5.68)"/><path class="cls-14" d="M47.14,68l-.09,0-.56-.33a.08.08,0,0,1-.05-.07s0,0,.05-.07l.57-.33a.17.17,0,0,1,.17,0l.56.32a.1.1,0,0,1,.05.08.1.1,0,0,1-.05.07l-.57.33Zm-.62-.42h0l.57.32a.07.07,0,0,0,.09,0l.57-.33h0l-.56-.32a.1.1,0,0,0-.09,0l-.58.34Z" transform="translate(-3.21 -5.68)"/><path class="cls-32" d="M48.9,67.7a0,0,0,0,1,0,.08l-.57.33a.15.15,0,0,1-.13,0l-.57-.32s0-.06,0-.08l.58-.33a.15.15,0,0,1,.13,0Z" transform="translate(-3.21 -5.68)"/><path class="cls-14" d="M48.27,68.17l-.09,0-.57-.33a.1.1,0,0,1,0-.07.07.07,0,0,1,0-.07l.58-.34a.17.17,0,0,1,.17,0l.56.33s0,0,0,.07,0,.05,0,.07l-.57.34Zm-.62-.42h0l.57.33a.14.14,0,0,0,.09,0l.57-.33h0l-.56-.33h-.09l-.58.33Z" transform="translate(-3.21 -5.68)"/></g><g class="cls-27"><path class="cls-32" d="M43.68,67.28s0,0,0,.07l-.57.33a.15.15,0,0,1-.13,0l-.3-.17s0-.05,0-.07l.57-.34a.15.15,0,0,1,.13,0Z" transform="translate(-3.21 -5.68)"/><path class="cls-14" d="M43,67.74l-.08,0-.3-.17a.1.1,0,0,1,0-.08.1.1,0,0,1,0-.07l.57-.33a.17.17,0,0,1,.17,0l.3.17s0,0,0,.07a.08.08,0,0,1,0,.07l-.57.34Zm-.35-.27h0l.3.17h.09l.57-.33h0l-.3-.17a.07.07,0,0,0-.09,0l-.57.33Z" transform="translate(-3.21 -5.68)"/><path class="cls-32" d="M42.89,67.73a0,0,0,0,1,0,.08l-.57.33a.15.15,0,0,1-.13,0l-.3-.17s0,0,0-.07l.57-.34a.15.15,0,0,1,.13,0Z" transform="translate(-3.21 -5.68)"/><path class="cls-14" d="M42.25,68.2l-.08,0-.3-.18a.08.08,0,0,1,0-.07.1.1,0,0,1,0-.07l.57-.33a.17.17,0,0,1,.17,0l.3.17s.05,0,.05.07a.08.08,0,0,1-.05.07l-.57.34Zm-.35-.27h0l.3.17a.14.14,0,0,0,.09,0l.57-.33h0l-.29-.17a.09.09,0,0,0-.1,0l-.57.33Z" transform="translate(-3.21 -5.68)"/><path class="cls-32" d="M44.18,67.85s0,.05,0,.08l-.57.33a.15.15,0,0,1-.13,0l-.57-.33a0,0,0,0,1,0-.07l.57-.34a.17.17,0,0,1,.14,0Z" transform="translate(-3.21 -5.68)"/><path class="cls-14" d="M43.54,68.31a.11.11,0,0,1-.08,0L42.89,68a.09.09,0,0,1,0-.08.09.09,0,0,1,0-.07l.58-.33a.15.15,0,0,1,.16,0l.57.33a.08.08,0,0,1,0,.07s0,0,0,.07l-.57.33A.15.15,0,0,1,43.54,68.31Zm-.62-.42h0l.57.32a.07.07,0,0,0,.09,0l.57-.33h0l-.56-.32a.09.09,0,0,0-.1,0l-.57.33Z" transform="translate(-3.21 -5.68)"/></g><path class="cls-32" d="M43.42,68.29a0,0,0,0,1,0,.08l-.57.33a.15.15,0,0,1-.13,0l-.57-.33a0,0,0,0,1,0-.07l.58-.34a.15.15,0,0,1,.13,0Z" transform="translate(-3.21 -5.68)"/><path class="cls-14" d="M42.78,68.75a.11.11,0,0,1-.08,0l-.57-.32a.09.09,0,0,1,0-.08.09.09,0,0,1,0-.07l.58-.33a.17.17,0,0,1,.17,0l.56.33a.08.08,0,0,1,.05.07s0,0-.05.07l-.57.33A.15.15,0,0,1,42.78,68.75Zm-.61-.42h0l.57.33a.14.14,0,0,0,.09,0l.57-.34h0L42.84,68a.07.07,0,0,0-.09,0l-.58.33Z" transform="translate(-3.21 -5.68)"/><path class="cls-32" d="M46.84,65.44s0,0,0,.08l-.57.33a.15.15,0,0,1-.13,0l-.3-.17a0,0,0,0,1,0-.08l.57-.33a.15.15,0,0,1,.13,0Z" transform="translate(-3.21 -5.68)"/><path class="cls-14" d="M46.2,65.9a.11.11,0,0,1-.08,0l-.3-.17s0,0,0-.07a.08.08,0,0,1,0-.07l.57-.34a.25.25,0,0,1,.17,0l.3.18a.08.08,0,0,1,0,.07s0,0,0,.07l-.57.33A.15.15,0,0,1,46.2,65.9Zm-.35-.26h0l.3.17a.07.07,0,0,0,.09,0l.57-.33h0l-.3-.17h-.09l-.57.33Z" transform="translate(-3.21 -5.68)"/><path class="cls-32" d="M47.63,65a0,0,0,0,1,0,.08l-.57.33a.15.15,0,0,1-.13,0l-.3-.17a0,0,0,0,1,0-.08l.57-.33a.15.15,0,0,1,.13,0Z" transform="translate(-3.21 -5.68)"/><path class="cls-14" d="M47,65.44a.11.11,0,0,1-.08,0l-.3-.17s0,0,0-.07,0-.05,0-.07l.57-.33a.17.17,0,0,1,.17,0l.3.17a.08.08,0,0,1,.05.07s0,0-.05.07l-.57.33A.15.15,0,0,1,47,65.44Zm-.35-.26h0l.3.18a.14.14,0,0,0,.09,0l.57-.34h0l-.3-.17a.14.14,0,0,0-.09,0l-.57.34Z" transform="translate(-3.21 -5.68)"/><path class="cls-32" d="M48.36,65.42s0,0,0,.07l-.94.55a.1.1,0,0,1-.13,0l-.57-.32a0,0,0,0,1,0-.08l1-.55a.15.15,0,0,1,.13,0Z" transform="translate(-3.21 -5.68)"/><path class="cls-14" d="M47.35,66.1l-.08,0-.57-.33a.08.08,0,0,1-.05-.07s0-.05.05-.07l.95-.55a.17.17,0,0,1,.17,0l.56.33a.08.08,0,0,1,0,.07s0,.05,0,.07l-.94.55Zm-.62-.42h0l.56.33a.09.09,0,0,0,.1,0l.94-.55h0l-.56-.32a.07.07,0,0,0-.09,0l-.95.55Z" transform="translate(-3.21 -5.68)"/><path class="cls-32" d="M46.82,67.17s0,0,0,.07l-.58.34a.15.15,0,0,1-.13,0l-.56-.33s0,0,0-.07l.57-.34a.15.15,0,0,1,.13,0Z" transform="translate(-3.21 -5.68)"/><path class="cls-14" d="M46.19,67.63l-.09,0-.56-.33a.08.08,0,0,1,0-.07s0,0,0-.07l.57-.33a.17.17,0,0,1,.17,0l.56.32a.1.1,0,0,1,0,.08.1.1,0,0,1,0,.07l-.57.33Zm-.62-.42h0l.56.32a.07.07,0,0,0,.09,0l.58-.33h0l-.57-.32a.07.07,0,0,0-.09,0l-.58.33Z" transform="translate(-3.21 -5.68)"/><path class="cls-32" d="M42.06,71.68s0,.06,0,.08l-.57.33a.15.15,0,0,1-.13,0l-.57-.33s0-.05,0-.07l.57-.34a.15.15,0,0,1,.13,0Z" transform="translate(-3.21 -5.68)"/><path class="cls-14" d="M41.42,72.14a.11.11,0,0,1-.08,0l-.57-.32a.1.1,0,0,1-.05-.08.1.1,0,0,1,.05-.07l.57-.33a.17.17,0,0,1,.17,0l.57.33a.07.07,0,0,1,0,.07.08.08,0,0,1,0,.07l-.57.33A.15.15,0,0,1,41.42,72.14Zm-.62-.42h0l.56.33h.1l.57-.34h0l-.57-.32a.07.07,0,0,0-.09,0l-.57.33Z" transform="translate(-3.21 -5.68)"/><path class="cls-32" d="M41.2,73.15a0,0,0,0,1,0,.08l-.58.33a.15.15,0,0,1-.13,0l-.67-.38a0,0,0,0,1,0-.08l.57-.33a.17.17,0,0,1,.14,0Z" transform="translate(-3.21 -5.68)"/><path class="cls-14" d="M40.56,73.62l-.09,0-.67-.39a.08.08,0,0,1,0-.07.07.07,0,0,1,0-.07l.58-.34a.22.22,0,0,1,.16,0l.68.39a.1.1,0,0,1,0,.07.08.08,0,0,1,0,.07l-.58.34Zm-.73-.48h0l.67.39a.14.14,0,0,0,.09,0l.58-.33h0l-.67-.39h-.1l-.57.33Z" transform="translate(-3.21 -5.68)"/><path class="cls-32" d="M43.66,71.72s0,.06,0,.08l-.74.43a.15.15,0,0,1-.13,0l-.68-.39a0,0,0,0,1,0-.07l.74-.43a.15.15,0,0,1,.13,0Z" transform="translate(-3.21 -5.68)"/><path class="cls-14" d="M42.85,72.28a.11.11,0,0,1-.08,0l-.67-.38a.1.1,0,0,1-.05-.07.12.12,0,0,1,0-.08l.74-.43a.25.25,0,0,1,.17,0l.67.39s0,0,0,.07a.08.08,0,0,1,0,.07l-.74.43A.15.15,0,0,1,42.85,72.28Zm-.72-.47h0l.67.39h.1l.74-.43h0L43,71.37a.17.17,0,0,0-.1,0l-.74.43Z" transform="translate(-3.21 -5.68)"/><path class="cls-32" d="M42.72,72.27s0,0,0,.07l-.57.33a.1.1,0,0,1-.13,0l-.67-.38a0,0,0,0,1,0-.08l.57-.33a.15.15,0,0,1,.13,0Z" transform="translate(-3.21 -5.68)"/><path class="cls-14" d="M42.09,72.73l-.09,0-.67-.39s0,0,0-.07,0,0,0-.07l.57-.33a.17.17,0,0,1,.17,0l.67.38a.1.1,0,0,1,0,.07.08.08,0,0,1,0,.07l-.57.34Zm-.73-.48h0l.67.39a.14.14,0,0,0,.09,0l.58-.33h0L42,71.91h-.09l-.57.34Z" transform="translate(-3.21 -5.68)"/><path class="cls-32" d="M41.3,72.12s0,0,0,.08l-1.52.88a.15.15,0,0,1-.13,0l-.57-.33a0,0,0,0,1,0-.07l1.53-.89a.15.15,0,0,1,.13,0Z" transform="translate(-3.21 -5.68)"/><path class="cls-14" d="M39.71,73.14a.11.11,0,0,1-.08,0l-.57-.32a.09.09,0,0,1,0-.07.07.07,0,0,1,0-.07l1.53-.89a.17.17,0,0,1,.17,0l.56.33a.08.08,0,0,1,0,.07s0,0,0,.07l-1.52.88A.16.16,0,0,1,39.71,73.14Zm-.61-.42h0l.57.33a.14.14,0,0,0,.09,0l1.52-.89h0l-.56-.32a.07.07,0,0,0-.09,0l-1.53.88Z" transform="translate(-3.21 -5.68)"/><path class="cls-32" d="M42,72.71s0,.05,0,.08l-.57.33a.15.15,0,0,1-.13,0l-.67-.39s0,0,0-.07l.57-.34a.15.15,0,0,1,.13,0Z" transform="translate(-3.21 -5.68)"/><path class="cls-14" d="M41.32,73.17a.11.11,0,0,1-.08,0l-.67-.38a.1.1,0,0,1,0-.08.1.1,0,0,1,0-.07l.57-.33a.17.17,0,0,1,.17,0l.67.39a.08.08,0,0,1,.05.07s0,0-.05.07l-.57.33A.15.15,0,0,1,41.32,73.17Zm-.72-.48h0l.67.39h.09l.57-.34h0l-.67-.38a.07.07,0,0,0-.09,0l-.57.33Z" transform="translate(-3.21 -5.68)"/><path class="cls-32" d="M50.69,67.64s0,0,0,.07l-.57.34a.15.15,0,0,1-.13,0l-.67-.39a0,0,0,0,1,0-.08l.58-.33a.15.15,0,0,1,.13,0Z" transform="translate(-3.21 -5.68)"/><path class="cls-14" d="M50.05,68.1l-.08,0-.67-.39a.08.08,0,0,1,0-.07s0-.05,0-.07l.57-.33a.17.17,0,0,1,.17,0l.67.38a.1.1,0,0,1,0,.08.1.1,0,0,1,0,.07l-.57.33Zm-.72-.48h0L50,68a.09.09,0,0,0,.1,0l.57-.33h0L50,67.28a.14.14,0,0,0-.09,0l-.58.34Z" transform="translate(-3.21 -5.68)"/><path class="cls-32" d="M49.93,68.08s0,0,0,.07l-.57.34a.15.15,0,0,1-.13,0L49,68.33s0-.06,0-.08l.58-.33a.15.15,0,0,1,.13,0Z" transform="translate(-3.21 -5.68)"/><path class="cls-14" d="M49.3,68.54l-.09,0-.28-.16a.08.08,0,0,1,0-.07.07.07,0,0,1,0-.07l.58-.34a.17.17,0,0,1,.17,0L50,68a.1.1,0,0,1,0,.07.1.1,0,0,1,0,.08l-.57.33ZM49,68.29h0l.28.16a.07.07,0,0,0,.09,0l.57-.33h0L49.64,68a.14.14,0,0,0-.09,0l-.58.33Z" transform="translate(-3.21 -5.68)"/><path class="cls-32" d="M48.14,68.14s0,.06,0,.08l-.57.33a.15.15,0,0,1-.13,0l-.57-.32a0,0,0,0,1,0-.08l.58-.33a.15.15,0,0,1,.13,0Z" transform="translate(-3.21 -5.68)"/><path class="cls-14" d="M47.5,68.61l-.08,0-.57-.33a.08.08,0,0,1,0-.07.07.07,0,0,1,0-.07l.58-.34a.25.25,0,0,1,.17,0l.56.33s.05,0,.05.07a.08.08,0,0,1-.05.07l-.57.34Zm-.61-.42h0l.57.33a.14.14,0,0,0,.09,0l.57-.33h0l-.56-.33h-.09l-.58.33Z" transform="translate(-3.21 -5.68)"/><path class="cls-32" d="M48.39,69s0,.06,0,.08l-.74.43a.15.15,0,0,1-.13,0l-.67-.39s0,0,0-.07l.74-.43a.15.15,0,0,1,.13,0Z" transform="translate(-3.21 -5.68)"/><path class="cls-14" d="M47.58,69.53a.11.11,0,0,1-.08,0l-.67-.38a.1.1,0,0,1,0-.08.1.1,0,0,1,0-.07l.74-.43a.25.25,0,0,1,.17,0l.67.39a.08.08,0,0,1,0,.07.07.07,0,0,1,0,.07l-.74.43A.15.15,0,0,1,47.58,69.53Zm-.72-.48h0l.67.39h.09l.74-.43h0l-.67-.39a.14.14,0,0,0-.09,0l-.74.43Z" transform="translate(-3.21 -5.68)"/><path class="cls-32" d="M49.18,68.52a0,0,0,0,1,0,.07l-.58.33a.1.1,0,0,1-.13,0l-.67-.38a0,0,0,0,1,0-.08l.58-.33a.15.15,0,0,1,.13,0Z" transform="translate(-3.21 -5.68)"/><path class="cls-14" d="M48.54,69l-.09,0-.67-.39a.1.1,0,0,1,0-.07.08.08,0,0,1,0-.07l.58-.34a.25.25,0,0,1,.17,0l.67.39a.08.08,0,0,1,0,.07.07.07,0,0,1,0,.07l-.58.34Zm-.72-.48h0l.67.39a.17.17,0,0,0,.1,0l.57-.33h0l-.67-.39H48.4l-.58.34Z" transform="translate(-3.21 -5.68)"/><path class="cls-32" d="M45.1,69.91a0,0,0,0,1,0,.08l-.57.33a.15.15,0,0,1-.13,0L43.83,70a0,0,0,0,1,0-.07l.57-.33a.17.17,0,0,1,.14,0Z" transform="translate(-3.21 -5.68)"/><path class="cls-14" d="M44.46,70.38a.11.11,0,0,1-.08,0L43.81,70a.08.08,0,0,1,0-.07.07.07,0,0,1,0-.07l.58-.34a.15.15,0,0,1,.16,0l.57.33s.05,0,.05.07,0,0-.05.07l-.57.33A.16.16,0,0,1,44.46,70.38ZM43.84,70h0l.57.33h.09l.57-.34h0l-.56-.33a.17.17,0,0,0-.1,0l-.57.33Z" transform="translate(-3.21 -5.68)"/><path class="cls-32" d="M47.45,69.52s0,0,0,.07l-3.59,2.09a.15.15,0,0,1-.13,0l-.67-.38a0,0,0,0,1,0-.08l3.59-2.09a.15.15,0,0,1,.13,0Z" transform="translate(-3.21 -5.68)"/><path class="cls-14" d="M43.79,71.74l-.08,0L43,71.33s0,0,0-.07a.08.08,0,0,1,0-.07l3.59-2.09a.17.17,0,0,1,.17,0l.67.39a.08.08,0,0,1,.05.07s0,0-.05.07l-3.59,2.09Zm-.72-.48h0l.67.39h.09l3.59-2.09h0l-.67-.38a.08.08,0,0,0-.09,0l-3.6,2.08Z" transform="translate(-3.21 -5.68)"/><path class="cls-32" d="M42.82,71.24s0,.05,0,.07l-.57.34a.15.15,0,0,1-.13,0l-.57-.33s0,0,0-.07l.57-.34a.15.15,0,0,1,.13,0Z" transform="translate(-3.21 -5.68)"/><path class="cls-14" d="M42.18,71.7l-.08,0-.57-.33a.08.08,0,0,1-.05-.07s0,0,.05-.07l.57-.33a.17.17,0,0,1,.17,0l.57.32a.1.1,0,0,1,0,.08.1.1,0,0,1,0,.07l-.57.33Zm-.62-.42h0l.57.32a.07.07,0,0,0,.09,0l.57-.33h0L42.23,71a.07.07,0,0,0-.09,0l-.57.33Z" transform="translate(-3.21 -5.68)"/><path class="cls-32" d="M40.16,71.91s0,0,0,.08L39,72.65a.15.15,0,0,1-.13,0l-.57-.33s0,0,0-.08l1.14-.66a.15.15,0,0,1,.13,0Z" transform="translate(-3.21 -5.68)"/><path class="cls-14" d="M39,72.7l-.08,0-.57-.33a.07.07,0,0,1,0-.07.08.08,0,0,1,0-.07l1.14-.66a.17.17,0,0,1,.17,0l.56.33a.08.08,0,0,1,0,.07s0,0,0,.07l-1.13.66Zm-.62-.42h0l.57.32a.07.07,0,0,0,.09,0L40.15,72h0l-.57-.32a.07.07,0,0,0-.09,0l-1.14.66Z" transform="translate(-3.21 -5.68)"/><path class="cls-32" d="M39.22,71.59s0,0,0,.07l-.94.55a.17.17,0,0,1-.14,0l-.56-.32a0,0,0,0,1,0-.08l1-.55a.15.15,0,0,1,.13,0Z" transform="translate(-3.21 -5.68)"/><path class="cls-14" d="M38.21,72.27l-.08,0-.57-.33s-.05,0-.05-.07a.08.08,0,0,1,.05-.07l.95-.55a.17.17,0,0,1,.17,0l.56.32a.1.1,0,0,1,0,.07.1.1,0,0,1,0,.08l-1,.55Zm-.62-.42h0l.56.33h.1l.94-.55h0l-.56-.33a.14.14,0,0,0-.09,0l-.95.55Z" transform="translate(-3.21 -5.68)"/><path class="cls-32" d="M40.52,69.11a0,0,0,0,1,0,.08l-.57.33a.15.15,0,0,1-.13,0l-.3-.17a0,0,0,0,1,0-.08l.57-.33a.17.17,0,0,1,.14,0Z" transform="translate(-3.21 -5.68)"/><path class="cls-14" d="M39.88,69.57a.11.11,0,0,1-.08,0l-.3-.17a.08.08,0,0,1,0-.14l.58-.33a.15.15,0,0,1,.16,0l.3.17a.08.08,0,0,1,.05.07s0,0-.05.07l-.57.33A.13.13,0,0,1,39.88,69.57Zm-.35-.26h0l.3.18a.14.14,0,0,0,.09,0l.57-.34h0L40.21,69a.17.17,0,0,0-.1,0l-.57.34Z" transform="translate(-3.21 -5.68)"/></g><g id="Layer_63_copy" data-name="Layer 63 copy"><g id="_Gruppo_2" data-name="&lt;Gruppo&gt;"><path class="cls-33" d="M142.62,106.43c-3,.47-5.86-3.77-5.35-5.5,0-.09.1-.18.16-.27.28,1.45,2.14,4.28,3.95,5a1.81,1.81,0,0,0,2.37-.68A1.27,1.27,0,0,1,142.62,106.43Z" transform="translate(-3.21 -5.68)"/><path class="cls-33" d="M128,105.13c.05-.09.1-.18.16-.27a8.73,8.73,0,0,0,3.88,5,1.83,1.83,0,0,0,2.44-.64,1.15,1.15,0,0,1-.87,1.31C130.67,111.21,127.5,106.94,128,105.13Z" transform="translate(-3.21 -5.68)"/><path class="cls-34" d="M134.44,109a1.87,1.87,0,0,1,.07.22,1.83,1.83,0,0,1-2.44.64c-.08-.59.81-1.15,1.56-1.51C133.94,108.57,134.3,108.73,134.44,109Z" transform="translate(-3.21 -5.68)"/><path class="cls-34" d="M143.68,104.82a1.72,1.72,0,0,1,.07.21,1.81,1.81,0,0,1-2.37.68,3.9,3.9,0,0,1,1.57-1.5A1.86,1.86,0,0,1,143.68,104.82Z" transform="translate(-3.21 -5.68)"/><path class="cls-35" d="M142.6,103.94a1.62,1.62,0,0,0,.35.27,3.9,3.9,0,0,0-1.57,1.5c-1.81-.77-3.67-3.6-3.95-5,.16-.25.35-.5.5-.76l.06.2a14.87,14.87,0,0,0,3.17,4.42h.08a2.68,2.68,0,0,1,1.16-1Z" transform="translate(-3.21 -5.68)"/><path class="cls-35" d="M129,103.22c.07.45.15.84.23,1.18v0a10.93,10.93,0,0,0,2.74,4.3H132a2.57,2.57,0,0,1,1.16-1l.19.4a2.2,2.2,0,0,0,.28.24c-.75.36-1.64.92-1.56,1.51a8.73,8.73,0,0,1-3.88-5A3.07,3.07,0,0,0,129,103.22Z" transform="translate(-3.21 -5.68)"/><path class="cls-36" d="M126,60.51a2.85,2.85,0,0,1-.17.84,2.53,2.53,0,0,0-1.32-1A2.73,2.73,0,0,1,126,60.51Z" transform="translate(-3.21 -5.68)"/><path class="cls-36" d="M127.44,69.58a4.52,4.52,0,0,0,.7-2.35c-.11-1.26-1.15-2.86-1.49-4l-.11,0a5.44,5.44,0,0,0-.75-1.9,2.85,2.85,0,0,0,.17-.84c3.52,1.48,4.41,10.2,5.13,15.39.14.94.26,1.76.4,2.41a3.18,3.18,0,0,1-2.2.69c-.34-1.1-.65-2.19-.92-3.39-.19-1-1-2.39-1.29-3.56,0-.61-.06-1.16-.1-1.63C127.13,70.15,127.29,69.87,127.44,69.58Z" transform="translate(-3.21 -5.68)"/><path class="cls-36" d="M116.12,65.37a1.56,1.56,0,0,1,1.79.9c-2.83,1.46-3.88,17.34-4.14,17.06a45.71,45.71,0,0,1,.26-5.14c0-3.65-.31-7.36.74-11h0a5.7,5.7,0,0,1,1.07-1.8Z" transform="translate(-3.21 -5.68)"/><path class="cls-37" d="M118,70.81h0c-.2,1.38-.37,2.68-.5,4-.18,1.78-.29,3.57-.31,5.6h0a31.33,31.33,0,0,1,0,3.36,2.89,2.89,0,0,1-.92.24,14,14,0,0,1-2.41-.24c-.06-.85,1-8,1-9,0-1.48.34-7.08,3.17-8.54a1.36,1.36,0,0,1,.1.36C118.24,67.66,118.67,67.65,118,70.81Z" transform="translate(-3.21 -5.68)"/><path class="cls-36" d="M117.91,66.27c-.26-.62-1-.83-1.84-.69,0-.06-.27,0-.31,0a20.08,20.08,0,0,1,2.5-2.35.94.94,0,0,0,.18.12c2.25,1.34,6.16-.18,5.29-2.19a2.42,2.42,0,0,0,.31-.33,2.06,2.06,0,0,0,.27-.44l.16,0a2.53,2.53,0,0,1,1.32,1c-.78,2.23-4,3.08-5.84,4.24-.63.4-.57.34-.63,1a8.34,8.34,0,0,0,.17,2.35,11.64,11.64,0,0,1,0,3.49,19,19,0,0,1-.69,2.05,7,7,0,0,1-1.18.3h-.12c.13-1.3.3-2.6.5-4h0c.72-3.16.29-3.15.06-4.18A1.36,1.36,0,0,0,117.91,66.27Z" transform="translate(-3.21 -5.68)"/><path class="cls-37" d="M119.68,74.15q-.48.21-.93.36a19,19,0,0,0,.69-2.05,11.64,11.64,0,0,0,0-3.49,8.34,8.34,0,0,1-.17-2.35c.06-.69,0-.63.63-1,1.82-1.16,5.06-2,5.84-4.24a5.44,5.44,0,0,1,.75,1.9l.11,0c.34,1.15,1.38,2.75,1.49,4a3.74,3.74,0,0,1-4.46,3.84l0,0C123.1,72.27,121.3,73.44,119.68,74.15Z" transform="translate(-3.21 -5.68)"/><path class="cls-36" d="M118.75,74.51q.45-.15.93-.36c.36,3.22-1.28,7.19,1.57,9.7-.49.14-1,.26-1.43.37a15.9,15.9,0,0,1-2.8.36c0-.27,0-.54.07-.82a31.33,31.33,0,0,0,0-3.36h0c0-2,.13-3.82.31-5.6h.12A7,7,0,0,0,118.75,74.51Z" transform="translate(-3.21 -5.68)"/><path class="cls-37" d="M127,70.42c0,.47.07,1,.1,1.63a43.78,43.78,0,0,0,.63,7.1s.05,0,.06,0a4,4,0,0,1-1.49,2.08,9.26,9.26,0,0,1-1.35,1,15.93,15.93,0,0,1-3.68,1.61c-2.85-2.51-1.21-6.48-1.57-9.7,1.62-.71,3.42-1.88,4-3.1l0,0a4.53,4.53,0,0,0,3.76-1.49C127.29,69.87,127.13,70.15,127,70.42Z" transform="translate(-3.21 -5.68)"/><path class="cls-38" d="M138,99.81a15.09,15.09,0,0,0-.36-2.54,2.7,2.7,0,0,0,1.34-.14,15.22,15.22,0,0,0,1.15,4.14c.23.51,1.35,2.3,1.93,1.52.13.28.26.53.36.74a2.68,2.68,0,0,0-1.16,1h-.08A14.87,14.87,0,0,1,138,100.1,2.81,2.81,0,0,0,138,99.81Z" transform="translate(-3.21 -5.68)"/><path class="cls-38" d="M129.18,104.4c-.08-.34-.16-.73-.23-1.18h0c-.19-1.06-.36-2.4-.48-3.79a3.55,3.55,0,0,0,1.14.37,20.43,20.43,0,0,0,.48,4.45c.26,1,1.55,3.62,3,3.26l.11.22a2.57,2.57,0,0,0-1.16,1h-.08a10.93,10.93,0,0,1-2.74-4.3Z" transform="translate(-3.21 -5.68)"/><path class="cls-38" d="M140.89,100.08a21,21,0,0,0,1.15,2.71c-.58.78-1.7-1-1.93-1.52A15.22,15.22,0,0,1,139,97.13a5.34,5.34,0,0,0,1.9-1.09h0C140.89,97.44,140.87,98.8,140.89,100.08Z" transform="translate(-3.21 -5.68)"/><path class="cls-38" d="M131.56,103.55c-.16.59.89,2.74,1.49,4-1.41.36-2.7-2.24-3-3.26a20.43,20.43,0,0,1-.48-4.45,4.74,4.74,0,0,0,2.65-.34C132,100.75,131.56,103.55,131.56,103.55Z" transform="translate(-3.21 -5.68)"/><path class="cls-39" d="M135.65,87.86c-2.24-.7-4.48-1.65-6.72-2.28a48,48,0,0,0-4-3.34,9.26,9.26,0,0,0,1.35-1c1,.38,2.83,2.33,3.81,2.85A30.44,30.44,0,0,0,137,86.84c-.34,1.54.29,3.32.63,4.81.35,1.66.8,3.32,1.2,5,0,.17.07.33.11.5a2.7,2.7,0,0,1-1.34.14C136.92,94.14,135.51,91.64,135.65,87.86Z" transform="translate(-3.21 -5.68)"/><path class="cls-39" d="M128.79,92.14c-3.78-1.14-9.57-3-11.87-6.57,0-.32.07-.65.1-1a15.9,15.9,0,0,0,2.8-.36c1.51,2.82,5.08,4.52,8,5.37a14.32,14.32,0,0,0,2.18.51c.86.06,1-.11.86.69-.29,1-1,4.76-1.09,5.73a29.46,29.46,0,0,0-.14,3.28,3.55,3.55,0,0,1-1.14-.37C128.22,96.56,128.2,93.47,128.79,92.14Z" transform="translate(-3.21 -5.68)"/><path class="cls-40" d="M127.74,79.25l0-.09,1.71.44c.83.22,1.71.47,2.61.76,3.89,1.23,8,3.06,8.36,5.63A61.1,61.1,0,0,1,140.9,96h0a5.34,5.34,0,0,1-1.9,1.09c0-.17-.07-.33-.11-.5-.4-1.66-.85-3.32-1.2-5-.34-1.49-1-3.27-.63-4.81a30.44,30.44,0,0,1-6.93-2.75c-1-.52-2.79-2.47-3.81-2.85A5.69,5.69,0,0,0,127.74,79.25Z" transform="translate(-3.21 -5.68)"/><path class="cls-40" d="M128.93,85.58c.33.29.62.54.86.72a33.78,33.78,0,0,1,3.44,3.1l.06-.05c.78,1,.76,2.15.24,4-.52,2.33-.9,4.18-1.27,6.07a4.74,4.74,0,0,1-2.65.34,29.46,29.46,0,0,1,.14-3.28c.11-1,.8-4.76,1.09-5.73.17-.8,0-.63-.86-.69a14.32,14.32,0,0,1-2.18-.51c-2.9-.85-6.47-2.55-8-5.37.47-.11.94-.23,1.43-.37a15.93,15.93,0,0,0,3.68-1.61A48,48,0,0,1,128.93,85.58Z" transform="translate(-3.21 -5.68)"/><path class="cls-38" d="M115,88.91a32.05,32.05,0,0,1-1.2-5.58,2.23,2.23,0,0,0,1.12.59c0,.47.58,3.86.59,4.22C115.61,89.77,115,88.91,115,88.91Z" transform="translate(-3.21 -5.68)"/><path class="cls-38" d="M131.49,78.31c.16.72.41,1.35.6,2-.9-.29-1.78-.54-2.61-.76-.06-.2-.13-.4-.19-.6A3.29,3.29,0,0,0,131.49,78.31Z" transform="translate(-3.21 -5.68)"/><path class="cls-38" d="M116.19,89.27c-1.12-1.4-1.1-2.45-1.22-4.07,0-.37,0-.81-.08-1.28a3.83,3.83,0,0,0,2.2-.16c-.07,1-.36,3.13-.47,3.74C117.59,87.82,116.79,89.59,116.19,89.27Z" transform="translate(-3.21 -5.68)"/><path class="cls-38" d="M121.26,61.41a2.83,2.83,0,0,0,2.47-.3c.87,2-3,3.68-5.29,2.19l-.21-.09.79-.57c0-.83,0-1.63-.06-2.44,0,0,0,0,0-.05A5.34,5.34,0,0,0,121.26,61.41Z" transform="translate(-3.21 -5.68)"/><path class="cls-38" d="M117.6,57.94a1.15,1.15,0,0,1,.25-.34c.58-.5,1.41-.16,1.49-.53a2,2,0,0,0,1.28.11h0a4.6,4.6,0,0,0,.61,4.24A5.34,5.34,0,0,1,119,60.15s0,0,0,.05h-.11a1,1,0,0,1-.74-.18,1.67,1.67,0,0,1-.67-1.26A1.55,1.55,0,0,1,117.6,57.94Z" transform="translate(-3.21 -5.68)"/><path class="cls-38" d="M124.78,59.88a3.69,3.69,0,0,1-1,1.23,2.83,2.83,0,0,1-2.47.3,4.6,4.6,0,0,1-.61-4.24,13.5,13.5,0,0,0,4.17-1.33A4.72,4.72,0,0,1,124.78,59.88Z" transform="translate(-3.21 -5.68)"/><path class="cls-41" d="M117,57.35l.59.59a1.55,1.55,0,0,0-.16.82A6,6,0,0,1,116,57.68a4,4,0,0,1,.79-.67h0A2.33,2.33,0,0,0,117,57.35Z" transform="translate(-3.21 -5.68)"/><path class="cls-42" d="M118.26,63.18a19.39,19.39,0,0,0-2.42,2.25c.08-.08,0-.42-.1-.5-1.26-2.09-1.49-5.37.22-7.25a6,6,0,0,0,1.48,1.08,1.67,1.67,0,0,0,.67,1.26,20.66,20.66,0,0,1,.34,3Z" transform="translate(-3.21 -5.68)"/><path class="cls-43" d="M118.1,54.58c.24,1.12.47,2.12,1.24,2.49-.08.37.85,1.32,0,2.17.15-1.68-.92-2.14-1.5-1.64a1.15,1.15,0,0,0-.25.34l-.59-.59a2.33,2.33,0,0,1-.23-.35c-1.14-2,.08-4.34,1.91-5.45a4.36,4.36,0,0,1,2.17-.59A4.34,4.34,0,0,0,118,54.57Z" transform="translate(-3.21 -5.68)"/><path class="cls-44" d="M124.82,55.84a13.5,13.5,0,0,1-4.17,1.33h0a2,2,0,0,1-1.28-.11c-.77-.37-1-1.37-1.24-2.49H118A4.34,4.34,0,0,1,120.86,51a4.55,4.55,0,0,1,4.79,4.2l-.33.34A4.85,4.85,0,0,1,124.82,55.84Z" transform="translate(-3.21 -5.68)"/><path class="cls-38" d="M114.57,89.25a1.54,1.54,0,1,0,.94-2A1.54,1.54,0,0,0,114.57,89.25Z" transform="translate(-3.21 -5.68)"/><path class="cls-45" d="M120.24,61a4.91,4.91,0,0,1-1.29-.86s0,0,0,.05c0,.81.05,1.61.06,2.44l-.79.57.21.09a3.56,3.56,0,0,0,1.87.54A5.77,5.77,0,0,1,120.24,61Z" transform="translate(-3.21 -5.68)"/></g></g><g id="Layer_47_copy" data-name="Layer 47 copy"><path class="cls-46" d="M146.73,117.91s-.09,1.92-.11,2.09-.83.58-2,.34a12.3,12.3,0,0,1-4.1-1.92c-.58-.57,1.26-.45,2.39-.34a8.55,8.55,0,0,0,2.31-.17Z" transform="translate(-3.21 -5.68)"/><path class="cls-47" d="M148.87,89.27s-1.06,7.64-1.37,10.1-.78,15.76-.77,18.54c0,1.73-1.23.89-1.7.58s-2.46-17.1-2.46-21.5-.31-13-.31-13Z" transform="translate(-3.21 -5.68)"/><path class="cls-38" d="M126.55,65.47a1.54,1.54,0,1,0,.94-2A1.54,1.54,0,0,0,126.55,65.47Z" transform="translate(-3.21 -5.68)"/><path class="cls-38" d="M137,57.08a4.67,4.67,0,1,0,4.66-4.66A4.66,4.66,0,0,0,137,57.08Z" transform="translate(-3.21 -5.68)"/><path class="cls-46" d="M139.73,119.91s-.09,1.92-.11,2.09-.83.58-2,.34-4.51-1.34-5.1-1.92,1.26-.45,2.39-.34a21.73,21.73,0,0,0,3.31-.17Z" transform="translate(-3.21 -5.68)"/><path class="cls-47" d="M149,84.35l-5.13,4.23s-3,10.33-3.32,12.79-.78,15.76-.77,18.54c0,1.73-1.23.89-1.7.58s-2.46-17.1-2.46-21.5,1.94-19.75,1.94-19.75l10.86.05Z" transform="translate(-3.21 -5.68)"/><ellipse class="cls-47" cx="143.79" cy="79.14" rx="2.89" ry="6.19"/><path class="cls-38" d="M128.77,65.64s4.22,8.73,4.61,10.28c.29,1.18-1.91,2.86-2.78,1.94S127.44,66,127.44,66Z" transform="translate(-3.21 -5.68)"/><path class="cls-48" d="M138.16,74c.77-3.73-.74-7.44.11-8.14a25.92,25.92,0,0,1,6.49-3.44s3.73-1.77,5.13,0,6.51,9.31,6.41,11.83c-.06,1.37-.62,3.7-.87,5.71-.62.36-1.63,1-2.59.55,0-2.31-.1-5-.18-5.32-.16-.62-3.67-7.46-3.67-7.46a48.51,48.51,0,0,1-1.55,5.13c-.62,1.39,4.4,8.4,2.81,22.72-.12,1.13-3.23,1.41-5.56,1.57s-9.44-1.63-9.44-1.63S137.43,77.5,138.16,74Z" transform="translate(-3.21 -5.68)"/><path class="cls-49" d="M137,67.25c.7-.47,1.89-.42,2.73-.9.7.27.19,1.43.19,1.43s-1.46,5.34-.27,9.83c.27,1-.66,18,.41,18.94-2-.37-4.76-1-4.76-1s2.16-19.36,2.67-21.35C138.89,70.33,135.91,68,137,67.25Z" transform="translate(-3.21 -5.68)"/><path class="cls-38" d="M144.68,58.26l.7,5h0a3,3,0,0,1-2.85,1.79L142,65l-1.12-5.26Z" transform="translate(-3.21 -5.68)"/><path class="cls-48" d="M127.44,66.86a2.76,2.76,0,0,0,1.69-.73s3,7.2,3.2,6.92a20.34,20.34,0,0,0,3.09-4.29c1.77-3.23,3.87-3.45,3.87-3.45,3.58.39,2.89,2.63,2.29,4.35a3.69,3.69,0,0,1-1.79,2.09,5.17,5.17,0,0,0-1.42,1c-2.18,2.32-5.62,5.51-7.31,5.51-.64,0-1.19-1.59-1.43-2.48C129,73.39,127.44,66.86,127.44,66.86Z" transform="translate(-3.21 -5.68)"/><path class="cls-50" d="M138.53,58.43a1,1,0,0,1,1.53-.78,1.28,1.28,0,0,1,.35,1.39,3.77,3.77,0,0,1-.8,1.29,22.64,22.64,0,0,0,4.91,2.48l2.17-3.13a5.22,5.22,0,0,0,.8-1.51,6,6,0,0,0-1-4.48,6.36,6.36,0,0,0-4.62-2.17,5.35,5.35,0,0,0-4,2C136.62,54.94,138,56.87,138.53,58.43Z" transform="translate(-3.21 -5.68)"/><path class="cls-50" d="M148.77,64.41c-.27,1-1.09,1.78-1.11,2.79a8.09,8.09,0,0,0,.22,1.38,3.38,3.38,0,1,1-6.72.6,2.53,2.53,0,0,0-.13-1.1c-.17-.36-.53-.58-.78-.88-1-1.16,0-2.92-.26-4.4-.1-.56-.68-1.4-.6-2,.12-1,1.37-1,1.78-1.81.64-1.24-.07-2.25.07-3.53a2.53,2.53,0,0,1,3.4-2.26A5.26,5.26,0,0,1,148,56.87a35.69,35.69,0,0,1,.29,3.59C148.46,61.76,149.14,63.07,148.77,64.41Z" transform="translate(-3.21 -5.68)"/><path class="cls-38" d="M156.22,75.24s-1.29,9.55-1.68,11c.2-.94-1.88-.82-1.88-.82V75.17a5.48,5.48,0,0,0,1.69.33A3.73,3.73,0,0,0,156.22,75.24Z" transform="translate(-3.21 -5.68)"/><path class="cls-38" d="M151.84,86.28a1.49,1.49,0,1,0,1.49-1.49A1.48,1.48,0,0,0,151.84,86.28Z" transform="translate(-3.21 -5.68)"/><path class="cls-51" d="M66.57,112.11a8.78,8.78,0,0,0-.68,2.67,1.75,1.75,0,0,0,.52,1.35,21.94,21.94,0,0,0,2.4.53c.55,0,2.37,1.47,3.69,1.56s3,.5,3.2-.55-6.52-5.19-6.52-5.19Z" transform="translate(-3.21 -5.68)"/><path class="cls-52" d="M74.2,56.79l1.4,1.57s3.65,13.25,3.54,14.37-1.57,1.35-2.47,1-3.37-8.53-3.37-8.53Z" transform="translate(-3.21 -5.68)"/><path class="cls-51" d="M66.85,108.91l-.27,3.61s-.08.85,1.08.91a1.52,1.52,0,0,0,1.52-1l.82-5.39Z" transform="translate(-3.21 -5.68)"/><path class="cls-51" d="M59,112.14l-.67,3.24s.2,1.14,1.25,1,1.35-1.57,1.35-1.57l.63-3.44Z" transform="translate(-3.21 -5.68)"/><path class="cls-51" d="M58.44,114.86s.1.93.94.88a2.69,2.69,0,0,0,1.56-.94l-.21,3.34s-.47,5-1.93,5.53-1.74-1.53-1.77-2.24A14.7,14.7,0,0,1,58.44,114.86Z" transform="translate(-3.21 -5.68)"/><path class="cls-53" d="M61.22,77.55s.27,5.23.55,6.2-.55,13.79-.55,13.79-2.61,14-2.47,14.8,2.48.41,3-.41S65.49,99.74,66,96.16,68.25,84.3,68.25,84.3s.14,10.07.14,10.89-1.72,15.24-1.72,15.24.06.45,1.45.65a1.7,1.7,0,0,0,1.59-.63,10.35,10.35,0,0,0,1-3.68l3.72-18.88L75,74.09l-2.17-.82Z" transform="translate(-3.21 -5.68)"/><path class="cls-53" d="M66.47,57.21s4.58-1.48,6.45-1a3.38,3.38,0,0,1,2.66,2.35c.16.63-.62,15.8-.62,15.8s-8.14,6.73-11.58,5c-2.48-1.25-2.68-2.65-2.6-3.34a8.65,8.65,0,0,0,.07-1.25l1.73-16Z" transform="translate(-3.21 -5.68)"/><path class="cls-52" d="M74.16,68.61l-9.49,1.9-2-10L62.47,60l-2.06,1.42.44,13.4A8.65,8.65,0,0,1,60.78,76c-.07.57.06,1.65,1.56,2.71,3.15-1.62,9.5-5.11,12-7.71A1.41,1.41,0,0,0,74.16,68.61Z" transform="translate(-3.21 -5.68)"/><path class="cls-54" d="M67.81,57.2s-1,.36-1.14.75.54.8,2,1.61a7.74,7.74,0,0,0,1.4.61,4.67,4.67,0,0,0,.72-1.93C70.85,55.7,67.81,57.2,67.81,57.2Z" transform="translate(-3.21 -5.68)"/><path class="cls-55" d="M74.85,51.29a4.56,4.56,0,1,1-4.75-4.37A4.56,4.56,0,0,1,74.85,51.29Z" transform="translate(-3.21 -5.68)"/><path class="cls-55" d="M70.89,55.54l-.13,2.7h0a2.94,2.94,0,0,1-3.28.33h0a.71.71,0,0,1-.35-.81l.68-3.49Z" transform="translate(-3.21 -5.68)"/><path class="cls-56" d="M74,50.26a1.22,1.22,0,0,0,.57-.42,0,0,0,0,0,0,0,4.55,4.55,0,0,0-8.79,1.87,2.88,2.88,0,0,0,.07.59,1.38,1.38,0,0,0,.61,0c.45-.13,1.65-1.28,1.28-1.81l.54.79a1.13,1.13,0,0,0,.32-1A6.78,6.78,0,0,0,74,50.26Z" transform="translate(-3.21 -5.68)"/><path class="cls-52" d="M75.51,73.23s-.91-2-.09-3h0c.82-.94,1.72-1.62,3.07-.45,0,0,2.64,3.76,1.82,4.7h0C79.49,75.45,76.85,74.4,75.51,73.23Z" transform="translate(-3.21 -5.68)"/><path class="cls-55" d="M67.69,51.74a1.39,1.39,0,1,1-1.44-1.33A1.38,1.38,0,0,1,67.69,51.74Z" transform="translate(-3.21 -5.68)"/><path class="cls-55" d="M81,73.42a1.69,1.69,0,1,1-1.69-1.68A1.69,1.69,0,0,1,81,73.42Z" transform="translate(-3.21 -5.68)"/><polygon class="cls-53" points="65.94 52.47 65.26 54.11 63.43 54.27 62.46 52.47 63.86 50.94 64.23 50.84 64.13 51.26 65.94 52.47"/><polygon class="cls-52" points="66.8 54.55 65.31 53.95 65.94 52.47 66.8 54.55"/><circle class="cls-57" cx="64.94" cy="52.85" r="0.49"/><polygon class="cls-52" points="67.58 51.74 66.8 54.55 68.03 53.27 67.58 51.74"/><path class="cls-58" d="M74.89,75.9l-.07,2.24s-8.74,3.74-12.15,2.73c-2-.58-2-2-1.93-2.48,0-.3,0-1.92,0-2.1a4.07,4.07,0,0,0,3,2.64C66.21,79.27,74.89,75.9,74.89,75.9Z" transform="translate(-3.21 -5.68)"/><path class="cls-58" d="M74.23,76.33l.62-.11s-5.06-12.57-9.19-16.86a4.31,4.31,0,0,0-1.81-1.08,6,6,0,0,0-1.27.52,8.34,8.34,0,0,1,3.84,2.81C69.08,64.75,74.23,76.33,74.23,76.33Z" transform="translate(-3.21 -5.68)"/><path class="cls-53" d="M63.76,64.71s-.09-5.44-1.18-5.91c0,0-2.48.53-3.27,2.25S58.73,64.31,58,67c-.49,1.77-1.65,5.71-1.41,7.2s1.8,2.26,5.47.78,12.83-5.09,12.83-5.09l-.08-1.64L62.83,70Z" transform="translate(-3.21 -5.68)"/><path class="cls-55" d="M77.68,68.8A1.69,1.69,0,1,1,76,67.11,1.68,1.68,0,0,1,77.68,68.8Z" transform="translate(-3.21 -5.68)"/><path class="cls-55" d="M78.7,70.31l-1.21-1.86a.47.47,0,1,0-.79.52l1.21,1.86a.48.48,0,0,0,.66.13A.46.46,0,0,0,78.7,70.31Z" transform="translate(-3.21 -5.68)"/><path class="cls-59" d="M61,79.64a2.1,2.1,0,0,1-.22-1.25c0-.3,0-1.92,0-2.1a4.5,4.5,0,0,0,1.88,2.28Z" transform="translate(-3.21 -5.68)"/><polygon class="cls-59" points="69.34 66.89 68.6 65.36 69.3 65.11 69.91 66.46 69.34 66.89"/><polygon class="cls-60" points="83.06 61.12 74.66 66.53 71.87 69.35 80.63 64.26 83.06 61.12"/><polygon class="cls-23" points="83.06 61.12 83.2 61.3 80.8 64.5 72.03 69.55 71.87 69.35 80.63 64.26 83.06 61.12"/><polygon class="cls-30" points="82.47 61.62 75.02 66.34 72.42 68.93 80.48 64.21 82.47 61.62"/><polygon class="cls-61" points="56.62 60.75 55.73 59.46 55.81 59.04 56.73 60.35 58.35 59.59 58.27 59.97 56.62 60.75"/><polygon class="cls-61" points="56.78 60.1 55.89 58.81 56.11 57.89 57.02 59.21 58.64 58.44 58.43 59.32 56.78 60.1"/><polygon class="cls-61" points="56.44 61.38 55.55 60.09 55.64 59.67 56.55 60.99 58.17 60.22 58.09 60.6 56.44 61.38"/></g></svg>