<svg xmlns="http://www.w3.org/2000/svg" viewBox="0 0 145.73 145.73"><defs><style>.cls-1{fill:#a7b0ba;}.cls-2,.cls-7{fill:none;stroke-linecap:round;stroke-linejoin:round;}.cls-2{stroke:#dadde0;stroke-width:0.71px;}.cls-3{fill:#dadde0;}.cls-4{fill:#66b657;stroke:#eaeaea;stroke-miterlimit:10;stroke-width:4px;}.cls-5{fill:#be1622;}.cls-6{fill:#d60b52;}.cls-7{stroke:#e5effb;stroke-width:2.83px;}</style></defs><title>G12_11_03</title><g id="Mobile"><path class="cls-1" d="M84.09,87.59c0,.32-.33.21-.38.26-.17.2-.61.2-1.26.13s-1.06.12-1.78,0a19.24,19.24,0,0,0-2.28-.39,23,23,0,0,1-3.15-.1l.25-1.79a16.69,16.69,0,0,0,2.73,0,12.81,12.81,0,0,1,2.62.73c.65.12,1.18-.13,1.66,0s1.07.3,1.25.62C83.8,87.23,84.09,87.34,84.09,87.59Z" transform="translate(-5.64 -3.9)"/><path class="cls-2" d="M75.18,87.61a2.84,2.84,0,0,1,0-1c.15-.85.3-.92.3-.92" transform="translate(-5.64 -3.9)"/><path class="cls-3" d="M75.9,86.26c.91.07,1.81,0,2.73-.06a3.92,3.92,0,0,1,1.36.32c.43.16.83.38,1.27.5a20.36,20.36,0,0,0-2.63-.62A11.38,11.38,0,0,1,75.9,86.26Z" transform="translate(-5.64 -3.9)"/><path class="cls-3" d="M82.84,87.49c-.34,0-.67.09-1,.12a4,4,0,0,1-1,0c-.69-.14-1.32-.36-2-.45a7.29,7.29,0,0,1,2,.25C81.46,87.55,82.15,87.37,82.84,87.49Z" transform="translate(-5.64 -3.9)"/><circle class="cls-4" cx="72.87" cy="72.87" r="70.87"/><path class="cls-5" d="M96,62.91,74.7,123a12.17,12.17,0,0,1-23-8.13L70.33,62.48" transform="translate(-5.64 -3.9)"/><path class="cls-6" d="M96,62.91c0,2.44-6.59,3.81-13.31,3.72S70.55,64.49,70.58,62s5.51-4.35,12.23-4.26S96,60.46,96,62.91Z" transform="translate(-5.64 -3.9)"/><path class="cls-7" d="M107.61,30.14,74.7,123a12.17,12.17,0,0,1-23-8.13L84.67,22" transform="translate(-5.64 -3.9)"/><ellipse class="cls-7" cx="96.18" cy="25.97" rx="4.43" ry="12.17" transform="translate(33.94 104.05) rotate(-70.49)"/></g></svg>