<svg xmlns="http://www.w3.org/2000/svg" xmlns:xlink="http://www.w3.org/1999/xlink" viewBox="0 0 145.73 145.73"><defs><style>.cls-1{isolation:isolate;}.cls-2{fill:#66b657;stroke:#eaeaea;stroke-miterlimit:10;stroke-width:4px;}.cls-3{fill:#26183c;opacity:0.42;mix-blend-mode:multiply;}.cls-4{fill:#a6caea;}.cls-5{fill:#f2f9fc;}.cls-6{fill:#fff;}.cls-7{fill:#eaf6fd;}.cls-8{fill:#36a9e1;}.cls-9{fill:#d3d0db;}.cls-10{fill:#71a5cf;}.cls-11{opacity:0.2;fill:url(#Sfumatura_senza_nome_3);}</style><linearGradient id="Sfumatura_senza_nome_3" x1="-268.94" y1="38.74" x2="-268.94" y2="84.02" gradientTransform="matrix(-1, 0, 0, 1, -189.75, 0)" gradientUnits="userSpaceOnUse"><stop offset="0" stop-color="#fff"/><stop offset="1" stop-opacity="0"/></linearGradient></defs><title>G12_11_04</title><g class="cls-1"><g id="Mobile"><circle class="cls-2" cx="72.87" cy="72.87" r="70.87"/><path class="cls-3" d="M24.75,80.56c-2.82,1.66-2.82,4.37,0,6l27.42,16.14a11.19,11.19,0,0,0,10.26,0L133.9,60.78c2.82-1.66,2.82-4.37,0-6L106.43,38.61a11.24,11.24,0,0,0-10.27,0Z" transform="translate(-5.64 -3.9)"/><path class="cls-4" d="M26.43,79.52c-2.73,1.61-2.73,4.24,0,5.85L53,101a10.88,10.88,0,0,0,10,0l69.27-40.66c2.73-1.61,2.73-4.24,0-5.84L105.59,38.87a10.85,10.85,0,0,0-10,0Z" transform="translate(-5.64 -3.9)"/><polyline class="cls-4" points="18.74 78.54 18.74 74.58 20.56 75.56 21.16 76.84 20.49 78.54"/><polyline class="cls-4" points="128.62 50.08 128.62 53.45 126.3 55.75 125.27 52.07 125.27 50.46"/><path class="cls-5" d="M26.43,76c-2.73,1.6-2.73,4.24,0,5.84L53,97.47a10.85,10.85,0,0,0,10,0l69.27-40.66c2.73-1.6,2.73-4.23,0-5.84L105.59,35.34a10.85,10.85,0,0,0-10,0Z" transform="translate(-5.64 -3.9)"/><path class="cls-6" d="M26.43,76.19c-2.73,1.61-2.73,4.24,0,5.85L53,97.67a10.88,10.88,0,0,0,10,0L132.22,57c2.73-1.61,2.73-4.24,0-5.85L105.59,35.54a10.85,10.85,0,0,0-10,0Z" transform="translate(-5.64 -3.9)"/><path class="cls-7" d="M26.43,76c-2.73,1.6-2.73,4.24,0,5.84L53,97.47a10.85,10.85,0,0,0,10,0l69.27-40.66c2.73-1.6,2.73-4.23,0-5.84L105.59,35.34a10.85,10.85,0,0,0-10,0Z" transform="translate(-5.64 -3.9)"/><polygon class="cls-8" points="90.67 32.87 29.78 68.58 63.28 88.34 124.1 52.53 90.67 32.87"/><path class="cls-6" d="M40.17,84.22c-.05,1.2,2,2.18,4.53,2.18s4.67-1,4.72-2.18S47.45,82,44.9,82,40.23,83,40.17,84.22Z" transform="translate(-5.64 -3.9)"/><path class="cls-9" d="M40.27,84.19c0,1.18,2.07,2.14,4.63,2.14s4.62-1,4.62-2.14S47.45,82,44.9,82,40.27,83,40.27,84.19Z" transform="translate(-5.64 -3.9)"/><path class="cls-5" d="M41.26,84.13c0,.9,1.63,1.63,3.64,1.63s3.63-.73,3.63-1.63S46.9,82.5,44.9,82.5,41.26,83.23,41.26,84.13Z" transform="translate(-5.64 -3.9)"/><path class="cls-6" d="M45,85.64c-2,0-3.64-.73-3.64-1.63a.82.82,0,0,1,.1-.37.83.83,0,0,0-.17.49c0,.9,1.63,1.63,3.64,1.63,1.72,0,3.16-.54,3.53-1.26C48,85.16,46.59,85.64,45,85.64Z" transform="translate(-5.64 -3.9)"/><path class="cls-6" d="M120.35,47.1l0,0h0l-7.55-4.4,0,0a1.93,1.93,0,0,0-.86-.18c-.63,0-1.13.23-1.13.52a.31.31,0,0,0,.12.23l.06.06h0l7.53,4.39,0,0a1.79,1.79,0,0,0,.88.2c.63,0,1.13-.24,1.13-.53A.34.34,0,0,0,120.35,47.1Z" transform="translate(-5.64 -3.9)"/><path class="cls-9" d="M120.46,47l0,0,0,0h0l-7.56-4.4,0,0a1.9,1.9,0,0,0-.86-.18c-.62,0-1.13.23-1.13.52a.35.35,0,0,0,.12.23l.07.06h0l7.54,4.39h0a1.75,1.75,0,0,0,.89.21c.62,0,1.13-.24,1.13-.53A.36.36,0,0,0,120.46,47Z" transform="translate(-5.64 -3.9)"/><polygon class="cls-10" points="28.53 85.1 22.29 81.48 22.29 80.32 28.53 83.94 28.53 85.1"/><path class="cls-10" d="M36,89.35c0,.48-.25.71-.56.52a1.54,1.54,0,0,1-.56-1.22c0-.48.25-.71.56-.52A1.54,1.54,0,0,1,36,89.35Z" transform="translate(-5.64 -3.9)"/><path class="cls-10" d="M52.37,99c0,.48-.25.72-.56.53a1.56,1.56,0,0,1-.56-1.22c0-.48.25-.72.56-.53A1.56,1.56,0,0,1,52.37,99Z" transform="translate(-5.64 -3.9)"/><path class="cls-10" d="M51.08,98.36c0,.48-.25.71-.55.52A1.54,1.54,0,0,1,50,97.66c0-.48.25-.71.56-.52A1.57,1.57,0,0,1,51.08,98.36Z" transform="translate(-5.64 -3.9)"/><path class="cls-11" d="M42.54,76.71,123,52.4,96.31,36.77,35.42,72.48C35.42,72.78,42.54,76.71,42.54,76.71Z" transform="translate(-5.64 -3.9)"/></g></g></svg>