<svg xmlns="http://www.w3.org/2000/svg" viewBox="0 0 614.83 289.98"><defs><style>.cls-1{fill:#d5d5d4;}.cls-2{fill:#9f9f9f;}.cls-3{fill:#b8b8b8;}.cls-4{fill:#5d5d5d;}.cls-5{fill:#dde7d5;}.cls-6{fill:#f1f5ee;}.cls-7{fill:#a6ada0;}.cls-8{fill:#7d8278;}.cls-9{fill:#e3e3e2;}.cls-10{fill:#8a8a8a;}.cls-11{fill:#e5b878;}.cls-12{fill:#ac8a5a;}.cls-13{fill:#71250d;}.cls-14{fill:#36170e;}.cls-15{fill:#3f7ec1;}.cls-16{fill:#2563a3;}.cls-17{fill:#757575;}.cls-18{fill:#fff;}.cls-19{fill:#124780;}.cls-20{fill:#17365d;}.cls-21{fill:#414142;}.cls-22{fill:#19416c;}.cls-23{fill:#e94e1b;}.cls-24{fill:#36a9e1;}.cls-25{fill:#be1622;}.cls-26,.cls-28{fill:none;}.cls-27{fill:#fde1d3;}.cls-28{stroke:#dce7f5;stroke-miterlimit:10;stroke-width:2.83px;}.cls-29{fill:#eb988c;}.cls-30{fill:#f9b233;}.cls-31{fill:#1d1d1b;}.cls-32{fill:#3a3762;}.cls-33{fill:#e38868;}.cls-34{fill:#009fe3;}.cls-35{fill:#ece0d3;}.cls-36{fill:#49488c;}.cls-37{fill:#0782ae;}.cls-38{fill:#f9cdd3;}.cls-39{fill:#ebebeb;}.cls-40{fill:#f39200;}.cls-41{fill:#e06371;}.cls-42{fill:#22253a;}.cls-43{fill:#363a4c;}.cls-44{fill:#f6bbc6;}.cls-45{fill:#353430;}.cls-46{fill:#303b45;}.cls-47{fill:#5b5b5a;}.cls-48{fill:#4d4a81;}.cls-49{fill:#eaeaea;}.cls-50{fill:#323232;opacity:0.3;}.cls-51{fill:#7899b6;}.cls-52{fill:#e52629;}.cls-53{fill:#f9ef83;}.cls-54{fill:#add2e1;}.cls-55{fill:#648098;}.cls-56{fill:#343434;}.cls-57{fill:#b4b4b4;}</style></defs><title>G12_08</title><g id="road"><rect class="cls-1" x="0.25" y="220.89" width="612.07" height="27.29"/><rect class="cls-2" x="0.25" y="240.87" width="612.07" height="7.32"/><rect class="cls-3" x="0.25" y="245.49" width="612.07" height="44.49"/></g><g id="Houses"><rect class="cls-1" x="4.68" y="23.76" width="150.7" height="186.49"/><rect class="cls-1" width="160.05" height="11.88"/><rect class="cls-2" x="10.33" y="11.88" width="139.39" height="11.88"/><rect class="cls-2" x="4.68" y="210.25" width="150.7" height="11.88"/><rect class="cls-4" x="17.54" y="151.68" width="21.14" height="41.15"/><rect class="cls-4" x="121.21" y="151.68" width="21.13" height="41.15"/><rect class="cls-4" x="58.56" y="151.68" width="42.92" height="58.57"/><rect class="cls-5" x="85.07" y="169.59" width="1.64" height="4.6"/><rect class="cls-5" x="73.33" y="169.59" width="1.65" height="4.6"/><polygon class="cls-2" points="96.84 151.68 96.84 157.38 81.11 157.38 81.11 151.68 78.95 151.68 78.95 157.38 63.22 157.38 63.22 151.68 61.06 151.68 61.06 210.25 63.22 210.25 63.22 159.54 78.95 159.54 78.95 210.25 81.11 210.25 81.11 159.54 96.84 159.54 96.84 210.25 99 210.25 99 151.68 96.84 151.68"/><rect class="cls-6" x="58.56" y="210.25" width="42.92" height="5.94"/><rect class="cls-5" x="58.56" y="216.19" width="42.92" height="5.94"/><rect class="cls-4" x="22.55" y="42.93" width="21.14" height="41.15"/><rect class="cls-7" x="20.12" y="75.16" width="13" height="8.92"/><rect class="cls-8" x="33.11" y="75.16" width="13" height="8.92"/><rect class="cls-4" x="116.2" y="42.93" width="21.13" height="41.15"/><rect class="cls-8" x="126.77" y="75.16" width="13" height="8.92"/><rect class="cls-7" x="113.77" y="75.16" width="13" height="8.92"/><rect class="cls-4" x="61.88" y="54.43" width="36.29" height="13.03"/><path class="cls-2" d="M51.27,74.85V96H91.7V74.85ZM89.63,92H53.34v-13H89.63Z" transform="translate(8.54 -24.49)"/><rect class="cls-4" x="22.55" y="102.97" width="21.14" height="41.15"/><rect class="cls-7" x="20.12" y="135.19" width="13" height="8.92"/><rect class="cls-8" x="33.11" y="135.19" width="13" height="8.92"/><rect class="cls-4" x="116.2" y="102.97" width="21.13" height="41.15"/><rect class="cls-8" x="126.77" y="135.19" width="13" height="8.92"/><rect class="cls-7" x="113.77" y="135.19" width="13" height="8.92"/><rect class="cls-4" x="61.88" y="114.47" width="36.29" height="13.03"/><path class="cls-2" d="M51.27,134.89v21.17H91.7V134.89ZM89.63,152H53.34V139H89.63Z" transform="translate(8.54 -24.49)"/><polygon class="cls-3" points="407.82 53.17 387.9 49.29 387.9 16.27 407.82 16.27 407.82 53.17"/><rect class="cls-9" x="385.37" y="16.27" width="24.98" height="12.46"/><polygon class="cls-10" points="407.82 28.74 387.9 28.74 393.05 33.89 407.82 33.89 407.82 28.74"/><polygon class="cls-11" points="368.71 70.63 368.71 222.1 509.21 222.1 509.21 70.59 438.96 34.72 368.71 70.63"/><polygon class="cls-12" points="438.96 28.68 368.71 64.69 368.71 70.63 438.96 34.72 509.21 70.59 509.21 64.65 438.96 28.68"/><rect class="cls-13" x="368.72" y="203.22" width="140.5" height="18.88"/><polygon class="cls-12" points="461.77 158.31 429.86 158.31 429.86 203.22 506.68 203.22 461.77 158.31"/><polygon class="cls-14" points="425.15 203.22 425.15 222.1 509.21 222.13 509.21 203.22 425.15 203.22"/><polygon class="cls-15" points="438.96 21.75 363.82 61.55 363.82 68.83 438.96 29.03 438.96 21.76 438.96 21.75"/><polygon class="cls-16" points="438.96 21.76 438.96 29.03 514.11 68.83 514.11 61.55 438.96 21.76"/><rect class="cls-17" x="390.74" y="115.35" width="15.33" height="25.66"/><path class="cls-18" d="M379.56,137.74v30.4h20.61v-30.4Zm2.64,27.76V140.38h6.34V165.5Zm15.33,0h-6.35V140.38h6.35Z" transform="translate(8.54 -24.49)"/><rect class="cls-17" x="431.3" y="115.35" width="15.33" height="25.66"/><path class="cls-18" d="M420.12,137.74v30.4h20.61v-30.4Zm2.64,27.76V140.38h6.34V165.5Zm15.33,0h-6.35V140.38h6.35Z" transform="translate(8.54 -24.49)"/><rect class="cls-17" x="471.71" y="115.35" width="15.33" height="25.66"/><path class="cls-18" d="M460.53,137.74v30.4h20.61v-30.4Zm2.64,27.76V140.38h6.34V165.5Zm15.33,0h-6.35V140.38h6.35Z" transform="translate(8.54 -24.49)"/><rect class="cls-17" x="431.3" y="58.47" width="15.33" height="26.12"/><path class="cls-18" d="M420.12,81.33v30.4h20.61V81.33Zm2.64,27.76V84h6.34v25.12Zm15.33,0h-6.35V84h6.35Z" transform="translate(8.54 -24.49)"/><polygon class="cls-12" points="451.78 79.16 426.12 79.16 426.12 87.24 432.49 93.61 461.12 93.61 461.12 88.5 451.78 79.16"/><rect class="cls-3" x="426.12" y="79.16" width="25.66" height="8.08"/><rect class="cls-9" x="416.22" y="158.31" width="45.55" height="6.02"/><rect class="cls-19" x="420.95" y="164.33" width="4.2" height="57.78"/><rect class="cls-20" x="452.86" y="164.33" width="4.19" height="57.78"/><rect class="cls-21" x="427.44" y="164.33" width="23.12" height="57.78"/><rect class="cls-12" x="509.21" y="150.79" width="101.42" height="71.32"/><rect class="cls-15" x="509.21" y="144.8" width="105.62" height="5.98"/><rect class="cls-16" x="509.21" y="111.16" width="105.62" height="33.65"/><rect class="cls-14" x="509.21" y="203.22" width="101.42" height="18.88"/><rect class="cls-19" x="530.41" y="173.74" width="59.03" height="48.37"/><polygon class="cls-20" points="589.44 171.37 534.31 171.37 530.41 171.37 530.41 175.27 530.41 222.13 534.31 222.13 534.31 175.27 589.44 175.27 589.44 171.37"/><rect class="cls-22" x="530.41" y="179.17" width="3.9" height="3.9"/><rect class="cls-16" x="534.31" y="179.17" width="55.13" height="3.9"/><rect class="cls-22" x="530.41" y="186.98" width="3.9" height="3.9"/><rect class="cls-16" x="534.31" y="186.98" width="55.13" height="3.9"/><rect class="cls-22" x="530.41" y="194.79" width="3.9" height="3.9"/><rect class="cls-16" x="534.31" y="194.79" width="55.13" height="3.9"/><rect class="cls-16" x="534.31" y="202.59" width="55.13" height="3.9"/><rect class="cls-22" x="530.41" y="202.59" width="3.9" height="3.9"/><rect class="cls-16" x="534.31" y="210.4" width="55.13" height="3.9"/><rect class="cls-22" x="530.41" y="210.4" width="3.9" height="3.9"/><rect class="cls-16" x="534.31" y="218.2" width="55.13" height="3.9"/><rect class="cls-22" x="530.41" y="218.2" width="3.9" height="3.9"/><rect class="cls-17" x="390.74" y="165.38" width="15.33" height="25.66"/><path class="cls-18" d="M379.56,187.77v30.4h20.61v-30.4Zm2.64,27.76V190.41h6.34v25.12Zm15.33,0h-6.35V190.41h6.35Z" transform="translate(8.54 -24.49)"/><rect class="cls-17" x="471.71" y="165.38" width="15.33" height="25.66"/><path class="cls-18" d="M460.53,187.77v30.4h20.61v-30.4Zm2.64,27.76V190.41h6.34v25.12Zm15.33,0h-6.35V190.41h6.35Z" transform="translate(8.54 -24.49)"/><polygon class="cls-23" points="369.45 222.13 155.38 220.8 155.38 49.66 369.04 49.66 369.45 222.13"/><path class="cls-24" d="M275.07,246.34V196.93a13,13,0,0,0-13-13H236.14a13,13,0,0,0-13,13v49.41" transform="translate(8.54 -24.49)"/><polygon class="cls-25" points="369.04 145.42 155.38 145.42 155.38 93.36 369.58 93.36 369.04 145.42"/><rect class="cls-26" x="253.33" y="93.36" width="15.14" height="52.06"/><rect class="cls-26" x="353.91" y="93.36" width="15.14" height="52.06"/><rect class="cls-26" x="286.85" y="93.36" width="15.14" height="52.06"/><rect class="cls-26" x="320.38" y="93.36" width="15.14" height="52.06"/><rect class="cls-26" x="219.8" y="93.36" width="15.14" height="52.06"/><rect class="cls-26" x="186.28" y="93.36" width="15.14" height="52.06"/><rect class="cls-27" x="167.89" y="93.36" width="18.38" height="52.06"/><rect class="cls-27" x="201.42" y="93.36" width="18.39" height="52.06"/><rect class="cls-27" x="234.94" y="93.36" width="18.38" height="52.06"/><rect class="cls-27" x="268.47" y="93.36" width="18.39" height="52.06"/><rect class="cls-27" x="301.99" y="93.36" width="18.39" height="52.06"/><rect class="cls-27" x="335.52" y="93.36" width="18.39" height="52.06"/><line class="cls-28" x1="258.29" y1="159.44" x2="258.29" y2="222.13"/><circle class="cls-25" cx="161.64" cy="145.42" r="6.26"/><circle class="cls-25" cx="193.85" cy="145.42" r="7.57"/><circle class="cls-25" cx="227.37" cy="145.42" r="7.57"/><circle class="cls-25" cx="260.9" cy="145.42" r="7.57"/><circle class="cls-25" cx="294.42" cy="145.42" r="7.57"/><circle class="cls-25" cx="327.95" cy="145.42" r="7.57"/><circle class="cls-25" cx="361.47" cy="145.42" r="7.57"/><circle class="cls-27" cx="177.09" cy="145.42" r="9.19"/><circle class="cls-27" cx="210.61" cy="145.42" r="9.19"/><circle class="cls-27" cx="244.14" cy="145.42" r="9.19"/><circle class="cls-27" cx="277.66" cy="145.42" r="9.19"/><circle class="cls-27" cx="311.18" cy="145.42" r="9.19"/><circle class="cls-27" cx="344.71" cy="145.42" r="9.19"/><rect class="cls-29" x="155.38" y="39.35" width="218.67" height="11.88"/><path class="cls-30" d="M235,138.46l7.49-8.22-12.68-.79,5.16-9.72-14.13,2.46.79-8.94-10.26,4.31,0-12.56-12.59,8.88-5.45-11.21-9,9.44-12-10.35-2.54,10.86L155,105.37l3.32,9.4L143.2,111.1l4.31,7.63-12.06-1.23,4.1,6.11L128.48,123l4.46,7.88-10.58,2.77,8,5.69-11.4,5.41,13,2.62-12.27,9.32L138.3,156l-2.81,8.32L147,162.17l-3.3,11.27,13.48-6.78-.12,11.13,10.24-8.38,5,14.37,9.37-12.63,4.43,8.9,5.15-9,7,6.69s1.68-8,2-7.7l26.18,16.74-16.19-19.1,13.16,4.13-5.28-7.19L234,166.51l-7.23-7.18,15-1.62L234,150.55l16.8-6.09Z" transform="translate(8.54 -24.49)"/><path class="cls-18" d="M209.94,141.78c-.73.11-.91.84-.56,2.19-.81-.16-1.23.13-1.25.87.42,1.63,1.29,1.79,2.62.5l2,.45.28,0,.16-1.09a9.18,9.18,0,0,1-3-2.66Z" transform="translate(8.54 -24.49)"/><path class="cls-18" d="M212.18,149.62a2,2,0,0,0-1.77-1.37,1.5,1.5,0,0,0-1.65.49c0,.62.41,1,1.18,1.29l.6.31-.31,1.73.68.5c.57-.15.92-.68,1.06-1.59l5.85-3.4-2.15-.43Z" transform="translate(8.54 -24.49)"/><path class="cls-18" d="M210.44,136.79l0,.27c-.4,2.65.89,4.7,3.85,6.16l-.06,2.22,1.14.18a5.92,5.92,0,0,1,.25-1.92l.81.11a3.31,3.31,0,0,1-.25,1.87l1.71.2.17-1.75.56.07.19,2,.9.08h.52l-.11-2.81a7.41,7.41,0,0,0,4.21-5.76l.05-.26c.29-2-1.49-3.42-5.36-4.23Q213.19,132.71,210.44,136.79Z" transform="translate(8.54 -24.49)"/><path class="cls-18" d="M224.16,147.87l-3.47-.91-.33.23-.09.56q4.57,1.44,4.08,2.34l.15,1.34c.65.61,1.31.53,2-.25-.57-1.19-.67-1.93-.31-2.21,0-.28.6-.78,1.69-1.5-.1-.63-.57-1-1.43-1.06A2.37,2.37,0,0,0,224.16,147.87Z" transform="translate(8.54 -24.49)"/><path class="cls-18" d="M224.46,142.22a8.93,8.93,0,0,1-2.76,3.5l1.33.49a5.39,5.39,0,0,1,2.69-1.39l1.16.06c.52-.55.1-.92-1.26-1.1C226.08,142.22,225.69,141.7,224.46,142.22Z" transform="translate(8.54 -24.49)"/><path class="cls-31" d="M143.21,142.7c-1-.68-1.4-2-1.29-3.86s2.06-3.3,5.85-4.22l.34-2.16,1.75-.19-.47,2.35,1.15.22.38-2.32,1.62-.15-.54,2.68q3.66,1.5,3.66,3.06a1.83,1.83,0,0,1-.51,1.18c-1.07.56-2.34.06-3.79-1.49l-.65,3.84a8.13,8.13,0,0,1,3,1.34q1.46,1,1.29,3.87t-5.87,4.2l-.3,2-1.77.2.47-2.25-1.15-.21-.38,2.21-1.61.14.53-2.57q-3.66-1.49-3.66-3a1.79,1.79,0,0,1,.51-1.18c1.06-.56,2.32-.07,3.77,1.49l.67-3.85A7.81,7.81,0,0,1,143.21,142.7Zm1.7-4.4c0,.9.6,1.48,1.8,1.72l.66-3.13Q145.17,136.71,144.91,138.3ZM148,148.61l.65-3.71-1.07-.36-.78,3.9Zm.8-11.53-.63,3.71,1.06.35.78-3.9Zm3.12,10.3c0-.9-.59-1.47-1.78-1.72l-.66,3.14C151,148.92,151.78,148.44,152,147.38Z" transform="translate(8.54 -24.49)"/><path class="cls-31" d="M161.56,133.88q1.37,1.81,4.48,5.72,2.85-3.3,4.83-5.7a9.4,9.4,0,0,1,3.88,2.74q-2.24,2.55-5.56,6c2.82,2.57,4.84,4.39,6.08,5.48a10.52,10.52,0,0,1-3.81,3.92,76.45,76.45,0,0,1-5.42-6.36q-3.22,3.87-5.65,6.43a13.62,13.62,0,0,1-3.68-3.52,55.66,55.66,0,0,0,5.93-5.72c-2.63-2.51-4.45-4.34-5.46-5.51A13.63,13.63,0,0,1,161.56,133.88Z" transform="translate(8.54 -24.49)"/><path class="cls-31" d="M182.87,133.61a11.64,11.64,0,0,1,3.46-.61,5,5,0,0,1,2.73.71c.49,1,.19,1.64-.91,1.84a5.48,5.48,0,0,0-4.28.25c-3.53,1.78-4.88,4.74-4.05,8.91q2.09,4.66,8.21,3.63,4.07-1.58,3.05-6.33-1.54-3.76-5.52-2.72a2.94,2.94,0,0,0-1.85,3.84,2.15,2.15,0,0,0,2.56,1.81,1,1,0,0,0,.79-1.38c-.4-.43-.76-.54-1.07-.31-.78.13-1.14-.22-1.09-1,0-.62.5-1.12,1.45-1.5a2.46,2.46,0,0,1,3.1,1.69q1.08,2.81-2.55,4.59-4.64.65-5.73-3.09-1-4.92,3.7-6.8,6-1.58,8.57,4.08a10.15,10.15,0,0,1,.39,2.68q0,4.53-5.19,6.84a14.32,14.32,0,0,1-3.14.37,8.64,8.64,0,0,1-8-5,14.59,14.59,0,0,1-.54-3.77Q176.92,136.56,182.87,133.61Z" transform="translate(8.54 -24.49)"/><path class="cls-31" d="M199.21,130.63c1.21,1,1.87,2.57,2,4.83l2.92-.54a2,2,0,0,1,1.06,1.89,4,4,0,0,1-.16,1.08l-2.66.75a30.89,30.89,0,0,1,2.69,8.54q-.72,5.32-2.5,7.14h-.27l-3.41-14.69-2.93.85a3.19,3.19,0,0,1-1-2.22,3.14,3.14,0,0,1,.07-.68l2.55-1.21-1.16-4.49v-.26C196.61,131,197.55,130.63,199.21,130.63Zm.5,8.72,3,13a11,11,0,0,0,1.34-5,21.44,21.44,0,0,0-2.63-8.46Z" transform="translate(8.54 -24.49)"/><path class="cls-31" d="M220.05,132.32l.27.05c3.74,1.24,5.47,2.81,5.2,4.69l-.3,1.9-.84,1.84,1.39.2c.31.05.68.67,1.11,1.85,1.07.34,1.58.7,1.52,1.07a1,1,0,0,1-.51,1.59c.78.49,1.18.92,1.2,1.3l-.09.56a2.9,2.9,0,0,1-1.78,2.28l.64,1.72c-.07.5-.8,1-2.2,1.64l-1.93-.28-1-2.39-3.75-2-5.76,3.49-.32.69c-.09.53-.53.93-1.31,1.2l-1.9-.28c-.53-.26-.73-.85-.59-1.76l.37-.5c-1.1-.16-1.63-1-1.61-2.46l.09-.56c.07-.45.47-.67,1.21-.66l0-.27c-1.33-.19-2.12-1.15-2.37-2.87.32-.88.75-1.28,1.3-1.21-.32-1.7.18-2.56,1.5-2.57l.08-.55-.49-2.31q.62-4.16,5.81-5.28a24.67,24.67,0,0,1,3.14-.22A15.87,15.87,0,0,1,220.05,132.32Zm-10.11,9.46c-.73.11-.91.84-.56,2.19-.81-.16-1.23.13-1.25.87.42,1.63,1.29,1.79,2.62.5l2,.45.28,0,.16-1.09a9.18,9.18,0,0,1-3-2.66Zm2.24,7.84a2,2,0,0,0-1.77-1.37,1.5,1.5,0,0,0-1.65.49c0,.62.41,1,1.18,1.29l.6.31-.31,1.73.68.5c.57-.15.92-.68,1.06-1.59l5.85-3.4-2.15-.43Zm-1.74-12.83,0,.27c-.4,2.65.89,4.7,3.85,6.16l-.06,2.22,1.14.18a5.92,5.92,0,0,1,.25-1.92l.81.11a3.31,3.31,0,0,1-.25,1.87l1.71.2.17-1.75.56.07.19,2,.9.08h.52l-.11-2.81a7.41,7.41,0,0,0,4.21-5.76l.05-.26c.29-2-1.49-3.42-5.36-4.23Q213.19,132.71,210.44,136.79ZM212,147.08l0,.28.47.63.31-.24.07-.56ZM216.71,136l.24.31,0,.27c-.64,2.64-1.41,4-2.29,4.13a4,4,0,0,1-1.43-3.56A3.89,3.89,0,0,1,216.71,136Zm.21,4.23.56.07.22,1.75-1.33.21Zm2.15-4.51.25.05a3,3,0,0,1,2.32,1.88l-.13,1a2.9,2.9,0,0,1-1.62,2l-.51-.07q-.49-.12-1.17-2.73l.27-1.75Zm5.09,12.12-3.47-.91-.33.23-.09.56q4.57,1.44,4.08,2.34l.15,1.34c.65.61,1.31.53,2-.25-.57-1.19-.67-1.93-.31-2.21,0-.28.6-.78,1.69-1.5-.1-.63-.57-1-1.43-1.06A2.37,2.37,0,0,0,224.16,147.87Zm.3-5.65a8.93,8.93,0,0,1-2.76,3.5l1.33.49a5.39,5.39,0,0,1,2.69-1.39l1.16.06c.52-.55.1-.92-1.26-1.1C226.08,142.22,225.69,141.7,224.46,142.22Z" transform="translate(8.54 -24.49)"/><path class="cls-18" d="M199.71,139.35l3,13a11,11,0,0,0,1.34-5,21.44,21.44,0,0,0-2.63-8.46Z" transform="translate(8.54 -24.49)"/></g><g id="Marine"><path class="cls-32" d="M366.52,201.62c-2.56-.94-4.54-3.09-4.32-5.87a7.14,7.14,0,0,1,4-6,6.62,6.62,0,0,1,2.62-.65c3.83-.08,5.84,4.27,6.25,7.56.21,1.74-1.14,2.52-2.38,3.45C370.87,201.49,368.79,202.45,366.52,201.62Z" transform="translate(8.54 -24.49)"/><path class="cls-33" d="M367.88,201.33l-1.28-2.79a3.82,3.82,0,0,1-1.53-.35c-1.46-.85-1.8-2.7-1.42-4.48a4.64,4.64,0,0,1,1.57-2.56c1.19-1.2,5.42-1.44,6,.6a5.93,5.93,0,0,1-1.57,6l1.19,2.89Z" transform="translate(8.54 -24.49)"/><path class="cls-32" d="M363.85,192c2.18,2.31,3.61,5.5,6.65,6.43.31-1.15,2-3.79,1.93-5a4.1,4.1,0,0,0-1.43-3.14,4.16,4.16,0,0,0-2.52-.75A5.39,5.39,0,0,0,363.85,192Z" transform="translate(8.54 -24.49)"/><circle class="cls-33" cx="366.93" cy="184.14" r="1.93"/><path class="cls-32" d="M356.11,254.55,355,257.9s-3.43.21-3.53.45l4.93,1.35,1.29-4.71Z" transform="translate(8.54 -24.49)"/><polygon class="cls-32" points="390.66 235.49 393.48 235.49 395.53 233.91 392.99 229.74 391.59 230.59 393.26 233.7 392.74 234.94 390.66 235.49"/><polygon class="cls-32" points="371.72 216.19 365.58 232.86 363.83 232.51 366.86 214.84 366.86 214.84 371.88 199.16 384.66 199.16 386.93 215.1 386.93 215.1 394.18 231.69 392.71 232.68 383.12 217.96 382.39 216.23 377.86 206.14 371.72 216.19"/><path class="cls-34" d="M371,198.36a10.18,10.18,0,0,0-3.94,2.33,27.89,27.89,0,0,0-3.49,6.39c-.05.49,1.54,5.82,1.54,5.82l-3.24,12.39s10.1,1.56,15.16,0l-2.65-9.82s.65-4,.8-4.66c.46-1.83-.33-4.62-.66-6.55a10.25,10.25,0,0,0-2.36-4.56A9.17,9.17,0,0,1,371,198.36Z" transform="translate(8.54 -24.49)"/><polygon class="cls-35" points="387.33 194.54 369.84 191.44 368.32 201.14 386.08 203.82 387.33 194.54"/><path class="cls-34" d="M366,211.14l-.66,2.59-6.09-2.28s-1-.8-1.22-.95a11.17,11.17,0,0,1-.89-1.9c-.06-.16,1.17-.23,1.17-.23a9.45,9.45,0,0,1,.1-1c0-.13.32-.73.45-.32l.27,1.17.39.39a6.7,6.7,0,0,1,.43,1.46Z" transform="translate(8.54 -24.49)"/><polygon class="cls-34" points="367.24 185.4 366.47 182.54 365.83 180.26 365 180.57 366.52 185.48 367.24 185.4"/><path class="cls-34" d="M366.47,211.06s-.69-2-2-1.16a2,2,0,0,1-2.35-.19l-2.21.35-.7,1.39,6.7,2.82Z" transform="translate(8.54 -24.49)"/><path class="cls-34" d="M370.17,198.68c1.21-.81,5.47-1,6-.63s-.67,1.35-.55,2,2.61,1.57,1.77,3.06a14.24,14.24,0,0,1-3.32,3.26Z" transform="translate(8.54 -24.49)"/><path class="cls-36" d="M368.94,229.39l.07,0a.13.13,0,0,0,0-.18l-1.42-2.2a.13.13,0,0,0-.17,0,.13.13,0,0,0,0,.18l1.42,2.2A.11.11,0,0,0,368.94,229.39Z" transform="translate(8.54 -24.49)"/><g id="_Gruppo_" data-name="&lt;Gruppo&gt;"><path class="cls-33" d="M364.43,223.73c.36-.07.59-.87.66-1.36.46-.1,1.12-.72,1.58-.86-.78,2.54-.83,3.87-1,4.16-.33.64-.55,1-1,.6s-.76.38-1.05,0-.79.43-.93-.09.71-1.24.71-1.24S363.07,224,364.43,223.73Z" transform="translate(8.54 -24.49)"/></g><path class="cls-34" d="M372.74,204.53c.52,1.86-6.21,19.55-6.21,19.55l-2.88-.72s1.1-4.06.92-5.54a3.21,3.21,0,0,1,1-3.31c1.19-1.29.56-6.22,1.37-8.19S372.38,203.24,372.74,204.53Z" transform="translate(8.54 -24.49)"/><path class="cls-37" d="M366.47,214.76a.13.13,0,0,0,.12-.08,9.7,9.7,0,0,0,.32-4.05c0-.36-.05-.72-.06-1.07a17,17,0,0,1,.64-5.26,2.74,2.74,0,0,1,.55-1.17,1,1,0,0,1,1.09-.3.12.12,0,1,0,.11-.22,1.22,1.22,0,0,0-1.38.35,3,3,0,0,0-.62,1.27,17.13,17.13,0,0,0-.64,5.33c0,.36,0,.73,0,1.09a9.31,9.31,0,0,1-.29,3.94.12.12,0,0,0,.07.16Z" transform="translate(8.54 -24.49)"/><path class="cls-37" d="M368.61,217.76a.13.13,0,0,0,.12-.08c.41-1.09.79-2,1.15-2.86a28.69,28.69,0,0,0,2-6.2.12.12,0,0,0-.09-.14.12.12,0,0,0-.15.09,28.42,28.42,0,0,1-2,6.15c-.37.87-.75,1.77-1.16,2.87a.12.12,0,0,0,.07.16Z" transform="translate(8.54 -24.49)"/><path class="cls-37" d="M374.78,205h0a.13.13,0,0,0,.1-.15,9.4,9.4,0,0,0-3.12-5.28.13.13,0,0,0-.18,0,.12.12,0,0,0,0,.17,9.13,9.13,0,0,1,3,5.14A.12.12,0,0,0,374.78,205Z" transform="translate(8.54 -24.49)"/><circle class="cls-33" cx="372.77" cy="201.09" r="1.93"/><path class="cls-38" d="M217.11,218.66c.22-.24,8-7.58,8-7.58l10.52-8.82-3.14-2.72-9.83,9.7-6.65,8.5Z" transform="translate(8.54 -24.49)"/><polygon class="cls-39" points="237.5 183.44 244.16 177.77 241.02 175.05 235.74 180.26 237.5 183.44"/><path class="cls-38" d="M218.14,219.74a1.87,1.87,0,1,1-1.15-2.38A1.86,1.86,0,0,1,218.14,219.74Z" transform="translate(8.54 -24.49)"/><polygon class="cls-38" points="250.82 213.19 256.96 229.86 258.71 229.51 255.69 211.84 255.69 211.84 250.67 196.16 237.88 196.16 235.62 212.1 235.62 212.1 228.37 228.69 229.83 229.68 239.42 214.96 240.15 213.23 244.68 203.14 250.82 213.19"/><path class="cls-25" d="M249.35,251.55l1.12,3.35s3.42.21,3.52.45l-4.93,1.35L247.77,252Z" transform="translate(8.54 -24.49)"/><polygon class="cls-25" points="231.89 232.49 229.06 232.49 227.01 230.91 229.55 226.74 230.96 227.59 229.28 230.7 229.8 231.94 231.89 232.49"/><path class="cls-38" d="M233.72,192.07c-.65,2.14.19,5.61,2.32,6.26s4.76-1.78,5.41-3.91a4,4,0,0,0-7.73-2.35Z" transform="translate(8.54 -24.49)"/><path class="cls-40" d="M235.77,193.75a.82.82,0,0,0-1.25.53,1.3,1.3,0,0,0,.77,1.32,5.68,5.68,0,0,0-.75,1.59,10,10,0,0,1-1.67-3.64,3.83,3.83,0,0,1,1.14-3.42,5.94,5.94,0,0,1,1-.63l1.48-.81a2.5,2.5,0,0,1,1.25-.43,2.54,2.54,0,0,1,1.18.44c.66.38,2.66,1.48,1.44,2.15A30.63,30.63,0,0,0,235.77,193.75Z" transform="translate(8.54 -24.49)"/><path class="cls-18" d="M238.51,199.8l-6-.26-2,4.07s1.1,7.81.57,10.45c-.24,1.16-1.12,4.58-1.12,4.58l11.72-.83a22.85,22.85,0,0,1-2-4c-.26-1.3-1.2-4.62-1.2-4.62l1.06-.5,1.23-1.38c.49-.87,0-3-.48-3.86l-1.12-2Z" transform="translate(8.54 -24.49)"/><circle class="cls-40" cx="240.65" cy="166.59" r="2.17"/><path class="cls-40" d="M232,194.73a1.92,1.92,0,0,0,1.53,2.15.74.74,0,0,0,.77-.38c.11-.26,0-.55-.11-.82a5.12,5.12,0,0,1,0-1.83C234.38,191.17,232.13,193.22,232,194.73Z" transform="translate(8.54 -24.49)"/><polygon class="cls-41" points="253.42 203.66 236.29 205.44 236.62 197.92 238.48 194.15 250.2 193.32 253.42 203.66"/><polygon class="cls-38" points="245.64 175.23 242.29 175.05 243.15 172.49 246.1 172.75 245.64 175.23"/><polygon class="cls-42" points="242.09 208.91 236.24 207.69 236.5 205.88 242.95 207.01 242.09 208.91"/><polygon class="cls-42" points="253.94 206.39 247.57 207.86 246.56 206.22 253.42 204.74 253.94 206.39"/><polygon class="cls-43" points="235.62 212.1 228.37 228.69 229.83 229.68 239.42 214.96 240.15 213.23 242.09 208.91 236.24 207.69 235.62 212.1"/><polygon class="cls-43" points="247.57 207.86 250.82 213.19 256.96 229.86 258.71 229.51 255.69 211.84 253.94 206.39 247.65 207.83 247.57 207.86"/><polygon class="cls-43" points="242.09 208.91 242.95 207.01 242.95 207.01 242.09 208.91 242.09 208.91"/><polygon class="cls-43" points="236.24 207.69 236.24 207.69 236.5 205.88 236.24 207.69"/><polygon class="cls-43" points="253.42 204.74 253.42 204.74 253.77 205.86 253.42 204.74"/><path class="cls-38" d="M246.24,222.42c-.16-.29-4.77-9.94-4.77-9.94l-5.24-12.68-2.84,1.74,2,6.4,3.61,6.32,6.09,8.91Z" transform="translate(8.54 -24.49)"/><polygon class="cls-18" points="247.39 181.64 244.77 175.3 241.93 177.04 243.54 183.44 247.39 181.64"/><path class="cls-38" d="M248.46,223.06a1.87,1.87,0,1,1-2.16-1.52A1.86,1.86,0,0,1,248.46,223.06Z" transform="translate(8.54 -24.49)"/><g id="_Gruppo_2" data-name="&lt;Gruppo&gt;"><path class="cls-44" d="M220.51,210.87c-.34.25-1.2-.19-1.68-.53-.45.32-1.51.39-2,.66a48.41,48.41,0,0,1,4.32,2.49c2.74,1.09,3.11-1.57,2.77-2.1A2.74,2.74,0,0,0,220.51,210.87Z" transform="translate(8.54 -24.49)"/></g><polygon class="cls-45" points="228.24 185.74 226.51 187.81 210.54 179.39 211.44 175.11 228.24 185.74"/><path class="cls-46" d="M210.73,248.9s.45,5.08,1.49,6a6.16,6.16,0,0,0,3.24,1.19c1.61.21,1.39,1.32,1.41,1.47h-7.23s-.89-.3-.28-2c.44-1.16-1.11-6.45-1.11-6.45Z" transform="translate(8.54 -24.49)"/><path class="cls-46" d="M194.21,246.52s-2.85,2.22-3.22,3.66a9.31,9.31,0,0,0,.87,4.41,1.47,1.47,0,0,1-.62,2.1l-4.92-7.48s0-1.05,2.08-1.23c1.34-.12,4.21-3.34,4.21-3.34Z" transform="translate(8.54 -24.49)"/><path class="cls-47" d="M202.87,232.66s-.81,7.26-1,7.54-8.41,7.43-8.41,7.43l-2.5-2.45,6.31-8.7L196.06,222Z" transform="translate(8.54 -24.49)"/><path class="cls-47" d="M195.7,213.93c3.07.31,6,.46,8.66,1.84l-.53,2.48s4.23,12.25,4.38,13.27,3.09,18.14,3.09,18.14l-3.39.11-5.12-16.9s-8.86-10.52-8.43-14.66A10.63,10.63,0,0,1,195.7,213.93Z" transform="translate(8.54 -24.49)"/><path class="cls-44" d="M202.54,200l.61-3.74a3.67,3.67,0,0,0,1.83.21,4.35,4.35,0,0,0,2.36-1.86c.1-.28,2.58-4.85-1.41-7.44-.89-.57-4.11-1-5.43.69-1.52,1.9-1.4,4.8,0,7.06l-2.15,2.85Z" transform="translate(8.54 -24.49)"/><path class="cls-47" d="M204.32,202.81c.28-3.75-1-3.74-1-5a10.25,10.25,0,0,1-3.55-2.24l-.59,1s-1.39,0-1.67.59A31.49,31.49,0,0,0,204.32,202.81Z" transform="translate(8.54 -24.49)"/><path class="cls-47" d="M197.55,197.16s.89-.67,3.18.36c.57.26,3.33,1.9,3.42,2.88s.43,7.51.43,7.51l0,11.52-10.44-1.11,1.61-8.64A77.49,77.49,0,0,1,197.55,197.16Z" transform="translate(8.54 -24.49)"/><path class="cls-45" d="M202.72,234a7.83,7.83,0,0,0,.1-.83l-6.6-9.33.22,2.6S202.69,234,202.72,234Z" transform="translate(8.54 -24.49)"/><path class="cls-48" d="M200,187.9c1.5-2.55,4.25-2.49,6.54-1.28s2.58,5,.59,4.63c-.55-.12-1.29-.75-1.85-.63a.75.75,0,0,0-.59.59c-.05.28,0,.62-.17.81a3.32,3.32,0,0,0-1,1.09l-.72-.33s.31-.83-.1-1.26c-.72-.77-1.35.14-1.42.87a3.38,3.38,0,0,0,.13,1.18c.1.39-1.46.86-1.61.89S198.33,190.75,200,187.9Z" transform="translate(8.54 -24.49)"/><polygon class="cls-45" points="208.49 172.63 212.58 175.34 211.9 173.35 211.99 174.63 208.49 172.63"/><ellipse class="cls-49" cx="211.4" cy="173.7" rx="0.28" ry="0.41"/><path class="cls-39" d="M204.59,215.87v-2.8s-1.42-13.17-4.7-15.94a1.94,1.94,0,0,0-1.61-.45,1,1,0,0,0-.73.48,5.88,5.88,0,0,1,3.16,2.21C202.49,201.88,204.59,215.87,204.59,215.87Z" transform="translate(8.54 -24.49)"/><path class="cls-39" d="M204.59,215v1.9s-4.59,1.09-8-.24c-1.94-.77-2.21-.84-2.21-.84l.42-1.94.39-.83,3,.93A34.36,34.36,0,0,0,204.59,215Z" transform="translate(8.54 -24.49)"/><path class="cls-45" d="M199.52,220.1a23.89,23.89,0,0,0,3.9-.75s-3.4,0-4.53-.18-4.44-.78-4.44-.78-.14,1.13.17,1.4C195.5,220.55,199,220.13,199.52,220.1Z" transform="translate(8.54 -24.49)"/><g id="_Gruppo_3" data-name="&lt;Gruppo&gt;"><path class="cls-44" d="M217.75,214.17c-.37.19-1.17-.36-1.6-.75-.49.25-1.54.18-2.06.39,2.57,1.72,3.6,2.88,3.95,3,2.24,1,3.29-1.14,3-1.7A2.74,2.74,0,0,0,217.75,214.17Z" transform="translate(8.54 -24.49)"/></g><path class="cls-47" d="M197.59,203.08c.76,1.75,18.21,12.61,18.21,12.61l1.75-2.35s-3.37-2.42-4.16-3.66a3.14,3.14,0,0,0-2.86-1.88c-1.71-.24-8.89-8.43-10.73-9.43S197.07,201.87,197.59,203.08Z" transform="translate(8.54 -24.49)"/></g><g id="Mobile"><rect class="cls-50" x="426.09" y="280.79" width="136.18" height="10.03" rx="3.55" ry="3.55" transform="translate(996.9 547.11) rotate(-180)"/><path class="cls-51" d="M537.36,234.13H476.64c-9.37,0-16,18.92-21.18,18.92H442.31a12.37,12.37,0,0,0-12.38,12.42v8.09a4.1,4.1,0,0,0,4.29,4.1H553.9a4.08,4.08,0,0,0,4.28-4.1V254.89C558.18,244.57,544.72,234.13,537.36,234.13Z" transform="translate(8.54 -24.49)"/><path class="cls-52" d="M558.18,262.09s-3.32-.25-3.32,2.71v1.67c0,1.89,1.9,2.24,3.32,2.24h0v-6.62Z" transform="translate(8.54 -24.49)"/><path class="cls-53" d="M434.66,261.49v-5a4.64,4.64,0,0,0,0-.91,12.32,12.32,0,0,0-4.76,9.87v.45a1.05,1.05,0,0,0,.38.05A4.38,4.38,0,0,0,434.66,261.49Z" transform="translate(8.54 -24.49)"/><rect class="cls-54" x="506.62" y="212.47" width="26.97" height="17.04" rx="2.99" ry="2.99"/><path class="cls-54" d="M554.27,251c.37,1.6-1.33,3-3,3H531.38c-1.65,0-2.54-1.31-2.54-3V240.09c0-1.65.89-3.13,2.54-3.13h8C545.57,237,553.22,246.32,554.27,251Z" transform="translate(8.54 -24.49)"/><path class="cls-54" d="M493.34,251a2.78,2.78,0,0,1-2.76,3H467.69a2.94,2.94,0,0,1-3-3c0-5,7.63-14,12.94-14h12.94a2.93,2.93,0,0,1,2.76,3.13Z" transform="translate(8.54 -24.49)"/><path class="cls-55" d="M434.22,277.66H553.9a4.08,4.08,0,0,0,4.28-4.1V272H429.93v1.58A4.1,4.1,0,0,0,434.22,277.66Z" transform="translate(8.54 -24.49)"/><path class="cls-55" d="M438.17,277.66a12.64,12.64,0,0,1,25.27,0Z" transform="translate(8.54 -24.49)"/><path class="cls-56" d="M460.63,278.54a9.9,9.9,0,1,1-9.9-9.9A9.9,9.9,0,0,1,460.63,278.54Z" transform="translate(8.54 -24.49)"/><path class="cls-57" d="M457.38,278.54a6.65,6.65,0,1,1-6.65-6.65A6.65,6.65,0,0,1,457.38,278.54Z" transform="translate(8.54 -24.49)"/><path class="cls-55" d="M520.78,277.66a12.64,12.64,0,0,1,25.27,0Z" transform="translate(8.54 -24.49)"/><path class="cls-56" d="M543.23,278.54a9.9,9.9,0,1,1-9.9-9.9A9.9,9.9,0,0,1,543.23,278.54Z" transform="translate(8.54 -24.49)"/><path class="cls-57" d="M540,278.54a6.66,6.66,0,1,1-6.66-6.65A6.65,6.65,0,0,1,540,278.54Z" transform="translate(8.54 -24.49)"/><path class="cls-56" d="M493.43,259.92a1.14,1.14,0,0,1-1,1.18h-7a1.14,1.14,0,0,1-1-1.18h0a1.15,1.15,0,0,1,1-1.19h7a1.15,1.15,0,0,1,1,1.19Z" transform="translate(8.54 -24.49)"/><path class="cls-56" d="M524.65,234.24h7a1,1,0,0,1,1,1v.38a1,1,0,0,1-1,1h-7a1,1,0,0,1-1-1v-.38a1,1,0,0,1,1-1Z"/><path class="cls-55" d="M463.53,251.09a2.26,2.26,0,0,1,2.3-2L474,249a1.88,1.88,0,0,1,1.86,2.05v2.84a1.64,1.64,0,0,1-1.77,1.83l-8.27.05a2.06,2.06,0,0,1-2.27-1.84Z" transform="translate(8.54 -24.49)"/></g></svg>