<svg xmlns="http://www.w3.org/2000/svg" xmlns:xlink="http://www.w3.org/1999/xlink" viewBox="0 0 145.73 145.73"><defs><style>.cls-1{fill:#66b657;stroke:#eaeaea;stroke-miterlimit:10;stroke-width:4px;}.cls-2{fill:#b8bed1;}.cls-11,.cls-3{fill:#eeeded;}.cls-3{opacity:0.1;}.cls-4{fill:url(#linear-gradient);}.cls-5{fill:#e7e0f1;}.cls-6,.cls-7{fill:#5b5b5a;}.cls-6{opacity:0.2;}.cls-8{fill:#9da5c4;}.cls-9{fill:#c9cfe3;}.cls-10{fill:#d6dcf1;}.cls-12{fill:#a9b2bd;}.cls-13{fill:#4a3a50;}</style><linearGradient id="linear-gradient" x1="36.19" y1="221.96" x2="36.84" y2="223.07" gradientTransform="matrix(0.91, 0.42, 0.11, 1.15, 21.64, -168.98)" gradientUnits="userSpaceOnUse"><stop offset="0" stop-color="#4653a0"/><stop offset="1" stop-color="#6ec4c2"/></linearGradient></defs><title>G12_12_02</title><g id="Mobile"><circle class="cls-1" cx="72.87" cy="72.87" r="70.87"/><rect class="cls-2" x="36.25" y="33.18" width="73.98" height="77.69" rx="7.89" ry="7.89"/><rect class="cls-2" x="47.83" y="50.01" width="60.99" height="57.97" rx="5.85" ry="5.85" transform="translate(152.23 -6.3) rotate(90)"/><polygon class="cls-3" points="110.23 41 42.21 108.59 48.54 108.59 48.54 110.86 58.29 110.86 110.23 58.92 110.23 41"/><polygon class="cls-3" points="51.77 33.18 36.25 48.7 36.25 73.07 76.14 33.18 51.77 33.18"/><g id="_Gruppo_" data-name="&lt;Gruppo&gt;"><path id="_Tracciato_" data-name="&lt;Tracciato&gt;" class="cls-4" d="M79.49,102.22c0,.31-.14.47-.39.36a1,1,0,0,1-.5-.77c0-.31.15-.47.39-.36A1,1,0,0,1,79.49,102.22Z" transform="translate(-5.09 -6.97)"/><g id="_Gruppo_2" data-name="&lt;Gruppo&gt;"><path id="_Tracciato_composto_" data-name="&lt;Tracciato composto&gt;" class="cls-5" d="M79.28,102.72a.44.44,0,0,1-.22,0,1.11,1.11,0,0,1-.56-.85.45.45,0,0,1,.16-.44.37.37,0,0,1,.38,0,1.1,1.1,0,0,1,.55.85h0a.48.48,0,0,1-.15.45A.52.52,0,0,1,79.28,102.72Zm-.45-1.2-.06,0a.31.31,0,0,0-.07.26.94.94,0,0,0,.44.69.19.19,0,0,0,.18,0c.06,0,.08-.14.07-.26h0a.9.9,0,0,0-.44-.68A.21.21,0,0,0,78.83,101.52Z" transform="translate(-5.09 -6.97)"/></g></g><rect class="cls-6" x="33.51" y="118.82" width="88.88" height="4.7" rx="1.91" ry="1.91" transform="translate(150.82 235.38) rotate(180)"/><path class="cls-7" d="M40.89,108.59h7.65a0,0,0,0,1,0,0v2.85a2.37,2.37,0,0,1-2.37,2.37H43.25a2.37,2.37,0,0,1-2.37-2.37v-2.85a0,0,0,0,1,0,0Z"/><path class="cls-7" d="M97.94,108.59h7.65a0,0,0,0,1,0,0v2.85a2.37,2.37,0,0,1-2.37,2.37H100.3a2.37,2.37,0,0,1-2.37-2.37v-2.85A0,0,0,0,1,97.94,108.59Z"/><path class="cls-8" d="M102,47.34H54.61a6.43,6.43,0,0,0-6.43,6.43v50.45a6.43,6.43,0,0,0,6.43,6.43H102a6.43,6.43,0,0,0,6.43-6.43V53.77A6.43,6.43,0,0,0,102,47.34Zm5.27,56.3a5.85,5.85,0,0,1-5.85,5.85H55.19a5.85,5.85,0,0,1-5.85-5.85V54.34a5.85,5.85,0,0,1,5.85-5.84h46.27a5.85,5.85,0,0,1,5.85,5.84Z" transform="translate(-5.09 -6.97)"/><path class="cls-9" d="M43.1,54.81h5.82a1.75,1.75,0,0,1,1.75,1.75v.82a1.75,1.75,0,0,1-1.75,1.75H43.1a0,0,0,0,1,0,0V54.81A0,0,0,0,1,43.1,54.81Z"/><rect class="cls-10" x="43.1" y="48.16" width="2.47" height="10.98"/><path class="cls-9" d="M43.1,84.9h5.82a1.75,1.75,0,0,1,1.75,1.75v.82a1.75,1.75,0,0,1-1.75,1.75H43.1a0,0,0,0,1,0,0V84.9A0,0,0,0,1,43.1,84.9Z"/><rect class="cls-10" x="43.1" y="84.9" width="2.47" height="10.98"/><circle class="cls-9" cx="93.18" cy="78.99" r="5.06" transform="translate(-20.74 16.55) rotate(-13.28)"/><circle class="cls-8" cx="88.09" cy="72.27" r="3.08"/><path class="cls-11" d="M93.18,91.26h0a2,2,0,0,1-2-2V79.58a2,2,0,0,1,2-2h0a2,2,0,0,1,2,2v9.67A2,2,0,0,1,93.18,91.26Z" transform="translate(-5.09 -6.97)"/><path class="cls-12" d="M63.54,89.42A10.43,10.43,0,1,1,74,79,10.43,10.43,0,0,1,63.54,89.42Z" transform="translate(-5.09 -6.97)"/><path class="cls-8" d="M63.54,69.07A9.93,9.93,0,1,1,53.62,79a9.92,9.92,0,0,1,9.92-9.92m0-1A10.93,10.93,0,1,0,74.47,79,10.93,10.93,0,0,0,63.54,68.07Z" transform="translate(-5.09 -6.97)"/><circle class="cls-13" cx="58.46" cy="72.02" r="7.11"/><circle class="cls-12" cx="63.54" cy="78.99" r="4.29" transform="translate(-21.54 9.74) rotate(-13.28)"/><path class="cls-12" d="M63.54,73.07h0a.23.23,0,0,1-.23-.23V71.68a.23.23,0,0,1,.23-.23h0a.23.23,0,0,1,.24.23v1.16A.23.23,0,0,1,63.54,73.07Z" transform="translate(-5.09 -6.97)"/><path class="cls-12" d="M59.35,74.78h0a.22.22,0,0,1-.32,0L58.21,74a.24.24,0,0,1,0-.33h0a.22.22,0,0,1,.32,0l.82.82A.24.24,0,0,1,59.35,74.78Z" transform="translate(-5.09 -6.97)"/><path class="cls-12" d="M57.6,79h0a.23.23,0,0,1-.23.23H56.21A.23.23,0,0,1,56,79h0a.23.23,0,0,1,.23-.23h1.16A.23.23,0,0,1,57.6,79Z" transform="translate(-5.09 -6.97)"/><path class="cls-12" d="M59.31,83.14h0a.24.24,0,0,1,0,.33l-.82.82a.24.24,0,0,1-.33,0h0a.24.24,0,0,1,0-.33l.82-.82A.24.24,0,0,1,59.31,83.14Z" transform="translate(-5.09 -6.97)"/><path class="cls-12" d="M63.48,84.9h0a.23.23,0,0,1,.23.23v1.16a.23.23,0,0,1-.23.23h0a.23.23,0,0,1-.23-.23V85.13A.23.23,0,0,1,63.48,84.9Z" transform="translate(-5.09 -6.97)"/><path class="cls-12" d="M67.67,83.19h0a.24.24,0,0,1,.33,0l.82.82a.24.24,0,0,1,0,.33h0a.24.24,0,0,1-.33,0l-.82-.82A.24.24,0,0,1,67.67,83.19Z" transform="translate(-5.09 -6.97)"/><path class="cls-12" d="M69.43,79h0a.23.23,0,0,1,.23-.23h1.16a.23.23,0,0,1,.23.23h0a.23.23,0,0,1-.23.23H69.66A.23.23,0,0,1,69.43,79Z" transform="translate(-5.09 -6.97)"/><path class="cls-12" d="M67.72,74.83h0a.24.24,0,0,1,0-.33l.82-.82a.22.22,0,0,1,.32,0h0a.22.22,0,0,1,0,.33l-.82.82A.22.22,0,0,1,67.72,74.83Z" transform="translate(-5.09 -6.97)"/><path class="cls-3" d="M70.57,72a9.93,9.93,0,0,0-14,14Z" transform="translate(-5.09 -6.97)"/></g></svg>