<svg xmlns="http://www.w3.org/2000/svg" viewBox="0 0 185.79 162.27"><defs><style>.cls-1{isolation:isolate;}.cls-2{fill:#3aaa35;}.cls-3{fill:#93c782;}.cls-4{fill:#65b557;}.cls-48,.cls-5{fill:#d9d9d9;}.cls-5{mix-blend-mode:multiply;}.cls-16,.cls-6{fill:#5b5b5a;}.cls-27,.cls-7{fill:#f6bbc6;}.cls-8{fill:#303b45;}.cls-9{fill:#4d4471;}.cls-10,.cls-30{fill:#353430;}.cls-11{fill:#eaeaea;}.cls-12,.cls-13,.cls-14{fill:none;stroke-miterlimit:10;stroke-width:1.12px;}.cls-12{stroke:#fbc01f;}.cls-13{stroke:#4294ce;}.cls-14{stroke:#fff;}.cls-15{fill:#ebebeb;}.cls-16,.cls-18,.cls-19,.cls-20,.cls-21,.cls-22,.cls-23,.cls-24,.cls-25,.cls-26,.cls-27,.cls-28,.cls-30,.cls-31,.cls-32,.cls-33,.cls-34,.cls-35,.cls-36,.cls-37,.cls-38,.cls-39,.cls-41,.cls-42{fill-rule:evenodd;}.cls-17,.cls-36{fill:#4d4a81;}.cls-18{fill:#6a6766;}.cls-19{fill:#353230;}.cls-20{fill:#8a8b8c;}.cls-21{fill:#afafb1;}.cls-22{fill:#377d84;}.cls-23{fill:#48abb4;}.cls-24{fill:#ababab;}.cls-25{fill:#969696;}.cls-26{fill:#cdcbcb;}.cls-28{fill:#1f3446;}.cls-29{fill:#f9b233;}.cls-31{fill:#808081;}.cls-32{fill:#36393b;}.cls-33{fill:#66411d;}.cls-34{fill:#946335;}.cls-35{fill:#492e16;}.cls-37{fill:#0a0b0b;}.cls-38{fill:#1f1f20;}.cls-39{fill:#2f2f60;}.cls-40{fill:#ef7967;}.cls-41{fill:#f8fcfc;}.cls-42{fill:#e4eced;}.cls-43{fill:#3c3c3b;}.cls-44{fill:#4e4d4c;}.cls-45{fill:#95c11f;}.cls-46{opacity:0.2;}.cls-47{fill:#fff;}.cls-49{fill:#fcea10;}</style></defs><title>G12_15</title><g class="cls-1"><g id="Livello_1" data-name="Livello 1"><polygon class="cls-2" points="185.79 104.75 185.79 109.5 96.32 162.27 96.32 157.52 185.79 104.75"/><polygon class="cls-3" points="96.32 157.52 96.32 162.27 0.22 106.54 0.22 101.79 96.32 157.52"/><polygon class="cls-4" points="96.1 157.54 0 101.81 0 101.54 90.31 49.64 185.79 104.77 96.25 157.63 96.1 157.54"/><ellipse class="cls-5" cx="90.23" cy="102.05" rx="65.41" ry="34.02"/></g><g id="Livello_3" data-name="Livello 3"><path class="cls-6" d="M87.2,38.92s-.79,12.19-.7,19.78c.1,7,4.41,20.75,4.41,20.75l1,.12-.08,5a2.75,2.75,0,0,0,2.33,1.16c.53,0,1.25-5.7,1.25-5.7l.87,0L94.13,61s0-12.07,1.18-11.84c.26.06-.59.15.37,0,3.31-.63,8-3.53,7.86-7-.24-4.44-3.74-4.67-3.74-4.67s-6.06-.47-6.76-.23S87.2,38.92,87.2,38.92Z" transform="translate(-6.21 -3.98)"/><path class="cls-6" d="M95,43.82s1.19,17.4,2.82,20.43c1.1,2,3.86,15.83,3.86,15.83h.81l.37,2.46s3.69,1.87,3,0a19.13,19.13,0,0,1-.16-3l1.11-.66-2.45-18.77-.78-18.06-5.14-6.3Z" transform="translate(-6.21 -3.98)"/><path class="cls-6" d="M83.44,16.44s1.4-2.56,3.5-2.56,15.83,3,16.76,4,7.54,13.47,7.54,17.67-1.4,18.67-1.4,18.67-2.57.46-3.27-.7-1.4-15.64-1.4-15.64S101.44,24.33,101.44,25,83.44,16.44,83.44,16.44Z" transform="translate(-6.21 -3.98)"/><path class="cls-6" d="M87.44,16.4l13.69,3.8,1.94,3.43s1.17,16.33.47,18.43-8.4,3-11.2,2.57S87.2,38.8,87.2,38.8L85.77,15.51Z" transform="translate(-6.21 -3.98)"/><path class="cls-6" d="M83.44,16.44s-3.88,7-4.11,11.93.87,15.56.87,15.56a3,3,0,0,0,2.8.23c1.4-.7.94-13.76,1.64-15.4l5.13-11.9S88.1,13.64,83.44,16.44Z" transform="translate(-6.21 -3.98)"/><circle class="cls-7" cx="91" cy="9.45" r="5.47" transform="translate(13.76 63.14) rotate(-45)"/><path class="cls-7" d="M89.19,11.13l1.87,5.63h0a3.5,3.5,0,0,0,3.92.41l.59-.32L94,10.73Z" transform="translate(-6.21 -3.98)"/><path class="cls-8" d="M93.71,80c-.71-.11-.94-.22-1.75-.37-.08,2.85-.08,5-.08,5,.19,1.91.79,1.74,2.37,1.25.51-.16.72-2.52,1.21-5.79A11.24,11.24,0,0,1,93.71,80Z" transform="translate(-6.21 -3.98)"/><path class="cls-8" d="M95.4,88.33c.08-1-.69-2-.61-3a.89.89,0,0,0-.05-.46,1.08,1.08,0,0,1-.75.25A8.08,8.08,0,0,1,91.85,85c0,1.09-1.67,2.79-2.41,3.58a10.45,10.45,0,0,0-2,2.52.66.66,0,0,0-.06.56.67.67,0,0,0,.64.27A6.4,6.4,0,0,0,91,91.06,47.58,47.58,0,0,0,95.4,88.33Z" transform="translate(-6.21 -3.98)"/><path class="cls-7" d="M97.12,9.67c0,1.17-.5,2.12-1.11,2.12s-1.12-.95-1.12-2.12.5-2.12,1.12-2.12S97.12,8.5,97.12,9.67Z" transform="translate(-6.21 -3.98)"/><path class="cls-9" d="M91,4a5.48,5.48,0,0,0-5.09,3.47,7.91,7.91,0,0,0,3.5.78c.43,0,4.34-.54,4.17-1.22a9.73,9.73,0,0,0,1,2.42A1.85,1.85,0,0,1,96,7.67l.14,0A5.47,5.47,0,0,0,91,4Z" transform="translate(-6.21 -3.98)"/><circle class="cls-7" cx="101.62" cy="50.33" r="1.99"/><circle class="cls-7" cx="75.6" cy="41.33" r="1.99"/><polygon class="cls-6" points="86.04 12.62 86.85 14.58 89.5 14.95 90.92 12.27 89.14 10.33 88.74 10.22 88.84 10.74 86.04 12.62"/><polygon class="cls-10" points="85.7 15.23 86.98 14.84 86.04 12.62 85.7 15.23"/><polygon class="cls-6" points="85.89 13.71 83.24 13.39 83.24 10.72 84.26 11.08 85.89 13.71"/><circle class="cls-11" cx="87.53" cy="13.19" r="0.73"/><line class="cls-12" x1="84.05" y1="18.8" x2="81.56" y2="18.33"/><line class="cls-13" x1="84.05" y1="18.8" x2="83.23" y2="18.65"/><line class="cls-14" x1="82.38" y1="18.49" x2="81.56" y2="18.33"/><path class="cls-15" d="M87.05,36.29l.2,2.51s8.06,4.27,13.16,2.76c3-.87,3.35-2,3.35-2.19,0-.53.08-2.57,0-2.84a9.16,9.16,0,0,1-4.93,2.13C95.11,39.17,87.05,36.29,87.05,36.29Z" transform="translate(-6.21 -3.98)"/><path class="cls-15" d="M90.12,38l-.87-.25S91.2,22.31,96,18c.57-.51,2.74-1.81,3.48-1.61a8.27,8.27,0,0,1,1.88.55,8,8,0,0,0-4.72,2.57C93.63,22.76,90.12,38,90.12,38Z" transform="translate(-6.21 -3.98)"/><path class="cls-8" d="M104.32,79.7c-.56,0-1.25.54-1.89.51.47,2.81.87,4.93.87,4.93.5,1.85,1.43,1,2.53.27.35-.23.07-2.57-.17-5.86A6.37,6.37,0,0,1,104.32,79.7Z" transform="translate(-6.21 -3.98)"/><path class="cls-8" d="M102.26,89.63c-.42.78,1.13,2.6,1.95,2.92a1.86,1.86,0,0,0,1.08-.26,7,7,0,0,0,2.28-2c.27-.48.11-.92,0-1.47a18.52,18.52,0,0,0-1.15-2.78,18.67,18.67,0,0,1-.62-2.81H103S103.48,87.35,102.26,89.63Z" transform="translate(-6.21 -3.98)"/><path class="cls-16" d="M125,52.07c-1.59.94-3.06,1.34-4.6,2.37l0,2.05c1.7-1.48,3-1.83,4.91-3Z" transform="translate(-6.21 -3.98)"/><path class="cls-16" d="M120.53,51.5a10.8,10.8,0,0,0-.1,3c-.54.33-1.06.82-1.62,1.11a26.68,26.68,0,0,1,.72-3.77Z" transform="translate(-6.21 -3.98)"/><path class="cls-17" d="M117.05,47.5c0,.61.43,1.15.4,1.76,0,1.11-.53,8.89.45,8.79s.86,1.19,1.73,1.65c.69.37,1.13,1.12,1.82,1.49a2.63,2.63,0,0,0,2.29,0c.06.06.1.14.16.2a2.86,2.86,0,0,0,2.71,1c.76-.21,1.35-.84,2.11-1.05a5.1,5.1,0,0,1,2.84.51,2.61,2.61,0,0,0,2.75-.3,2.46,2.46,0,0,0,.31-2.2,7.28,7.28,0,0,1-.42-2.25c.06-.85.57-1.68.38-2.52-.25-1.08-1.61-1.84-1.41-2.93.11-.6.67-1,.79-1.62.14-.76-.48-1.44-1.1-1.9-1.79-1.32-1.37-2.17-1.55-4.18a8.08,8.08,0,0,0-1.18-3.43c-.8-1.28-4.6-3.51-7.23-1.39A6.66,6.66,0,0,0,121,42.17c-.62,1.92-.39,2.84-2.44,3.73C117.84,46.21,117.08,46.73,117.05,47.5Z" transform="translate(-6.21 -3.98)"/><polygon class="cls-18" points="108.32 68.82 108.59 74.6 108.3 82.64 106.77 81.76 106.79 67.93 108.32 68.82"/><polygon class="cls-19" points="108.32 68.82 109.81 67.95 109.8 81.77 108.3 82.64 108.32 68.82"/><polygon class="cls-20" points="120.8 76.05 121.07 81.84 120.78 97.27 119.25 96.39 119.27 75.17 120.8 76.05"/><polygon class="cls-21" points="120.8 76.05 122.29 75.18 122.28 96.4 120.78 97.27 120.8 76.05"/><polygon class="cls-20" points="98.88 74.34 99.15 80.12 98.86 95.56 97.33 94.68 97.35 73.46 98.88 74.34"/><polygon class="cls-21" points="98.88 74.34 100.38 73.47 100.36 94.69 98.86 95.56 98.88 74.34"/><polygon class="cls-20" points="111.36 81.57 111.63 87.36 111.34 102.8 109.81 101.91 109.83 80.69 111.36 81.57"/><polygon class="cls-21" points="111.36 81.57 112.86 80.7 112.84 101.92 111.34 102.8 111.36 81.57"/><polygon class="cls-22" points="109.82 82.08 108.6 81.38 108.6 80.44 109.82 81.15 109.82 82.08"/><path class="cls-20" d="M130,74.88a3.25,3.25,0,0,0,0-.44l-1.21-.7a3,3,0,0,1-.05.51s0,.06,0,.08c0,.17-.07.33-.11.5,0,0,0,0,0,0a3.93,3.93,0,0,1-.2.54h0a5.12,5.12,0,0,1-.27.52v0a5.72,5.72,0,0,1-.32.48l0,0c-.11.14-.22.28-.33.4l-.08.08a3.57,3.57,0,0,1-.28.27l-.13.11a4.15,4.15,0,0,1-.43.3l1.22.7a2.42,2.42,0,0,0,.42-.29l.14-.12.19-.17.09-.09.07-.08.09-.09.18-.23.06-.08s0,0,0,0a.35.35,0,0,0,0-.08,1.37,1.37,0,0,0,.13-.2,1.22,1.22,0,0,0,.12-.19h0v0l.09-.16.1-.19a1.42,1.42,0,0,1,.08-.18h0l.08-.2.08-.21,0-.11s0,0,0,0l0-.08.06-.25,0-.16s0-.05,0-.08S130,74.91,130,74.88Z" transform="translate(-6.21 -3.98)"/><polygon class="cls-20" points="123.81 70.47 122.6 69.76 122.56 57.09 123.78 57.8 123.81 70.47"/><polygon class="cls-23" points="123.78 57.8 122.56 57.09 123.38 56.62 124.59 57.33 123.78 57.8"/><polygon class="cls-23" points="120.34 73.66 108.6 80.44 109.82 81.15 121.56 74.37 120.34 73.66"/><path class="cls-21" d="M130.8,61.3l-.81.48,0,12.66a4.94,4.94,0,0,1-2.25,3.9L116,85.13v.93l11.74-6.78A6.77,6.77,0,0,0,130.84,74Z" transform="translate(-6.21 -3.98)"/><path class="cls-20" d="M119.5,69.32a3.37,3.37,0,0,0,0-.44l-1.21-.71a3.15,3.15,0,0,1,0,.52.25.25,0,0,1,0,.08,4.31,4.31,0,0,1-.11.49l0,0a5.62,5.62,0,0,1-.19.53h0a5.28,5.28,0,0,1-.27.53h0c-.1.17-.21.33-.32.49l0,0-.33.4-.08.08a3.45,3.45,0,0,1-.28.26l-.13.12a3,3,0,0,1-.43.29l1.22.71a3.13,3.13,0,0,0,.42-.29l.14-.12.19-.17.09-.1a.6.6,0,0,0,.08-.08l.08-.09.18-.22s0-.06.07-.08l0,0,.06-.07.13-.2.11-.19v0h0l.09-.16c0-.07.07-.13.1-.2s.05-.11.08-.17h0l.08-.21.08-.21,0-.11v0l0-.08.06-.26,0-.15s0-.06,0-.09A.17.17,0,0,0,119.5,69.32Z" transform="translate(-6.21 -3.98)"/><polygon class="cls-20" points="113.33 64.9 112.11 64.19 112.07 51.52 113.29 52.23 113.33 64.9"/><polygon class="cls-23" points="113.29 52.23 112.07 51.52 112.89 51.05 114.11 51.76 113.29 52.23"/><polygon class="cls-23" points="109.86 68.09 98.11 74.88 99.33 75.58 111.07 68.8 109.86 68.09"/><path class="cls-21" d="M120.31,55.74l-.81.47,0,12.67a4.94,4.94,0,0,1-2.25,3.9l-11.74,6.78v.94l11.74-6.78a6.75,6.75,0,0,0,3.07-5.31Z" transform="translate(-6.21 -3.98)"/><path class="cls-24" d="M129.61,79.39a.4.4,0,0,1,0,.15v0a.83.83,0,0,1-.07.13l0,0a.6.6,0,0,1-.11.12l-.1.08-.09.06L117.8,86.6v1.82l11.39-6.62h0l.08-.05.1-.07h0a.39.39,0,0,0,.08-.1l0,0,0,0s0,0,0,0a.36.36,0,0,0,0-.09h0v0a.43.43,0,0,0,0,0,.22.22,0,0,0,0-.08h0Z" transform="translate(-6.21 -3.98)"/><path class="cls-25" d="M117.36,86.77h-.07a2.05,2.05,0,0,1-.49.06h0a2.33,2.33,0,0,1-.53-.06h0a1.76,1.76,0,0,1-.47-.18L102.56,79a.71.71,0,0,1-.43-.59V80.2a.73.73,0,0,0,.42.6l13.21,7.62a1.24,1.24,0,0,0,.2.1l.18.06.09,0h.06l.14,0,.14,0h.22s0,0,.07,0H117l.19,0,.08,0,.07,0,.12,0a1.55,1.55,0,0,0,.32-.14V86.6A1.92,1.92,0,0,1,117.36,86.77Z" transform="translate(-6.21 -3.98)"/><path class="cls-26" d="M129.18,78.8a.62.62,0,0,1,0,1.18L117.8,86.6a2.29,2.29,0,0,1-2,0L102.56,79a.62.62,0,0,1,0-1.18l11.39-6.62a2.29,2.29,0,0,1,2,0Z" transform="translate(-6.21 -3.98)"/><path class="cls-24" d="M131.92,64l0,7.09a1.5,1.5,0,0,1,0,.22h0a.64.64,0,0,1-.06.18h0s0,.06-.06.09a.41.41,0,0,1-.16.16l1.58-.92a.56.56,0,0,0,.16-.15s0,0,0,0l0-.07h0a.08.08,0,0,0,0,0s0,0,0,0,0,0,0-.06v0h0v0a.07.07,0,0,0,0,0v-.14h0l0-7.1Z" transform="translate(-6.21 -3.98)"/><path class="cls-26" d="M131.3,62.52h0l.17.21h0c.05.08.1.15.14.23h0l.12.24h0a1.52,1.52,0,0,1,.09.25h0a1,1,0,0,1,.06.25h0a1.06,1.06,0,0,1,0,.25l1.58-.92V63a.43.43,0,0,0,0-.05v-.1h0a.43.43,0,0,1,0,0,.43.43,0,0,1,0,0v-.05s0,0,0-.06a.06.06,0,0,0,0,0h0s0,0,0,0l0-.06,0,0a.17.17,0,0,0,0-.05v0h0l0-.05,0,0,0-.06,0-.06v0h0l-.07-.12-.07-.09h0l-.05-.06,0,0,0-.05,0,0h0l0,0,0,0,0,0,0,0,0,0h0l0,0s0,0,0,0l-.05,0,0,0h0l-13.2-7.62,0,0,0,0,0,0,0,0h-.42l-.07,0-.08,0-1.58.92a.47.47,0,0,1,.15-.06h.18l.19,0h0l.2.1,13.2,7.62.21.14h0A1.54,1.54,0,0,1,131.3,62.52Z" transform="translate(-6.21 -3.98)"/><path class="cls-25" d="M130.9,62.2l-13.2-7.62c-.56-.33-1-.06-1,.58l0,7.1a2.28,2.28,0,0,0,1,1.77l13.2,7.62c.56.32,1,.06,1-.59l0-7.09A2.25,2.25,0,0,0,130.9,62.2Z" transform="translate(-6.21 -3.98)"/><path class="cls-16" d="M125.59,53.58c2.83,1.63,4.38,3.39,3.46,3.92s-4-.35-6.79-2-4.39-3.39-3.47-3.93S122.75,51.94,125.59,53.58Z" transform="translate(-6.21 -3.98)"/><path class="cls-27" d="M125.59,47.22c-.23.87-1.25,2.8-.54,5.14L119.84,55l.43-2.18a9.86,9.86,0,0,0,.63-4.75Z" transform="translate(-6.21 -3.98)"/><path class="cls-16" d="M125.08,51.72c.16.48-.1,1.1.1,1.48.5.94,1.6,1.42,2.53,2.11,2.4,1.8.09,6.3-1.49,9.28A11,11,0,0,0,125,68.7a3.89,3.89,0,0,0,.11,2c4,10.46-8.56,16.86-10.64,9.43-.59-2.11-.26-5.13,1.75-9.68a6.63,6.63,0,0,0,.27-3.52,27.43,27.43,0,0,0-1-3.63,5.9,5.9,0,0,1-.76-3.75c.21-1.49,1.28-3.21,2.18-5A10.16,10.16,0,0,1,118.35,52c.41-.41,1.39-.33,2.19-.53a7.66,7.66,0,0,0,.06,2.69C121.18,53.79,123.84,52.59,125.08,51.72Z" transform="translate(-6.21 -3.98)"/><path class="cls-27" d="M101.77,82.67c-.71,4.76-.59,9.51-1,14.46l2,2.31c1.81-7.33,3.85-11.21,4.13-15.5.17-2.49.31-4.09.47-5.31C107.72,74.36,102.32,79.07,101.77,82.67Z" transform="translate(-6.21 -3.98)"/><path class="cls-27" d="M106.54,80.12c-.31,2.25.14,3.43-.11,5.11-.72,4.76-.59,9.51-1.05,14.45l2,2.32c1.81-7.33,3.85-11.22,4.14-15.5.15-2.26.27-3.79.42-5C113.23,70.89,107,75.38,106.54,80.12Z" transform="translate(-6.21 -3.98)"/><path class="cls-16" d="M126.3,76.29c-.15,2-.73,4.38-2.34,5.68-2.85,2.29-8.32,1.58-12.52,4.72A63.23,63.23,0,0,1,101.17,81c.51-1.24.94-2.48,2.2-3.23,2.16-1.28,10.18-6,12.2-6.22a7.7,7.7,0,0,0,.5-.84l-.06,0c1-2.26,0-5-.56-7.17a6.62,6.62,0,0,1-.85-3.93,19.27,19.27,0,0,1,2.07-5,11.74,11.74,0,0,1,1.88-2.75,2,2,0,0,1,1.32-.32c-.78.74-1.74,3.78-1.84,5.95,2.42-.95,5.65-2.72,6.79-3.91.27-.28.34,0,.53-.19,1.16.89,1.36,1.26,2.36,2a2.41,2.41,0,0,1,.61.67,1.55,1.55,0,0,0-1.94-.34c-1.9.68-2.2,3.64-2.08,6.2.08,1.76.61,3,2.08,3.08-.72,1.72-1.28,3.24-1.12,4.23.34,2,1.34,4,1.08,7.1C126.32,76.26,126.31,76.28,126.3,76.29Z" transform="translate(-6.21 -3.98)"/><path class="cls-28" d="M108.12,82.72c2.8,1.62,4.34,3.37,3.43,3.9s-3.92-.36-6.73-2-4.34-3.36-3.43-3.89S105.31,81.11,108.12,82.72Z" transform="translate(-6.21 -3.98)"/><circle class="cls-29" cx="117.84" cy="40.02" r="4.12"/><path class="cls-7" d="M117.31,44.83a5.06,5.06,0,1,0,5.92-4A5.07,5.07,0,0,0,117.31,44.83Z" transform="translate(-6.21 -3.98)"/><path class="cls-17" d="M118.44,44.13a1,1,0,0,1-.55-.88,5.06,5.06,0,0,1,9.37,3.46,4.42,4.42,0,0,1-.17.65,1.82,1.82,0,0,1-.66-.15c-.47-.22-1.53-.84-1-1.37-.24.26-.33.68-.36,1.85C123.75,44.56,120.19,45.21,118.44,44.13Z" transform="translate(-6.21 -3.98)"/><path class="cls-7" d="M125.1,46.47a1.54,1.54,0,1,0,1.81-1.23A1.54,1.54,0,0,0,125.1,46.47Z" transform="translate(-6.21 -3.98)"/><path class="cls-8" d="M107.41,98.89a9.93,9.93,0,0,1,.75,3c0,1.1-.43,1.4-.43,1.4a25.56,25.56,0,0,1-2.81.69c-.62,0-1.64,1-3.11,1.11s-3.34.54-3.55-.62c-.12-.7,1.68-1.36,3.81-2.81a11.49,11.49,0,0,0,2.44-2.33Z" transform="translate(-6.21 -3.98)"/><path class="cls-8" d="M106.82,94.08l.58,5.27s.08,1-1.21,1a1.68,1.68,0,0,1-1.68-1.06s-.53-2.15-1.26-5.24Z" transform="translate(-6.21 -3.98)"/><path class="cls-8" d="M111,96c.32,3,.65,5.3.65,5.3s0,.92-1.28,1a1.48,1.48,0,0,1-1.52-1.21s-.69-2-1.42-5.1Z" transform="translate(-6.21 -3.98)"/><path class="cls-8" d="M111.6,101.1s-.11,1.05-1,1a3,3,0,0,1-1.74-1s.35.84-.45,3.55c-.45,1.51-1.33,5.71.29,6.29,1.16.42,2.77-.94,3-1.8.08-.35.41-4.13.36-4.49C111.81,103.38,111.6,101.1,111.6,101.1Z" transform="translate(-6.21 -3.98)"/><path class="cls-30" d="M124.82,52.29c-1.59.94-2.62.81-4.16,1.84l-.49,2.58c1.77-1.21,3.41-2.06,5.18-3.4Z" transform="translate(-6.21 -3.98)"/><path class="cls-30" d="M120.37,51.72a15.33,15.33,0,0,0,.29,2.41c-.54.33-1.45,1.39-2,1.68a15.9,15.9,0,0,1,1.11-4.34Z" transform="translate(-6.21 -3.98)"/><path class="cls-16" d="M125.21,51.72c-1.59.94-3.06,1.34-4.6,2.37l0,2.06c1.7-1.49,3-1.84,4.91-3Z" transform="translate(-6.21 -3.98)"/><path class="cls-16" d="M120.76,51.15a10.8,10.8,0,0,0-.1,3c-.54.33-1.06.82-1.62,1.11a26.68,26.68,0,0,1,.72-3.77Z" transform="translate(-6.21 -3.98)"/><circle class="cls-11" cx="115.25" cy="50.59" r="0.57"/><ellipse class="cls-11" cx="119.83" cy="53.93" rx="0.57" ry="0.44" transform="translate(-6.4 103.46) rotate(-48.26)"/><path class="cls-15" d="M116.89,72.27,116,72s4.14-12.81,9-17.09c.57-.5,1.55-1,2.14-.49a6.69,6.69,0,0,1,.76.64s-1.26,0-3.51,2.36C121.35,60.65,116.89,72.27,116.89,72.27Z" transform="translate(-6.21 -3.98)"/><path class="cls-15" d="M126.19,72.5s-1-.29-1.9-.43c-2.24-.34-8.85-.49-8.85-.49l.75-2.73s5.91.88,7.93.88a6,6,0,0,0,1.38-.13Z" transform="translate(-6.21 -3.98)"/><polygon class="cls-21" points="57.2 70.11 59.14 68.98 59.09 90.87 57.15 92 57.2 70.11"/><polygon class="cls-20" points="57.2 70.11 57.15 92 55.26 90.9 55.3 69.02 57.2 70.11"/><polygon class="cls-31" points="134.85 84.51 136.79 83.39 136.74 105.27 134.8 106.4 134.85 84.51"/><polygon class="cls-32" points="134.85 84.51 134.8 106.4 132.9 105.31 132.95 83.42 134.85 84.51"/><polygon class="cls-31" points="108.37 97.56 110.32 96.43 110.27 120.44 108.33 121.56 108.37 97.56"/><polygon class="cls-32" points="108.37 97.56 108.33 121.56 106.43 120.47 106.48 96.47 108.37 97.56"/><polygon class="cls-33" points="110.42 100.82 141.67 83.26 141.65 86.95 110.83 104.86 110.42 100.82"/><path class="cls-34" d="M147.88,87.24l-30.83,17.91L59.47,71.91,90.29,54Z" transform="translate(-6.21 -3.98)"/><path class="cls-35" d="M117.05,105.15v3.69L59.45,75.59l0-3.68h0Z" transform="translate(-6.21 -3.98)"/><path class="cls-36" d="M73,104.88c3.48-.8,6.15-4.48,10.21-7.37l3.58-1.83c.24-3.71,0-4.91-1.75-5.5-3.24-1.11-8.78,1.8-13,3.87Z" transform="translate(-6.21 -3.98)"/><path class="cls-37" d="M81.1,112.6l-2.59,2c0,2.39,0,3.56.95,4.18,1.12.76,3,.15,4.17-.38l.3-.92c1.11-.15.86.18,2-.48,2-1.11,4.94-2.83,5.33-4.81.1-.51-.29-1.42-.8-1.33l-5.79,1Z" transform="translate(-6.21 -3.98)"/><path class="cls-36" d="M77.37,97.17l.95,18.24h0a.32.32,0,0,0,.17.35c.62.36,2.64-.23,4.52-1.32a10.36,10.36,0,0,0,1.85-1.33l.69-.47,1-20.08Z" transform="translate(-6.21 -3.98)"/><path class="cls-38" d="M87.38,116.2l-2.68,1.87c-.07,2.39-.12,3.56.78,4.22,1.09.8,3,.27,4.18-.21l.35-.9a4.32,4.32,0,0,0,2.74-.75c1.93-1,4.28-2.41,4.71-4.16.12-.51-.23-1.43-.75-1.37l-5.68.69Z" transform="translate(-6.21 -3.98)"/><path class="cls-36" d="M83.56,96.16c.12,1.65.21,3.29.26,4.94l.55,18h0a.35.35,0,0,0,.18.25c.61.36,2.63-.24,4.52-1.32s2.82-2.16,2.37-2.57l.1-19.64C91.64,91.72,83.63,92.57,83.56,96.16Z" transform="translate(-6.21 -3.98)"/><polygon class="cls-21" points="67.51 78.82 69.45 77.69 69.4 103.8 67.46 104.93 67.51 78.82"/><polygon class="cls-20" points="67.51 78.82 67.46 104.93 65.57 103.84 65.62 77.72 67.51 78.82"/><polygon class="cls-32" points="57.87 98.15 58.14 103.94 57.85 119.37 56.32 118.49 56.34 97.27 57.87 98.15"/><polygon class="cls-31" points="57.87 98.15 59.37 97.28 59.35 118.5 57.85 119.37 57.87 98.15"/><polygon class="cls-32" points="70.35 105.39 70.62 111.17 70.33 126.61 68.8 125.72 68.82 104.5 70.35 105.39"/><polygon class="cls-31" points="70.35 105.39 71.85 104.52 71.83 125.74 70.33 126.61 70.35 105.39"/><path class="cls-31" d="M84.94,104l-12.6,7.28a3,3,0,0,1-.45.2l-.08,0-.4.09h0a1.25,1.25,0,0,1-.39,0h0a1,1,0,0,1-.35-.14h0l1.3.76h0l.12.06.13,0,.08,0h.2a.43.43,0,0,0,.16,0h.18l.21,0,.1,0,.08,0,.11,0a2.15,2.15,0,0,0,.34-.17l12.59-7.27Z" transform="translate(-6.21 -3.98)"/><path class="cls-31" d="M86.24,104.76,73.65,112c-1.34.78-2.43.15-2.44-1.38l0-13.59-.88.51,0,13.58c0,2.1,1.49,2.94,3.31,1.89l12.6-7.27Z" transform="translate(-6.21 -3.98)"/><path class="cls-31" d="M76.77,99.18l-12.6,7.27a2.49,2.49,0,0,1-.44.21l-.09,0a2,2,0,0,1-.4.08h0a1.64,1.64,0,0,1-.39,0h0a1.05,1.05,0,0,1-.35-.13h0l1.3.76h0l.12.06.13,0,.08,0h.05l.15,0h.34l.22,0,.09,0,.08,0,.11,0a3.59,3.59,0,0,0,.34-.17l12.59-7.27Z" transform="translate(-6.21 -3.98)"/><path class="cls-31" d="M78.07,99.94l-12.59,7.27c-1.34.77-2.43.15-2.43-1.39l0-13.58-.88.51,0,13.58c0,2.09,1.49,2.94,3.31,1.89l12.6-7.28Z" transform="translate(-6.21 -3.98)"/><polygon class="cls-18" points="67.31 92.63 67.58 98.41 67.29 106.45 65.76 105.57 65.78 91.75 67.31 92.63"/><polygon class="cls-19" points="67.31 92.63 68.81 91.76 68.79 105.58 67.29 106.45 67.31 92.63"/><polygon class="cls-32" points="79.79 99.86 80.06 105.65 79.77 121.08 78.24 120.2 78.26 98.98 79.79 99.86"/><polygon class="cls-31" points="79.79 99.86 81.28 98.99 81.27 120.21 79.77 121.08 79.79 99.86"/><path class="cls-24" d="M88.6,103.2a.77.77,0,0,1,0,.15v0a.42.42,0,0,1-.07.13v0l-.12.12-.1.08-.09.06-11.39,6.62v1.82l11.39-6.62h0l.07,0,.1-.07h0l.09-.1v0l0,0,0,0a.36.36,0,0,0,0-.09h0v0s0,0,0,0,0-.05,0-.08h0Z" transform="translate(-6.21 -3.98)"/><path class="cls-25" d="M76.35,110.58l-.07,0a2.63,2.63,0,0,1-.49.05h0a2.33,2.33,0,0,1-.53-.06h0a1.76,1.76,0,0,1-.47-.18l-13.2-7.63a.7.7,0,0,1-.43-.59V104a.73.73,0,0,0,.42.6l13.21,7.62a1,1,0,0,0,.21.1l.17.06.09,0h.06l.14,0,.14,0h.22a.22.22,0,0,0,.08,0H76l.18,0,.08,0,.07,0,.12,0a1.55,1.55,0,0,0,.32-.14v-1.82A1.92,1.92,0,0,1,76.35,110.58Z" transform="translate(-6.21 -3.98)"/><path class="cls-26" d="M88.18,102.61a.62.62,0,0,1,0,1.18l-11.39,6.62a2.26,2.26,0,0,1-2,0l-13.2-7.63a.62.62,0,0,1,0-1.18L72.93,95a2.29,2.29,0,0,1,2,0Z" transform="translate(-6.21 -3.98)"/><path class="cls-36" d="M66.49,95.07,64.24,96.3c-.8,3.65-.34,6.25,1.34,8a13.69,13.69,0,0,0,12.15,3.37c3.49-.8,6.16-4.49,10.21-7.37l3.58-1.84c.24-3.7,0-4.9-1.75-5.49-3.24-1.11-8.78,1.79-13,3.87Z" transform="translate(-6.21 -3.98)"/><path class="cls-27" d="M80.3,66.29c.35-.47.92-.59,1.87-1.42.65-.7,1.15-.85,1.45-.74s.41.27,0,.9l-1.06,1.34,1.31-.1L84.6,66l1.61-1.67c.49-.57.75-.19,1.3.4.79.74-.29,1.88-1.27,3.25-1,1.09-.79,1.29-2.22,1.44l-2.22.24L81,71l-2.36-1.61a8,8,0,0,0,.93-1.11C79.94,67.47,79.85,66.89,80.3,66.29Z" transform="translate(-6.21 -3.98)"/><path class="cls-39" d="M74.48,78.62,78.86,68.4c1.09-.5,3.07,1.06,3.32,1.86a116.57,116.57,0,0,1-4,14.5c-.65,1.59-1.42,1.67-3,1.13C72.36,84.89,73.44,81.37,74.48,78.62Z" transform="translate(-6.21 -3.98)"/><path class="cls-39" d="M74.94,70.81c4,2.34,6.27,4.86,5,5.62s-5.66-.51-9.72-2.85-6.27-4.85-5-5.62S70.88,68.47,74.94,70.81Z" transform="translate(-6.21 -3.98)"/><path class="cls-27" d="M68.36,62.71c.52,4.41.59,3.49-.47,7.94l5.73,2.68c-.49-6.25.19-6.87,1.94-12.83Z" transform="translate(-6.21 -3.98)"/><circle class="cls-7" cx="67.34" cy="58.6" r="6.14"/><path class="cls-40" d="M77.59,64.36a1.28,1.28,0,0,0-1.94-1,1.65,1.65,0,0,0-.44,1.78,4.7,4.7,0,0,0,1,1.64A28.86,28.86,0,0,1,70,69.93l-2.75-4a6.38,6.38,0,0,1-1-1.92,7.67,7.67,0,0,1,1.28-5.69,8.13,8.13,0,0,1,5.87-2.77,6.85,6.85,0,0,1,5.14,2.5C80,59.92,78.31,62.38,77.59,64.36Z" transform="translate(-6.21 -3.98)"/><path class="cls-41" d="M68.34,68.21a6.09,6.09,0,0,0,5.18.67L74,70.3c-1.41,2-6.2,1.83-6.09-.56Z" transform="translate(-6.21 -3.98)"/><path class="cls-39" d="M67.88,69.58c-1.06-.49-1.32-1.79-2.34-1.73a3.14,3.14,0,0,0-1,.43c-1.21.65-2.12,2.58-2.39,4.65-.93,7.24,2.34,8.24,2,17.11-.07,1.65-.54,6.31-1,9.4.27,1.29,1.57,2.47,2.94,3.43l.57-6.05.66,6.85a9.42,9.42,0,0,0,3.33,2.09c2.4,1.11,8.93,2.56,8.88-.3-.07-4-.83-8.12-.5-13,.49-7.13,2.19-13.89,1.55-15.45a8.65,8.65,0,0,0-3-4.14c-1.63-1.13-2.13-1.65-3.68-2.8C70.89,71.55,68.2,70.55,67.88,69.58Z" transform="translate(-6.21 -3.98)"/><path class="cls-27" d="M88.44,83.91A9.61,9.61,0,0,0,91.05,81a4.29,4.29,0,0,1,1.53-1.44c.84-.51,2.9-.17,4.64-.47a1.28,1.28,0,0,1,1.56,1.26c.09,1-1.19,1.69-2.1,2.5a9.83,9.83,0,0,1-2.29,1.71c-.72.38-1.69.6-2.42,1l-1.79,1.31-1.63-2.82.06,0Z" transform="translate(-6.21 -3.98)"/><path class="cls-39" d="M80.41,88.24l9-5.64a8.19,8.19,0,0,1,2.86,3.23A130.32,130.32,0,0,1,79.6,95.37c-1.49.86-2.15.46-3.1-1C74.9,91.93,77.9,89.79,80.41,88.24Z" transform="translate(-6.21 -3.98)"/><path class="cls-39" d="M79,74.14c1.39,1.2,1.49,1.52,1.78,2.38.89,2.59.49,8,.56,12.43-.2,3.66.61,5.87-3,6.16-1.71.23-2.16-.39-2.5-2.06L73.73,82.28C73.2,76,77.17,73.29,79,74.14Z" transform="translate(-6.21 -3.98)"/><path class="cls-24" d="M74.77,95.33l0,7.09a1.5,1.5,0,0,1,0,.22h0l-.06.18h0a.7.7,0,0,1-.06.09.61.61,0,0,1-.16.16l1.57-.92a.39.39,0,0,0,.16-.15s0,0,0,0a.25.25,0,0,0,0-.07h0l0,0s0,0,0-.06,0,0,0,0v0h0v0a.11.11,0,0,1,0,0v-.14h0l0-7.1Z" transform="translate(-6.21 -3.98)"/><path class="cls-26" d="M74.14,93.88h0l.17.21h0l.15.23h0a1.34,1.34,0,0,1,.12.24h0l.09.25h0l.06.25h0a2.11,2.11,0,0,1,0,.25l1.57-.92v-.24h0v0s0,0,0,0v0s0,0,0-.06v0h0v-.05l0-.06,0-.05,0,0,0,0h0l0,0a.17.17,0,0,0,0,0l0-.06a.21.21,0,0,1,0-.06v0h0L76,93.27l-.06-.09h0l0-.06,0,0,0,0,0,0h0l0,0,0,0a.08.08,0,0,0,0,0,.1.1,0,0,0,0,0l0,0h0l0,0-.05,0a.08.08,0,0,0,0,0l0,0,0,0h0L62.12,85l0,0,0,0a.05.05,0,0,1,0,0l0,0h-.42l-.07,0-.08,0-1.58.92a.34.34,0,0,1,.15-.06h.18l.19,0h0l.21.1,13.2,7.62.2.14h0Z" transform="translate(-6.21 -3.98)"/><path class="cls-25" d="M73.75,93.56l-13.2-7.62c-.57-.33-1-.06-1,.58l0,7.1a2.27,2.27,0,0,0,1,1.77L73.72,103c.57.32,1,.06,1-.59l0-7.09A2.28,2.28,0,0,0,73.75,93.56Z" transform="translate(-6.21 -3.98)"/><path class="cls-32" d="M70.34,111.15l0-13.58L69,96.81l0,13.59a3,3,0,0,0,.4,1.56,1.75,1.75,0,0,0,.57.55l1.3.76A2.32,2.32,0,0,1,70.34,111.15Z" transform="translate(-6.21 -3.98)"/><polygon class="cls-26" points="64.09 93.59 62.79 92.83 63.66 92.33 64.97 93.09 64.09 93.59"/><path class="cls-31" d="M73.65,112c-1.34.78-2.43.15-2.44-1.38l0-13.59-.88.51,0,13.58c0,2.1,1.49,2.94,3.31,1.89Z" transform="translate(-6.21 -3.98)"/><path class="cls-32" d="M62.17,106.33l0-13.58L60.83,92l0,13.58a2.89,2.89,0,0,0,.39,1.57,1.86,1.86,0,0,0,.57.55l1.3.75A2.29,2.29,0,0,1,62.17,106.33Z" transform="translate(-6.21 -3.98)"/><polygon class="cls-26" points="55.92 88.77 54.62 88.01 55.49 87.5 56.8 88.26 55.92 88.77"/><path class="cls-31" d="M65.48,107.21c-1.34.77-2.43.15-2.43-1.39l0-13.58-.88.51,0,13.58c0,2.09,1.49,2.94,3.31,1.89Z" transform="translate(-6.21 -3.98)"/><path class="cls-27" d="M125.76,56.91c-1.34,2.88.23,9.9.8,13.3l2.56.52c0-.17.53-.53.53-.71.17-3.54.63-8.79.06-11.95-.24-1.31-1.09-2.35-2.06-2.32A2.39,2.39,0,0,0,125.76,56.91Z" transform="translate(-6.21 -3.98)"/><polygon class="cls-42" points="108.98 57.41 98.75 51.68 103.78 63.54 114.02 69.27 108.98 57.41"/><circle class="cls-7" cx="111.34" cy="63.36" r="2.4"/><circle class="cls-7" cx="101.53" cy="57.05" r="2.4"/><path class="cls-27" d="M128,68c-2.94-.67-5.47-1.12-8.62-1.76,0,.82-.07,1.32,0,2.23,2.61,1,4.89,2,7.72,2.85,1.51.44,2.3-.27,2.56-1S129.47,68.34,128,68Z" transform="translate(-6.21 -3.98)"/><path class="cls-16" d="M125.59,56.84c-.65,1.38-.7,4.34-.45,6.77l5.18-.28a34,34,0,0,0-.49-5.2c-.24-1.34-1.17-2.66-2.17-2.63A2.81,2.81,0,0,0,125.59,56.84Z" transform="translate(-6.21 -3.98)"/><path class="cls-43" d="M110.55,82.61V81.38c.27-.16,9.75-3.92,10-3.76l6.75,2.46c0,.8.15,2.37-.44,2.72l-8.6,5.08a.9.9,0,0,1-.9,0L111,84.16C110.4,83.81,110.55,83.17,110.55,82.61Z" transform="translate(-6.21 -3.98)"/><path class="cls-44" d="M111,80.61l8.7-5a.89.89,0,0,1,.89,0l6.3,3.64a.89.89,0,0,1,0,1.54l-8.6,5.08a.9.9,0,0,1-.9,0L111,82.16A.9.9,0,0,1,111,80.61Z" transform="translate(-6.21 -3.98)"/><polygon class="cls-45" points="105.47 77.27 109.11 75.19 115.2 78.77 111.56 80.84 105.47 77.27"/><g class="cls-46"><polygon class="cls-47" points="105.47 77.27 109.11 75.19 110.25 75.86 110.24 80.07 105.47 77.27"/></g><polygon class="cls-43" points="112.41 75.17 111.19 74.45 111.19 74.37 111.85 74.07 113.05 74.7 113.05 74.77 112.41 75.17"/><polygon class="cls-48" points="112.41 75.1 111.19 74.37 111.85 73.99 113.05 74.7 112.41 75.1"/><polygon class="cls-43" points="114.13 76.18 112.91 75.45 112.91 75.38 113.57 75.07 114.77 75.7 114.77 75.78 114.13 76.18"/><polygon class="cls-48" points="114.13 76.1 112.91 75.38 113.57 75 114.77 75.7 114.13 76.1"/><polygon class="cls-43" points="115.8 77.17 114.58 76.44 114.58 76.37 115.24 76.07 116.44 76.7 116.44 76.77 115.8 77.17"/><polygon class="cls-48" points="115.8 77.1 114.58 76.37 115.24 75.99 116.44 76.7 115.8 77.1"/><polygon class="cls-43" points="113.68 74.5 112.46 73.77 112.46 73.7 113.12 73.39 114.32 74.02 114.32 74.1 113.68 74.5"/><polygon class="cls-48" points="113.68 74.42 112.46 73.7 113.12 73.32 114.32 74.02 113.68 74.42"/><polygon class="cls-43" points="115.39 75.51 114.17 74.78 114.17 74.7 114.83 74.4 116.03 75.03 116.03 75.11 115.39 75.51"/><polygon class="cls-48" points="115.39 75.43 114.17 74.7 114.83 74.32 116.03 75.03 115.39 75.43"/><polygon class="cls-43" points="117.06 76.5 115.84 75.77 115.84 75.69 116.5 75.39 117.7 76.02 117.7 76.1 117.06 76.5"/><polygon class="cls-48" points="117.06 76.42 115.84 75.69 116.5 75.32 117.7 76.02 117.06 76.42"/><polygon class="cls-45" points="108.15 81.5 109.27 82.16 109.29 81.5 108.17 80.84 108.15 81.5"/><polygon class="cls-49" points="109.57 82.33 110.69 82.98 110.72 82.33 109.6 81.67 109.57 82.33"/></g></g></svg>