<svg xmlns="http://www.w3.org/2000/svg" viewBox="0 0 565.45 224.03"><defs><style>.cls-1{fill:#3aaa35;}.cls-2{fill:#93c782;}.cls-3{fill:#65b557;}.cls-4{fill:#5b5b5a;}.cls-11,.cls-5{fill:#303b45;}.cls-6{fill:#f6bbc6;}.cls-7{fill:#4d4471;}.cls-8{fill:#dfe5ee;}.cls-9{fill:#242550;}.cls-10{fill:#ebebeb;}.cls-11{opacity:0.5;}.cls-12{fill:#353430;}.cls-13{fill:#eaeaea;}.cls-14,.cls-15,.cls-21,.cls-28{fill:none;}.cls-14{stroke:#fbc01f;}.cls-14,.cls-15,.cls-21{stroke-miterlimit:10;}.cls-14,.cls-15{stroke-width:1.03px;}.cls-15{stroke:#4294ce;}.cls-16{fill:#e30613;}.cls-17{fill:#dc5a55;}.cls-18{fill:#3a3762;}.cls-19{fill:#e38868;}.cls-20{fill:#bb745d;}.cls-21{stroke:#eaeaea;stroke-width:4px;}.cls-22{fill:#f9b233;}.cls-23{fill:#e5effb;}.cls-24{fill:#66b657;}.cls-25{fill:#df687a;}.cls-26{fill:#ece0d3;}.cls-27{fill:#d3bda8;}.cls-28{stroke:#d3bda8;stroke-linecap:round;stroke-linejoin:round;}</style></defs><title>G12_04_01</title><g id="Tiles"><polygon class="cls-1" points="185.79 166.51 185.79 171.25 96.32 224.03 96.32 219.28 185.79 166.51"/><polygon class="cls-2" points="96.32 219.28 96.32 224.03 0.22 168.3 0.22 163.55 96.32 219.28"/><polygon class="cls-3" points="96.1 219.3 0 163.57 0 163.3 90.31 111.4 185.79 166.52 96.25 219.39 96.1 219.3"/><ellipse class="cls-1" cx="90.23" cy="163.81" rx="65.41" ry="34.02"/></g><g id="Livello_1" data-name="Livello 1"><path class="cls-4" d="M73.69,75l-2.34,2.64S65.21,99.92,65.4,101.8s2.64,2.26,4.15,1.7S75.2,89.18,75.2,89.18Z" transform="translate(-1.22 -14.55)"/><path class="cls-5" d="M86.43,167.9,86,162.54l-5.28-3.06,1.37,9s-11.24,7-10.94,8.72,3.15,1.09,5.37.93,5.27-2.58,6.19-2.63a36.9,36.9,0,0,0,4-.88,2.94,2.94,0,0,0,.88-2.27,14.8,14.8,0,0,0-1.14-4.49Z" transform="translate(-1.22 -14.55)"/><path class="cls-5" d="M100.14,172.51v0l-1-5.9-4.29,0,1,5.77.35,5.6s.79,8.41,3.24,9.28,2.85-2.57,3-3.76C103,179,100.14,172.51,100.14,172.51Z" transform="translate(-1.22 -14.55)"/><path class="cls-4" d="M95.48,109.89s-.46,8.79-.93,10.41.93,23.14.93,23.14,4.91,21.82,4.68,23.21-5,1.76-5.91.37-5.94-19.88-6.87-25.89-3.7-19.9-3.7-19.9-.23,16.89-.23,18.28,3.33,22.77,3.33,22.77a6.84,6.84,0,0,1-3.22,1.08,2.81,2.81,0,0,1-2.65-1.05,7.88,7.88,0,0,1-1.4-3.36s-6.71-28.7-6.25-31.71-.92-23.14-.92-23.14l3.7-1.39Z" transform="translate(-1.22 -14.55)"/><path class="cls-4" d="M86.67,75.76S79,73.28,75.83,74.07A5.68,5.68,0,0,0,71.37,78c-.27,1,1,26.51,1,26.51s13.65,11.3,19.43,8.41c4.17-2.09,4.51-4.45,4.37-5.6a14.66,14.66,0,0,1-.13-2.09l.75-22.51Z" transform="translate(-1.22 -14.55)"/><path class="cls-4" d="M84.41,75.75s2.81.78,3.07,1.43-1.83,3.67-4,5.3a14.47,14.47,0,0,1-3.67,2.1,12.23,12.23,0,0,1-2.48-7.33C77.34,73,84.41,75.75,84.41,75.75Z" transform="translate(-1.22 -14.55)"/><path class="cls-6" d="M71.3,70A7.65,7.65,0,1,0,76,60.3,7.64,7.64,0,0,0,71.3,70Z" transform="translate(-1.22 -14.55)"/><path class="cls-6" d="M76.86,69.6l2.61,7.88h0a4.91,4.91,0,0,0,5.49.57h0a1.22,1.22,0,0,0,.6-1.37L83.62,69Z" transform="translate(-1.22 -14.55)"/><path class="cls-7" d="M72.07,67.88a1.9,1.9,0,0,1-1.15-.31l0,0a7.65,7.65,0,0,1,14.89-2.48A8.16,8.16,0,0,1,86,66a2.6,2.6,0,0,1-1,.31c-.78.06-2.94-.68-2.27-1.55-.45.57,1.3,3.14.06,4-.57-.23-2.27-3.7-2.39-4.31A11.32,11.32,0,0,1,72.07,67.88Z" transform="translate(-1.22 -14.55)"/><path class="cls-4" d="M67.54,106h0a3.83,3.83,0,0,0,3.81-3.81h0a3.83,3.83,0,0,0-3.81-3.81h0a3.82,3.82,0,0,0-3.81,3.81h0A3.82,3.82,0,0,0,67.54,106Z" transform="translate(-1.22 -14.55)"/><path class="cls-6" d="M82.76,66.35a2.33,2.33,0,1,0,1.44-3A2.32,2.32,0,0,0,82.76,66.35Z" transform="translate(-1.22 -14.55)"/><path class="cls-6" d="M62.31,103a2.83,2.83,0,1,0,2.83-2.83A2.83,2.83,0,0,0,62.31,103Z" transform="translate(-1.22 -14.55)"/><polygon class="cls-8" points="59.66 81.64 68.89 87.26 71.3 90.09 61.97 84.62 59.66 81.64"/><polygon class="cls-9" points="59.66 81.64 59.24 82.18 61.43 85.27 71.02 90.65 71.3 90.09 61.97 84.62 59.66 81.64"/><path class="cls-10" d="M72.44,105.64l.24,3.72s11.51,5.43,18.87,3.25c4.28-1.26,4.32-4.25,4.19-5.35a6.86,6.86,0,0,0-.4-1.46s-1.36,2-6.06,2.61C83.9,109.16,72.44,105.64,72.44,105.64Z" transform="translate(-1.22 -14.55)"/><path class="cls-10" d="M76.69,107.44l-1.25-.36s6-18.52,12.92-24.7c.83-.73,3.23-3.35,4.09-2.66.52.43,1,.56,1.26.87A39.87,39.87,0,0,0,87.49,86C83.13,90.64,76.69,107.44,76.69,107.44Z" transform="translate(-1.22 -14.55)"/><path class="cls-11" d="M73.75,94.89l15.93,3.18,2.74-13.88,1.17-.59,2.18,1,.32,20.66a14.66,14.66,0,0,0,.13,2.09c.11,1-.11,2.77-2.62,4.55-5.3-2.72-15.94-8.58-20.22-12.95C70.94,96.44,73.75,94.89,73.75,94.89Z" transform="translate(-1.22 -14.55)"/><path class="cls-4" d="M89.22,90.35s-1.11-3.78.73-4.57c0,0,5.82-4.82,6.89-3a31.5,31.5,0,0,1,4,9.39s2.76,9.58,2.37,12.08-3,3.81-9.19,1.31S72.53,97,72.53,97l.13-2.76,18.12,2Z" transform="translate(-1.22 -14.55)"/><path class="cls-6" d="M67.85,95.21a2.83,2.83,0,1,0,2.83-2.83A2.83,2.83,0,0,0,67.85,95.21Z" transform="translate(-1.22 -14.55)"/><path class="cls-6" d="M66.13,97.74l2-3.12a.79.79,0,1,1,1.33.87l-2,3.12a.79.79,0,0,1-1.33-.87Z" transform="translate(-1.22 -14.55)"/><polygon class="cls-4" points="79.75 62.45 80.92 65.29 84.75 65.81 86.98 62.26 84.24 59.14 83.57 58.96 83.66 59.83 79.75 62.45"/><polygon class="cls-12" points="79.26 66.21 81.11 65.66 79.75 62.45 79.26 66.21"/><circle class="cls-13" cx="81.91" cy="63.28" r="1.06"/><line class="cls-14" x1="73.25" y1="68.42" x2="76.69" y2="69.66"/><line class="cls-15" x1="73.25" y1="68.42" x2="74.38" y2="68.83"/><circle class="cls-16" cx="492.59" cy="72.87" r="70.87"/><path class="cls-17" d="M480.74,74.78C478.09,81,469,82.1,466,88.12c-2,4-.45,9.18,2.7,12.43s7.55,4.94,11.9,6.14c9.72,2.67,20.19,3.28,29.83.32a25.26,25.26,0,0,0,9.51-5,14,14,0,0,0,4.88-9.36,9.85,9.85,0,0,0-4.64-9.16c-1.91-1.07-4.25-1.4-5.88-2.86-2.41-2.16-2.37-5.87-2.28-9.11a114.89,114.89,0,0,0-.92-18.07c-.6-4.62-1.6-9.46-4.73-12.92a14.38,14.38,0,0,0-14-4,17.78,17.78,0,0,0-11.3,9.52,23.4,23.4,0,0,0-1.6,14.9C480.48,65.58,482.59,70.45,480.74,74.78Z" transform="translate(-1.22 -14.55)"/><path class="cls-6" d="M475.06,75.19C470.8,77.82,452.73,98,451.91,100.5s21.23,29.71,21.23,29.71l3.17-5.5L464.1,103.63l14.2-16.36Z" transform="translate(-1.22 -14.55)"/><path class="cls-6" d="M516.29,76.06c4.27,2.63,21.31,22,22.12,24.44s-21.23,29.71-21.23,29.71l-3.16-5.5,12.21-21.08L512,87.27Z" transform="translate(-1.22 -14.55)"/><path class="cls-18" d="M494.25,158.29c6.16,0,23-2.26,23.12-4.07,1.48-23.3-9.54-37.15-9.54-37.15L512.17,98c3.91-3.69,4.12-9.55,4.12-12.15V76.06S498.93,67.6,495,67.6s-20,7.59-20,7.59V85.61c-1.3,7.59,4.56,12.59,4.56,12.59l3.47,18.87s-13,17.07-12.88,37.19A82.56,82.56,0,0,0,494.25,158.29Z" transform="translate(-1.22 -14.55)"/><path class="cls-6" d="M491.54,60.32v9.55s4.83,8.17,9.28.19l-.39-9.74Z" transform="translate(-1.22 -14.55)"/><path class="cls-6" d="M493.49,37.69c-8.24,1.08-9.55,10.59-7.58,18.11,1.48,5.61,4.84,11.28,10.12,11.14s8.47-7.36,9.42-11.79C507,48,506.69,36,493.49,37.69Z" transform="translate(-1.22 -14.55)"/><path class="cls-19" d="M486.9,53.72s-.32-3.15-2.86-2.1.55,8.15,3.39,7.34S486.9,53.72,486.9,53.72Z" transform="translate(-1.22 -14.55)"/><path class="cls-6" d="M503.81,53.56s.09-3.16,2.7-2.3,0,8.17-2.85,7.56S503.81,53.56,503.81,53.56Z" transform="translate(-1.22 -14.55)"/><path class="cls-20" d="M496.07,67.35a7.1,7.1,0,0,1-3.59-1,.41.41,0,0,1,.42-.71,6.45,6.45,0,0,0,6.71-.22.41.41,0,1,1,.46.68A7.15,7.15,0,0,1,496.07,67.35Z" transform="translate(-1.22 -14.55)"/><path class="cls-17" d="M500.17,42.89a26.39,26.39,0,0,1-3.46,14.4c-2.63,4.26-7.1,7.53-12.08,8-1.77-4.32-3.08-9.07-2.59-13.72a17.29,17.29,0,0,1,6.42-12c3.74-2.79,9.11-3.52,13.19-1.24,3.41,1.91,5.54,5.59,6.45,9.39s.83,5.91.68,9.82C503.07,54.48,499.37,49.3,500.17,42.89Z" transform="translate(-1.22 -14.55)"/><circle class="cls-6" cx="475.6" cy="113.58" r="5.67"/><circle class="cls-6" cx="512.6" cy="113.58" r="5.67"/><circle class="cls-21" cx="492.59" cy="72.87" r="70.87"/><circle class="cls-22" cx="340.59" cy="72.87" r="70.87"/><path class="cls-18" d="M346.63,36.92a17.4,17.4,0,0,0-14.82,2,39.3,39.3,0,0,0-9.67,9.29c-.83,1.12-7.14,10.46-6,11.61a43.42,43.42,0,0,0,25,12.5C349.64,73.8,358.51,72.2,367,71c-.86-10.48-4.75-21.39-11.95-28.9A19.41,19.41,0,0,0,346.63,36.92Z" transform="translate(-1.22 -14.55)"/><path class="cls-17" d="M325.3,100.56l3,19.61c-4.66,6.8-8,15.67-11.06,33.73,0,0,5.66,4.39,24.59,4.39,14.22,0,22.39-3.62,22.39-3.62-4-28.53-9.42-34.38-9.42-34.38l4.53-20c4.08-3.85,4.31-10,4.31-12.7s-1.18-11.11-1.18-11.11-17-7.94-21-7.94-19.16,7.94-19.16,7.94L320.53,87.4C319.17,95.34,325.3,100.56,325.3,100.56Z" transform="translate(-1.22 -14.55)"/><path class="cls-23" d="M328.92,94.85c.19,1.09,2.86,31.29,2.86,31.29h21.16l4-32.1Z" transform="translate(-1.22 -14.55)"/><path class="cls-17" d="M362.44,76.52c4.27,2.33,8,15.9,8.26,20.79s-.11,26.22-6.8,26.83-35.62-4-35.62-4l.64-6.93L357,110.63l2.19-23.52Z" transform="translate(-1.22 -14.55)"/><path class="cls-17" d="M322.24,76.52c-6.52,3.47-7.72,22.59-7.41,29.12s-1.78,17.27,3.69,17.6,31-2.23,31-2.23l5.26-9.89-24.56-2.35Z" transform="translate(-1.22 -14.55)"/><path class="cls-6" d="M337.75,62.69v10s5.05,8.55,9.7.2L347,62.69Z" transform="translate(-1.22 -14.55)"/><path class="cls-6" d="M339.79,39c-8.61,1.12-10,11.07-7.92,18.92,1.55,5.87,5.06,11.79,10.58,11.64s8.85-7.69,9.83-12.32C353.87,49.84,353.58,37.23,339.79,39Z" transform="translate(-1.22 -14.55)"/><path class="cls-19" d="M332.9,55.79s-.33-3.29-3-2.2.58,8.53,3.54,7.67S332.9,55.79,332.9,55.79Z" transform="translate(-1.22 -14.55)"/><path class="cls-19" d="M350.57,55.62s.1-3.3,2.83-2.4,0,8.54-3,7.9S350.57,55.62,350.57,55.62Z" transform="translate(-1.22 -14.55)"/><path class="cls-18" d="M351.47,41.5a5.69,5.69,0,0,0-2.16-.46,2.15,2.15,0,0,0-1-1.25c-3-1.63-10.13-1.38-13.25,0s-6.76,7.13-7.58,10.44c-.87,3.53,0,7.23.88,10.75a3.84,3.84,0,0,0,1.5,2.65c3.35,1.82,8.93-3.69,11-5.77a28.31,28.31,0,0,0,6.79-11.45c-1.11,3.66-.06,17.42,6,17.18.63,0,1-.69,1.27-1.26a17.89,17.89,0,0,0,2-6.66C357,53.33,353.61,42.44,351.47,41.5Z" transform="translate(-1.22 -14.55)"/><path class="cls-20" d="M342.49,70a7.33,7.33,0,0,1-3.74-1,.41.41,0,1,1,.41-.7,6.78,6.78,0,0,0,7-.23.41.41,0,0,1,.57.1.4.4,0,0,1-.11.57A7.35,7.35,0,0,1,342.49,70Z" transform="translate(-1.22 -14.55)"/><circle class="cls-6" cx="350.6" cy="98.58" r="5.67"/><circle class="cls-21" cx="340.59" cy="72.87" r="70.87"/><circle class="cls-24" cx="188.59" cy="72.87" r="70.87"/><path class="cls-18" d="M170.83,68.64s1.55-15.06,3.59-22.62,10.13-10.32,15.08-9.86,14.32,2.47,14.45,14a114.32,114.32,0,0,0,1.63,19.15Z" transform="translate(-1.22 -14.55)"/><path class="cls-25" d="M172.69,96.81l2.86,18.77c-6.93,10.12-10.86,25-13.05,37.25-.18,1,11.27,7.85,26.66,5.46,9.42-1.47,26.83-5,26.83-5-5-26.75-15.09-37.6-15.09-37.6l4.34-19.09c3.91-3.69,4.13-9.55,4.13-12.16V74.68S192,66.21,188.1,66.21s-20,7.6-20,7.6V84.23C166.84,91.82,172.69,96.81,172.69,96.81Z" transform="translate(-1.22 -14.55)"/><path class="cls-26" d="M175.14,147l1.49-77s-8.65,2.17-11.29,4.66-8.62,47.32-9.24,60.81c-.07,1.61,1.71,5.41,1.71,5.41-.1,1.85-.22,3.91-.35,6.13Z" transform="translate(-1.22 -14.55)"/><path class="cls-18" d="M205.1,96.53a.36.36,0,0,1-.22-.07.41.41,0,0,1-.13-.56,15.78,15.78,0,0,0,1.12-14.4.43.43,0,0,1,0-.35c.31-.6.6-1.25.89-1.9s.61-1.34.93-2a.41.41,0,0,1,.55-.18.4.4,0,0,1,.17.55c-.31.61-.61,1.27-.9,1.92s-.54,1.21-.83,1.77a16.66,16.66,0,0,1-1.25,15A.43.43,0,0,1,205.1,96.53Z" transform="translate(-1.22 -14.55)"/><path class="cls-6" d="M184.61,60.57v9.55s4.84,8.17,9.28.19l-.39-9.74Z" transform="translate(-1.22 -14.55)"/><path class="cls-6" d="M186.56,37.94C178.33,39,177,48.53,179,56.05c1.47,5.61,4.83,11.28,10.12,11.14s8.46-7.36,9.41-11.79C200,48.28,199.76,36.21,186.56,37.94Z" transform="translate(-1.22 -14.55)"/><path class="cls-6" d="M180,54s-.32-3.15-2.86-2.1.56,8.16,3.39,7.34S180,54,180,54Z" transform="translate(-1.22 -14.55)"/><path class="cls-6" d="M196.88,53.81s.09-3.16,2.7-2.3,0,8.18-2.85,7.57S196.88,53.81,196.88,53.81Z" transform="translate(-1.22 -14.55)"/><path class="cls-18" d="M197.74,40.3a5.59,5.59,0,0,0-2.06-.44,2.13,2.13,0,0,0-1-1.2c-2.87-1.56-9.69-1.32-12.68,0s-6.47,6.82-7.25,10c-.84,3.37,0,6.91.83,10.28A3.68,3.68,0,0,0,177,61.47a3.39,3.39,0,0,0,2.47,0,25.81,25.81,0,0,0,12.16-7.09A16.7,16.7,0,0,0,193,52.85v0a18.62,18.62,0,0,0,5.76,8.1,1.55,1.55,0,0,0,1,.46c.6,0,1-.65,1.21-1.2a17,17,0,0,0,2-6.37C203,51.62,199.79,41.2,197.74,40.3Z" transform="translate(-1.22 -14.55)"/><path class="cls-20" d="M189.14,67.6a7.07,7.07,0,0,1-3.58-1,.41.41,0,1,1,.41-.7,6.5,6.5,0,0,0,6.71-.22.41.41,0,0,1,.57.1.41.41,0,0,1-.11.57A7.1,7.1,0,0,1,189.14,67.6Z" transform="translate(-1.22 -14.55)"/><path class="cls-26" d="M217.25,147c-.1-1.78-.2-3.46-.29-5a39.3,39.3,0,0,0,1.09-6.73c-.61-13.5-6-58.12-8.68-60.61S199.15,70,199.15,70l.9,77Z" transform="translate(-1.22 -14.55)"/><path class="cls-26" d="M209.37,74.68c2.71,1.85,18.24,26.84,16.81,30.93,0,0,1.28,12.66-.19,17.52-1.54,5.14-8.07,6.2-12,5.14S201.6,114,201.6,114l-.34-8.14,4.21.6Z" transform="translate(-1.22 -14.55)"/><path class="cls-26" d="M165.34,74.68c-2.71,1.85-18.1,26.84-16.67,30.93l.18,9.52c-1.63,5.11,8.08,14.2,12,13.14S173.25,122,173.25,122l.34-16.14-4.22.6Z" transform="translate(-1.22 -14.55)"/><polygon class="cls-27" points="173.92 132.48 156.23 132.48 156.59 126.35 174.04 126.26 173.92 132.48"/><polygon class="cls-27" points="198.82 132.48 216.03 132.48 215.74 127.47 198.76 127.47 198.82 132.48"/><path class="cls-28" d="M168.57,115.62c1,.49.16,4.27-1.88,8.46s-4.51,7.17-5.51,6.68" transform="translate(-1.22 -14.55)"/><path class="cls-28" d="M206.6,115.62c-1,.49-.16,4.27,1.88,8.46s4.51,7.17,5.52,6.68" transform="translate(-1.22 -14.55)"/><polygon class="cls-27" points="175.22 64.78 173.2 56.09 179.11 53.96 175.22 64.78"/><polygon class="cls-27" points="198.01 64.67 200 56.1 194.12 53.85 198.01 64.67"/><circle class="cls-21" cx="188.59" cy="72.87" r="70.87"/></g></svg>