<svg xmlns="http://www.w3.org/2000/svg" viewBox="0 0 1208 510.73"><defs><style>.cls-1{opacity:0.7;}.cls-2{fill:#f9b233;}.cls-3{fill:#c0a675;}.cls-29,.cls-4,.cls-44,.cls-6{fill:#010101;}.cls-4{opacity:0.16;}.cls-5{fill:#b3955e;}.cls-18,.cls-43,.cls-6{opacity:0.1;}.cls-7{fill:#66abd1;}.cls-8{fill:#ededed;}.cls-9{fill:#87cdd3;}.cls-10{fill:#3f4855;}.cls-11,.cls-18,.cls-47{fill:#fff;}.cls-12{fill:#d93425;}.cls-13{fill:#3bb5a6;}.cls-14{fill:#ffe77b;}.cls-15{fill:#e5cd67;}.cls-16{fill:#855815;}.cls-17{fill:#4c9a34;}.cls-19{fill:#57832e;}.cls-20{fill:#5f8d2f;}.cls-21{fill:#8ec03d;}.cls-22{fill:#f6bbc6;}.cls-23{fill:#3c3c3b;}.cls-24{fill:#fcd2a2;}.cls-25{fill:#3d3d3b;}.cls-26{fill:#7e4f25;}.cls-27{fill:#585857;}.cls-28{fill:#878787;}.cls-29{opacity:0.2;}.cls-30{fill:#7d7338;}.cls-31{fill:#a6994a;}.cls-32{fill:#9d9d9c;}.cls-33{fill:#575756;}.cls-34{fill:#111;}.cls-35{fill:#101010;}.cls-36{fill:#151515;}.cls-37{fill:#2a292a;}.cls-38{fill:#ffe677;}.cls-39{fill:#ccb03a;}.cls-40{fill:#b5a750;}.cls-41{fill:#202020;}.cls-42{fill:#e5c850;}.cls-45{fill:#ea662d;}.cls-46{fill:#b62b2b;}.cls-47{opacity:0.3;}.cls-48{fill:#f9cdd3;}.cls-49{fill:#353430;}.cls-50{fill:#1d3d78;}.cls-51{fill:#edb44f;}.cls-52{fill:#ebebeb;}.cls-53{fill:#e06371;}.cls-54{fill:#303b45;}.cls-55{fill:#d3465c;}.cls-56{fill:#e38868;}.cls-57{fill:#eaeaea;}</style></defs><title>G12_01</title><g id="Moutains"><g class="cls-1"><circle class="cls-2" cx="192.27" cy="54.89" r="49.61"/></g><polygon id="_Tracciato_" data-name="&lt;Tracciato&gt;" class="cls-3" points="67.91 81.42 34.37 219.52 34.6 237.97 105.92 237.97 67.91 81.42"/><polygon id="_Tracciato_2" data-name="&lt;Tracciato&gt;" class="cls-3" points="119.49 81.78 60.9 238.35 178.09 238.35 119.49 81.78"/><polygon id="_Tracciato_3" data-name="&lt;Tracciato&gt;" class="cls-4" points="119.49 81.78 117.17 100.12 124.2 125.19 119.49 155.58 129.9 195.09 119.49 238.35 60.9 238.35 119.49 81.78"/><polygon id="_Tracciato_4" data-name="&lt;Tracciato&gt;" class="cls-5" points="90.55 116.43 145.22 238.35 39.97 238.35 90.55 116.43"/><polygon id="_Tracciato_5" data-name="&lt;Tracciato&gt;" class="cls-6" points="90.55 116.43 39.97 238.35 92.59 238.35 88.47 181.03 93.51 166.32 87.49 139.75 90.84 124.36 90.55 116.43"/><polygon id="_Tracciato_6" data-name="&lt;Tracciato&gt;" class="cls-6" points="67.91 82.09 67.91 82.11 68.55 100.47 65.11 105.05 72.05 141.08 62.23 165.15 67.91 238.66 34.6 238.66 34.37 220.2 67.91 82.09"/></g><g id="Cluds"><rect id="_Tracciato_7" data-name="&lt;Tracciato&gt;" class="cls-7" x="172" y="238.59" width="1036" height="272.14"/><path class="cls-7" d="M715.41,252.43c13.16-.3,13.73-4.76,27.91-4.76,14.73,0,14.73,4.31,29.46,4.31s14.72-4.31,29.45-4.31S817,252,831.69,252s14.73-4.31,29.46-4.31S875.88,252,890.6,252s14.74-4.31,29.47-4.31S934.79,252,949.52,252s14.73-4.31,29.46-4.31S993.7,252,1008.43,252s14.73-4.31,29.45-4.31,14.73,4.31,29.45,4.31,14.73-4.31,29.45-4.31,14.73,4.31,29.46,4.31,14.72-4.31,29.45-4.31,14.73,4.31,29.45,4.31a44.43,44.43,0,0,0,13.73-1.86v49.39a44.58,44.58,0,0,0-13.78-1.88c-14.73,0-14.73,4.31-29.47,4.31s-14.73-4.31-29.45-4.31-14.73,4.31-29.45,4.31-14.73-4.31-29.47-4.31-14.72,4.31-29.45,4.31-14.73-4.31-29.46-4.31-14.73,4.31-29.46,4.31-14.73-4.31-29.46-4.31-14.72,4.31-29.45,4.31-14.72-4.31-29.45-4.31-14.73,4.31-29.46,4.31-14.72-4.31-29.45-4.31-14.72,4.31-29.44,4.31-14.73-4.31-29.46-4.31-14.73,4.31-29.45,4.31c-14.16,0-14.75-4-27.85-4.28l-15.53-45.23Z" transform="translate(9.14 -13.84)"/><path id="_Tracciato_8" data-name="&lt;Tracciato&gt;" class="cls-8" d="M362.89,18.93h-2.5a8.13,8.13,0,0,0-15.24.43,5.38,5.38,0,0,0-2.09-.43A5.21,5.21,0,0,0,338,23.12H335.5a3.5,3.5,0,0,0,0,7h27.39a5.59,5.59,0,1,0,0-11.18Z" transform="translate(9.14 -13.84)"/><path id="_Tracciato_9" data-name="&lt;Tracciato&gt;" class="cls-8" d="M309.51,47.82h-4.92a16,16,0,0,0-30,.86,10.26,10.26,0,0,0-14.17,7.4h-4.83a6.88,6.88,0,0,0,0,13.76h53.93a11,11,0,1,0,0-22Z" transform="translate(9.14 -13.84)"/><path id="_Tracciato_10" data-name="&lt;Tracciato&gt;" class="cls-8" d="M15,77.61h5.4a17.57,17.57,0,0,1,32.93.94,11.25,11.25,0,0,1,15.54,8.12h5.3a7.55,7.55,0,0,1,0,15.1H15a12.08,12.08,0,1,1,0-24.16Z" transform="translate(9.14 -13.84)"/><path id="_Tracciato_11" data-name="&lt;Tracciato&gt;" class="cls-8" d="M482.66,46.26h-4.79a15.57,15.57,0,0,0-29.18.84,9.83,9.83,0,0,0-4-.84,10,10,0,0,0-9.78,8h-4.7a6.69,6.69,0,0,0,0,13.38h52.44a10.71,10.71,0,1,0,0-21.41Z" transform="translate(9.14 -13.84)"/><path id="_Tracciato_12" data-name="&lt;Tracciato&gt;" class="cls-8" d="M225.25,20.37h-2.68a8.69,8.69,0,0,0-16.28.47,5.56,5.56,0,0,0-7.69,4H196a3.74,3.74,0,1,0,0,7.47h29.27a6,6,0,0,0,0-12Z" transform="translate(9.14 -13.84)"/><path id="_Tracciato_13" data-name="&lt;Tracciato&gt;" class="cls-8" d="M105.32,31.69h-4a12.88,12.88,0,0,0-24.15.7,8.11,8.11,0,0,0-3.31-.7,8.26,8.26,0,0,0-8.1,6.65H61.9a5.54,5.54,0,0,0,0,11.08h43.42a8.87,8.87,0,0,0,0-17.73Z" transform="translate(9.14 -13.84)"/><path id="_Tracciato_14" data-name="&lt;Tracciato&gt;" class="cls-8" d="M388.78,81.51h-3.49a11.33,11.33,0,0,0-21.24.61,7.26,7.26,0,0,0-10,5.24H350.6a4.87,4.87,0,0,0,0,9.74h38.18a7.8,7.8,0,1,0,0-15.59Z" transform="translate(9.14 -13.84)"/><path id="_Tracciato_15" data-name="&lt;Tracciato&gt;" class="cls-8" d="M876.46,111.84H874a8.13,8.13,0,0,0-15.24.44,5.2,5.2,0,0,0-7.19,3.75h-2.45a3.5,3.5,0,1,0,0,7h27.38a5.59,5.59,0,1,0,0-11.18Z" transform="translate(9.14 -13.84)"/><path id="_Tracciato_16" data-name="&lt;Tracciato&gt;" class="cls-8" d="M749.79,67.83h-4.92a16,16,0,0,0-30,.86,10.25,10.25,0,0,0-14.16,7.4h-4.83a6.88,6.88,0,0,0,0,13.76h53.93a11,11,0,0,0,0-22Z" transform="translate(9.14 -13.84)"/><path id="_Tracciato_17" data-name="&lt;Tracciato&gt;" class="cls-8" d="M520.64,112.14H526a17.57,17.57,0,0,1,32.93.94,11.26,11.26,0,0,1,15.55,8.12h5.3a7.55,7.55,0,0,1,0,15.1H520.64a12.08,12.08,0,1,1,0-24.16Z" transform="translate(9.14 -13.84)"/><path id="_Tracciato_18" data-name="&lt;Tracciato&gt;" class="cls-8" d="M684.08,128.4h-2.15a7,7,0,0,0-13.09.37,4.48,4.48,0,0,0-6.18,3.23h-2.1a3,3,0,1,0,0,6h23.52a4.8,4.8,0,0,0,0-9.6Z" transform="translate(9.14 -13.84)"/><path id="_Tracciato_19" data-name="&lt;Tracciato&gt;" class="cls-8" d="M615.34,70h-3.19a10.35,10.35,0,0,0-19.41.56,6.53,6.53,0,0,0-2.66-.56,6.65,6.65,0,0,0-6.51,5.34h-3.12a4.46,4.46,0,0,0,0,8.91h34.89a7.13,7.13,0,0,0,0-14.25Z" transform="translate(9.14 -13.84)"/><path class="cls-9" d="M772.7,331.33c24.95-1.1,49.9-1.54,74.84-1.69,12.48-.05,25,.1,37.42.22s24.95.35,37.43.69,24.94.52,37.42.39l9.35-.15,9.36-.26,18.71-.48q9.36-.17,18.71-.1t18.71.2c12.47.19,24.95.55,37.42,1.18a.18.18,0,0,1,.17.18.18.18,0,0,1-.17.17c-12.47.63-25,1-37.42,1.18-6.24.11-12.47.16-18.71.2s-12.47,0-18.71-.1l-18.71-.48-9.36-.26-9.35-.15c-12.48-.13-24.95.09-37.42.39s-24.95.59-37.43.69-24.94.27-37.42.22c-24.94-.15-49.89-.59-74.84-1.69a.18.18,0,0,1-.17-.18A.18.18,0,0,1,772.7,331.33Z" transform="translate(9.14 -13.84)"/><path class="cls-9" d="M910.75,365.51c9.64-.83,19.29-1.15,28.93-1.35s19.3.16,28.94.3l28.94.45,28.94.6v.3l-28.94.6-28.94.45c-9.64.13-19.29.52-28.94.3s-19.29-.53-28.93-1.35Z" transform="translate(9.14 -13.84)"/><path class="cls-9" d="M713.28,396.09c3.32-.23,6.65-.35,10-.53l10-.36c6.64-.24,13.29-.35,19.93-.46,13.29-.2,26.58.14,39.87.3l39.87.45,39.86.6v.3l-39.86.6-39.87.45c-13.29.16-26.58.5-39.87.3-6.64-.11-13.29-.22-19.93-.45l-10-.36c-3.32-.19-6.65-.31-10-.54Z" transform="translate(9.14 -13.84)"/><path class="cls-9" d="M1025.67,395.22c8.92-.83,17.83-1.15,26.75-1.35s17.84.17,26.75.3l26.76.45,26.75.6v.3l-26.75.6-26.76.45c-8.91.13-17.83.52-26.75.3s-17.83-.53-26.75-1.35Z" transform="translate(9.14 -13.84)"/><path class="cls-9" d="M868.39,346.37c8.92-.82,17.83-1.15,26.75-1.35s17.83.17,26.75.3l26.75.45,26.76.6v.3l-26.76.6-26.75.45c-8.92.13-17.83.52-26.75.3s-17.83-.52-26.75-1.35Z" transform="translate(9.14 -13.84)"/><path class="cls-9" d="M1146.6,330c-8.92-.1-17.84-.39-26.76-.23s-17.83.4-26.75,1V331c8.92.62,17.84.86,26.75,1s17.84-.13,26.76-.23l12.43-.15v-1.49Z" transform="translate(9.14 -13.84)"/><polygon class="cls-10" points="828.41 307.17 828.41 319.94 826.01 319.94 826.01 309.57 815.5 309.57 815.5 320.28 813.09 320.28 813.09 309.57 802.58 309.57 802.58 320.28 800.17 320.28 800.17 309.57 789.65 309.57 789.65 320.28 787.25 320.28 787.25 309.57 776.74 309.57 776.74 320.28 774.33 320.28 774.33 309.57 763.82 309.57 763.82 320.28 761.41 320.28 761.41 309.57 750.9 309.57 750.9 320.28 748.5 320.28 748.5 309.57 736.67 309.57 736.67 319.94 734.27 319.94 734.27 307.17 828.41 307.17"/><rect class="cls-11" x="734.27" y="319.08" width="94.14" height="53.28"/><path class="cls-12" d="M1174,379H1049l-10.22,11.41H701.56l21.63,35.46h392.52S1174,402.44,1174,379Z" transform="translate(9.14 -13.84)"/><polygon class="cls-10" points="1183.14 365.15 1183.14 353.13 1055.14 353.13 1046.73 362.15 710.7 362.45 710.7 376.57 1047.93 376.57 1058.15 365.15 1183.14 365.15"/><rect class="cls-13" x="797.57" y="327.5" width="20.03" height="15.22"/><rect class="cls-13" x="769.53" y="327.5" width="20.03" height="15.22"/><rect class="cls-13" x="741.48" y="327.5" width="20.03" height="15.22"/><polygon class="cls-10" points="804.39 350.53 804.73 350.53 804.84 350.65 816 362.84 814.23 364.46 804.84 354.22 804.84 363.32 802.45 363.32 802.45 352.93 791.92 352.93 791.92 363.65 789.52 363.65 789.52 352.93 779 352.93 779 363.65 776.6 363.65 776.6 352.93 766.08 352.93 766.08 363.65 763.68 363.65 763.68 352.93 753.17 352.93 753.17 363.65 750.76 363.65 750.76 352.93 740.24 352.93 740.24 363.65 737.84 363.65 737.84 352.93 727.32 352.93 727.32 363.65 724.92 363.65 724.92 352.93 713.1 352.93 713.1 363.32 710.7 363.32 710.7 350.53 804.39 350.53"/><path class="cls-10" d="M1155.77,388.62a2.41,2.41,0,1,0,2.4-2.42A2.4,2.4,0,0,0,1155.77,388.62Z" transform="translate(9.14 -13.84)"/><path class="cls-10" d="M1143.06,388.62a2.41,2.41,0,1,0,2.41-2.42A2.4,2.4,0,0,0,1143.06,388.62Z" transform="translate(9.14 -13.84)"/><path class="cls-10" d="M1130.35,388.62a2.41,2.41,0,1,0,2.41-2.42A2.4,2.4,0,0,0,1130.35,388.62Z" transform="translate(9.14 -13.84)"/><path class="cls-10" d="M711.62,397.83a2.41,2.41,0,1,0,2.41-2.4A2.4,2.4,0,0,0,711.62,397.83Z" transform="translate(9.14 -13.84)"/><path class="cls-7" d="M699.88,422c13.16-.3,13.73-4.28,27.91-4.28,14.73,0,14.73,4.31,29.46,4.31s14.72-4.31,29.45-4.31S801.43,422,816.16,422s14.73-4.31,29.46-4.31S860.35,422,875.07,422s14.73-4.31,29.47-4.31S919.26,422,934,422s14.73-4.31,29.45-4.31S978.17,422,992.9,422s14.72-4.31,29.45-4.31,14.73,4.31,29.45,4.31,14.73-4.31,29.45-4.31S1096,422,1110.7,422s14.73-4.31,29.46-4.31,14.73,4.31,29.45,4.31a44.43,44.43,0,0,0,13.73-1.86v49.39a44.58,44.58,0,0,0-13.78-1.88c-14.73,0-14.73,4.31-29.47,4.31s-14.73-4.31-29.45-4.31-14.73,4.31-29.46,4.31-14.73-4.31-29.46-4.31-14.72,4.31-29.45,4.31-14.73-4.31-29.46-4.31-14.73,4.31-29.46,4.31-14.73-4.31-29.46-4.31-14.72,4.31-29.45,4.31-14.73-4.31-29.45-4.31-14.73,4.31-29.46,4.31-14.72-4.31-29.45-4.31-14.72,4.31-29.44,4.31-14.73-4.31-29.46-4.31-14.73,4.31-29.45,4.31c-14.16,0-14.75-4-27.85-4.28Z" transform="translate(9.14 -13.84)"/><path class="cls-9" d="M1084.6,295c-24.95,1.1-49.89,1.54-74.84,1.69-12.48,0-25-.1-37.42-.22s-25-.35-37.42-.69-24.95-.52-37.43-.39l-9.35.15-9.36.26-18.71.48q-9.35.15-18.71.09c-6.23,0-12.47-.08-18.71-.19-12.47-.19-24.95-.55-37.42-1.18a.19.19,0,0,1-.17-.19.17.17,0,0,1,.17-.16c12.47-.63,24.95-1,37.42-1.18q9.36-.17,18.71-.2t18.71.1l18.71.48,9.36.25,9.35.16c12.48.13,25-.09,37.43-.4s24.94-.58,37.42-.68,24.94-.27,37.42-.22c25,.14,49.89.58,74.84,1.69a.17.17,0,0,1,.17.18A.19.19,0,0,1,1084.6,295Z" transform="translate(9.14 -13.84)"/><path class="cls-9" d="M836.55,276.15c-9.64.83-19.29,1.15-28.93,1.35s-19.3-.17-28.94-.3l-28.94-.45-28.94-.6v-.3l28.94-.6,28.94-.45c9.64-.13,19.29-.52,28.94-.3s19.29.53,28.93,1.35Z" transform="translate(9.14 -13.84)"/><path class="cls-9" d="M1144,311.74c-3.32.23-6.64.35-10,.53l-10,.36c-6.65.24-13.29.35-19.94.46-13.29.2-26.58-.14-39.87-.3l-39.86-.45-39.87-.6v-.3l39.87-.6,39.86-.45c13.29-.16,26.58-.5,39.87-.3,6.65.11,13.29.22,19.94.45l10,.36c3.33.19,6.65.31,10,.54Z" transform="translate(9.14 -13.84)"/><path class="cls-9" d="M841.63,310.86c-8.91.83-17.83,1.15-26.75,1.35s-17.83-.16-26.75-.3l-26.75-.45-26.76-.6v-.3l26.76-.6,26.75-.45c8.92-.13,17.83-.52,26.75-.3s17.84.53,26.75,1.35Z" transform="translate(9.14 -13.84)"/><path class="cls-9" d="M1148.91,277c-8.91.83-17.83,1.15-26.75,1.35s-17.83-.17-26.75-.3l-26.75-.45-26.76-.6v-.3l26.76-.6,26.75-.45c8.92-.13,17.83-.52,26.75-.3s17.84.53,26.75,1.35Z" transform="translate(9.14 -13.84)"/><polygon class="cls-9" points="1205.65 344 1196.16 344.11 1167.22 344.56 1167.22 344.78 1196.16 345.23 1205.65 345.34 1205.65 344"/><path class="cls-9" d="M882.22,439.87c24.95-1.11,49.89-1.55,74.84-1.7,12.48,0,25,.1,37.42.22s24.95.36,37.42.69,24.95.53,37.43.39l9.35-.15,9.36-.25,18.71-.49q9.35-.15,18.71-.09t18.71.19c12.47.2,24.95.56,37.42,1.19a.17.17,0,0,1,.17.18.19.19,0,0,1-.17.17c-12.47.62-24.95,1-37.42,1.18-6.24.11-12.48.16-18.71.19s-12.48,0-18.71-.09L1088,441l-9.36-.26-9.35-.15c-12.48-.13-24.95.08-37.43.39s-24.94.59-37.42.69-24.94.27-37.42.22c-24.95-.15-49.89-.59-74.84-1.69a.19.19,0,0,1-.17-.19A.17.17,0,0,1,882.22,439.87Z" transform="translate(9.14 -13.84)"/><path class="cls-9" d="M702.8,450.63c3.32-.23,6.65-.36,10-.54l10-.36c6.65-.24,13.29-.35,19.94-.45,13.29-.2,26.58.13,39.87.3l39.86.45,39.87.6v.3l-39.87.6-39.86.45c-13.29.16-26.58.49-39.87.3-6.65-.11-13.29-.22-19.94-.46l-10-.36c-3.32-.18-6.65-.3-10-.53Z" transform="translate(9.14 -13.84)"/><path class="cls-9" d="M994.6,505c-25,1.1-49.89,1.54-74.84,1.69-12.48,0-25-.1-37.42-.22s-25-.35-37.42-.69-24.95-.52-37.43-.39l-9.35.15-9.36.26-18.71.48q-9.35.15-18.71.09c-6.23,0-12.47-.08-18.71-.19-12.47-.19-24.95-.55-37.42-1.18a.19.19,0,0,1-.17-.19.17.17,0,0,1,.17-.16c12.47-.63,24.95-1,37.42-1.18q9.36-.17,18.71-.2t18.71.1l18.71.48,9.36.25,9.35.16c12.48.13,25-.09,37.43-.4s24.94-.58,37.42-.68,24.94-.27,37.42-.22c25,.14,49.89.58,74.84,1.69a.17.17,0,0,1,.17.18A.19.19,0,0,1,994.6,505Z" transform="translate(9.14 -13.84)"/><path class="cls-9" d="M1006.55,476.15c-9.64.83-19.29,1.15-28.93,1.35s-19.3-.17-28.94-.3l-28.94-.45-28.94-.6v-.3l28.94-.6,28.94-.45c9.64-.13,19.29-.52,28.94-.3s19.29.53,28.93,1.35Z" transform="translate(9.14 -13.84)"/><path class="cls-9" d="M1148.91,487c-8.91.83-17.83,1.15-26.75,1.35s-17.83-.17-26.75-.3l-26.75-.45-26.76-.6v-.3l26.76-.6,26.75-.45c8.92-.13,17.83-.52,26.75-.3s17.84.53,26.75,1.35Z" transform="translate(9.14 -13.84)"/><polygon class="cls-9" points="1205.65 454 1196.16 454.11 1167.22 454.56 1167.22 454.78 1196.16 455.23 1205.65 455.34 1205.65 454"/><path class="cls-9" d="M800.71,485.36c8.91-.1,17.83-.39,26.75-.23s17.83.39,26.75,1v.23c-8.92.61-17.83.86-26.75,1s-17.84-.13-26.75-.23L788.28,487v-1.49Z" transform="translate(9.14 -13.84)"/><path class="cls-9" d="M1022.8,510.63c3.32-.23,6.65-.36,10-.54l10-.36c6.65-.24,13.29-.35,19.94-.45,13.29-.2,26.58.13,39.87.3l39.86.45,39.87.6v.3l-39.87.6-39.86.45c-13.29.16-26.58.49-39.87.3-6.65-.11-13.29-.22-19.94-.46l-10-.36c-3.32-.18-6.65-.3-10-.53Z" transform="translate(9.14 -13.84)"/></g><g id="Livello_1" data-name="Livello 1"><polygon id="_Tracciato_20" data-name="&lt;Tracciato&gt;" class="cls-9" points="709.01 238.59 172 238.59 172 510.73 679.07 510.73 709.01 238.59"/><g id="_Gruppo_" data-name="&lt;Gruppo&gt;"><path id="_Tracciato_21" data-name="&lt;Tracciato&gt;" class="cls-14" d="M112.51,252.43S153.61,171,239.71,171c101.43,0,200.39,81.43,200.39,81.43Z" transform="translate(9.14 -13.84)"/><path id="_Tracciato_22" data-name="&lt;Tracciato&gt;" class="cls-15" d="M112.51,252.43s33.19-65.77,102.73-65.77c81.93,0,161.85,65.77,161.85,65.77Z" transform="translate(9.14 -13.84)"/></g><g id="_Gruppo_2" data-name="&lt;Gruppo&gt;"><path id="_Tracciato_23" data-name="&lt;Tracciato&gt;" class="cls-14" d="M-9,202.43A77,77,0,0,1,18,197.58c64.17,0,126.78,54.85,126.78,54.85H-9Z" transform="translate(9.14 -13.84)"/><path id="_Tracciato_24" data-name="&lt;Tracciato&gt;" class="cls-15" d="M-9,209.19a63.46,63.46,0,0,1,11.59-1.06c51.83,0,102.4,44.3,102.4,44.3H-9Z" transform="translate(9.14 -13.84)"/></g><g id="_Gruppo_3" data-name="&lt;Gruppo&gt;"><rect id="_Tracciato_25" data-name="&lt;Tracciato&gt;" class="cls-16" x="170.82" y="209.51" width="4.48" height="29.08"/><g id="_Gruppo_4" data-name="&lt;Gruppo&gt;"><path id="_Tracciato_26" data-name="&lt;Tracciato&gt;" class="cls-17" d="M145.2,206.84c.92-25.79,18.73-53.93,18.73-53.93s17.8,28.14,18.72,53.93c.47,13.26-3.75,33.77-18.72,33.77S144.73,220.1,145.2,206.84Z" transform="translate(9.14 -13.84)"/><path id="_Tracciato_27" data-name="&lt;Tracciato&gt;" class="cls-18" d="M163.93,152.91s17.8,28.14,18.72,53.93c.47,13.26-3.75,33.77-18.72,33.77Z" transform="translate(9.14 -13.84)"/></g></g><g id="_Gruppo_5" data-name="&lt;Gruppo&gt;"><rect id="_Tracciato_28" data-name="&lt;Tracciato&gt;" class="cls-16" x="30.98" y="213.26" width="3.9" height="25.33"/><g id="_Gruppo_6" data-name="&lt;Gruppo&gt;"><path id="_Tracciato_29" data-name="&lt;Tracciato&gt;" class="cls-17" d="M7.48,212.72c.8-22.47,16.31-47,16.31-47s15.51,24.51,16.31,47c.41,11.55-3.26,29.41-16.31,29.41S7.07,224.27,7.48,212.72Z" transform="translate(9.14 -13.84)"/><path id="_Tracciato_30" data-name="&lt;Tracciato&gt;" class="cls-18" d="M23.79,165.74s15.51,24.51,16.31,47c.41,11.55-3.26,29.41-16.31,29.41Z" transform="translate(9.14 -13.84)"/></g></g><g id="_Gruppo_7" data-name="&lt;Gruppo&gt;"><g id="_Gruppo_8" data-name="&lt;Gruppo&gt;"><path id="_Tracciato_31" data-name="&lt;Tracciato&gt;" class="cls-19" d="M169.11,252.43c0-.11,0-.21,0-.32a15.45,15.45,0,1,1,30.9,0v.32Z" transform="translate(9.14 -13.84)"/><path id="_Tracciato_32" data-name="&lt;Tracciato&gt;" class="cls-19" d="M94.26,252.43c0-.23,0-.47,0-.71a33.76,33.76,0,0,1,67.52,0c0,.24,0,.48,0,.71Z" transform="translate(9.14 -13.84)"/></g><path id="_Tracciato_33" data-name="&lt;Tracciato&gt;" class="cls-19" d="M94.26,252.43c0-.23,0-.47,0-.71a33.76,33.76,0,0,1,67.52,0c0,.24,0,.48,0,.71Z" transform="translate(9.14 -13.84)"/><circle id="_Tracciato_34" data-name="&lt;Tracciato&gt;" class="cls-20" cx="131.59" cy="217.56" r="9.15"/><circle id="_Tracciato_35" data-name="&lt;Tracciato&gt;" class="cls-20" cx="148.18" cy="218.99" r="2.72"/><path id="_Tracciato_36" data-name="&lt;Tracciato&gt;" class="cls-20" d="M141.5,252.43c0-.15,0-.3,0-.45a21.53,21.53,0,0,1,43.06,0c0,.15,0,.3,0,.45Z" transform="translate(9.14 -13.84)"/><path id="_Tracciato_37" data-name="&lt;Tracciato&gt;" class="cls-20" d="M77.24,252.43c0-.12,0-.24,0-.36a17.27,17.27,0,0,1,34.54,0c0,.12,0,.24,0,.36Z" transform="translate(9.14 -13.84)"/></g><g id="_Gruppo_9" data-name="&lt;Gruppo&gt;"><g id="_Gruppo_10" data-name="&lt;Gruppo&gt;"><path id="_Tracciato_38" data-name="&lt;Tracciato&gt;" class="cls-19" d="M307.23,252.43c0-.07,0-.13,0-.2a9.86,9.86,0,1,0-19.71,0c0,.07,0,.13,0,.2Z" transform="translate(9.14 -13.84)"/><path id="_Tracciato_39" data-name="&lt;Tracciato&gt;" class="cls-19" d="M355,252.43c0-.15,0-.3,0-.45a21.53,21.53,0,0,0-43.05,0c0,.15,0,.3,0,.45Z" transform="translate(9.14 -13.84)"/></g><path id="_Tracciato_40" data-name="&lt;Tracciato&gt;" class="cls-19" d="M355,252.43c0-.15,0-.3,0-.45a21.53,21.53,0,0,0-43.05,0c0,.15,0,.3,0,.45Z" transform="translate(9.14 -13.84)"/><path id="_Tracciato_41" data-name="&lt;Tracciato&gt;" class="cls-20" d="M342.81,239a5.84,5.84,0,1,1-5.83-5.83A5.83,5.83,0,0,1,342.81,239Z" transform="translate(9.14 -13.84)"/><path id="_Tracciato_42" data-name="&lt;Tracciato&gt;" class="cls-20" d="M328.14,239.94a1.74,1.74,0,1,1-1.73-1.74A1.74,1.74,0,0,1,328.14,239.94Z" transform="translate(9.14 -13.84)"/><path id="_Tracciato_43" data-name="&lt;Tracciato&gt;" class="cls-20" d="M324.84,252.43v-.29a13.73,13.73,0,0,0-27.46,0c0,.1,0,.2,0,.29Z" transform="translate(9.14 -13.84)"/><path id="_Tracciato_44" data-name="&lt;Tracciato&gt;" class="cls-20" d="M365.81,252.43c0-.07,0-.15,0-.23a11,11,0,0,0-22,0v.23Z" transform="translate(9.14 -13.84)"/></g><g id="_Gruppo_11" data-name="&lt;Gruppo&gt;"><g id="_Gruppo_12" data-name="&lt;Gruppo&gt;"><path id="_Tracciato_45" data-name="&lt;Tracciato&gt;" class="cls-19" d="M49.41,252.43a1,1,0,0,1,0-.17,8.46,8.46,0,1,1,16.92,0v.17Z" transform="translate(9.14 -13.84)"/><path id="_Tracciato_46" data-name="&lt;Tracciato&gt;" class="cls-19" d="M8.41,252.43c0-.13,0-.25,0-.39a18.49,18.49,0,0,1,37,0c0,.14,0,.26,0,.39Z" transform="translate(9.14 -13.84)"/></g><path id="_Tracciato_47" data-name="&lt;Tracciato&gt;" class="cls-19" d="M8.41,252.43c0-.13,0-.25,0-.39a18.49,18.49,0,0,1,37,0c0,.14,0,.26,0,.39Z" transform="translate(9.14 -13.84)"/><path id="_Tracciato_48" data-name="&lt;Tracciato&gt;" class="cls-20" d="M18.84,240.92a5,5,0,1,0,5-5A5,5,0,0,0,18.84,240.92Z" transform="translate(9.14 -13.84)"/><path id="_Tracciato_49" data-name="&lt;Tracciato&gt;" class="cls-20" d="M31.44,241.7a1.5,1.5,0,1,0,1.5-1.49A1.5,1.5,0,0,0,31.44,241.7Z" transform="translate(9.14 -13.84)"/><path id="_Tracciato_50" data-name="&lt;Tracciato&gt;" class="cls-20" d="M34.29,252.43a1.93,1.93,0,0,1,0-.24,11.79,11.79,0,1,1,23.58,0v.24Z" transform="translate(9.14 -13.84)"/><path id="_Tracciato_51" data-name="&lt;Tracciato&gt;" class="cls-20" d="M-.91,252.43c0-.06,0-.13,0-.2a9.46,9.46,0,0,1,18.92,0,1.27,1.27,0,0,1,0,.2Z" transform="translate(9.14 -13.84)"/></g><g id="_Gruppo_13" data-name="&lt;Gruppo&gt;"><g id="_Gruppo_14" data-name="&lt;Gruppo&gt;"><path id="_Tracciato_52" data-name="&lt;Tracciato&gt;" class="cls-19" d="M247.35,252.43v-.14a6.71,6.71,0,0,1,13.41,0v.14Z" transform="translate(9.14 -13.84)"/><path id="_Tracciato_53" data-name="&lt;Tracciato&gt;" class="cls-19" d="M214.88,252.43c0-.1,0-.2,0-.3a14.65,14.65,0,1,1,29.29,0v.3Z" transform="translate(9.14 -13.84)"/></g><path id="_Tracciato_54" data-name="&lt;Tracciato&gt;" class="cls-19" d="M247.35,252.43v-.14a6.71,6.71,0,0,1,13.41,0v.14Z" transform="translate(9.14 -13.84)"/><path id="_Tracciato_55" data-name="&lt;Tracciato&gt;" class="cls-19" d="M214.88,252.43c0-.1,0-.2,0-.3a14.65,14.65,0,1,1,29.29,0v.3Z" transform="translate(9.14 -13.84)"/><path id="_Tracciato_56" data-name="&lt;Tracciato&gt;" class="cls-20" d="M235.38,252.43a1.21,1.21,0,0,1,0-.19,9.35,9.35,0,1,1,18.69,0c0,.06,0,.13,0,.19Z" transform="translate(9.14 -13.84)"/><path id="_Tracciato_57" data-name="&lt;Tracciato&gt;" class="cls-20" d="M235.38,252.43a1.21,1.21,0,0,1,0-.19,9.35,9.35,0,1,1,18.69,0c0,.06,0,.13,0,.19Z" transform="translate(9.14 -13.84)"/></g><g id="_Gruppo_15" data-name="&lt;Gruppo&gt;"><rect id="_Tracciato_58" data-name="&lt;Tracciato&gt;" class="cls-16" x="90.05" y="220.38" width="2.81" height="18.21"/><g id="_Gruppo_16" data-name="&lt;Gruppo&gt;"><path id="_Tracciato_59" data-name="&lt;Tracciato&gt;" class="cls-17" d="M70.59,223.89c.58-16.15,11.73-33.77,11.73-33.77S93.46,207.74,94,223.89c.29,8.3-2.35,21.14-11.72,21.14S70.3,232.19,70.59,223.89Z" transform="translate(9.14 -13.84)"/><path id="_Tracciato_60" data-name="&lt;Tracciato&gt;" class="cls-18" d="M82.32,190.12S93.46,207.74,94,223.89c.29,8.3-2.35,21.14-11.72,21.14Z" transform="translate(9.14 -13.84)"/></g></g><g id="_Gruppo_17" data-name="&lt;Gruppo&gt;"><polygon id="_Tracciato_61" data-name="&lt;Tracciato&gt;" class="cls-21" points="162.14 228.66 165.1 239.34 159.18 239.34 162.14 228.66"/><polygon id="_Tracciato_62" data-name="&lt;Tracciato&gt;" class="cls-21" points="153.56 232.25 156.52 239.34 150.6 239.34 153.56 232.25"/><polygon id="_Tracciato_63" data-name="&lt;Tracciato&gt;" class="cls-21" points="149.21 229.23 152.16 239.34 146.25 239.34 149.21 229.23"/><polygon id="_Tracciato_64" data-name="&lt;Tracciato&gt;" class="cls-21" points="157.3 229.23 160.26 239.34 154.34 239.34 157.3 229.23"/></g><g id="_Gruppo_18" data-name="&lt;Gruppo&gt;"><polygon id="_Tracciato_65" data-name="&lt;Tracciato&gt;" class="cls-21" points="74.62 223.83 76.74 239.34 72.51 239.34 74.62 223.83"/><polygon id="_Tracciato_66" data-name="&lt;Tracciato&gt;" class="cls-21" points="68.48 221.8 70.6 239.34 66.37 239.34 68.48 221.8"/><polygon id="_Tracciato_67" data-name="&lt;Tracciato&gt;" class="cls-21" points="65.37 228.48 67.48 239.34 63.25 239.34 65.37 228.48"/><polygon id="_Tracciato_68" data-name="&lt;Tracciato&gt;" class="cls-21" points="71.16 224.66 73.28 239.34 69.05 239.34 71.16 224.66"/></g><g id="_Gruppo_19" data-name="&lt;Gruppo&gt;"><polygon id="_Tracciato_69" data-name="&lt;Tracciato&gt;" class="cls-21" points="119.32 229.69 122.39 239.34 116.25 239.34 119.32 229.69"/><polygon id="_Tracciato_70" data-name="&lt;Tracciato&gt;" class="cls-21" points="110.43 224.49 113.5 239.34 107.36 239.34 110.43 224.49"/><polygon id="_Tracciato_71" data-name="&lt;Tracciato&gt;" class="cls-21" points="105.91 232.58 108.98 239.34 102.85 239.34 105.91 232.58"/><polygon id="_Tracciato_72" data-name="&lt;Tracciato&gt;" class="cls-21" points="114.31 230.2 117.38 239.34 111.24 239.34 114.31 230.2"/></g><g id="_Gruppo_20" data-name="&lt;Gruppo&gt;"><polygon id="_Tracciato_73" data-name="&lt;Tracciato&gt;" class="cls-21" points="249.48 227.57 252.22 239.4 246.75 239.4 249.48 227.57"/><polygon id="_Tracciato_74" data-name="&lt;Tracciato&gt;" class="cls-21" points="241.54 221.21 244.28 239.4 238.81 239.4 241.54 221.21"/><polygon id="_Tracciato_75" data-name="&lt;Tracciato&gt;" class="cls-21" points="237.51 231.11 240.25 239.4 234.77 239.4 237.51 231.11"/><polygon id="_Tracciato_76" data-name="&lt;Tracciato&gt;" class="cls-21" points="245.01 228.21 247.75 239.4 242.27 239.4 245.01 228.21"/></g><polygon id="_Tracciato_77" data-name="&lt;Tracciato&gt;" class="cls-14" points="666.5 238.59 0 238.59 0 509.73 584.15 510.73 666.5 238.59"/><polygon class="cls-21" points="309.87 375.16 540.65 238.59 0 238.59 0 375.67 309.87 375.67 309.87 375.16"/><polygon class="cls-21" points="309.87 421.96 0 421.96 0 510.73 447.67 510.73 309.87 423.04 309.87 421.96"/><path class="cls-22" d="M178.7,282.42v1.72c0,2.16-6.16,2.16-6.16,0v-1.72a2.87,2.87,0,0,0,2,1.13,7.72,7.72,0,0,0,1,.05h0a7.81,7.81,0,0,0,1-.05A2.89,2.89,0,0,0,178.7,282.42Z" transform="translate(9.14 -13.84)"/><path class="cls-23" d="M181.47,275.84c0,3.2-2.59,8.72-5.8,8.72s-5.79-5.52-5.79-8.72,0-7.75,5.79-7.75S181.47,272.63,181.47,275.84Z" transform="translate(9.14 -13.84)"/><path class="cls-24" d="M175.62,283.6h0Z" transform="translate(9.14 -13.84)"/><polygon class="cls-22" points="172.77 278.34 172.77 282.23 172.77 282.26 177.94 286.5 177.94 282.23 177.94 278.34 172.77 278.34"/><path class="cls-24" d="M175.53,283.89h0Z" transform="translate(9.14 -13.84)"/><path class="cls-24" d="M175.71,283.89h0Z" transform="translate(9.14 -13.84)"/><path class="cls-23" d="M187.6,290.31A3.8,3.8,0,0,0,185,286.7l-5.34-2.17-1-.39c0,2.16-6.16,2.16-6.16,0l-1,.39-2,.83-2,.8-1.34.54a3.81,3.81,0,0,0-2.61,3.61v1.88h0v1.07h4l.19,19.61a21.88,21.88,0,0,0,8.17,1.26,41.48,41.48,0,0,0,8-1.26l-.27-19.61h3.92v-1.07h0Z" transform="translate(9.14 -13.84)"/><path class="cls-22" d="M163.42,290.55l-4-1.69-.38,1.21s.33,1.37,1.38,1.44c.35,0,2.58,6.81,2.58,6.81,1.3,4.91,4,3.67,5.81,1.82l-1.46-3.88Z" transform="translate(9.14 -13.84)"/><path class="cls-25" d="M170.35,298.64,168,297.06a1.6,1.6,0,0,1-.36-2.22l.59-.9,4.94,3.27-.6.9A1.58,1.58,0,0,1,170.35,298.64Zm-2.08-4.32-.44.67a1.32,1.32,0,0,0,.28,1.84l2.39,1.58a1.31,1.31,0,0,0,1.8-.46l.45-.66Z" transform="translate(9.14 -13.84)"/><path class="cls-26" d="M193.31,308.68,182,301.15l-2.59-.32a2.52,2.52,0,0,1-1.46-.73l-7.16-7.31-1.51,2.27a12.9,12.9,0,0,1,6,7.73,2.57,2.57,0,0,0,1.55,1.75l.87.33a3.16,3.16,0,0,1,.93.56L189,314.64a.3.3,0,0,0,.46-.09,19.14,19.14,0,0,1,3.89-5.42A.29.29,0,0,0,193.31,308.68Z" transform="translate(9.14 -13.84)"/><path class="cls-27" d="M169.16,297.12l-.38-.25a2,2,0,0,0,1.93-1.09l.64.42A2.26,2.26,0,0,1,169.16,297.12Z" transform="translate(9.14 -13.84)"/><path class="cls-27" d="M172.84,295.25l-1.18-.79.92-1.5.58.81,1.54-.59.11.33A3,3,0,0,0,172.84,295.25Z" transform="translate(9.14 -13.84)"/><path class="cls-26" d="M166.45,292.7l-11.23-7.43a2.8,2.8,0,0,1-.78-3.87v0l13.56,9Z" transform="translate(9.14 -13.84)"/><path class="cls-25" d="M172.31,294.27l-37.23-24.7,1-1.48,35.77,23.73a1.76,1.76,0,0,1,.49,2.44Z" transform="translate(9.14 -13.84)"/><path class="cls-28" d="M172.32,294.26l-7.66-5.08-1.08,1.62,7.36,5.54A1.28,1.28,0,0,0,172.32,294.26Z" transform="translate(9.14 -13.84)"/><path class="cls-25" d="M137.61,268.74a.55.55,0,0,1-.51.58.56.56,0,0,1-.58-.52.55.55,0,0,1,.52-.57A.54.54,0,0,1,137.61,268.74Z" transform="translate(9.14 -13.84)"/><path class="cls-22" d="M187.6,293.26h-5.17c0,1.06-.54,5.72-.54,5.72l-8.13-1.14-1.22,2.75a49.79,49.79,0,0,0,13,3.29A104.61,104.61,0,0,0,187.6,293.26Z" transform="translate(9.14 -13.84)"/><path class="cls-22" d="M180.67,275.64c0,2.6-2.16.56-4.83.56s-4.83,2-4.83-.56c0-2.74,2.06-.68,4.73-.68S180.67,273.14,180.67,275.64Z" transform="translate(9.14 -13.84)"/><circle class="cls-22" cx="170.4" cy="275.11" r="2.68"/><circle class="cls-22" cx="180.26" cy="284.47" r="2.68"/><path class="cls-23" d="M167.77,311.77v6.61a25.94,25.94,0,0,0,8.44,1.18,31.65,31.65,0,0,0,7.9-1l-.19-6.77Z" transform="translate(9.14 -13.84)"/><path class="cls-29" d="M20.78,372.45H214.21a4.52,4.52,0,0,0,4.52-4.52h0a4.52,4.52,0,0,0-4.52-4.51H20.78a4.51,4.51,0,0,0-4.51,4.51h0A4.51,4.51,0,0,0,20.78,372.45Z" transform="translate(9.14 -13.84)"/><path class="cls-30" d="M47.92,280.56h.63a.51.51,0,0,1,.51.51v9.07a0,0,0,0,1,0,0H47.41a0,0,0,0,1,0,0v-9.07A.51.51,0,0,1,47.92,280.56Z"/><path class="cls-30" d="M39.88,304H38.32a.26.26,0,0,0-.26.25v2.93h0v0h0a.06.06,0,0,0,0,0c.1.21.65.15,1.21-.14s.85-.6.84-.82h0v-2.06A.26.26,0,0,0,39.88,304Z" transform="translate(9.14 -13.84)"/><path class="cls-31" d="M40.54,303H37.62a.34.34,0,0,1-.34-.34h0a.35.35,0,0,1,.34-.35h2.92a.35.35,0,0,1,.35.35h0A.35.35,0,0,1,40.54,303Z" transform="translate(9.14 -13.84)"/><path class="cls-31" d="M41.41,301.47H36.76a.35.35,0,0,1-.35-.34h0a.35.35,0,0,1,.35-.35h4.65a.35.35,0,0,1,.34.35h0A.34.34,0,0,1,41.41,301.47Z" transform="translate(9.14 -13.84)"/><path class="cls-31" d="M41.82,299.94H36.35a.35.35,0,0,1-.35-.34h0a.35.35,0,0,1,.35-.35h5.47a.35.35,0,0,1,.34.35h0A.34.34,0,0,1,41.82,299.94Z" transform="translate(9.14 -13.84)"/><path class="cls-31" d="M40.54,296.88H37.62a.34.34,0,0,1-.34-.34h0a.35.35,0,0,1,.34-.35h2.92a.35.35,0,0,1,.35.35h0A.35.35,0,0,1,40.54,296.88Z" transform="translate(9.14 -13.84)"/><path class="cls-31" d="M41.41,298.41H36.76a.35.35,0,0,1-.35-.34h0a.35.35,0,0,1,.35-.35h4.65a.35.35,0,0,1,.34.35h0A.34.34,0,0,1,41.41,298.41Z" transform="translate(9.14 -13.84)"/><path class="cls-30" d="M39.1,266.34h0a.37.37,0,0,0-.37.37v27.73a.37.37,0,0,0,.37.37h0a.37.37,0,0,0,.37-.37V266.71A.37.37,0,0,0,39.1,266.34Z" transform="translate(9.14 -13.84)"/><rect class="cls-32" x="159.96" y="302.64" width="3.23" height="8.47" rx="0.91" ry="0.91" transform="translate(332.29 599.91) rotate(-180)"/><rect class="cls-33" x="161.08" y="302.64" width="3.23" height="8.47" rx="0.91" ry="0.91" transform="translate(334.54 599.91) rotate(-180)"/><path class="cls-34" d="M166.4,346.5l-.2-.14,1.27-3.91h.28a.44.44,0,0,0,.36-.7l-.14-.2,2.42-3.32.27.08a.44.44,0,0,0,.55-.56l-.07-.23,3.32-2.41.23.16a.44.44,0,0,0,.71-.36v-.24l3.91-1.27.16.23a.44.44,0,0,0,.78-.12l.08-.23H193l.09.27a.44.44,0,0,0,.78.12l.14-.2,3.91,1.27V335a.44.44,0,0,0,.7.35l.2-.14,3.32,2.42-.08.27a.45.45,0,0,0,.56.56l.23-.08,2.41,3.33-.16.23a.44.44,0,0,0,.36.7h.24l1.27,3.91-.23.16a.45.45,0,0,0,.12.79l.23.07v4.11l-.27.09a.45.45,0,0,0-.12.78l.2.14-1.27,3.91h-.29a.44.44,0,0,0-.35.71l.14.19-2.42,3.33-.27-.09a.45.45,0,0,0-.56.56l.08.23L198.6,364l-.23-.17a.44.44,0,0,0-.7.36v.24l-3.91,1.27-.17-.23a.44.44,0,0,0-.78.13l-.07.23H180.1l-.09-.27a.44.44,0,0,0-.78-.13l-.14.2-3.91-1.27v-.28a.44.44,0,0,0-.7-.36l-.2.14L171,361.43l.09-.27a.44.44,0,0,0-.56-.56l-.23.07-2.41-3.32.16-.23a.45.45,0,0,0-.36-.71h-.24l-1.27-3.91.23-.16a.44.44,0,0,0-.12-.78l-.23-.08v-4.11l.26-.09A.44.44,0,0,0,166.4,346.5Z" transform="translate(9.14 -13.84)"/><path class="cls-34" d="M60.83,351.56l-.23-.08v-4.11l.27-.09a.44.44,0,0,0,.12-.78l-.19-.14,1.27-3.91h.28a.44.44,0,0,0,.36-.7l-.15-.2L65,338.23l.27.08a.45.45,0,0,0,.56-.56l-.08-.23,3.33-2.41.23.16a.44.44,0,0,0,.7-.36v-.24l3.91-1.27.17.23a.45.45,0,0,0,.78-.12l.07-.23H87.56l.09.27a.45.45,0,0,0,.78.12l.14-.2,3.91,1.27V335a.44.44,0,0,0,.71.35l.19-.14,3.33,2.42-.09.27a.45.45,0,0,0,.56.56l.23-.08,2.42,3.33-.17.23a.44.44,0,0,0,.36.7h.24l1.27,3.91-.23.16a.45.45,0,0,0,.13.79l.23.07v4.11l-.27.09a.44.44,0,0,0-.12.78l.19.14-1.27,3.91h-.28a.45.45,0,0,0-.36.71l.14.19-2.41,3.33-.27-.09a.44.44,0,0,0-.56.56l.07.23L93.2,364l-.23-.17a.45.45,0,0,0-.71.36v.24l-3.9,1.27-.17-.23a.44.44,0,0,0-.78.13l-.08.23H74.69l-.08-.27a.44.44,0,0,0-.78-.13l-.15.2-3.91-1.27v-.28a.44.44,0,0,0-.7-.36l-.2.14-3.32-2.41.09-.27a.45.45,0,0,0-.56-.56l-.23.07-2.42-3.32.17-.23a.45.45,0,0,0-.36-.71H62l-1.27-3.91.22-.16A.44.44,0,0,0,60.83,351.56Z" transform="translate(9.14 -13.84)"/><polygon class="cls-35" points="188.36 324.29 188.36 310.67 151.94 310.67 151.94 324.55 188.36 324.29"/><rect class="cls-36" x="153.53" y="336.49" width="28.5" height="7.01" transform="translate(344.71 666.15) rotate(-180)"/><rect class="cls-36" x="169.84" y="326.78" width="4.12" height="14.06" transform="translate(352.94 653.77) rotate(-180)"/><path class="cls-37" d="M168,329.48h7.75a.4.4,0,0,0,.4-.4h0a.4.4,0,0,0-.4-.41H168a.4.4,0,0,0-.4.41h0A.4.4,0,0,0,168,329.48Z" transform="translate(9.14 -13.84)"/><path class="cls-37" d="M168,331.37h7.75a.4.4,0,0,0,.4-.4h0a.4.4,0,0,0-.4-.4H168a.4.4,0,0,0-.4.4h0A.4.4,0,0,0,168,331.37Z" transform="translate(9.14 -13.84)"/><path class="cls-37" d="M168,333.26h7.75a.4.4,0,0,0,.4-.4h0a.4.4,0,0,0-.4-.4H168a.4.4,0,0,0-.4.4h0A.4.4,0,0,0,168,333.26Z" transform="translate(9.14 -13.84)"/><path class="cls-37" d="M168,335.16h7.75a.4.4,0,0,0,.4-.41h0a.4.4,0,0,0-.4-.4H168a.4.4,0,0,0-.4.4h0A.4.4,0,0,0,168,335.16Z" transform="translate(9.14 -13.84)"/><path class="cls-37" d="M168,337.05h7.75a.4.4,0,0,0,.4-.41h0a.4.4,0,0,0-.4-.4H168a.4.4,0,0,0-.4.4h0A.4.4,0,0,0,168,337.05Z" transform="translate(9.14 -13.84)"/><path class="cls-37" d="M168,338.94h7.75a.4.4,0,0,0,.4-.4h0a.4.4,0,0,0-.4-.41H168a.4.4,0,0,0-.4.41h0A.4.4,0,0,0,168,338.94Z" transform="translate(9.14 -13.84)"/><polygon class="cls-38" points="208.17 312.93 201.6 309.09 205.75 309.09 212.13 312.93 208.17 312.93"/><path class="cls-39" d="M180,329.32l.09-13,18.47.09a2,2,0,0,1,.45,1.25v18.85H182v-7.16h-2Z" transform="translate(9.14 -13.84)"/><path class="cls-40" d="M198.58,316.39h-17.8l-37.07-5.48h17l36.63,4.8A2,2,0,0,1,198.58,316.39Z" transform="translate(9.14 -13.84)"/><path class="cls-38" d="M198.58,316.39h-17.8l-37.07-5.48h17l36.63,4.8A2,2,0,0,1,198.58,316.39Z" transform="translate(9.14 -13.84)"/><path class="cls-39" d="M139,290.82h17.42a2.82,2.82,0,0,1,2.8,2.58l1.47,17.51h-17Z" transform="translate(9.14 -13.84)"/><path class="cls-37" d="M184.33,336.49h12.41a2.29,2.29,0,0,1,2.29,2.29v4.72a0,0,0,0,1,0,0H182a0,0,0,0,1,0,0v-4.72A2.29,2.29,0,0,1,184.33,336.49Z" transform="translate(390.2 666.15) rotate(-180)"/><polygon class="cls-35" points="43.39 322.65 85.45 322.65 73.94 312.93 50.71 312.93 43.39 322.65"/><path class="cls-37" d="M29.27,336.49H91.72v8.65H29.27a4.32,4.32,0,0,1-4.33-4.32h0A4.33,4.33,0,0,1,29.27,336.49Z" transform="translate(9.14 -13.84)"/><path class="cls-36" d="M35.5,336.49H98v8.65H35.5a4.32,4.32,0,0,1-4.33-4.32h0A4.33,4.33,0,0,1,35.5,336.49Z" transform="translate(9.14 -13.84)"/><path class="cls-41" d="M45.19,354.68,45,354.6v-4.11l.27-.08a.44.44,0,0,0,.13-.78l-.2-.15,1.27-3.91h.28a.44.44,0,0,0,.36-.7l-.14-.2L48.86,342l3.76-5.62H63.4l.09.27a.44.44,0,0,0,.78.12l.14-.2,3.91,1.27v.29a.44.44,0,0,0,.7.36l.2-.15,3.32,2.42-.08.27a.45.45,0,0,0,.56.56l.23-.08,2.41,3.33-.16.23a.44.44,0,0,0,.36.7h.24l1.27,3.91-.23.17a.45.45,0,0,0,.12.78l.23.07v4.11l-.26.09a.44.44,0,0,0-.13.78l.2.14L76,359.75h-.28a.44.44,0,0,0-.36.71l.14.19L73.11,364l-.27-.09a.44.44,0,0,0-.55.56l.07.23L69,367.1l-.22-.17a.45.45,0,0,0-.71.36v.24l-3.91,1.27-.16-.23a.44.44,0,0,0-.78.13l-.08.23H52.62l-3.76-5.62-2.06-2.84.16-.23a.44.44,0,0,0-.36-.7h-.24l-1.27-3.9.23-.17A.44.44,0,0,0,45.19,354.68Z" transform="translate(9.14 -13.84)"/><rect class="cls-36" x="41.58" y="326.78" width="4.12" height="14.06" transform="translate(96.41 653.77) rotate(-180)"/><path class="cls-37" d="M39.76,329.48h7.75a.4.4,0,0,0,.4-.4h0a.4.4,0,0,0-.4-.41H39.76a.4.4,0,0,0-.4.41h0A.4.4,0,0,0,39.76,329.48Z" transform="translate(9.14 -13.84)"/><path class="cls-37" d="M39.76,331.37h7.75a.4.4,0,0,0,.4-.4h0a.4.4,0,0,0-.4-.4H39.76a.4.4,0,0,0-.4.4h0A.4.4,0,0,0,39.76,331.37Z" transform="translate(9.14 -13.84)"/><path class="cls-37" d="M39.76,333.26h7.75a.4.4,0,0,0,.4-.4h0a.4.4,0,0,0-.4-.4H39.76a.4.4,0,0,0-.4.4h0A.4.4,0,0,0,39.76,333.26Z" transform="translate(9.14 -13.84)"/><path class="cls-37" d="M39.76,335.16h7.75a.4.4,0,0,0,.4-.41h0a.4.4,0,0,0-.4-.4H39.76a.4.4,0,0,0-.4.4h0A.4.4,0,0,0,39.76,335.16Z" transform="translate(9.14 -13.84)"/><path class="cls-37" d="M39.76,337.05h7.75a.4.4,0,0,0,.4-.41h0a.4.4,0,0,0-.4-.4H39.76a.4.4,0,0,0-.4.4h0A.4.4,0,0,0,39.76,337.05Z" transform="translate(9.14 -13.84)"/><path class="cls-37" d="M39.76,338.94h7.75a.4.4,0,0,0,.4-.4h0a.4.4,0,0,0-.4-.41H39.76a.4.4,0,0,0-.4.41h0A.4.4,0,0,0,39.76,338.94Z" transform="translate(9.14 -13.84)"/><rect class="cls-36" x="131.42" y="338.13" width="30.62" height="7.01" transform="translate(302.59 669.43) rotate(-180)"/><path class="cls-42" d="M72.68,290.82h66.76a2.81,2.81,0,0,1,2.8,2.58l1.47,17.51,36.63,4.8a2,2,0,0,1,1.7,1.93v18.85h-4a15.74,15.74,0,0,0-13.2-7.17H157a10.14,10.14,0,0,0-8.21,4.2l-8.37,11.62H90.71a22.22,22.22,0,0,1-18.37-9.71h0a14,14,0,0,0-11.55-6.11H48.12a15.77,15.77,0,0,0-13.21,7.17H31V312.71a3,3,0,0,1,1.6-2.63L66.9,292.23A12.53,12.53,0,0,1,72.68,290.82Z" transform="translate(9.14 -13.84)"/><polygon class="cls-37" points="127.41 297.27 147.47 297.27 147.5 281.06 127.41 281.06 127.41 297.27"/><polygon class="cls-18" points="142.92 281.06 147.49 285.62 147.47 297.27 144.37 297.27 128.16 281.06 142.92 281.06"/><polygon class="cls-18" points="127.41 294.47 127.41 285.23 139.45 297.27 130.21 297.27 127.41 294.47"/><polygon class="cls-37" points="120.97 297.27 100.86 297.27 100.89 281.06 120.97 281.06 120.97 297.27"/><path class="cls-37" d="M71.25,295.93v8.41a2.59,2.59,0,0,1-2.59,2.59H52.72a1.4,1.4,0,0,1-.68-2.62l17.12-9.6A1.4,1.4,0,0,1,71.25,295.93Z" transform="translate(9.14 -13.84)"/><g class="cls-43"><path class="cls-44" d="M117.8,311.9h5v6.41h-5Zm4.06.94h-3.12v4.53h3.12Z" transform="translate(9.14 -13.84)"/></g><g class="cls-43"><path class="cls-44" d="M116.86,318.7h6.49v-6.9h16.43v23.62H116.86Zm22-6H124.29v6.9H117.8v14.84h21Zm-10.58,11.61,9,9.18H119.38Zm0,1.35-6.66,6.89H135Zm.65-2,9-9.3v18.47Zm1.31,0,6.73,6.87V316.71Zm-11.48-3.08h5.82l3,3.09-8.85,9.16Zm5.43.94h-4.48v9l6.59-6.82Zm1.06-1.61v-6.24h12l-9,9.32Zm.94-5.3v4.92l2.07,2.11,6.79-7Z" transform="translate(9.14 -13.84)"/></g><g class="cls-43"><path class="cls-44" d="M91.1,311.9h4.23v6.41H91.1Zm3.29.94H92v4.53h2.35Z" transform="translate(9.14 -13.84)"/></g><g class="cls-43"><path class="cls-44" d="M85.31,318.7H95.88v-6.9h16.43v23.62H89.5Zm26.06-6H96.82v6.9H86.52l3.71,14.84h21.14Zm-10.58,11.61,9,9.18H91.92Zm0,1.35-6.65,6.89h13.4Zm.65-2,9-9.3v18.47Zm1.31,0,6.73,6.87V316.71Zm-14.3-3.08H97.1l3,3.09-8.63,8.93Zm8.25.94h-7L92,330.74l6.81-7.05Zm1.07-1.61v-6.24h12l-9,9.32Zm.94-5.3v4.92l2.07,2.11,6.79-7Z" transform="translate(9.14 -13.84)"/></g><g class="cls-43"><path class="cls-44" d="M82.83,311.15l5-16h2.6v22.25H85.61Zm6.62-15h-1l-4.66,15,2.39,5.38h3.23Z" transform="translate(9.14 -13.84)"/></g><circle class="cls-33" cx="187.11" cy="306.13" r="2.13"/><path class="cls-45" d="M176.54,320a1.44,1.44,0,1,0,1.44-1.44A1.43,1.43,0,0,0,176.54,320Z" transform="translate(9.14 -13.84)"/><circle class="cls-33" cx="43.39" cy="306.13" r="2.13"/><path class="cls-46" d="M32.82,320a1.44,1.44,0,1,0,1.44-1.44A1.43,1.43,0,0,0,32.82,320Z" transform="translate(9.14 -13.84)"/><path class="cls-33" d="M171.83,319.37a1.53,1.53,0,1,0,1.53-1.53A1.53,1.53,0,0,0,171.83,319.37Z" transform="translate(9.14 -13.84)"/><path class="cls-45" d="M172.33,319.37a1,1,0,1,0,1-1A1,1,0,0,0,172.33,319.37Z" transform="translate(9.14 -13.84)"/><path class="cls-6" d="M31.17,311.59H80.56L87.25,337h54.09V294h.95l0-.61a3.23,3.23,0,0,0-.06-.33H75.85v17.58H31.79A3.14,3.14,0,0,0,31.17,311.59ZM140.4,336H115.08V294H140.4Zm-59-24.89L87.12,294h27v42H88ZM76.79,294h9.34l-5.55,16.64H76.79Z" transform="translate(9.14 -13.84)"/><path class="cls-6" d="M154.62,329.62,145.26,316v-4.86l1,.12v4.45l9.42,13.75A8.56,8.56,0,0,0,154.62,329.62Z" transform="translate(9.14 -13.84)"/><g class="cls-43"><path class="cls-44" d="M69.15,321.25v-6.1h9.73V325.3H73.19Zm8.79-5.16H70.09v4.77l3.49,3.49h4.36Z" transform="translate(9.14 -13.84)"/></g><g class="cls-43"><path class="cls-44" d="M38.1,315.15h9.73v6.1l-4,4.05H38.1Zm8.79,5.71v-4.77H39v8.26H43.4Z" transform="translate(9.14 -13.84)"/></g><path class="cls-47" d="M73.91,327.81H77.7a.71.71,0,0,0,.71-.71h0a.71.71,0,0,0-.71-.71H73.91a.71.71,0,0,0-.71.71h0A.71.71,0,0,0,73.91,327.81Z" transform="translate(9.14 -13.84)"/><path class="cls-47" d="M71.58,318h5.23a.7.7,0,0,0,.71-.7h0a.71.71,0,0,0-.71-.71H71.58a.7.7,0,0,0-.7.71h0A.7.7,0,0,0,71.58,318Z" transform="translate(9.14 -13.84)"/><path class="cls-18" d="M93,314.53h.56a.7.7,0,0,0,.7-.71h0a.7.7,0,0,0-.7-.7H93a.7.7,0,0,0-.71.7h0A.71.71,0,0,0,93,314.53Z" transform="translate(9.14 -13.84)"/><path class="cls-18" d="M120,314.53h.56a.71.71,0,0,0,.71-.71h0a.7.7,0,0,0-.71-.7H120a.7.7,0,0,0-.71.7h0A.71.71,0,0,0,120,314.53Z" transform="translate(9.14 -13.84)"/><path class="cls-47" d="M147.72,313.24l31.44,4.29a.71.71,0,0,0,.8-.6h0a.71.71,0,0,0-.61-.8l-31.43-4.29a.71.71,0,0,0-.8.61h0A.71.71,0,0,0,147.72,313.24Z" transform="translate(9.14 -13.84)"/><path class="cls-18" d="M40.35,318h5.23a.7.7,0,0,0,.71-.7h0a.71.71,0,0,0-.71-.71H40.35a.7.7,0,0,0-.7.71h0A.7.7,0,0,0,40.35,318Z" transform="translate(9.14 -13.84)"/><path class="cls-47" d="M78.7,296.34h5.12a.71.71,0,0,0,.71-.71h0a.7.7,0,0,0-.71-.7H78.7a.7.7,0,0,0-.71.7h0A.71.71,0,0,0,78.7,296.34Z" transform="translate(9.14 -13.84)"/><path class="cls-47" d="M33.52,314H79.06a.7.7,0,0,0,.71-.7h0a.71.71,0,0,0-.71-.71H33.52a.7.7,0,0,0-.7.71h0A.7.7,0,0,0,33.52,314Z" transform="translate(9.14 -13.84)"/><path class="cls-47" d="M52,309.1H70.54a.7.7,0,0,0,.71-.7h0a.71.71,0,0,0-.71-.71H52a.7.7,0,0,0-.7.71h0A.7.7,0,0,0,52,309.1Z" transform="translate(9.14 -13.84)"/><path class="cls-47" d="M72,292.75h68a.7.7,0,0,0,.7-.7h0a.7.7,0,0,0-.7-.71H72a.7.7,0,0,0-.7.71h0A.7.7,0,0,0,72,292.75Z" transform="translate(9.14 -13.84)"/><path class="cls-18" d="M38.79,327.81h3.8a.7.7,0,0,0,.7-.71h0a.7.7,0,0,0-.7-.71h-3.8a.7.7,0,0,0-.7.71h0A.7.7,0,0,0,38.79,327.81Z" transform="translate(9.14 -13.84)"/><path class="cls-47" d="M47.15,327.81H63.62a.71.71,0,0,0,.71-.71h0a.71.71,0,0,0-.71-.71H47.15a.7.7,0,0,0-.7.71h0A.7.7,0,0,0,47.15,327.81Z" transform="translate(9.14 -13.84)"/><rect class="cls-32" x="135.61" y="302.64" width="3.23" height="8.47" rx="0.91" ry="0.91" transform="translate(283.58 599.91) rotate(-180)"/><rect class="cls-33" x="136.73" y="302.64" width="3.23" height="8.47" rx="0.91" ry="0.91" transform="translate(285.83 599.91) rotate(-180)"/><ellipse class="cls-11" cx="206.26" cy="308.55" rx="1.21" ry="3.87"/><ellipse class="cls-11" cx="193.44" cy="308.55" rx="1.21" ry="3.87"/><rect class="cls-39" x="187.21" y="312.93" width="3.97" height="9.71"/><rect class="cls-39" x="208.17" y="312.93" width="3.97" height="9.71"/><path class="cls-38" d="M178.07,326.78l-8.23-3.85h3.72a7.6,7.6,0,0,1,3.89,1.08l4.59,2.77Z" transform="translate(9.14 -13.84)"/><path class="cls-42" d="M173,323.83l5,2.95v9.71a15.74,15.74,0,0,0-13.2-7.17H157a10.14,10.14,0,0,0-8.21,4.2l-8.37,11.62h-7.39l11.09-15.8a15.1,15.1,0,0,1,12.33-6.41h13.23A6.5,6.5,0,0,1,173,323.83Z" transform="translate(9.14 -13.84)"/><path class="cls-47" d="M88.39,340.1h46a1,1,0,0,0,1-1h0a1,1,0,0,0-1-1h-46a1,1,0,0,0-1,1h0A1,1,0,0,0,88.39,340.1Z" transform="translate(9.14 -13.84)"/><path class="cls-37" d="M36.44,354.6l.23.08a.45.45,0,0,1,.12.78l-.23.17,1.27,3.9h.24a.44.44,0,0,1,.36.7l-.16.23,2.41,3.32.23-.07a.44.44,0,0,1,.56.56l-.08.27L44.71,367l.2-.14a.44.44,0,0,1,.7.36v.28l3.91,1.27.14-.19a.44.44,0,0,1,.78.12l.09.27h4.11l.08-.23a.44.44,0,0,1,.78-.13l.16.23,3.91-1.27v-.24a.45.45,0,0,1,.71-.36l.23.17,3.32-2.42-.07-.23a.45.45,0,0,1,.56-.56l.26.09L67,360.65l-.14-.19a.45.45,0,0,1,.36-.71h.28l1.27-3.91-.2-.14a.44.44,0,0,1,.13-.78l.27-.09v-4.11l-.23-.07a.44.44,0,0,1-.13-.78l.23-.17-1.27-3.91h-.24a.44.44,0,0,1-.36-.7l.16-.23-2.41-3.33-.23.08a.45.45,0,0,1-.56-.56l.09-.27-3.33-2.42-.2.15a.44.44,0,0,1-.7-.36v-.29l-3.91-1.27-.14.2a.45.45,0,0,1-.78-.12l-.09-.27H50.76l-.07.23a.45.45,0,0,1-.79.12l-.16-.23-3.91,1.27V338a.44.44,0,0,1-.71.35l-.22-.16-3.33,2.42.08.23a.44.44,0,0,1-.56.55l-.27-.08-2.42,3.32.14.2a.44.44,0,0,1-.35.7H37.9l-1.27,3.91.2.15a.44.44,0,0,1-.13.78l-.26.08Zm6.74,7.58-2.47-3.41-1.3-4v-4.21l1.3-4,2.47-3.4,3.41-2.48,4-1.3h4.21l4,1.3,3.41,2.48,2.47,3.4,1.3,4v4.21l-1.3,4-2.47,3.41-3.41,2.47-4,1.31H50.6l-4-1.31Z" transform="translate(9.14 -13.84)"/><circle class="cls-37" cx="52.62" cy="352.69" r="14.8" transform="translate(-120.52 32.36) rotate(-22.26)"/><path class="cls-31" d="M42.28,352.69a10.35,10.35,0,1,0,10.34-10.35A10.34,10.34,0,0,0,42.28,352.69Z" transform="translate(9.14 -13.84)"/><path class="cls-37" d="M43.44,352.69a9.19,9.19,0,1,0,9.18-9.19A9.18,9.18,0,0,0,43.44,352.69Z" transform="translate(9.14 -13.84)"/><path class="cls-31" d="M45.42,352.69a7.21,7.21,0,1,0,7.2-7.21A7.2,7.2,0,0,0,45.42,352.69Z" transform="translate(9.14 -13.84)"/><path class="cls-37" d="M49.05,352.69a3.58,3.58,0,1,0,3.57-3.58A3.57,3.57,0,0,0,49.05,352.69Z" transform="translate(9.14 -13.84)"/><path class="cls-31" d="M50.12,352.69a2.51,2.51,0,1,0,2.5-2.51A2.5,2.5,0,0,0,50.12,352.69Z" transform="translate(9.14 -13.84)"/><path class="cls-37" d="M144.69,309.54l-1.42-15.68a1,1,0,0,1,1-1.11h13a1,1,0,0,1,1,.93l1.39,15.86Z" transform="translate(9.14 -13.84)"/><rect class="cls-41" x="194.01" y="318.53" width="1.27" height="16.63" rx="0.63" ry="0.63" transform="translate(398.42 639.84) rotate(-180)"/><rect class="cls-41" x="192.05" y="318.53" width="1.27" height="16.63" rx="0.63" ry="0.63" transform="translate(394.5 639.84) rotate(-180)"/><rect class="cls-41" x="190.09" y="318.53" width="1.27" height="16.63" rx="0.63" ry="0.63" transform="translate(390.58 639.84) rotate(-180)"/><rect class="cls-41" x="188.13" y="318.53" width="1.27" height="16.63" rx="0.63" ry="0.63" transform="translate(386.67 639.84) rotate(-180)"/><rect class="cls-41" x="186.17" y="318.53" width="1.27" height="16.63" rx="0.63" ry="0.63" transform="translate(382.75 639.84) rotate(-180)"/><path class="cls-33" d="M179.22,329.48c0,.9.52,1.62,1.17,1.62s1.17-.72,1.17-1.62-.52-1.62-1.17-1.62S179.22,328.58,179.22,329.48Z" transform="translate(9.14 -13.84)"/><path class="cls-45" d="M179.6,329.48c0,.61.35,1.1.79,1.1s.79-.49.79-1.1-.35-1.1-.79-1.1S179.6,328.87,179.6,329.48Z" transform="translate(9.14 -13.84)"/><path class="cls-33" d="M199.57,329.48c0,.9.53,1.62,1.17,1.62s1.17-.72,1.17-1.62-.52-1.62-1.17-1.62S199.57,328.58,199.57,329.48Z" transform="translate(9.14 -13.84)"/><path class="cls-45" d="M200,329.48c0,.61.35,1.1.79,1.1s.79-.49.79-1.1-.35-1.1-.79-1.1S200,328.87,200,329.48Z" transform="translate(9.14 -13.84)"/><path class="cls-18" d="M143.27,293.86a1,1,0,0,1,.19-.68l16.17,16.18,0,.18h-5.89l-10-10Z" transform="translate(9.14 -13.84)"/><polygon class="cls-18" points="167.53 281.38 168.46 291.98 155.39 278.91 165.06 278.91 167.53 281.38"/><polygon class="cls-18" points="153.82 295.7 153.24 289.24 159.7 295.7 153.82 295.7"/><polygon class="cls-18" points="100.86 294.09 100.88 284.86 113.3 297.27 104.05 297.27 100.86 294.09"/><polygon class="cls-18" points="116.77 281.06 120.97 285.26 120.97 297.27 118.22 297.27 102 281.06 116.77 281.06"/><path class="cls-18" d="M66.82,296l4.43,4.43v3.89a2.59,2.59,0,0,1-2.59,2.59H66.39l-6.83-6.83Z" transform="translate(9.14 -13.84)"/><polygon class="cls-18" points="61.73 290.15 66.27 287.61 71.75 293.09 64.66 293.09 61.73 290.15"/><path class="cls-47" d="M153.89,325.56h16.9a.36.36,0,0,0,.36-.35h0a.36.36,0,0,0-.36-.36h-16.9a.36.36,0,0,0-.36.36h0A.36.36,0,0,0,153.89,325.56Z" transform="translate(9.14 -13.84)"/><path class="cls-18" d="M184,339.22h13.26a1.09,1.09,0,0,0,1.09-1.09h0a1.08,1.08,0,0,0-1.09-1.08H184a1.08,1.08,0,0,0-1.09,1.08h0A1.09,1.09,0,0,0,184,339.22Z" transform="translate(9.14 -13.84)"/><path class="cls-41" d="M150.6,354.68l-.23-.08v-4.11l.27-.08a.44.44,0,0,0,.12-.78l-.19-.15,1.27-3.91h.28a.44.44,0,0,0,.36-.7l-.14-.2,1.92-2.65L158,336.4H168.8l.09.27a.45.45,0,0,0,.78.12l.15-.2,3.9,1.27v.29a.44.44,0,0,0,.7.36l.2-.15,3.32,2.42-.09.27a.45.45,0,0,0,.56.56l.23-.08,2.42,3.33-.17.23a.44.44,0,0,0,.36.7h.24l1.27,3.91-.22.17a.44.44,0,0,0,.12.78l.23.07v4.11l-.27.09a.45.45,0,0,0-.12.78l.19.14-1.27,3.91h-.28a.45.45,0,0,0-.36.71l.14.19L178.52,364l-.27-.09a.45.45,0,0,0-.56.56l.08.23-3.33,2.42-.23-.17a.44.44,0,0,0-.7.36v.24l-3.91,1.27-.17-.23a.44.44,0,0,0-.78.13l-.07.23H158l-3.77-5.62-2.06-2.84.17-.23a.44.44,0,0,0-.36-.7h-.24l-1.27-3.9.22-.17A.44.44,0,0,0,150.6,354.68Z" transform="translate(9.14 -13.84)"/><path class="cls-37" d="M141.84,354.6l.23.08a.44.44,0,0,1,.13.78l-.23.17,1.27,3.9h.24a.44.44,0,0,1,.36.7l-.17.23,2.42,3.32.23-.07a.45.45,0,0,1,.56.56l-.09.27,3.33,2.41.19-.14a.45.45,0,0,1,.71.36v.28l3.91,1.27.14-.19a.44.44,0,0,1,.78.12l.09.27h4.11l.07-.23a.44.44,0,0,1,.78-.13l.17.23,3.91-1.27v-.24a.44.44,0,0,1,.7-.36l.23.17,3.33-2.42-.08-.23a.45.45,0,0,1,.56-.56l.27.09,2.42-3.33-.15-.19a.45.45,0,0,1,.36-.71h.29l1.27-3.91-.2-.14a.45.45,0,0,1,.12-.78l.27-.09v-4.11l-.23-.07a.45.45,0,0,1-.12-.78l.23-.17L173,345.79h-.25a.44.44,0,0,1-.36-.7l.17-.23-2.42-3.33-.23.08a.44.44,0,0,1-.55-.56l.08-.27-3.32-2.42-.2.15a.44.44,0,0,1-.7-.36v-.29l-3.91-1.27-.15.2a.45.45,0,0,1-.78-.12l-.08-.27h-4.11l-.08.23a.45.45,0,0,1-.78.12l-.17-.23-3.9,1.27V338a.44.44,0,0,1-.7.35l-.23-.16L147,340.65l.07.23a.44.44,0,0,1-.56.55l-.27-.08-2.41,3.32.14.2a.44.44,0,0,1-.36.7h-.28L142,349.48l.19.15a.44.44,0,0,1-.12.78l-.27.08Zm6.75,7.58-2.47-3.41-1.31-4v-4.21l1.31-4,2.47-3.4,3.41-2.48,4-1.3h4.21l4,1.3,3.4,2.48,2.48,3.4,1.3,4v4.21l-1.3,4-2.48,3.41-3.4,2.47-4,1.31H156l-4-1.31Z" transform="translate(9.14 -13.84)"/><circle class="cls-37" cx="158.03" cy="352.69" r="14.8" transform="translate(-41.98 13.85) rotate(-8.63)"/><circle class="cls-31" cx="158.03" cy="352.69" r="10.34" transform="translate(-68.04 32.18) rotate(-13.35)"/><circle class="cls-37" cx="158.03" cy="352.69" r="9.18" transform="translate(-19.46 0.42) rotate(-4.74)"/><path class="cls-31" d="M150.83,352.69a7.21,7.21,0,1,0,7.2-7.21A7.2,7.2,0,0,0,150.83,352.69Z" transform="translate(9.14 -13.84)"/><path class="cls-37" d="M154.45,352.69a3.58,3.58,0,1,0,3.58-3.58A3.58,3.58,0,0,0,154.45,352.69Z" transform="translate(9.14 -13.84)"/><path class="cls-31" d="M155.52,352.69a2.51,2.51,0,1,0,2.51-2.51A2.51,2.51,0,0,0,155.52,352.69Z" transform="translate(9.14 -13.84)"/></g><g id="People"><polygon class="cls-48" points="108.48 338.44 104.17 337.9 104.48 335.5 108.32 336.15 108.48 338.44"/><path class="cls-48" d="M117.13,358.18a2.52,2.52,0,1,0,2.51-2.51A2.51,2.51,0,0,0,117.13,358.18Z" transform="translate(9.14 -13.84)"/><polygon class="cls-23" points="98.88 364.65 103.37 389.72 102.01 411.34 102.53 411.97 102.35 416.83 112.86 416.83 106.22 413.85 106.5 412.13 107.32 411.47 110.06 389.85 112.08 365.76 98.88 364.65"/><polygon class="cls-23" points="95.41 364.31 91.46 384.81 80.51 402.34 80.45 403.42 76.38 408.17 80.3 416.25 85.1 416.25 82.22 414.09 81.74 407.61 83.2 405.97 84.26 405.9 97.1 390.33 109.58 365.13 95.41 364.31"/><polygon class="cls-23" points="128.78 346.85 126.27 344.33 118.61 351.63 111.47 338.81 101.33 337.54 94.56 366.09 112.52 367.78 114.55 358.56 117.39 360 128.78 346.85"/><path class="cls-23" d="M99.37,337.55c-.53-.24-3.81-.59-6.31,2.71a5.12,5.12,0,0,0-1,4.74c2.33,6.19,7,6.14,8,6,1.94-.22,3.07-3.33,3.59-6.28C104,342.85,103.91,339.63,99.37,337.55Z" transform="translate(9.14 -13.84)"/><polygon class="cls-49" points="111.76 369.56 95.23 367.78 95.32 366.16 111.92 367.73 111.76 369.56"/><path class="cls-48" d="M103.78,343.22a7.51,7.51,0,0,1-2,.37c-1.86,0-4.36-1.68-4.36.75,0,2.16,2.5.75,4.36.75a7.78,7.78,0,0,1,1.73.26l.12-.6A8.08,8.08,0,0,0,103.78,343.22Z" transform="translate(9.14 -13.84)"/><polygon class="cls-11" points="127.87 369.02 129.03 353.05 128.19 347.53 124.14 354.48 120.25 353.71 126.67 338.59 129.83 336.72 141.26 337.63 151.64 352.8 148.09 355.66 143.51 349.72 142.5 353.15 141.2 357.05 127.87 369.02"/><path class="cls-48" d="M133.36,342.67c0,3-2.43,7.14-5.42,7.14s-5.42-4.14-5.42-7.14a5.42,5.42,0,0,1,10.84,0Z" transform="translate(9.14 -13.84)"/><path class="cls-48" d="M113.58,384.07a2.51,2.51,0,1,1,2.62,2.4A2.5,2.5,0,0,1,113.58,384.07Z" transform="translate(9.14 -13.84)"/><path class="cls-48" d="M125.66,343.41a1.42,1.42,0,0,0-1.27-.57.75.75,0,0,0-.32.1,1.05,1.05,0,0,0-.46.75,2.18,2.18,0,0,0,1,2.14,1.67,1.67,0,0,0,.67.26.89.89,0,0,0,.67-.18C126.66,345.35,126.09,344,125.66,343.41Z" transform="translate(9.14 -13.84)"/><path class="cls-50" d="M125.66,343.11a.5.5,0,0,1-.39.07c-.13-.05-.19-.19-.28-.3a1,1,0,0,0-1.41,0,1.26,1.26,0,0,0-.16,1.48,1.79,1.79,0,0,0,1.31.84,11.78,11.78,0,0,1,.42,3.83l-2.58.19a.74.74,0,0,1-.49-.08.72.72,0,0,1-.2-.42,21.3,21.3,0,0,1-.48-4.5,8.22,8.22,0,0,1,.94-4.27c.91-1.51,4.65-4,6.47-2.6C130.82,338.84,127.05,342.44,125.66,343.11Z" transform="translate(9.14 -13.84)"/><path class="cls-50" d="M130.23,340.9a6.14,6.14,0,0,0,3.44,2.68,5.55,5.55,0,0,0-.95-4.71c-.56-.75-2.61-2.56-3.7-2.13S129.68,340.07,130.23,340.9Z" transform="translate(9.14 -13.84)"/><polygon class="cls-50" points="128.48 357.69 141.2 357.05 156.79 412.08 162.51 408.61 155.55 417.05 139.24 378.22 139.41 392.21 128.29 406.94 125.31 414.28 124.95 406.18 133.55 392.19 127.48 369.03 128.48 357.69"/><polygon class="cls-48" points="120.25 353.71 124.14 354.48 127.23 368.35 124.33 368.9 120.25 353.71"/><polygon class="cls-48" points="151.64 352.8 148.09 355.66 157.89 366.16 159.85 363.95 151.64 352.8"/><polygon class="cls-48" points="134.07 337.06 137.07 342.39 138.59 337.42 134.07 337.06"/><polygon class="cls-48" points="137.9 337.39 134.68 337.25 135.01 334.69 137.98 335.2 137.9 337.39"/><path class="cls-48" d="M153,380.26a2.51,2.51,0,1,1-2.51-2.51A2.51,2.51,0,0,1,153,380.26Z" transform="translate(9.14 -13.84)"/><rect class="cls-48" x="232.76" y="334.72" width="3.78" height="3.44"/><path class="cls-50" d="M226.77,336.15a1.28,1.28,0,0,1,1.43.26,3.57,3.57,0,0,0,1.27.87c.21.05.42.05.62.09a1.46,1.46,0,0,1,.92,2.05,1.8,1.8,0,0,0-.28.53c-.07.46.44.77.68,1.16.59.93-.34,2.2.08,3.21a3.74,3.74,0,0,0,1,1.1,1.36,1.36,0,0,1,.51,1.3c-.2.62-1,.77-1.66.6a6.89,6.89,0,0,0-1.86-.52c-.34,0-.66.12-1,.11a2,2,0,0,1-1.59-1.25,14,14,0,0,1-.59-2,6.89,6.89,0,0,0-1.27-2.41c-.5-.61-1.16-1.35-.86-2.08.2-.5.76-.73,1.21-1a1.19,1.19,0,0,0,.57-1.3C226.28,336.67,226.46,336.36,226.77,336.15Z" transform="translate(9.14 -13.84)"/><polygon class="cls-51" points="241.89 356.94 240.29 353.05 242.14 348.11 246.01 351.53 249.01 349.57 246.8 344.25 242.95 338.59 240.52 336.8 226.45 337.92 220.89 349.22 223.32 353.28 226.43 350.26 226.99 352.78 226.66 368.18 241.89 356.94"/><path class="cls-48" d="M219.69,342.67c0,3,2.42,7.14,5.42,7.14s5.42-4.14,5.42-7.14a5.42,5.42,0,1,0-10.84,0Z" transform="translate(9.14 -13.84)"/><path class="cls-48" d="M227.39,343.41a1.41,1.41,0,0,1,1.26-.57.71.71,0,0,1,.32.1,1.06,1.06,0,0,1,.47.75,2.18,2.18,0,0,1-1,2.14,1.58,1.58,0,0,1-.66.26.88.88,0,0,1-.67-.18C226.39,345.35,227,344,227.39,343.41Z" transform="translate(9.14 -13.84)"/><polygon class="cls-50" points="226.74 357.69 241.89 356.94 244.99 365.74 255.05 412.08 265.59 416.83 253.81 417.05 237.42 371.6 237.67 392.21 226.55 406.94 223.57 414.28 223.21 406.18 231.81 392.19 225.74 369.03 226.74 357.69"/><path class="cls-50" d="M227.92,339.1a2.82,2.82,0,0,1-1.43,1c-.54.24-1.11.62-1.18,1.21s.56,1.31.37,2c-.26.93-1.91,1-2,2a2,2,0,0,0,.29.9,1.31,1.31,0,0,1-.13,1.43,2.48,2.48,0,0,1-1,.41c-.35.11-.71.36-.71.73s.44.76.25,1.09-.52.24-.81.17a2.22,2.22,0,0,1-1.52-.79,9.19,9.19,0,0,1-.35-.92c-.48-1-1.86-1.1-2.69-1.83a2.26,2.26,0,0,1,.14-3.37,9.49,9.49,0,0,0,1.25-.8,2.18,2.18,0,0,0,.45-1.82c-.09-.64-.33-1.25-.45-1.89a1.39,1.39,0,0,1,.13-1.08,1.32,1.32,0,0,1,1.42-.28,5.34,5.34,0,0,0,1.49.41c1.23,0,2-1.53,3.29-1.56.9,0,1.53.74,2.2,1.22S228.47,338.13,227.92,339.1Z" transform="translate(9.14 -13.84)"/><path class="cls-48" d="M226.75,343a2.51,2.51,0,1,0,2.51-2.51A2.52,2.52,0,0,0,226.75,343Z" transform="translate(9.14 -13.84)"/><path class="cls-48" d="M221.55,343a2.51,2.51,0,1,0,2.51-2.51A2.51,2.51,0,0,0,221.55,343Z" transform="translate(9.14 -13.84)"/><polygon class="cls-48" points="228.54 343.46 224.39 342.1 230.73 329.21 233.25 330.75 228.54 343.46"/><polygon class="cls-48" points="243.24 345.17 246.8 344.25 240.15 329.26 237.49 330.54 243.24 345.17"/><polygon class="cls-11" points="440.22 369.02 441.38 353.05 438.09 355.9 435.58 353.53 439.51 343.4 443.15 336.8 453.61 337.63 456.08 339.19 463.58 342.31 466.76 349.26 464.26 352.03 456.96 347.78 454.12 357.07 440.22 369.02"/><path class="cls-48" d="M445.71,342.67c0,3-2.42,7.14-5.42,7.14s-5.42-4.14-5.42-7.14a5.42,5.42,0,1,1,10.84,0Z" transform="translate(9.14 -13.84)"/><path class="cls-48" d="M438,343.41a1.41,1.41,0,0,0-1.26-.57.67.67,0,0,0-.32.1,1,1,0,0,0-.47.75,2.18,2.18,0,0,0,1,2.14,1.58,1.58,0,0,0,.66.26.88.88,0,0,0,.67-.18C439,345.35,438.44,344,438,343.41Z" transform="translate(9.14 -13.84)"/><path class="cls-50" d="M438,343.11a.5.5,0,0,1-.39.07c-.12-.05-.19-.19-.27-.3a1,1,0,0,0-1.42,0,1.26,1.26,0,0,0-.16,1.48,1.81,1.81,0,0,0,1.31.84,11.78,11.78,0,0,1,.42,3.83l-2.58.19a.75.75,0,0,1-.49-.08.79.79,0,0,1-.2-.42,21.3,21.3,0,0,1-.48-4.5,8.22,8.22,0,0,1,.94-4.27c.91-1.51,4.65-4,6.47-2.6C443.17,338.84,439.4,342.44,438,343.11Z" transform="translate(9.14 -13.84)"/><path class="cls-50" d="M442.59,340.9a6.15,6.15,0,0,0,3.43,2.68,5.55,5.55,0,0,0-.95-4.71c-.56-.75-2.61-2.56-3.69-2.13S442,340.07,442.59,340.9Z" transform="translate(9.14 -13.84)"/><polygon class="cls-50" points="440.83 357.69 454.12 357.07 458.79 365.69 469.15 412.08 474.86 408.61 467.9 417.05 451.51 371.6 451.76 392.21 440.65 406.94 437.66 414.28 437.3 406.18 445.91 392.19 439.83 369.03 440.83 357.69"/><polygon class="cls-48" points="444.69 345.63 440.6 343.71 447.73 329.64 450.81 331.71 444.69 345.63"/><polygon class="cls-48" points="459.58 344.06 463.58 342.31 456.07 330.06 453.71 331.84 459.58 344.06"/><polygon class="cls-48" points="446.43 337.06 449.43 342.39 450.94 337.42 446.43 337.06"/><path class="cls-48" d="M447.82,343.79a2.51,2.51,0,1,1-2.51-2.51A2.51,2.51,0,0,1,447.82,343.79Z" transform="translate(9.14 -13.84)"/><path class="cls-48" d="M442.8,343.79a2.51,2.51,0,1,1-2.51-2.51A2.51,2.51,0,0,1,442.8,343.79Z" transform="translate(9.14 -13.84)"/><path class="cls-52" d="M546,382.1c.18-.4,5.74-13.53,5.74-13.53l9.45-15.82L556,350.69l-8.19,16.63L543.09,381Z" transform="translate(9.14 -13.84)"/><path class="cls-48" d="M556.27,340.66c-.86,2.86.26,7.53,3.12,8.4s6.39-2.39,7.26-5.26a5.42,5.42,0,1,0-10.38-3.14Z" transform="translate(9.14 -13.84)"/><polygon class="cls-48" points="560.34 362.48 565.99 389.72 554.89 416.83 565.39 416.83 558.76 413.85 572.68 389.85 570.88 361.58 560.34 362.48"/><path class="cls-50" d="M559,342.91a1.11,1.11,0,0,0-1.68.71,1.75,1.75,0,0,0,1,1.77,7.59,7.59,0,0,0-1,2.13,13.28,13.28,0,0,1-2.24-4.88,5.13,5.13,0,0,1,1.53-4.59,7.62,7.62,0,0,1,1.32-.85l2-1.09a2.59,2.59,0,0,1,3.27,0c.88.51,3.56,2,1.92,2.88S559.3,342.39,559,342.91Z" transform="translate(9.14 -13.84)"/><path class="cls-11" d="M562.71,351l-6.74-.34-2.69,5.46.65,14.47-2.73,5.71,13-1.12-3.1-4.58,1.47-7,1.3-3,1.07-1.93a2.3,2.3,0,0,0,.06-2.78l-1.51-2.68Z" transform="translate(9.14 -13.84)"/><circle class="cls-50" cx="563.25" cy="325.49" r="2.91"/><path class="cls-50" d="M553.94,344.23a2.59,2.59,0,0,0,2.06,2.88,1,1,0,0,0,1-.5,1.8,1.8,0,0,0-.15-1.11,7,7,0,0,1,0-2.46C557.16,339.45,554.14,342.19,553.94,344.23Z" transform="translate(9.14 -13.84)"/><path class="cls-48" d="M564.25,375.21l10.42,24.49L566,417.81l5.84,2.26-10.3.64,7.19-19.87s-13.33-24.08-13.22-24.51S564.25,375.21,564.25,375.21Z" transform="translate(9.14 -13.84)"/><path class="cls-48" d="M546.7,382.62a2.51,2.51,0,1,1-2.51-2.51A2.51,2.51,0,0,1,546.7,382.62Z" transform="translate(9.14 -13.84)"/><polygon class="cls-53" points="579.39 373.4 558.54 376.19 560.34 362.48 573.39 361.37 579.39 373.4"/><polygon class="cls-54" points="565.39 416.83 554.89 416.83 558.54 407.65 562.04 408.19 558.76 413.85 565.39 416.83"/><polygon class="cls-54" points="580.97 406.22 570.67 406.87 574.05 397.53 577.73 398.54 575.14 403.97 580.97 406.22"/><path class="cls-11" d="M574.1,380.74l-7.42-12.69-7-17-3.82,2.33,7.51,17.09,8.18,11.95Z" transform="translate(9.14 -13.84)"/><path class="cls-48" d="M576.07,382.26a2.51,2.51,0,1,1-2.91-2.05A2.51,2.51,0,0,1,576.07,382.26Z" transform="translate(9.14 -13.84)"/><polygon class="cls-48" points="569.95 337.08 565.45 336.84 566.6 333.4 570.57 333.75 569.95 337.08"/><path class="cls-50" d="M402.57,353a1.42,1.42,0,0,0,.82-.1,1.38,1.38,0,0,0,.48-.72c1.49-4.1.89-8.64.06-12.93a4.68,4.68,0,0,0-.62-1.83,4,4,0,0,0-3.39-1.35,4.29,4.29,0,0,0-1.67.28,3.7,3.7,0,0,0-2,3.16,11.64,11.64,0,0,0,.6,3.87c.62,2.27,1.19,4.55,1.73,6.84.17.76.18,2.16.9,2.54S401.77,353,402.57,353Z" transform="translate(9.14 -13.84)"/><path class="cls-48" d="M396.14,344c.77,2.9,4.18,6.27,7.07,5.5s4.18-5.39,3.41-8.28A5.42,5.42,0,1,0,396.14,344Z" transform="translate(9.14 -13.84)"/><polygon class="cls-48" points="407.78 360.84 409.54 389.72 408.53 416.83 419.03 416.83 411.61 414.65 414.8 389.85 418.07 362.12 407.78 360.84"/><polygon class="cls-48" points="404.43 360.43 402.07 384.81 389.7 409.73 393.23 416.25 397.03 416.25 394.15 414.09 392.76 409.05 404.71 390.33 415.76 361.83 404.43 360.43"/><polygon class="cls-53" points="437.3 350.4 436.7 347.78 426.69 348.77 417.27 336.39 407.51 337.54 407.43 352.17 404.43 360.43 418.07 362.12 417.85 351.45 419.55 347.4 424.91 353.49 437.3 350.4"/><polygon class="cls-50" points="404.43 360.43 400.72 375.67 417.3 377.65 418.07 362.12 404.43 360.43"/><polygon class="cls-50" points="419.03 416.83 408.53 416.83 408.71 411.95 411.95 411.95 411.61 414.65 419.03 416.83"/><polygon class="cls-50" points="391.32 406.46 393.6 407.73 392.76 409.05 394.15 414.09 397.03 416.25 393.23 416.25 388.7 410.73 391.32 406.46"/><polygon class="cls-48" points="412.62 336.94 408.73 337.47 408.69 334.92 412.53 335.58 412.62 336.94"/><path class="cls-50" d="M402.24,339.88a9.53,9.53,0,0,1-1.12,3.21A1.41,1.41,0,0,0,399,343a1.75,1.75,0,0,0,0,2.23,2.4,2.4,0,0,0,2.18.79,61.13,61.13,0,0,1-.41,8.87l-5-.19c-.53-4.21-1.07-8.48-.56-12.69a9.31,9.31,0,0,1,.63-2.61,4.08,4.08,0,0,1,1.72-2,4.39,4.39,0,0,1,1.92-.47,5.26,5.26,0,0,1,1.68,0C402.15,337.26,402.32,339,402.24,339.88Z" transform="translate(9.14 -13.84)"/><path class="cls-48" d="M431.46,362.61A2.51,2.51,0,1,1,429,360.1,2.51,2.51,0,0,1,431.46,362.61Z" transform="translate(9.14 -13.84)"/><path class="cls-23" d="M347.38,381.13c.19-.48,3.63-13.72,3.63-13.72L365,357l-2.94-7.91-5.59,1.61-10.88,13.06-.94,17.37Z" transform="translate(9.14 -13.84)"/><polygon class="cls-48" points="377.27 337.15 372.18 336.2 372.51 332.65 377.12 334.86 377.27 337.15"/><polygon class="cls-23" points="367.57 364.65 372.06 389.72 370.47 407.9 371.37 407.9 371.04 416.83 381.54 416.83 374.91 413.85 375.79 408.32 376.64 408.36 379.97 390.07 378.27 365.13 367.57 364.65"/><polygon class="cls-23" points="361.39 370.78 360.39 384.82 349.22 401.18 350.11 401.86 347.06 406.17 348.55 416.25 353.79 416.25 350.91 414.09 350.43 407.61 353.39 404.27 354.29 405 366.3 390.74 378.27 365.13 364.13 363.89 361.39 370.78"/><polygon class="cls-23" points="401.09 366.63 403.39 364.4 393.01 356.14 382.55 338.79 378.97 336.78 371.19 335.25 363.39 347.4 364.13 363.89 378.27 365.13 382.26 350.47 390.76 360.84 401.09 366.63"/><path class="cls-48" d="M396.09,379.53a2.51,2.51,0,1,1-2.51-2.51A2.51,2.51,0,0,1,396.09,379.53Z" transform="translate(9.14 -13.84)"/><path class="cls-48" d="M348.63,382a2.51,2.51,0,1,1-2.51-2.51A2.51,2.51,0,0,1,348.63,382Z" transform="translate(9.14 -13.84)"/><polygon class="cls-54" points="371.37 407.9 371.04 416.83 381.54 416.83 374.91 413.85 375.79 408.32 371.37 407.9"/><polygon class="cls-54" points="350.11 401.86 345.06 408.17 348.55 416.25 353.79 416.25 350.91 414.09 350.43 407.61 353.39 404.27 350.11 401.86"/><path class="cls-23" d="M368.57,335.8a5,5,0,0,0-6.3,1.71c-1,1.34-1.21,4.07-.95,5.74,1,6.38,7,6.14,8,6,1.94-.22,3.07-3.33,3.58-6.28C373.21,341.1,373.11,337.88,368.57,335.8Z" transform="translate(9.14 -13.84)"/><path class="cls-48" d="M373,341.47a7.59,7.59,0,0,1-1.95.37c-1.86,0-4.36-1.68-4.36.75,0,2.16,2.5.75,4.36.75a7.78,7.78,0,0,1,1.73.26c0-.2.08-.4.11-.6A7.29,7.29,0,0,0,373,341.47Z" transform="translate(9.14 -13.84)"/><polygon class="cls-48" points="623.21 337.73 618.83 338.11 619.2 334.02 622.26 334.36 623.21 337.73"/><path class="cls-50" d="M613.13,336.15a1.26,1.26,0,0,1,1.42.26,3.52,3.52,0,0,0,1.28.87c.2.05.41.05.62.09a1.45,1.45,0,0,1,.91,2.05,1.57,1.57,0,0,0-.27.53c-.08.46.43.77.68,1.16.58.93-.35,2.2.07,3.21a3.89,3.89,0,0,0,1,1.1,1.36,1.36,0,0,1,.51,1.3c-.19.62-1,.77-1.65.6a7.06,7.06,0,0,0-1.87-.52c-.33,0-.66.12-1,.11a2,2,0,0,1-1.59-1.25,14,14,0,0,1-.59-2,6.73,6.73,0,0,0-1.27-2.41c-.5-.61-1.16-1.35-.86-2.08.2-.5.76-.73,1.21-1a1.19,1.19,0,0,0,.57-1.3C612.63,336.67,612.82,336.36,613.13,336.15Z" transform="translate(9.14 -13.84)"/><polygon class="cls-53" points="629.09 356.94 628.64 353.05 629.61 346.69 636.03 355.9 636.97 350.12 629.7 338.11 624.96 336.91 616.38 337.34 611.86 340.1 606.31 354.95 610.73 353.98 613.85 348.93 614.76 354.34 614.46 357.63 629.09 356.94"/><path class="cls-48" d="M606,342.67c0,3,2.43,6.14,5.42,6.14s5.42-3.14,5.42-6.14a5.42,5.42,0,1,0-10.84,0Z" transform="translate(9.14 -13.84)"/><path class="cls-48" d="M634.71,374.17a2.51,2.51,0,1,0,0,3.55A2.51,2.51,0,0,0,634.71,374.17Z" transform="translate(9.14 -13.84)"/><path class="cls-48" d="M613.74,343.41a1.42,1.42,0,0,1,1.27-.57.75.75,0,0,1,.32.1,1.05,1.05,0,0,1,.46.75,2.19,2.19,0,0,1-1,2.14,1.67,1.67,0,0,1-.67.26.89.89,0,0,1-.67-.18C612.74,345.35,613.31,344,613.74,343.41Z" transform="translate(9.14 -13.84)"/><polygon class="cls-50" points="614.46 357.63 629.09 356.94 640.49 407.98 636.97 408.19 623.77 371.6 624.02 392.21 612.9 406.94 609.92 414.28 609.56 406.18 618.16 392.19 612.09 369.03 614.46 357.63"/><polygon class="cls-48" points="636.76 349.78 633.61 352.43 640.63 362.71 643.5 361.08 636.76 349.78"/><polygon class="cls-48" points="606.31 354.95 610.73 353.98 613.01 368.18 610.06 368.19 606.31 354.95"/><path class="cls-48" d="M605.3,382.31a2.51,2.51,0,1,0-2.84,2.14A2.51,2.51,0,0,0,605.3,382.31Z" transform="translate(9.14 -13.84)"/><path class="cls-50" d="M614.27,339.1a2.82,2.82,0,0,1-1.43,1c-.54.24-1.11.62-1.18,1.21s.56,1.31.38,2c-.27.93-1.91,1-2,2a2,2,0,0,0,.29.9,1.3,1.3,0,0,1-.13,1.43,2.42,2.42,0,0,1-1,.41c-.35.11-.71.36-.71.73s.44.76.25,1.09-.52.24-.81.17a2.2,2.2,0,0,1-1.51-.79,7.31,7.31,0,0,1-.36-.92c-.48-1-1.86-1.1-2.69-1.83a2.26,2.26,0,0,1,.14-3.37,9.49,9.49,0,0,0,1.25-.8,2.18,2.18,0,0,0,.45-1.82c-.09-.64-.33-1.25-.45-1.89a1.39,1.39,0,0,1,.13-1.08,1.32,1.32,0,0,1,1.42-.28,5.34,5.34,0,0,0,1.49.41c1.23,0,2.06-1.53,3.29-1.56.9,0,1.53.74,2.21,1.22S614.82,338.13,614.27,339.1Z" transform="translate(9.14 -13.84)"/><polygon class="cls-48" points="198.96 338.18 205 339.03 204.6 334.68 199.55 333.97 198.96 338.18"/><path class="cls-53" d="M207.65,380.58c-.43-.28-8.06-12.73-8.06-12.73L192.09,351l-4.67,3.05,8.89,16.27,8.87,12.38Z" transform="translate(9.14 -13.84)"/><path class="cls-55" d="M179.16,382.59c0-.52,5.26-14.13,5.26-14.13l8.85-16.15L188,350.43l-7.57,16.93L176,381.91Z" transform="translate(9.14 -13.84)"/><path class="cls-48" d="M189.92,340.66c-.87,2.86,2.26,7.53,5.12,8.4s5.39-2.26,5.26-5.26c-.16-3.6-.75-5.89-3.62-6.76A5.43,5.43,0,0,0,189.92,340.66Z" transform="translate(9.14 -13.84)"/><polygon class="cls-50" points="195.43 363.75 208.27 388.28 198.62 416.83 209.12 416.83 202.48 413.85 214.97 388.41 206.32 362.48 195.43 363.75"/><path class="cls-53" d="M194,351l-5.58.35L187,361.93l-.72,15.67,10.9-1.27-.92-12.69,1.29-3,1.08-1.93a4,4,0,0,0,.08-3.78l-1-1.94Z" transform="translate(9.14 -13.84)"/><path class="cls-48" d="M208.8,381.41a2.51,2.51,0,1,1-2.76-2.24A2.52,2.52,0,0,1,208.8,381.41Z" transform="translate(9.14 -13.84)"/><path class="cls-50" d="M187.59,344.23a2.58,2.58,0,0,0,2,2.88,1,1,0,0,0,1-.5,1.8,1.8,0,0,0-.15-1.11,7,7,0,0,1,0-2.46C190.81,339.45,187.79,342.19,187.59,344.23Z" transform="translate(9.14 -13.84)"/><path class="cls-50" d="M196.9,336.13a3.51,3.51,0,0,0-1.59-.59,3.33,3.33,0,0,0-1.62.54h0c-1.67.4-3.51.91-4.43,2.36-.29.46-.46,1-.76,1.45-.53.83-1.41,1.38-2,2.2a3.45,3.45,0,0,0-.57,2.09c.05.91.45,1.86.08,2.69-.47,1.1-2.08,1.47-2.33,2.65s.83,2,1,3-.89,2.27-.87,3.48a2.81,2.81,0,0,0,1.86,2.36,8.22,8.22,0,0,0,3.13.38,5.69,5.69,0,0,0,3-.62,3.82,3.82,0,0,0,1.33-1.59,12.43,12.43,0,0,0,1-4.85,36.52,36.52,0,0,0,.11-4.05,2.14,2.14,0,0,0-.5-1.54c-.45-.42-1.29-.51-1.69-.74a2.34,2.34,0,0,1-1-1.77c0-2.46,2.72-1.43,2.72,0,.13-.25-1-2.53,1.19-3.66.9-.46,3.18-.59,3.91-1C200.46,338.12,197.78,336.64,196.9,336.13Z" transform="translate(9.14 -13.84)"/><polygon class="cls-50" points="193.96 387 195.43 363.75 206.32 362.48 199.98 390.28 185.18 407.69 184.02 412.89 184.74 415.46 181.98 413.73 181.19 406.53 183.3 406.05 193.96 387"/><path class="cls-48" d="M180,382.24a2.52,2.52,0,1,1-2.52-2.51A2.51,2.51,0,0,1,180,382.24Z" transform="translate(9.14 -13.84)"/><path class="cls-7" d="M613,422c4.19-.59,8.38-.89,12.56-1.1s8.38-.29,12.57-.32l6.28.08c2.09.08,4.18.1,6.28.23,4.19.21,8.37.52,12.56,1.11-4.19.59-8.37.9-12.56,1.11-2.1.13-4.19.15-6.28.23l-6.28.08c-4.19,0-8.38-.09-12.57-.32S617.19,422.59,613,422Z" transform="translate(9.14 -13.84)"/><path class="cls-22" d="M270.9,407.41s-1.39,5.79-1.67,6.7,0,1.39.84,1,.67.7,1.37.22.71.74,1.27.41c.82-.5.85-.05,1.23-.13s.13-1.69.13-1.69,2,.39-.67-2.7c-.62-.7,2-6.75,2-6.75Z" transform="translate(9.14 -13.84)"/><path class="cls-22" d="M305.56,407.49s1.14,5.84,1.38,6.77-.07,1.38-.89.92-.69.66-1.37.16-.74.7-1.28.35c-.81-.53-.85-.09-1.23-.18s-.05-1.7-.05-1.7-2.06.3.78-2.67c.65-.67-1.71-6.82-1.71-6.82Z" transform="translate(9.14 -13.84)"/><path class="cls-25" d="M300.63,417.38l-2.46,0a1.37,1.37,0,0,1-1.33-1.41v-.92l5.09-.06v.92A1.38,1.38,0,0,1,300.63,417.38Zm-3.56-2.06V416a1.14,1.14,0,0,0,1.09,1.17l2.46,0a1.13,1.13,0,0,0,1.06-1.2v-.68Z" transform="translate(9.14 -13.84)"/><path class="cls-26" d="M321.8,413.41l-11.71.15-2,1a2.06,2.06,0,0,1-1.38.19L298.08,413l0,2.33a11.11,11.11,0,0,1,8,2.61,2.21,2.21,0,0,0,1.94.49l.78-.18a2.64,2.64,0,0,1,.93-.05l11.88,1.48a.25.25,0,0,0,.28-.28,16.82,16.82,0,0,1,.14-5.73A.25.25,0,0,0,321.8,413.41Z" transform="translate(9.14 -13.84)"/><path class="cls-27" d="M299.06,416.87h-.39a1.71,1.71,0,0,0,.84-1.71h.66A1.94,1.94,0,0,1,299.06,416.87Z" transform="translate(9.14 -13.84)"/><path class="cls-27" d="M300.77,413.76l-1.22,0-.07-1.52.8.3.81-1.16.24.17A2.58,2.58,0,0,0,300.77,413.76Z" transform="translate(9.14 -13.84)"/><path class="cls-26" d="M295,415l-11.57.14a2.39,2.39,0,0,1-2.43-2.36v0l14-.17Z" transform="translate(9.14 -13.84)"/><path class="cls-25" d="M299.92,413.32l-38.38.45,0-1.53,36.87-.42a1.51,1.51,0,0,1,1.53,1.49Z" transform="translate(9.14 -13.84)"/><path class="cls-28" d="M299.92,413.31l-7.9.1,0,1.67,7.91.38A1.11,1.11,0,0,0,299.92,413.31Z" transform="translate(9.14 -13.84)"/><path class="cls-25" d="M262.94,412a.47.47,0,0,1-.09.65.47.47,0,0,1-.66-.09.47.47,0,0,1,.09-.65A.47.47,0,0,1,262.94,412Z" transform="translate(9.14 -13.84)"/><path class="cls-22" d="M285.32,366.69v4.66s6.77.13,7-.21l-.28-4.45Z" transform="translate(9.14 -13.84)"/><path class="cls-54" d="M280.54,442.59a54.87,54.87,0,0,1-1.27-11.46l6-1s1.28,23.27,2.64,30.9c.25,1.4,1.5,5.48,1.5,5.48H276.26s7.27-2.8,8-3.29a2,2,0,0,0,1-2.19C284.27,456.4,281,444.45,280.54,442.59Z" transform="translate(9.14 -13.84)"/><path class="cls-54" d="M300.72,442.16c.5,5.1.59,14.19.95,18.91.07.88,0,.91.56,1.57s8.37,3.91,8.37,3.91H299.44s-.31-4.12-.52-5.48c-.68-4.56-3.34-16.2-3.82-18.06A109.94,109.94,0,0,1,293,431.13l6-1S300.44,439.34,300.72,442.16Z" transform="translate(9.14 -13.84)"/><path class="cls-22" d="M302.31,382s.86,7.52,1.12,8.81,2.57,15.9,2.57,15.9l-2.89.44-4.73-15.61-.19-8.21Z" transform="translate(9.14 -13.84)"/><path class="cls-23" d="M277.4,405.86s-.65,9-.86,12.09,1.95,15.63,1.95,15.63l5.36,26.28h4.91l-1.45-27.14.64-14.37,5.92,23.59,4.18,17.92h4.18l-.88-17.92-4-36.08S285.4,406.17,277.4,405.86Z" transform="translate(9.14 -13.84)"/><path class="cls-23" d="M277.33,404.43h20.05c.36,0,.45-.29.44-.65l-.37-10.39,4.65,16.47,4.5-.55-4.5-33.19s-6.85-4-9-4.85c-.06,0-.42-.86-.47-.88s-.31-.21-.38-.23a27.58,27.58,0,0,0-7.51.2c-.15.05-.86,1.24-1,1.3-3.35,1.22-7.91,3.5-8.37,4-.63.74-5.72,34-5.72,34l4.44.73,3.84-17-.79,10.31C277.12,404.1,276.93,404.43,277.33,404.43Z" transform="translate(9.14 -13.84)"/><path class="cls-22" d="M287.73,356.17c-3.92.46-4.11,4.88-3.73,8.56s2.17,5.18,4.68,5.15,4.15-1.9,4.61-5.33S294,355.44,287.73,356.17Z" transform="translate(9.14 -13.84)"/><path class="cls-23" d="M287.61,356.08c-3.2.44-4.41,3.55-4.16,6.67a32.66,32.66,0,0,0,1.87,6.94l3.51.19,3.45-.29a43.23,43.23,0,0,0,1.5-6.39C294,360,293.14,355.31,287.61,356.08Z" transform="translate(9.14 -13.84)"/><rect class="cls-49" x="277.33" y="404.43" width="20.05" height="2.45" transform="translate(583.84 797.47) rotate(-180)"/><ellipse class="cls-22" cx="278.79" cy="400.06" rx="0.61" ry="1.17"/><ellipse class="cls-22" cx="280.23" cy="399.94" rx="0.61" ry="1.17"/><ellipse class="cls-22" cx="281.56" cy="399.92" rx="0.61" ry="1.17"/><ellipse class="cls-22" cx="282.87" cy="399.92" rx="0.61" ry="1.17"/><ellipse class="cls-22" cx="314.68" cy="403.03" rx="0.61" ry="1.17"/><ellipse class="cls-22" cx="313.79" cy="402.66" rx="0.61" ry="1.17"/><ellipse class="cls-22" cx="312.77" cy="402.17" rx="0.61" ry="1.17"/><ellipse class="cls-22" cx="311.68" cy="401.99" rx="0.61" ry="1.17"/><path class="cls-54" d="M526.21,387.93a50.51,50.51,0,0,0,1.18-10.6l-5.59-.88S520.62,398,519.36,405c-.23,1.29-1.39,5.06-1.39,5.06h12.19s-6.72-2.58-7.36-3a1.8,1.8,0,0,1-.9-2C522.76,400.69,525.76,389.64,526.21,387.93Z" transform="translate(9.14 -13.84)"/><path class="cls-54" d="M507.56,387.53c-.47,4.71-.55,13.12-.89,17.48-.06.82,0,.84-.52,1.46s-7.73,3.6-7.73,3.6h10.31s.3-3.8.48-5.06c.64-4.22,3.09-15,3.54-16.69a100.31,100.31,0,0,0,2-11l-5.58-.88S507.81,384.92,507.56,387.53Z" transform="translate(9.14 -13.84)"/><polygon class="cls-56" points="541.34 321.04 544.77 344.08 542.12 344.6 537.61 323.41 536.61 322.8 541.34 321.04"/><path class="cls-22" d="M535.12,355.4s1.29,5.35,1.55,6.2,0,1.28-.78.88-.62.65-1.27.21-.65.68-1.17.37c-.76-.45-.78,0-1.13-.12s-.13-1.56-.13-1.56-1.88.36.62-2.5c.57-.65-1.86-6.23-1.86-6.23Z" transform="translate(9.14 -13.84)"/><path class="cls-22" d="M506.08,332s-.79,6.95-1,8.14-2.37,14.7-2.37,14.7l2.67.41,4.37-14.44.18-7.58Z" transform="translate(9.14 -13.84)"/><path class="cls-22" d="M503.07,355.47s-1.05,5.41-1.27,6.26.06,1.28.82.85.64.62,1.27.15.69.65,1.19.32c.74-.48.78-.07,1.13-.17s.05-1.56.05-1.56,1.9.28-.73-2.47c-.59-.62,1.59-6.31,1.59-6.31Z" transform="translate(9.14 -13.84)"/><path class="cls-23" d="M529.11,354s.61,8.34.8,11.18-1.8,14.45-1.8,14.45l-5,24.3h-4.54L520,378.8l-.59-13.28-5.47,21.81L510,403.89h-3.87l.82-16.56L510.69,354S521.71,354.25,529.11,354Z" transform="translate(9.14 -13.84)"/><path class="cls-23" d="M529.18,352.65H510.64c-.33,0-.42-.28-.4-.61l.34-9.6-4.3,15.22-4.16-.5,4.16-30.69s6.33-3.66,8.29-4.48c.06,0,.39-.8.43-.82s.29-.19.36-.21c1.17-.29,3.27.71,4.94.61.4,0,1-.77,2-.43.14.05.79,1.15.94,1.21,3.1,1.13,7.31,3.24,7.74,3.73.59.69,5.29,31.42,5.29,31.42l-4.1.67-3.56-15.73.73,9.53C529.37,352.34,529.55,352.65,529.18,352.65Z" transform="translate(9.14 -13.84)"/><path class="cls-22" d="M521.79,317.75v3.56a1.42,1.42,0,0,1-.69.53,7.8,7.8,0,0,0-1.51,1.52,6.39,6.39,0,0,1-1.64.17c-.1,0-.85-1.38-1.49-1.66a4.13,4.13,0,0,1-1.16-.72l.26-3.4Z" transform="translate(9.14 -13.84)"/><path class="cls-23" d="M519.57,308c3.62.42,3.79,4.51,3.44,7.91s-2,5.51-4.37,5.49-3.79-2.48-4.22-5.65S513.76,307.35,519.57,308Z" transform="translate(9.14 -13.84)"/><path class="cls-49" d="M529.56,360.19a2.48,2.48,0,0,1-1.26-.91,11.46,11.46,0,0,1-1-3.12,8.11,8.11,0,0,0,.68,3.35,4.88,4.88,0,0,0,1.68,1.78S529.56,360.19,529.56,360.19Z" transform="translate(9.14 -13.84)"/><path class="cls-49" d="M509.77,362.22a4,4,0,0,0,2.38-2.1,9.73,9.73,0,0,0,.68-2.84c0-.1-.55,1.23-.94,2.09a3.06,3.06,0,0,1-2,1.72Z" transform="translate(9.14 -13.84)"/><rect class="cls-49" x="519.78" y="338.8" width="18.54" height="2.26"/><rect class="cls-57" x="526.85" y="338.8" width="4.09" height="2.26"/><path class="cls-23" d="M523.3,314.28c0,2.55-2.07,6.94-4.62,6.94s-4.61-4.39-4.61-6.94,0-6.17,4.61-6.17S523.3,311.73,523.3,314.28Z" transform="translate(9.14 -13.84)"/><path class="cls-22" d="M522.66,314.12c0,2.07-1.72.45-3.84.45s-3.85,1.57-3.85-.45c0-2.18,1.64-.54,3.76-.54S522.66,312.13,522.66,314.12Z" transform="translate(9.14 -13.84)"/></g></svg>