<svg xmlns="http://www.w3.org/2000/svg" viewBox="0 0 185.79 193.91"><defs><style>.cls-1{isolation:isolate;}.cls-2{fill:#3aaa35;}.cls-3{fill:#93c782;}.cls-4{fill:#65b557;}.cls-5{fill:#d9d9d9;mix-blend-mode:multiply;}.cls-6{fill:#1d1d1b;}.cls-7{fill:#a43d29;}.cls-8{fill:#f6bbc6;}.cls-9{fill:#396b94;}.cls-10{fill:#eb5e3b;}.cls-11{fill:#f39200;}.cls-12{fill:#ef7967;}.cls-13{fill:#4d4471;}.cls-14{fill:#3b2d7c;}.cls-15{fill:#8782bd;}.cls-16{fill:#5b5b5a;}.cls-17,.cls-19{fill:#303b45;}.cls-18{fill:#ebebeb;}.cls-19{opacity:0.5;}.cls-20{fill:#353430;}.cls-21{fill:#eaeaea;}.cls-22,.cls-23{fill:none;stroke-miterlimit:10;stroke-width:1.03px;}.cls-22{stroke:#fbc01f;}.cls-23{stroke:#4294ce;}.cls-24{fill:#2a2f59;}.cls-25{fill:#c6c3e3;}.cls-26{fill:#4d4a81;}</style></defs><title>G12_04_04</title><g class="cls-1"><g id="Livello_1" data-name="Livello 1"><polygon class="cls-2" points="185.79 136.38 185.79 141.13 96.32 193.91 96.32 189.16 185.79 136.38"/><polygon class="cls-3" points="96.32 189.16 96.32 193.91 0.22 138.18 0.22 133.43 96.32 189.16"/><polygon class="cls-4" points="96.1 189.18 0 133.44 0 133.18 90.31 81.27 185.79 136.4 96.25 189.26 96.1 189.18"/><ellipse class="cls-5" cx="93.26" cy="133.78" rx="62.69" ry="32.6"/></g><g id="Livello_2" data-name="Livello 2"><path class="cls-6" d="M134.63,123.09a16.62,16.62,0,0,1,1.26,5,3.24,3.24,0,0,1-1,2.52,41.62,41.62,0,0,1-4.46,1c-1,.05-4.41,2.74-6.87,2.92s-5.61.91-6-1,12.13-9.67,12.13-9.67Z" transform="translate(-3.54 -3.01)"/><path class="cls-7" d="M120.42,20.1,117.82,23S111,47.7,111.22,49.79s2.93,2.5,4.6,1.88,6.27-15.89,6.27-15.89Z" transform="translate(-3.54 -3.01)"/><path class="cls-8" d="M134.1,117.15l.51,6.71s.13,1.6-2,1.7a2.85,2.85,0,0,1-2.83-1.78l-1.52-10Z" transform="translate(-3.54 -3.01)"/><path class="cls-8" d="M148.69,123.17l1.26,6s-.39,2.14-2.33,1.85-2.52-2.91-2.52-2.91l-1.17-6.41Z" transform="translate(-3.54 -3.01)"/><path class="cls-6" d="M149.76,128.21s-.2,1.75-1.75,1.65a5,5,0,0,1-2.91-1.74l.39,6.21s.87,9.32,3.59,10.29,3.3-4.17,3.3-4.17Z" transform="translate(-3.54 -3.01)"/><path class="cls-9" d="M144.59,58.75s-.52,9.76-1,11.55,1,25.67,1,25.67,5.39,28.24,5.13,29.78-4.62.77-5.65-.77-7.44-24.9-8.47-31.58-4.1-22.07-4.1-22.07-.26,18.74-.26,20.28,3.34,29.52,3.34,29.52-.13.82-2.72,1.2a3.16,3.16,0,0,1-3-1.17c-1.53-2.51-2-8-2-8S119.43,81.34,119.94,78s-1-25.66-1-25.66L123,50.8Z" transform="translate(-3.54 -3.01)"/><path class="cls-10" d="M134.81,20.89s-8.52-2.74-12-1.87-4.66,3.2-5,4.37S119,52.8,119,52.8s15.15,12.53,21.56,9.32c4.62-2.31,5-4.93,4.85-6.2a15.18,15.18,0,0,1-.14-2.33l.82-25Z" transform="translate(-3.54 -3.01)"/><path class="cls-7" d="M139.12,40.75,141.84,27l.41-1,3.84,2.63-.82,25a15.18,15.18,0,0,0,.14,2.33c.12,1.06-.13,3.07-2.91,5C142,57.81,139.12,40.75,139.12,40.75Z" transform="translate(-3.54 -3.01)"/><path class="cls-10" d="M137.64,37.08s-4.87-15.31-2.83-16.19c0,0,11.86,3.95,13.32,7.16s1.14,6,2.45,11c0,0,3.06,10.63,2.62,13.39s-.27,21-.27,21l-6,.15-2.78-22Z" transform="translate(-3.54 -3.01)"/><path class="cls-10" d="M132.31,20.88s3.12.87,3.41,1.6-2,4.06-4.5,5.88a16.15,16.15,0,0,1-4.06,2.32,13.57,13.57,0,0,1-2.76-8.13C124.47,17.83,132.31,20.88,132.31,20.88Z" transform="translate(-3.54 -3.01)"/><path class="cls-8" d="M120.48,11.19A8.5,8.5,0,1,0,129.29,3,8.49,8.49,0,0,0,120.48,11.19Z" transform="translate(-3.54 -3.01)"/><path class="cls-8" d="M127.16,14.07l-.33,8.73h0a5.44,5.44,0,0,0,6.09.63h0a1.33,1.33,0,0,0,.66-1.51L133,13.44Z" transform="translate(-3.54 -3.01)"/><path class="cls-11" d="M122.14,9.26a2.13,2.13,0,0,1-1.06-.77s0,0,0-.06a8.49,8.49,0,0,1,16.4,3.39,9.91,9.91,0,0,1-.13,1.11,2.72,2.72,0,0,1-1.14-.08c-.83-.24-3.08-2.35-2.41-3.36l-1,1.48a2,2,0,0,1-.62-1.86A12.57,12.57,0,0,1,122.14,9.26Z" transform="translate(-3.54 -3.01)"/><path class="cls-7" d="M118,50.72s1.69-3.78.17-5.53h0c-1.53-1.76-3.21-3-5.72-.84,0,0-8.22,10.68-6.7,12.43l2.21,2.28C109.46,60.82,115.47,52.9,118,50.72Z" transform="translate(-3.54 -3.01)"/><path class="cls-8" d="M133.81,12a2.59,2.59,0,1,0,2.68-2.49A2.58,2.58,0,0,0,133.81,12Z" transform="translate(-3.54 -3.01)"/><path class="cls-8" d="M103.64,57.83a3.14,3.14,0,1,0,3.14-3.14A3.14,3.14,0,0,0,103.64,57.83Z" transform="translate(-3.54 -3.01)"/><path class="cls-8" d="M146.81,74.57A3.14,3.14,0,1,0,150,71.43,3.15,3.15,0,0,0,146.81,74.57Z" transform="translate(-3.54 -3.01)"/><path class="cls-12" d="M93,28.09S80.05,42.16,79.43,42.73s.81,2.44,1.55,2.55c3.15.48,10.73-5,11.35-5.76S95.15,31,95.15,31Z" transform="translate(-3.54 -3.01)"/><path class="cls-13" d="M107.67,21c1,.26,2.12.79,2.32,1.8.16.8-.32,1.62-.16,2.41.3,1.46,2.37,1.72,3.23,2.94.65.95.44,2.23.79,3.33a10.19,10.19,0,0,0,1.66,2.59,3.25,3.25,0,0,1,.71,2.88c-.44,1.23-2,1.68-3.26,1.76s-2.74,0-3.79.8c-.84.64-1.25,1.73-2.1,2.36a3.82,3.82,0,0,1-3.87.12,5,5,0,0,1-2.66-2.91,3.61,3.61,0,0,1,1-3.72,3.57,3.57,0,0,1-3.09-3c-.2-1.64.76-3.17,1.48-4.66a2.08,2.08,0,0,0,.27-1.23,2.29,2.29,0,0,0-.76-1.09A17.94,17.94,0,0,1,95.21,19c-1.36-3.53,1-7.91,5.23-6.08,1.48.63,2.5,2.3,3.2,3.67C104.87,19,104.77,20.27,107.67,21Z" transform="translate(-3.54 -3.01)"/><path class="cls-14" d="M103.38,119.34a14.6,14.6,0,0,1,1.12,4.42c0,1.63-.63,2.08-.63,2.08a36.32,36.32,0,0,1-4.19,1c-.92,0-2.44,1.5-4.62,1.65s-5,.82-5.28-.91c-.19-1,2.5-2,5.67-4.18A17.26,17.26,0,0,0,99.07,120Z" transform="translate(-3.54 -3.01)"/><path class="cls-14" d="M113.58,123.45s.06,2-1.32,1.9a4.5,4.5,0,0,1-2.59-1.55l.35,5.51s.77,8.27,3.18,9.13c1.73.62,2.49-1.54,2.78-2.82a33.38,33.38,0,0,0-.21-4.11A46.6,46.6,0,0,0,113.58,123.45Z" transform="translate(-3.54 -3.01)"/><path class="cls-12" d="M109.22,95.28c-.64-5.66,1.63-21.18,2.09-22.78s.91-10.24.91-10.24L93.09,55.2l-2.4,2.36s.12,18.82-.33,21.78S99.07,120,99.07,120a2.51,2.51,0,0,0,2.5,1.58,1.76,1.76,0,0,0,1.81-2.19c-1.18-11,.69-11-3-27.93a13.91,13.91,0,0,1,.22-4s-.26-.33.65,5.59,8.42,30.8,8.42,30.8.52,2.33,2.24,2.58,1.84-1.61,1.84-1.61-1.38-9.62-2.17-18.87C111.14,100.71,109.54,98.15,109.22,95.28Z" transform="translate(-3.54 -3.01)"/><path class="cls-14" d="M87.71,78.53s1.37,10.34,12.74,10S116.65,82,116.65,82,112,61.08,112,59.71s-20.06-3.23-20.06-3.23l-2.27,4.27Z" transform="translate(-3.54 -3.01)"/><path class="cls-12" d="M103.39,119.65l-4.32.3a17.26,17.26,0,0,1-3.62,3.47c-.75.5-1.47.94-2.13,1.34a.61.61,0,0,0,0,.19c0,.48.65.67,1.13.7a17,17,0,0,0,6.87-1.5,3.46,3.46,0,0,0,1.54-.89,2.72,2.72,0,0,0,.53-1.57A12,12,0,0,0,103.39,119.65Z" transform="translate(-3.54 -3.01)"/><path class="cls-12" d="M110.73,127.82c.3,1.1.27,4.19,1.86,4.19,3.22,0,1.56-5.21,1.2-7-.17-.83-.33-2.39-1.13-2.66a2.64,2.64,0,0,0-2.07.51,2,2,0,0,0-.84.71c-.2.39,0,.77.13,1.17Z" transform="translate(-3.54 -3.01)"/><path class="cls-15" d="M104.63,29.67A16.33,16.33,0,0,0,94,27.88a5.6,5.6,0,0,0-4.39,3.88,65.84,65.84,0,0,0-1.07,6.63c-.12,4.27,2.27,9,2.27,9L89.67,60.75s9.67,6.69,19,2.6A8,8,0,0,0,112,59.71s-3.63-9.09-3.62-9.43l2.93-12.17c0-2.32-.13-3.93-2-5.29C109.3,32.82,106.12,30.63,104.63,29.67Z" transform="translate(-3.54 -3.01)"/><path class="cls-15" d="M95.63,27.54a6.71,6.71,0,0,0-6,2.76,13.93,13.93,0,0,0-1.34,2.35L90.33,44l.06,0c2.85-5.42,5.41-11.45,5.41-11.45Z" transform="translate(-3.54 -3.01)"/><path class="cls-12" d="M101.32,28.65s2.77.78,3,1.42-2.28,3-4,5.21c-2,2.64-4.3,6-4.3,6s-1.82-6.92-1.75-11.11S101.32,28.65,101.32,28.65Z" transform="translate(-3.54 -3.01)"/><path class="cls-12" d="M92.66,21.17l2.65,8h0a5,5,0,0,0,5.58.58l.85-.45-2.21-8.7Z" transform="translate(-3.54 -3.01)"/><path class="cls-12" d="M104,18.77A7.79,7.79,0,1,1,96.19,11,7.79,7.79,0,0,1,104,18.77Z" transform="translate(-3.54 -3.01)"/><path class="cls-12" d="M104.89,19.09c0,1.66-.71,3-1.59,3s-1.58-1.35-1.58-3,.71-3,1.58-3S104.89,17.42,104.89,19.09Z" transform="translate(-3.54 -3.01)"/><path class="cls-13" d="M96.19,11A7.77,7.77,0,0,0,89,15.93a11.29,11.29,0,0,0,5,1.11c.61,0,6.18-.76,5.93-1.74a14.14,14.14,0,0,0,1.38,3.45,2.64,2.64,0,0,1,2.09-2.51l.2,0A7.77,7.77,0,0,0,96.19,11Z" transform="translate(-3.54 -3.01)"/><path class="cls-13" d="M101.23,20.14a8.12,8.12,0,0,1,.3-2.88,3.72,3.72,0,0,0-.31-2.81c-.79-1.14-2.41-1.23-3.8-1.18a20.27,20.27,0,0,0-4.66.55c-.75.2-3.41,1-3.56,2s2.66,2.21,3.37,2.55A17.41,17.41,0,0,0,101.23,20.14Z" transform="translate(-3.54 -3.01)"/><path class="cls-12" d="M88.26,21.53a2.79,2.79,0,1,0,2.79-2.78A2.79,2.79,0,0,0,88.26,21.53Z" transform="translate(-3.54 -3.01)"/><path class="cls-12" d="M83.93,43.85s3.16-4.29,3.29-6.05,4.12-14.67,4.12-14.67l-2.1-.89S80.3,34.88,79.66,38.53a41.66,41.66,0,0,0-.34,5.07,10.8,10.8,0,0,0,1.53.41C81.18,44,83.93,43.85,83.93,43.85Z" transform="translate(-3.54 -3.01)"/><path class="cls-12" d="M93.57,22.24a2.79,2.79,0,1,0,2.78-2.78A2.79,2.79,0,0,0,93.57,22.24Z" transform="translate(-3.54 -3.01)"/><path class="cls-12" d="M102.46,43.56s-2.51-3.37-2.87-5.1-3.24-14-3.24-14l2-1.17s7.73,11.31,8.87,14.84a41.89,41.89,0,0,1,1,5,11.75,11.75,0,0,1-1.46.62C106.42,43.8,102.46,43.56,102.46,43.56Z" transform="translate(-3.54 -3.01)"/><path class="cls-12" d="M107.88,31.91s-1.8.3-2.57,3c-1.19,4.12-2.9,7.84-3,8.41-.19.82,4,4.18,4.68,3.86,2.88-1.36,3.93-7.14,4.17-8.12C112.67,32.81,107.88,31.91,107.88,31.91Z" transform="translate(-3.54 -3.01)"/><path class="cls-16" d="M74.09,19.73l3.6,1.33S98.18,42.45,99,44.35s-1.37,3.52-3.1,3.75S78.18,35.93,78.18,35.93Z" transform="translate(-3.54 -3.01)"/><path class="cls-17" d="M62.87,121.36l.44-5.84,5.74-3.32L67.56,122s12.22,7.57,11.89,9.47-3.42,1.18-5.83,1-5.72-2.8-6.73-2.86a39.43,39.43,0,0,1-4.38-.95,3.21,3.21,0,0,1-.95-2.47,16,16,0,0,1,1.23-4.88Z" transform="translate(-3.54 -3.01)"/><path class="cls-17" d="M48,126.36v0L49,120h4.66l-1.14,6.27-.38,6.09s-.86,9.13-3.52,10.08-3.1-2.79-3.24-4.09C44.9,133.45,48,126.36,48,126.36Z" transform="translate(-3.54 -3.01)"/><path class="cls-16" d="M53,58.31s.5,9.56,1,11.32-1,25.14-1,25.14S47.7,118.48,48,120s5.42,1.91,6.43.4,6.45-21.59,7.46-28.13,4-21.63,4-21.63.25,18.36.25,19.87-3.62,24.74-3.62,24.74A7.55,7.55,0,0,0,66,116.42a3.09,3.09,0,0,0,2.89-1.15,8.51,8.51,0,0,0,1.52-3.65s7.29-31.18,6.79-34.45,1-25.15,1-25.15l-4-1.5Z" transform="translate(-3.54 -3.01)"/><path class="cls-16" d="M62.61,21.22S71,18.53,74.39,19.38s4.57,3.14,4.85,4.28S78.1,52.48,78.1,52.48,63.26,64.75,57,61.61c-4.54-2.26-4.9-4.83-4.76-6.08a14.42,14.42,0,0,0,.14-2.27L51.56,28.8Z" transform="translate(-3.54 -3.01)"/><path class="cls-16" d="M65.07,21.21s-3.06.85-3.34,1.56,2,4,4.4,5.76a15.45,15.45,0,0,0,4,2.27,13.26,13.26,0,0,0,2.71-8C72.74,18.22,65.07,21.21,65.07,21.21Z" transform="translate(-3.54 -3.01)"/><path class="cls-8" d="M79.32,15A8.32,8.32,0,1,1,74.16,4.43,8.32,8.32,0,0,1,79.32,15Z" transform="translate(-3.54 -3.01)"/><path class="cls-8" d="M73.27,14.53l-2.84,8.56h0a5.32,5.32,0,0,1-6,.62h0a1.32,1.32,0,0,1-.66-1.48l2.12-8.31Z" transform="translate(-3.54 -3.01)"/><path class="cls-13" d="M78.48,12.66a2,2,0,0,0,1.24-.33l0,0A8.32,8.32,0,0,0,63.59,9.58a7.92,7.92,0,0,0-.29,1.06,2.87,2.87,0,0,0,1.08.33c.84.08,3.19-.74,2.46-1.68.48.62-1.42,3.41-.07,4.36.62-.25,2.47-4,2.59-4.68A12.34,12.34,0,0,0,78.48,12.66Z" transform="translate(-3.54 -3.01)"/><path class="cls-16" d="M97.35,52h0a4.15,4.15,0,0,1-4.14-4.14h0a4.16,4.16,0,0,1,4.14-4.14h0a4.15,4.15,0,0,1,4.14,4.14h0A4.15,4.15,0,0,1,97.35,52Z" transform="translate(-3.54 -3.01)"/><path class="cls-8" d="M66.86,11A2.53,2.53,0,1,1,65.3,7.78,2.52,2.52,0,0,1,66.86,11Z" transform="translate(-3.54 -3.01)"/><path class="cls-8" d="M103,48.65A3.08,3.08,0,1,1,100,45.57,3.07,3.07,0,0,1,103,48.65Z" transform="translate(-3.54 -3.01)"/><path class="cls-18" d="M78.07,53.7l-.25,4s-12.51,5.9-20.52,3.53c-4.65-1.37-4.68-4.62-4.54-5.81a7.16,7.16,0,0,1,.43-1.6s1.48,2.14,6.58,2.85C65.62,57.52,78.07,53.7,78.07,53.7Z" transform="translate(-3.54 -3.01)"/><path class="cls-18" d="M73.45,55.65l1.37-.4s-6.5-20.12-14-26.83c-.89-.8-3.51-3.65-4.44-2.89-.57.46-1.07.6-1.37.94a43.16,43.16,0,0,1,6.76,5.89C66.46,37.39,73.45,55.65,73.45,55.65Z" transform="translate(-3.54 -3.01)"/><path class="cls-19" d="M76.65,42,59.33,45.47l-3-15.09-1.27-.64L52.72,30.8l-.35,22.46a14.42,14.42,0,0,1-.14,2.27c-.12,1,.13,3,2.85,4.95,5.75-3,17.32-9.33,22-14.07C79.7,43.69,76.65,42,76.65,42Z" transform="translate(-3.54 -3.01)"/><path class="cls-16" d="M59.84,37.07s1.21-4.1-.79-5c0,0-6.33-5.25-7.49-3.32A34.44,34.44,0,0,0,47.16,39s-3,10.42-2.56,13.13,3.28,4.13,10,1.42,18.86-8.28,18.86-8.28l-.62-5.19L58.15,43.42Z" transform="translate(-3.54 -3.01)"/><path class="cls-8" d="M77.8,42.48a3.08,3.08,0,1,1-3.08-3.07A3.08,3.08,0,0,1,77.8,42.48Z" transform="translate(-3.54 -3.01)"/><path class="cls-8" d="M84.93,45.11l-2.21-3.39a.87.87,0,1,0-1.45,1l2.22,3.38a.86.86,0,0,0,1.44-.94Z" transform="translate(-3.54 -3.01)"/><polygon class="cls-16" points="65.26 19.56 63.99 22.65 59.83 23.21 57.4 19.36 60.38 15.97 61.11 15.77 61.01 16.71 65.26 19.56"/><polygon class="cls-20" points="65.79 23.65 63.78 23.05 65.26 19.56 65.79 23.65"/><circle class="cls-21" cx="62.92" cy="20.46" r="1.15"/><line class="cls-22" x1="72.33" y1="26.05" x2="68.58" y2="27.4"/><line class="cls-23" x1="72.33" y1="26.05" x2="71.09" y2="26.5"/><path class="cls-8" d="M80.92,41.24s2,.63,2.23,1.11l5.91,13.79.13,4.54s-2.53,4.2-4.64.36-4.1-17.86-4.1-17.86Z" transform="translate(-3.54 -3.01)"/><path class="cls-8" d="M79.52,42.27a2.52,2.52,0,1,0,1.26-3.33A2.52,2.52,0,0,0,79.52,42.27Z" transform="translate(-3.54 -3.01)"/><path class="cls-12" d="M91.93,83.29a2.52,2.52,0,1,0,3.25-1.46A2.53,2.53,0,0,0,91.93,83.29Z" transform="translate(-3.54 -3.01)"/><path class="cls-24" d="M97.31,137.42s-.15,3.26-.19,3.56-1.42,1-3.45.58-4.82-2.79-5.82-3.77,2.15-.77,4.08-.59,2.77.22,2.77.22Z" transform="translate(-3.54 -3.01)"/><path class="cls-8" d="M96.51,90.74s2.64,10.82,2.11,15-1.32,26.9-1.31,31.65c0,2.94-2.11,1.51-2.9,1s-4.21-29.19-4.21-36.7A13,13,0,0,1,96.51,90.74Z" transform="translate(-3.54 -3.01)"/><path class="cls-24" d="M85.26,141.44s-.15,3.26-.19,3.55-1.42,1-3.45.59-7.71-2.3-8.7-3.28,2.15-.77,4.07-.59a36.9,36.9,0,0,0,5.66-.27Z" transform="translate(-3.54 -3.01)"/><path class="cls-8" d="M101,80.82l-8.72,7.12s-5.13,17.63-5.66,21.84-1.32,26.91-1.31,31.66c0,2.94-2.11,1.51-2.9,1s-4.21-29.19-4.21-36.7,1.93-30.95,1.93-30.95l19.39-3.55Z" transform="translate(-3.54 -3.01)"/><path class="cls-25" d="M92.58,47.48s5-.45,7.36,2.55,0,6.56-.78,8.57a36.8,36.8,0,0,1-1.54,4.6c-1.05,2.37,1.32,6.18,1.85,8s-4.21,6.72-8.16,7S80,75.31,80,75.31a5.4,5.4,0,0,0,1.49-4.11c-.49-6.41-2.8-18.14.61-19.84A62.94,62.94,0,0,1,92.58,47.48Z" transform="translate(-3.54 -3.01)"/><path class="cls-25" d="M82.1,51.36c1.26-.64,2.7-1.43,4.13-2.25,1.18.46,2.11.88,2.11.88l.8,7.94s-.44,12.62-1.31,19.92A49.14,49.14,0,0,1,80,75.31a8.13,8.13,0,0,0,.56-5.16c-.62-3-3-6.91-3-10C77.53,54.83,79.87,52.47,82.1,51.36Z" transform="translate(-3.54 -3.01)"/><path class="cls-8" d="M91.94,38.52,93.12,47h0a5,5,0,0,1-4.81,3l-1,0-1.89-8.91Z" transform="translate(-3.54 -3.01)"/><path class="cls-15" d="M99.47,71.22l6,25.83S98.6,106.14,91,107.15s-16.36-3.69-16.36-3.69L80,75.31l5.36,1.9C89.45,78.66,94,75,97.57,72.54Z" transform="translate(-3.54 -3.01)"/><path class="cls-8" d="M76.43,40.67S78,42.07,78,42.6s-.25,15-.25,15L76,61.8s-4,2.79-4.37-1.58,3.57-18,3.57-18Z" transform="translate(-3.54 -3.01)"/><path class="cls-8" d="M74.72,41a2.52,2.52,0,1,0,2.52-2.52A2.51,2.51,0,0,0,74.72,41Z" transform="translate(-3.54 -3.01)"/><path class="cls-8" d="M89.14,56.36s-9.12,4.18-11,5.27c-2.19,1.3-5.13,1.23-5.67.32s-.6-2.7.59-3.41c.9-.54,8.69-7.21,8.69-7.21Z" transform="translate(-3.54 -3.01)"/><circle class="cls-8" cx="81.91" cy="36" r="7.9"/><path class="cls-25" d="M86.28,60c7.91.34,10-3.26,10-3.26a32.2,32.2,0,0,0-1.45-10L89,49.05s-2.52.84-3.87,1.18c0,0-5.55.51-7,2.63L75.7,55.61s-.5,5.69,4.47,5.57Z" transform="translate(-3.54 -3.01)"/><path class="cls-26" d="M80.57,41.1A1.64,1.64,0,0,1,82.4,39a2.13,2.13,0,0,1,1.39,1.89,6.3,6.3,0,0,1-.42,2.45,37.06,37.06,0,0,0,9,.7l1.32-6.08A8.21,8.21,0,0,0,94,35.15,9.86,9.86,0,0,0,89.66,29a10.4,10.4,0,0,0-8.33-.42c-2.21.7-4.2,3.24-4.9,5.48C75.51,37,78.75,39.09,80.57,41.1Z" transform="translate(-3.54 -3.01)"/><path class="cls-26" d="M98.28,46.2c.1,1.65-.73,3.34-.23,4.91a13.87,13.87,0,0,0,1.08,2,5.52,5.52,0,1,1-10.06,4.52A4.51,4.51,0,0,0,88.28,56a7.61,7.61,0,0,0-1.68-.93c-2.11-1.28-1.51-4.53-2.74-6.66-.46-.82-1.8-1.81-2-2.73-.32-1.54,1.58-2.33,1.78-3.75.33-2.26-1.3-3.43-1.76-5.48a4.16,4.16,0,0,1,4-5.32A8.65,8.65,0,0,1,93,35c1.1,1.63,1.43,3.67,2.37,5.4C96.38,42.28,98.13,43.94,98.28,46.2Z" transform="translate(-3.54 -3.01)"/></g></g></svg>